<?xml version="1.0" encoding="UTF-8" standalone="no"?>
<!-- Created with Inkscape (http://www.inkscape.org/) -->

<svg
   xmlns:dc="http://purl.org/dc/elements/1.1/"
   xmlns:cc="http://creativecommons.org/ns#"
   xmlns:rdf="http://www.w3.org/1999/02/22-rdf-syntax-ns#"
   xmlns:svg="http://www.w3.org/2000/svg"
   xmlns="http://www.w3.org/2000/svg"
   xmlns:sodipodi="http://sodipodi.sourceforge.net/DTD/sodipodi-0.dtd"
   xmlns:inkscape="http://www.inkscape.org/namespaces/inkscape"
   width="210mm"
   height="297mm"
   viewBox="0 0 210 297"
   version="1.1"
   id="svg8"
   inkscape:version="0.92.5 (2060ec1f9f, 2020-04-08)"
   sodipodi:docname="3boxesexcl.svg">
  <defs
     id="defs2" />
  <sodipodi:namedview
     id="base"
     pagecolor="#ffffff"
     bordercolor="#666666"
     borderopacity="1.0"
     inkscape:pageopacity="0.0"
     inkscape:pageshadow="2"
     inkscape:zoom="0.7"
     inkscape:cx="400.67955"
     inkscape:cy="925.91565"
     inkscape:document-units="mm"
     inkscape:current-layer="layer1"
     showgrid="false"
     inkscape:window-width="1208"
     inkscape:window-height="656"
     inkscape:window-x="72"
     inkscape:window-y="27"
     inkscape:window-maximized="1"
     inkscape:snap-global="false" />
  <metadata
     id="metadata5">
    <rdf:RDF>
      <cc:Work
         rdf:about="">
        <dc:format>image/svg+xml</dc:format>
        <dc:type
           rdf:resource="http://purl.org/dc/dcmitype/StillImage" />
        <dc:title></dc:title>
      </cc:Work>
    </rdf:RDF>
  </metadata>
  <g
     inkscape:label="Layer 1"
     inkscape:groupmode="layer"
     id="layer1">
    <path
       sodipodi:type="star"
       style="opacity:1;fill:none;fill-opacity:1;fill-rule:nonzero;stroke:#000000;stroke-width:1;stroke-linecap:square;stroke-linejoin:bevel;stroke-miterlimit:4;stroke-dasharray:none;stroke-dashoffset:0;stroke-opacity:1;paint-order:normal"
       id="path821"
       sodipodi:sides="3"
       sodipodi:cx="111.50297"
       sodipodi:cy="101.96428"
       sodipodi:r1="89.3592"
       sodipodi:r2="44.6796"
       sodipodi:arg1="0.52359878"
       sodipodi:arg2="1.5707963"
       inkscape:flatsided="false"
       inkscape:rounded="0"
       inkscape:randomized="0"
       d="m 188.8903,146.64388 -77.38733,0 -77.387339,0 38.693668,-67.0194 38.693671,-67.0194 38.69367,67.019398 z"
       inkscape:transform-center-y="-22.3398"
       inkscape:export-filename="/home/user/Downloads/figures/3boxesecl.png"
       inkscape:export-xdpi="96.279999"
       inkscape:export-ydpi="96.279999" />
    <path
       sodipodi:type="star"
       style="opacity:1;fill:none;fill-opacity:1;fill-rule:nonzero;stroke:#000000;stroke-width:1;stroke-linecap:square;stroke-linejoin:bevel;stroke-miterlimit:4;stroke-dasharray:none;stroke-dashoffset:0;stroke-opacity:1;paint-order:normal"
       id="path821-3"
       sodipodi:sides="3"
       sodipodi:cx="111.50297"
       sodipodi:cy="100.55019"
       sodipodi:r1="54.144733"
       sodipodi:r2="27.072367"
       sodipodi:arg1="0.52359878"
       sodipodi:arg2="1.5707963"
       inkscape:flatsided="false"
       inkscape:rounded="0"
       inkscape:randomized="0"
       d="m 158.39368,127.62256 -46.89071,0 -46.890717,0 23.445357,-40.608549 23.44536,-40.608551 23.44535,40.60855 z"
       inkscape:transform-center-y="-13.536185"
       inkscape:transform-center-x="2.0864746e-06"
       inkscape:export-filename="/home/user/Downloads/figures/3boxesecl.png"
       inkscape:export-xdpi="96.279999"
       inkscape:export-ydpi="96.279999" />
    <path
       style="fill:none;stroke:#000000;stroke-width:1;stroke-linecap:butt;stroke-linejoin:miter;stroke-opacity:1;stroke-miterlimit:4;stroke-dasharray:none"
       d="M 34.115631,146.64388 64.612252,127.62256"
       id="path838"
       inkscape:connector-curvature="0"
       inkscape:export-filename="/home/user/Downloads/figures/3boxesecl.png"
       inkscape:export-xdpi="96.279999"
       inkscape:export-ydpi="96.279999" />
    <path
       style="fill:none;stroke:#000000;stroke-width:1;stroke-linecap:butt;stroke-linejoin:miter;stroke-opacity:1;stroke-miterlimit:4;stroke-dasharray:none"
       d="M 111.50297,12.60508 V 46.405461"
       id="path840"
       inkscape:connector-curvature="0"
       inkscape:export-filename="/home/user/Downloads/figures/3boxesecl.png"
       inkscape:export-xdpi="96.279999"
       inkscape:export-ydpi="96.279999" />
    <path
       style="fill:none;stroke:#000000;stroke-width:1;stroke-linecap:butt;stroke-linejoin:miter;stroke-opacity:1;stroke-miterlimit:4;stroke-dasharray:none"
       d="m 158.39368,127.62256 30.49662,19.02132"
       id="path842"
       inkscape:connector-curvature="0"
       inkscape:export-filename="/home/user/Downloads/figures/3boxesecl.png"
       inkscape:export-xdpi="96.279999"
       inkscape:export-ydpi="96.279999" />
    <g
       id="g863"
       transform="translate(15.28997,-94.232326)"
       inkscape:export-filename="/home/user/Downloads/figures/3boxesecl.png"
       inkscape:export-xdpi="96.279999"
       inkscape:export-ydpi="96.279999">
      <g
         word-spacing="normal"
         letter-spacing="normal"
         font-size-adjust="none"
         font-stretch="normal"
         font-weight="normal"
         font-variant="normal"
         font-style="normal"
         stroke-miterlimit="10.433"
         xml:space="preserve"
         transform="matrix(0.3,0,0,-0.3,-52.5,222.75)"
         id="content"
         style="font-style:normal;font-variant:normal;font-weight:normal;font-stretch:normal;letter-spacing:normal;word-spacing:normal;text-anchor:start;fill:none;fill-opacity:1;fill-rule:evenodd;stroke:#000000;stroke-linecap:butt;stroke-linejoin:miter;stroke-miterlimit:10.43299961;stroke-dasharray:none;stroke-dashoffset:0;stroke-opacity:1"><path
           id="path852"
           d="m 465.44,422.04 v 0.04 0.03 0.03 0.04 0.03 0.02 0.03 0.03 l -0.01,0.03 v 0.02 0.03 0.02 0.02 l -0.01,0.03 v 0.02 0.02 l -0.01,0.02 v 0.01 l -0.01,0.04 -0.01,0.03 -0.02,0.03 -0.01,0.03 -0.02,0.02 -0.02,0.02 -0.02,0.02 -0.03,0.02 -0.02,0.01 -0.03,0.01 -0.03,0.01 -0.04,0.01 -0.04,0.01 -0.04,0.01 h -0.02 -0.02 -0.03 l -0.02,0.01 h -0.03 -0.02 -0.03 -0.03 -0.03 -0.03 -0.03 -0.03 -0.03 -0.04 -0.03 -0.04 -0.04 -0.03 C 462.77,421.2 460,421.2 459.5,421.2 h -0.42 v -1.09 h 0.42 c 0.58,0 2.19,0.06 3.64,0.68 v -12.45 c 0,-0.77 0,-1.05 -2.64,-1.05 h -1.25 v -1.09 c 1.38,0.09 3.6,0.09 5.04,0.09 1.45,0 3.67,0 5.03,-0.09 v 1.09 h -1.24 c -2.64,0 -2.64,0.28 -2.64,1.05 z"
           inkscape:connector-curvature="0"
           style="fill:#000000;stroke-width:0" /><path
           id="path854"
           d="m 487.41,414.17 v 0.18 l -0.01,0.21 v 0.24 l -0.01,0.25 -0.01,0.28 -0.02,0.3 -0.02,0.32 -0.04,0.32 -0.04,0.34 -0.05,0.35 -0.07,0.36 -0.08,0.37 -0.09,0.36 -0.11,0.37 -0.12,0.37 -0.15,0.36 -0.16,0.36 -0.18,0.36 -0.2,0.34 -0.23,0.33 -0.25,0.31 -0.28,0.3 -0.14,0.15 -0.16,0.14 -0.16,0.13 -0.17,0.13 -0.17,0.12 -0.18,0.12 -0.19,0.11 -0.2,0.1 -0.21,0.1 -0.21,0.09 -0.22,0.08 -0.23,0.08 -0.24,0.06 -0.24,0.06 -0.26,0.05 -0.26,0.05 -0.27,0.03 -0.28,0.02 -0.29,0.02 h -0.3 v -0.83 c 1.84,0 3.17,-0.93 3.65,-2.68 0.36,-1.27 0.36,-3.35 0.36,-4.82 0,-1.68 0,-3.7 -0.37,-5.2 -0.66,-2.42 -2.64,-2.78 -3.64,-2.78 v 0 c -0.93,0 -3.02,0.31 -3.64,2.83 -0.35,1.34 -0.38,3.12 -0.38,5.15 0,1.85 0,3.57 0.41,4.99 0.62,2.09 2.54,2.51 3.61,2.51 v 0.83 c -6.5,0 -6.5,-6.83 -6.5,-8.62 0,-1.81 0,-8.52 6.5,-8.52 6.5,0 6.5,6.71 6.5,8.52 z"
           inkscape:connector-curvature="0"
           style="fill:#000000;stroke-width:0" /><path
           id="path856"
           d="m 495.76,423.81 v 0.04 0.04 0.04 0.04 0.05 0.04 l -0.01,0.04 v 0.05 0.04 l -0.01,0.05 -0.01,0.04 -0.01,0.05 -0.01,0.04 -0.01,0.05 -0.01,0.04 -0.02,0.04 -0.01,0.04 -0.02,0.04 -0.03,0.04 -0.02,0.03 -0.03,0.04 -0.03,0.03 -0.03,0.03 -0.02,0.01 -0.01,0.02 -0.02,0.01 -0.02,0.01 -0.02,0.01 -0.03,0.01 -0.02,0.01 -0.02,0.01 -0.02,0.01 -0.03,0.01 h -0.02 l -0.03,0.01 -0.03,0.01 h -0.03 -0.03 l -0.03,0.01 h -0.03 -0.03 c -0.7,0 -0.7,-0.68 -0.7,-1.08 v -22.77 c 0,-0.4 0,-1.08 0.7,-1.08 0.7,0 0.7,0.68 0.7,1.08 z"
           inkscape:connector-curvature="0"
           style="fill:#000000;stroke-width:0" /><path
           id="path858"
           d="m 510.68,422.04 v 0.04 0.03 0.03 l -0.01,0.04 v 0.03 0.02 0.03 0.03 0.03 0.02 0.03 l -0.01,0.02 v 0.02 0.03 l -0.01,0.02 v 0.02 0.02 l -0.01,0.01 -0.01,0.04 -0.01,0.03 -0.01,0.03 -0.02,0.03 -0.02,0.02 -0.01,0.02 -0.03,0.02 -0.02,0.02 -0.03,0.01 -0.03,0.01 -0.03,0.01 -0.03,0.01 -0.04,0.01 -0.04,0.01 h -0.03 -0.02 -0.02 l -0.03,0.01 h -0.02 -0.03 -0.03 -0.02 -0.03 -0.03 -0.03 -0.04 -0.03 -0.03 -0.04 -0.03 -0.04 -0.04 c -1.77,-1.59 -4.53,-1.59 -5.03,-1.59 h -0.42 v -1.09 h 0.42 c 0.58,0 2.19,0.06 3.64,0.68 v -12.45 c 0,-0.77 0,-1.05 -2.64,-1.05 h -1.25 v -1.09 c 1.37,0.09 3.59,0.09 5.03,0.09 1.45,0 3.67,0 5.03,-0.09 v 1.09 h -1.23 c -2.64,0 -2.64,0.28 -2.64,1.05 z"
           inkscape:connector-curvature="0"
           style="fill:#000000;stroke-width:0" /><path
           id="path860"
           d="m 532.34,411.01 h -1.04 c -0.08,-0.48 -0.33,-2.01 -0.72,-2.26 -0.2,-0.16 -2.3,-0.16 -2.67,-0.16 h -4.88 c 1.64,1.22 3.49,2.61 4.99,3.61 2.23,1.55 4.32,3 4.32,5.64 0,3.19 -3.01,4.95 -6.57,4.95 -3.36,0 -5.83,-1.95 -5.83,-4.39 0,-1.29 1.09,-1.51 1.45,-1.51 0.67,0 1.47,0.45 1.47,1.47 0,0.89 -0.66,1.39 -1.42,1.46 0.68,1.13 2.14,1.88 3.81,1.88 2.41,0 4.42,-1.45 4.42,-3.89 0,-2.1 -1.44,-3.69 -3.36,-5.31 l -6.08,-5.16 c -0.25,-0.22 -0.26,-0.22 -0.29,-0.39 v -0.75 h 11.58 z"
           inkscape:connector-curvature="0"
           style="fill:#000000;stroke-width:0" /></g>    </g>
    <g
       id="g901"
       transform="translate(15.497024,-58.359525)"
       inkscape:export-filename="/home/user/Downloads/figures/3boxesecl.png"
       inkscape:export-xdpi="96.279999"
       inkscape:export-ydpi="96.279999">
      <g
         word-spacing="normal"
         letter-spacing="normal"
         font-size-adjust="none"
         font-stretch="normal"
         font-weight="normal"
         font-variant="normal"
         font-style="normal"
         stroke-miterlimit="10.433"
         xml:space="preserve"
         transform="matrix(0.3,0,0,-0.3,-52.5,222.75)"
         id="g899"
         style="font-style:normal;font-variant:normal;font-weight:normal;font-stretch:normal;letter-spacing:normal;word-spacing:normal;text-anchor:start;fill:none;fill-opacity:1;fill-rule:evenodd;stroke:#000000;stroke-linecap:butt;stroke-linejoin:miter;stroke-miterlimit:10.43299961;stroke-dasharray:none;stroke-dashoffset:0;stroke-opacity:1"><path
           id="path889"
           d="m 470.49,414.17 v 0.18 0.21 l -0.01,0.24 v 0.25 l -0.02,0.28 -0.01,0.3 -0.03,0.32 -0.03,0.32 -0.05,0.34 -0.05,0.35 -0.07,0.36 -0.07,0.37 -0.1,0.36 -0.11,0.37 -0.12,0.37 -0.14,0.36 -0.17,0.36 -0.18,0.36 -0.2,0.34 -0.23,0.33 -0.25,0.31 -0.27,0.3 -0.15,0.15 -0.16,0.14 -0.16,0.13 -0.16,0.13 -0.18,0.12 -0.18,0.12 -0.19,0.11 -0.2,0.1 -0.2,0.1 -0.22,0.09 -0.22,0.08 -0.23,0.08 -0.23,0.06 -0.25,0.06 -0.25,0.05 -0.27,0.05 -0.27,0.03 -0.28,0.02 -0.29,0.02 h -0.3 v -0.83 c 1.84,0 3.17,-0.93 3.65,-2.68 0.36,-1.27 0.36,-3.35 0.36,-4.82 0,-1.68 0,-3.7 -0.37,-5.2 -0.66,-2.42 -2.64,-2.78 -3.64,-2.78 v 0 c -0.92,0 -3.02,0.31 -3.64,2.83 -0.35,1.34 -0.38,3.12 -0.38,5.15 0,1.85 0,3.57 0.41,4.99 0.62,2.09 2.55,2.51 3.61,2.51 v 0.83 c -6.5,0 -6.5,-6.83 -6.5,-8.62 0,-1.81 0,-8.52 6.5,-8.52 6.5,0 6.5,6.71 6.5,8.52 z"
           inkscape:connector-curvature="0"
           style="fill:#000000;stroke-width:0" /><path
           id="path891"
           d="m 482.36,422.04 v 0.04 0.03 0.03 0.04 0.03 0.02 0.03 l -0.01,0.03 v 0.03 0.02 0.03 0.02 l -0.01,0.02 v 0.03 0.02 l -0.01,0.02 v 0.02 0.01 l -0.01,0.04 -0.02,0.03 -0.01,0.03 -0.01,0.03 -0.02,0.02 -0.02,0.02 -0.02,0.02 -0.03,0.02 -0.02,0.01 -0.03,0.01 -0.04,0.01 -0.03,0.01 -0.04,0.01 -0.04,0.01 h -0.02 -0.03 -0.02 l -0.02,0.01 h -0.03 -0.03 -0.02 -0.03 -0.03 -0.03 -0.03 -0.03 -0.04 -0.03 -0.04 -0.03 -0.04 -0.04 c -1.76,-1.59 -4.53,-1.59 -5.03,-1.59 H 476 v -1.09 h 0.42 c 0.58,0 2.19,0.06 3.64,0.68 v -12.45 c 0,-0.77 0,-1.05 -2.64,-1.05 h -1.25 v -1.09 c 1.38,0.09 3.6,0.09 5.03,0.09 1.46,0 3.68,0 5.03,-0.09 v 1.09 H 485 c -2.64,0 -2.64,0.28 -2.64,1.05 z"
           inkscape:connector-curvature="0"
           style="fill:#000000;stroke-width:0" /><path
           id="path893"
           d="m 495.76,423.81 v 0.04 0.04 0.04 0.04 0.05 0.04 l -0.01,0.04 v 0.05 0.04 l -0.01,0.05 -0.01,0.04 -0.01,0.05 -0.01,0.04 -0.01,0.05 -0.01,0.04 -0.02,0.04 -0.01,0.04 -0.02,0.04 -0.03,0.04 -0.02,0.03 -0.03,0.04 -0.03,0.03 -0.03,0.03 -0.02,0.01 -0.01,0.02 -0.02,0.01 -0.02,0.01 -0.02,0.01 -0.03,0.01 -0.02,0.01 -0.02,0.01 -0.02,0.01 -0.03,0.01 h -0.02 l -0.03,0.01 -0.03,0.01 h -0.03 -0.03 l -0.03,0.01 h -0.03 -0.03 c -0.7,0 -0.7,-0.68 -0.7,-1.08 v -22.77 c 0,-0.4 0,-1.08 0.7,-1.08 0.7,0 0.7,0.68 0.7,1.08 z"
           inkscape:connector-curvature="0"
           style="fill:#000000;stroke-width:0" /><path
           id="path895"
           d="m 510.68,422.04 v 0.04 0.03 0.03 l -0.01,0.04 v 0.03 0.02 0.03 0.03 0.03 0.02 0.03 l -0.01,0.02 v 0.02 0.03 l -0.01,0.02 v 0.02 0.02 l -0.01,0.01 -0.01,0.04 -0.01,0.03 -0.01,0.03 -0.02,0.03 -0.02,0.02 -0.01,0.02 -0.03,0.02 -0.02,0.02 -0.03,0.01 -0.03,0.01 -0.03,0.01 -0.03,0.01 -0.04,0.01 -0.04,0.01 h -0.03 -0.02 -0.02 l -0.03,0.01 h -0.02 -0.03 -0.03 -0.02 -0.03 -0.03 -0.03 -0.04 -0.03 -0.03 -0.04 -0.03 -0.04 -0.04 c -1.77,-1.59 -4.53,-1.59 -5.03,-1.59 h -0.42 v -1.09 h 0.42 c 0.58,0 2.19,0.06 3.64,0.68 v -12.45 c 0,-0.77 0,-1.05 -2.64,-1.05 h -1.25 v -1.09 c 1.37,0.09 3.59,0.09 5.03,0.09 1.45,0 3.67,0 5.03,-0.09 v 1.09 h -1.23 c -2.64,0 -2.64,0.28 -2.64,1.05 z"
           inkscape:connector-curvature="0"
           style="fill:#000000;stroke-width:0" /><path
           id="path897"
           d="m 532.34,411.01 h -1.04 c -0.08,-0.48 -0.33,-2.01 -0.72,-2.26 -0.2,-0.16 -2.3,-0.16 -2.67,-0.16 h -4.88 c 1.64,1.22 3.49,2.61 4.99,3.61 2.23,1.55 4.32,3 4.32,5.64 0,3.19 -3.01,4.95 -6.57,4.95 -3.36,0 -5.83,-1.95 -5.83,-4.39 0,-1.29 1.09,-1.51 1.45,-1.51 0.67,0 1.47,0.45 1.47,1.47 0,0.89 -0.66,1.39 -1.42,1.46 0.68,1.13 2.14,1.88 3.81,1.88 2.41,0 4.42,-1.45 4.42,-3.89 0,-2.1 -1.44,-3.69 -3.36,-5.31 l -6.08,-5.16 c -0.25,-0.22 -0.26,-0.22 -0.29,-0.39 v -0.75 h 11.58 z"
           inkscape:connector-curvature="0"
           style="fill:#000000;stroke-width:0" /></g>    </g>
    <g
       id="g946"
       transform="translate(101.90239,56.016072)"
       inkscape:export-filename="/home/user/Downloads/figures/3boxesecl.png"
       inkscape:export-xdpi="96.279999"
       inkscape:export-ydpi="96.279999">
      <g
         word-spacing="normal"
         letter-spacing="normal"
         font-size-adjust="none"
         font-stretch="normal"
         font-weight="normal"
         font-variant="normal"
         font-style="normal"
         stroke-miterlimit="10.433"
         xml:space="preserve"
         transform="matrix(0.3,0,0,-0.3,-52.5,222.75)"
         id="g944"
         style="font-style:normal;font-variant:normal;font-weight:normal;font-stretch:normal;letter-spacing:normal;word-spacing:normal;text-anchor:start;fill:none;fill-opacity:1;fill-rule:evenodd;stroke:#000000;stroke-linecap:butt;stroke-linejoin:miter;stroke-miterlimit:10.43299961;stroke-dasharray:none;stroke-dashoffset:0;stroke-opacity:1"><path
           id="path934"
           d="m 465.44,422.04 v 0.04 0.03 0.03 0.04 0.03 0.02 0.03 0.03 l -0.01,0.03 v 0.02 0.03 0.02 0.02 l -0.01,0.03 v 0.02 0.02 l -0.01,0.02 v 0.01 l -0.01,0.04 -0.01,0.03 -0.02,0.03 -0.01,0.03 -0.02,0.02 -0.02,0.02 -0.02,0.02 -0.03,0.02 -0.02,0.01 -0.03,0.01 -0.03,0.01 -0.04,0.01 -0.04,0.01 -0.04,0.01 h -0.02 -0.02 -0.03 l -0.02,0.01 h -0.03 -0.02 -0.03 -0.03 -0.03 -0.03 -0.03 -0.03 -0.03 -0.04 -0.03 -0.04 -0.04 -0.03 C 462.77,421.2 460,421.2 459.5,421.2 h -0.42 v -1.09 h 0.42 c 0.58,0 2.19,0.06 3.64,0.68 v -12.45 c 0,-0.77 0,-1.05 -2.64,-1.05 h -1.25 v -1.09 c 1.38,0.09 3.6,0.09 5.04,0.09 1.45,0 3.67,0 5.03,-0.09 v 1.09 h -1.24 c -2.64,0 -2.64,0.28 -2.64,1.05 z"
           inkscape:connector-curvature="0"
           style="fill:#000000;stroke-width:0" /><path
           id="path936"
           d="m 487.41,414.17 v 0.18 l -0.01,0.21 v 0.24 l -0.01,0.25 -0.01,0.28 -0.02,0.3 -0.02,0.32 -0.04,0.32 -0.04,0.34 -0.05,0.35 -0.07,0.36 -0.08,0.37 -0.09,0.36 -0.11,0.37 -0.12,0.37 -0.15,0.36 -0.16,0.36 -0.18,0.36 -0.2,0.34 -0.23,0.33 -0.25,0.31 -0.28,0.3 -0.14,0.15 -0.16,0.14 -0.16,0.13 -0.17,0.13 -0.17,0.12 -0.18,0.12 -0.19,0.11 -0.2,0.1 -0.21,0.1 -0.21,0.09 -0.22,0.08 -0.23,0.08 -0.24,0.06 -0.24,0.06 -0.26,0.05 -0.26,0.05 -0.27,0.03 -0.28,0.02 -0.29,0.02 h -0.3 v -0.83 c 1.84,0 3.17,-0.93 3.65,-2.68 0.36,-1.27 0.36,-3.35 0.36,-4.82 0,-1.68 0,-3.7 -0.37,-5.2 -0.66,-2.42 -2.64,-2.78 -3.64,-2.78 v 0 c -0.93,0 -3.02,0.31 -3.64,2.83 -0.35,1.34 -0.38,3.12 -0.38,5.15 0,1.85 0,3.57 0.41,4.99 0.62,2.09 2.54,2.51 3.61,2.51 v 0.83 c -6.5,0 -6.5,-6.83 -6.5,-8.62 0,-1.81 0,-8.52 6.5,-8.52 6.5,0 6.5,6.71 6.5,8.52 z"
           inkscape:connector-curvature="0"
           style="fill:#000000;stroke-width:0" /><path
           id="path938"
           d="m 495.76,423.81 v 0.04 0.04 0.04 0.04 0.05 0.04 l -0.01,0.04 v 0.05 0.04 l -0.01,0.05 -0.01,0.04 -0.01,0.05 -0.01,0.04 -0.01,0.05 -0.01,0.04 -0.02,0.04 -0.01,0.04 -0.02,0.04 -0.03,0.04 -0.02,0.03 -0.03,0.04 -0.03,0.03 -0.03,0.03 -0.02,0.01 -0.01,0.02 -0.02,0.01 -0.02,0.01 -0.02,0.01 -0.03,0.01 -0.02,0.01 -0.02,0.01 -0.02,0.01 -0.03,0.01 h -0.02 l -0.03,0.01 -0.03,0.01 h -0.03 -0.03 l -0.03,0.01 h -0.03 -0.03 c -0.7,0 -0.7,-0.68 -0.7,-1.08 v -22.77 c 0,-0.4 0,-1.08 0.7,-1.08 0.7,0 0.7,0.68 0.7,1.08 z"
           inkscape:connector-curvature="0"
           style="fill:#000000;stroke-width:0" /><path
           id="path940"
           d="m 515.43,411.01 h -1.05 c -0.08,-0.48 -0.33,-2.01 -0.72,-2.26 -0.2,-0.16 -2.3,-0.16 -2.67,-0.16 h -4.88 c 1.64,1.22 3.49,2.61 4.99,3.61 2.23,1.55 4.33,3 4.33,5.64 0,3.19 -3.02,4.95 -6.58,4.95 -3.36,0 -5.83,-1.95 -5.83,-4.39 0,-1.29 1.09,-1.51 1.45,-1.51 0.67,0 1.47,0.45 1.47,1.47 0,0.89 -0.65,1.39 -1.42,1.46 0.69,1.13 2.14,1.88 3.81,1.88 2.41,0 4.42,-1.45 4.42,-3.89 0,-2.1 -1.43,-3.69 -3.36,-5.31 l -6.07,-5.16 c -0.25,-0.22 -0.27,-0.22 -0.3,-0.39 v -0.75 h 11.58 z"
           inkscape:connector-curvature="0"
           style="fill:#000000;stroke-width:0" /><path
           id="path942"
           d="m 525.89,414.45 0.21,-0.01 0.21,-0.01 0.21,-0.02 0.19,-0.03 0.2,-0.03 0.19,-0.05 0.18,-0.05 0.18,-0.06 0.17,-0.07 0.16,-0.08 0.16,-0.08 0.16,-0.09 0.14,-0.1 0.15,-0.11 0.13,-0.11 0.13,-0.12 0.12,-0.13 0.11,-0.13 0.11,-0.15 0.1,-0.15 0.1,-0.15 0.08,-0.17 0.08,-0.17 0.07,-0.17 0.06,-0.19 0.06,-0.19 0.04,-0.19 0.04,-0.21 0.03,-0.2 0.03,-0.22 0.01,-0.22 v -0.23 c 0,-2.55 -1.56,-3.89 -3.78,-3.89 -0.28,0 -3.25,0 -4.51,1.29 1.03,0.16 1.32,0.93 1.32,1.52 0,0.92 -0.7,1.53 -1.53,1.53 -0.79,0 -1.53,-0.53 -1.53,-1.58 0,-2.59 2.94,-3.78 6.31,-3.78 4.1,0 6.64,2.47 6.64,4.88 0,2.04 -1.82,3.79 -4.67,4.43 3,0.97 3.8,2.88 3.8,4.27 0,2.05 -2.55,3.56 -5.69,3.56 -3.06,0 -5.53,-1.29 -5.53,-3.54 0,-1.18 0.95,-1.47 1.42,-1.47 0.72,0 1.43,0.53 1.43,1.42 0,0.58 -0.3,1.28 -1.19,1.42 1.06,1.14 3.28,1.22 3.79,1.22 1.83,0 3.13,-0.92 3.13,-2.61 0,-1.45 -0.95,-3.72 -3.56,-3.86 -0.71,-0.03 -0.8,-0.05 -1.46,-0.08 -0.26,-0.03 -0.54,-0.04 -0.54,-0.42 0,-0.42 0.25,-0.42 0.7,-0.42 z"
           inkscape:connector-curvature="0"
           style="fill:#000000;stroke-width:0" /></g>    </g>
    <g
       id="g998"
       transform="translate(43.920833,23.434524)"
       inkscape:export-filename="/home/user/Downloads/figures/3boxesecl.png"
       inkscape:export-xdpi="96.279999"
       inkscape:export-ydpi="96.279999">
      <g
         word-spacing="normal"
         letter-spacing="normal"
         font-size-adjust="none"
         font-stretch="normal"
         font-weight="normal"
         font-variant="normal"
         font-style="normal"
         stroke-miterlimit="10.433"
         xml:space="preserve"
         transform="matrix(0.3,0,0,-0.3,-52.5,222.75)"
         id="g996"
         style="font-style:normal;font-variant:normal;font-weight:normal;font-stretch:normal;letter-spacing:normal;word-spacing:normal;text-anchor:start;fill:none;fill-opacity:1;fill-rule:evenodd;stroke:#000000;stroke-linecap:butt;stroke-linejoin:miter;stroke-miterlimit:10.43299961;stroke-dasharray:none;stroke-dashoffset:0;stroke-opacity:1"><path
           id="path986"
           d="m 470.49,414.17 v 0.18 0.21 l -0.01,0.24 v 0.25 l -0.02,0.28 -0.01,0.3 -0.03,0.32 -0.03,0.32 -0.05,0.34 -0.05,0.35 -0.07,0.36 -0.07,0.37 -0.1,0.36 -0.11,0.37 -0.12,0.37 -0.14,0.36 -0.17,0.36 -0.18,0.36 -0.2,0.34 -0.23,0.33 -0.25,0.31 -0.27,0.3 -0.15,0.15 -0.16,0.14 -0.16,0.13 -0.16,0.13 -0.18,0.12 -0.18,0.12 -0.19,0.11 -0.2,0.1 -0.2,0.1 -0.22,0.09 -0.22,0.08 -0.23,0.08 -0.23,0.06 -0.25,0.06 -0.25,0.05 -0.27,0.05 -0.27,0.03 -0.28,0.02 -0.29,0.02 h -0.3 v -0.83 c 1.84,0 3.17,-0.93 3.65,-2.68 0.36,-1.27 0.36,-3.35 0.36,-4.82 0,-1.68 0,-3.7 -0.37,-5.2 -0.66,-2.42 -2.64,-2.78 -3.64,-2.78 v 0 c -0.92,0 -3.02,0.31 -3.64,2.83 -0.35,1.34 -0.38,3.12 -0.38,5.15 0,1.85 0,3.57 0.41,4.99 0.62,2.09 2.55,2.51 3.61,2.51 v 0.83 c -6.5,0 -6.5,-6.83 -6.5,-8.62 0,-1.81 0,-8.52 6.5,-8.52 6.5,0 6.5,6.71 6.5,8.52 z"
           inkscape:connector-curvature="0"
           style="fill:#000000;stroke-width:0" /><path
           id="path988"
           d="m 482.36,422.04 v 0.04 0.03 0.03 0.04 0.03 0.02 0.03 l -0.01,0.03 v 0.03 0.02 0.03 0.02 l -0.01,0.02 v 0.03 0.02 l -0.01,0.02 v 0.02 0.01 l -0.01,0.04 -0.02,0.03 -0.01,0.03 -0.01,0.03 -0.02,0.02 -0.02,0.02 -0.02,0.02 -0.03,0.02 -0.02,0.01 -0.03,0.01 -0.04,0.01 -0.03,0.01 -0.04,0.01 -0.04,0.01 h -0.02 -0.03 -0.02 l -0.02,0.01 h -0.03 -0.03 -0.02 -0.03 -0.03 -0.03 -0.03 -0.03 -0.04 -0.03 -0.04 -0.03 -0.04 -0.04 c -1.76,-1.59 -4.53,-1.59 -5.03,-1.59 H 476 v -1.09 h 0.42 c 0.58,0 2.19,0.06 3.64,0.68 v -12.45 c 0,-0.77 0,-1.05 -2.64,-1.05 h -1.25 v -1.09 c 1.38,0.09 3.6,0.09 5.03,0.09 1.46,0 3.68,0 5.03,-0.09 v 1.09 H 485 c -2.64,0 -2.64,0.28 -2.64,1.05 z"
           inkscape:connector-curvature="0"
           style="fill:#000000;stroke-width:0" /><path
           id="path990"
           d="m 495.76,423.81 v 0.04 0.04 0.04 0.04 0.05 0.04 l -0.01,0.04 v 0.05 0.04 l -0.01,0.05 -0.01,0.04 -0.01,0.05 -0.01,0.04 -0.01,0.05 -0.01,0.04 -0.02,0.04 -0.01,0.04 -0.02,0.04 -0.03,0.04 -0.02,0.03 -0.03,0.04 -0.03,0.03 -0.03,0.03 -0.02,0.01 -0.01,0.02 -0.02,0.01 -0.02,0.01 -0.02,0.01 -0.03,0.01 -0.02,0.01 -0.02,0.01 -0.02,0.01 -0.03,0.01 h -0.02 l -0.03,0.01 -0.03,0.01 h -0.03 -0.03 l -0.03,0.01 h -0.03 -0.03 c -0.7,0 -0.7,-0.68 -0.7,-1.08 v -22.77 c 0,-0.4 0,-1.08 0.7,-1.08 0.7,0 0.7,0.68 0.7,1.08 z"
           inkscape:connector-curvature="0"
           style="fill:#000000;stroke-width:0" /><path
           id="path992"
           d="m 515.43,411.01 h -1.05 c -0.08,-0.48 -0.33,-2.01 -0.72,-2.26 -0.2,-0.16 -2.3,-0.16 -2.67,-0.16 h -4.88 c 1.64,1.22 3.49,2.61 4.99,3.61 2.23,1.55 4.33,3 4.33,5.64 0,3.19 -3.02,4.95 -6.58,4.95 -3.36,0 -5.83,-1.95 -5.83,-4.39 0,-1.29 1.09,-1.51 1.45,-1.51 0.67,0 1.47,0.45 1.47,1.47 0,0.89 -0.65,1.39 -1.42,1.46 0.69,1.13 2.14,1.88 3.81,1.88 2.41,0 4.42,-1.45 4.42,-3.89 0,-2.1 -1.43,-3.69 -3.36,-5.31 l -6.07,-5.16 c -0.25,-0.22 -0.27,-0.22 -0.3,-0.39 v -0.75 h 11.58 z"
           inkscape:connector-curvature="0"
           style="fill:#000000;stroke-width:0" /><path
           id="path994"
           d="m 525.89,414.45 0.21,-0.01 0.21,-0.01 0.21,-0.02 0.19,-0.03 0.2,-0.03 0.19,-0.05 0.18,-0.05 0.18,-0.06 0.17,-0.07 0.16,-0.08 0.16,-0.08 0.16,-0.09 0.14,-0.1 0.15,-0.11 0.13,-0.11 0.13,-0.12 0.12,-0.13 0.11,-0.13 0.11,-0.15 0.1,-0.15 0.1,-0.15 0.08,-0.17 0.08,-0.17 0.07,-0.17 0.06,-0.19 0.06,-0.19 0.04,-0.19 0.04,-0.21 0.03,-0.2 0.03,-0.22 0.01,-0.22 v -0.23 c 0,-2.55 -1.56,-3.89 -3.78,-3.89 -0.28,0 -3.25,0 -4.51,1.29 1.03,0.16 1.32,0.93 1.32,1.52 0,0.92 -0.7,1.53 -1.53,1.53 -0.79,0 -1.53,-0.53 -1.53,-1.58 0,-2.59 2.94,-3.78 6.31,-3.78 4.1,0 6.64,2.47 6.64,4.88 0,2.04 -1.82,3.79 -4.67,4.43 3,0.97 3.8,2.88 3.8,4.27 0,2.05 -2.55,3.56 -5.69,3.56 -3.06,0 -5.53,-1.29 -5.53,-3.54 0,-1.18 0.95,-1.47 1.42,-1.47 0.72,0 1.43,0.53 1.43,1.42 0,0.58 -0.3,1.28 -1.19,1.42 1.06,1.14 3.28,1.22 3.79,1.22 1.83,0 3.13,-0.92 3.13,-2.61 0,-1.45 -0.95,-3.72 -3.56,-3.86 -0.71,-0.03 -0.8,-0.05 -1.46,-0.08 -0.26,-0.03 -0.54,-0.04 -0.54,-0.42 0,-0.42 0.25,-0.42 0.7,-0.42 z"
           inkscape:connector-curvature="0"
           style="fill:#000000;stroke-width:0" /></g>    </g>
    <g
       id="g1057"
       transform="translate(-70.379168,56.016072)"
       inkscape:export-filename="/home/user/Downloads/figures/3boxesecl.png"
       inkscape:export-xdpi="96.279999"
       inkscape:export-ydpi="96.279999">
      <g
         word-spacing="normal"
         letter-spacing="normal"
         font-size-adjust="none"
         font-stretch="normal"
         font-weight="normal"
         font-variant="normal"
         font-style="normal"
         stroke-miterlimit="10.433"
         xml:space="preserve"
         transform="matrix(0.3,0,0,-0.3,-52.5,222.75)"
         id="g1055"
         style="font-style:normal;font-variant:normal;font-weight:normal;font-stretch:normal;letter-spacing:normal;word-spacing:normal;text-anchor:start;fill:none;fill-opacity:1;fill-rule:evenodd;stroke:#000000;stroke-linecap:butt;stroke-linejoin:miter;stroke-miterlimit:10.43299961;stroke-dasharray:none;stroke-dashoffset:0;stroke-opacity:1"><path
           id="path1045"
           d="m 470.49,414.17 v 0.18 0.21 l -0.01,0.24 v 0.25 l -0.02,0.28 -0.01,0.3 -0.03,0.32 -0.03,0.32 -0.05,0.34 -0.05,0.35 -0.07,0.36 -0.07,0.37 -0.1,0.36 -0.11,0.37 -0.12,0.37 -0.14,0.36 -0.17,0.36 -0.18,0.36 -0.2,0.34 -0.23,0.33 -0.25,0.31 -0.27,0.3 -0.15,0.15 -0.16,0.14 -0.16,0.13 -0.16,0.13 -0.18,0.12 -0.18,0.12 -0.19,0.11 -0.2,0.1 -0.2,0.1 -0.22,0.09 -0.22,0.08 -0.23,0.08 -0.23,0.06 -0.25,0.06 -0.25,0.05 -0.27,0.05 -0.27,0.03 -0.28,0.02 -0.29,0.02 h -0.3 v -0.83 c 1.84,0 3.17,-0.93 3.65,-2.68 0.36,-1.27 0.36,-3.35 0.36,-4.82 0,-1.68 0,-3.7 -0.37,-5.2 -0.66,-2.42 -2.64,-2.78 -3.64,-2.78 v 0 c -0.92,0 -3.02,0.31 -3.64,2.83 -0.35,1.34 -0.38,3.12 -0.38,5.15 0,1.85 0,3.57 0.41,4.99 0.62,2.09 2.55,2.51 3.61,2.51 v 0.83 c -6.5,0 -6.5,-6.83 -6.5,-8.62 0,-1.81 0,-8.52 6.5,-8.52 6.5,0 6.5,6.71 6.5,8.52 z"
           inkscape:connector-curvature="0"
           style="fill:#000000;stroke-width:0" /><path
           id="path1047"
           d="m 482.36,422.04 v 0.04 0.03 0.03 0.04 0.03 0.02 0.03 l -0.01,0.03 v 0.03 0.02 0.03 0.02 l -0.01,0.02 v 0.03 0.02 l -0.01,0.02 v 0.02 0.01 l -0.01,0.04 -0.02,0.03 -0.01,0.03 -0.01,0.03 -0.02,0.02 -0.02,0.02 -0.02,0.02 -0.03,0.02 -0.02,0.01 -0.03,0.01 -0.04,0.01 -0.03,0.01 -0.04,0.01 -0.04,0.01 h -0.02 -0.03 -0.02 l -0.02,0.01 h -0.03 -0.03 -0.02 -0.03 -0.03 -0.03 -0.03 -0.03 -0.04 -0.03 -0.04 -0.03 -0.04 -0.04 c -1.76,-1.59 -4.53,-1.59 -5.03,-1.59 H 476 v -1.09 h 0.42 c 0.58,0 2.19,0.06 3.64,0.68 v -12.45 c 0,-0.77 0,-1.05 -2.64,-1.05 h -1.25 v -1.09 c 1.38,0.09 3.6,0.09 5.03,0.09 1.46,0 3.68,0 5.03,-0.09 v 1.09 H 485 c -2.64,0 -2.64,0.28 -2.64,1.05 z"
           inkscape:connector-curvature="0"
           style="fill:#000000;stroke-width:0" /><path
           id="path1049"
           d="m 495.76,423.81 v 0.04 0.04 0.04 0.04 0.05 0.04 l -0.01,0.04 v 0.05 0.04 l -0.01,0.05 -0.01,0.04 -0.01,0.05 -0.01,0.04 -0.01,0.05 -0.01,0.04 -0.02,0.04 -0.01,0.04 -0.02,0.04 -0.03,0.04 -0.02,0.03 -0.03,0.04 -0.03,0.03 -0.03,0.03 -0.02,0.01 -0.01,0.02 -0.02,0.01 -0.02,0.01 -0.02,0.01 -0.03,0.01 -0.02,0.01 -0.02,0.01 -0.02,0.01 -0.03,0.01 h -0.02 l -0.03,0.01 -0.03,0.01 h -0.03 -0.03 l -0.03,0.01 h -0.03 -0.03 c -0.7,0 -0.7,-0.68 -0.7,-1.08 v -22.77 c 0,-0.4 0,-1.08 0.7,-1.08 0.7,0 0.7,0.68 0.7,1.08 z"
           inkscape:connector-curvature="0"
           style="fill:#000000;stroke-width:0" /><path
           id="path1051"
           d="m 510.68,422.04 v 0.04 0.03 0.03 l -0.01,0.04 v 0.03 0.02 0.03 0.03 0.03 0.02 0.03 l -0.01,0.02 v 0.02 0.03 l -0.01,0.02 v 0.02 0.02 l -0.01,0.01 -0.01,0.04 -0.01,0.03 -0.01,0.03 -0.02,0.03 -0.02,0.02 -0.01,0.02 -0.03,0.02 -0.02,0.02 -0.03,0.01 -0.03,0.01 -0.03,0.01 -0.03,0.01 -0.04,0.01 -0.04,0.01 h -0.03 -0.02 -0.02 l -0.03,0.01 h -0.02 -0.03 -0.03 -0.02 -0.03 -0.03 -0.03 -0.04 -0.03 -0.03 -0.04 -0.03 -0.04 -0.04 c -1.77,-1.59 -4.53,-1.59 -5.03,-1.59 h -0.42 v -1.09 h 0.42 c 0.58,0 2.19,0.06 3.64,0.68 v -12.45 c 0,-0.77 0,-1.05 -2.64,-1.05 h -1.25 v -1.09 c 1.37,0.09 3.59,0.09 5.03,0.09 1.45,0 3.67,0 5.03,-0.09 v 1.09 h -1.23 c -2.64,0 -2.64,0.28 -2.64,1.05 z"
           inkscape:connector-curvature="0"
           style="fill:#000000;stroke-width:0" /><path
           id="path1053"
           d="m 525.89,414.45 0.21,-0.01 0.21,-0.01 0.21,-0.02 0.19,-0.03 0.2,-0.03 0.19,-0.05 0.18,-0.05 0.18,-0.06 0.17,-0.07 0.16,-0.08 0.16,-0.08 0.16,-0.09 0.14,-0.1 0.15,-0.11 0.13,-0.11 0.13,-0.12 0.12,-0.13 0.11,-0.13 0.11,-0.15 0.1,-0.15 0.1,-0.15 0.08,-0.17 0.08,-0.17 0.07,-0.17 0.06,-0.19 0.06,-0.19 0.04,-0.19 0.04,-0.21 0.03,-0.2 0.03,-0.22 0.01,-0.22 v -0.23 c 0,-2.55 -1.56,-3.89 -3.78,-3.89 -0.28,0 -3.25,0 -4.51,1.29 1.03,0.16 1.32,0.93 1.32,1.52 0,0.92 -0.7,1.53 -1.53,1.53 -0.79,0 -1.53,-0.53 -1.53,-1.58 0,-2.59 2.94,-3.78 6.31,-3.78 4.1,0 6.64,2.47 6.64,4.88 0,2.04 -1.82,3.79 -4.67,4.43 3,0.97 3.8,2.88 3.8,4.27 0,2.05 -2.55,3.56 -5.69,3.56 -3.06,0 -5.53,-1.29 -5.53,-3.54 0,-1.18 0.95,-1.47 1.42,-1.47 0.72,0 1.43,0.53 1.43,1.42 0,0.58 -0.3,1.28 -1.19,1.42 1.06,1.14 3.28,1.22 3.79,1.22 1.83,0 3.13,-0.92 3.13,-2.61 0,-1.45 -0.95,-3.72 -3.56,-3.86 -0.71,-0.03 -0.8,-0.05 -1.46,-0.08 -0.26,-0.03 -0.54,-0.04 -0.54,-0.42 0,-0.42 0.25,-0.42 0.7,-0.42 z"
           inkscape:connector-curvature="0"
           style="fill:#000000;stroke-width:0" /></g>    </g>
    <g
       id="g1123"
       transform="translate(-12.926785,23.434524)"
       inkscape:export-filename="/home/user/Downloads/figures/3boxesecl.png"
       inkscape:export-xdpi="96.279999"
       inkscape:export-ydpi="96.279999">
      <g
         word-spacing="normal"
         letter-spacing="normal"
         font-size-adjust="none"
         font-stretch="normal"
         font-weight="normal"
         font-variant="normal"
         font-style="normal"
         stroke-miterlimit="10.433"
         xml:space="preserve"
         transform="matrix(0.3,0,0,-0.3,-52.5,222.75)"
         id="g1121"
         style="font-style:normal;font-variant:normal;font-weight:normal;font-stretch:normal;letter-spacing:normal;word-spacing:normal;text-anchor:start;fill:none;fill-opacity:1;fill-rule:evenodd;stroke:#000000;stroke-linecap:butt;stroke-linejoin:miter;stroke-miterlimit:10.43299961;stroke-dasharray:none;stroke-dashoffset:0;stroke-opacity:1"><path
           id="path1111"
           d="m 465.44,422.04 v 0.04 0.03 0.03 0.04 0.03 0.02 0.03 0.03 l -0.01,0.03 v 0.02 0.03 0.02 0.02 l -0.01,0.03 v 0.02 0.02 l -0.01,0.02 v 0.01 l -0.01,0.04 -0.01,0.03 -0.02,0.03 -0.01,0.03 -0.02,0.02 -0.02,0.02 -0.02,0.02 -0.03,0.02 -0.02,0.01 -0.03,0.01 -0.03,0.01 -0.04,0.01 -0.04,0.01 -0.04,0.01 h -0.02 -0.02 -0.03 l -0.02,0.01 h -0.03 -0.02 -0.03 -0.03 -0.03 -0.03 -0.03 -0.03 -0.03 -0.04 -0.03 -0.04 -0.04 -0.03 C 462.77,421.2 460,421.2 459.5,421.2 h -0.42 v -1.09 h 0.42 c 0.58,0 2.19,0.06 3.64,0.68 v -12.45 c 0,-0.77 0,-1.05 -2.64,-1.05 h -1.25 v -1.09 c 1.38,0.09 3.6,0.09 5.04,0.09 1.45,0 3.67,0 5.03,-0.09 v 1.09 h -1.24 c -2.64,0 -2.64,0.28 -2.64,1.05 z"
           inkscape:connector-curvature="0"
           style="fill:#000000;stroke-width:0" /><path
           id="path1113"
           d="m 487.41,414.17 v 0.18 l -0.01,0.21 v 0.24 l -0.01,0.25 -0.01,0.28 -0.02,0.3 -0.02,0.32 -0.04,0.32 -0.04,0.34 -0.05,0.35 -0.07,0.36 -0.08,0.37 -0.09,0.36 -0.11,0.37 -0.12,0.37 -0.15,0.36 -0.16,0.36 -0.18,0.36 -0.2,0.34 -0.23,0.33 -0.25,0.31 -0.28,0.3 -0.14,0.15 -0.16,0.14 -0.16,0.13 -0.17,0.13 -0.17,0.12 -0.18,0.12 -0.19,0.11 -0.2,0.1 -0.21,0.1 -0.21,0.09 -0.22,0.08 -0.23,0.08 -0.24,0.06 -0.24,0.06 -0.26,0.05 -0.26,0.05 -0.27,0.03 -0.28,0.02 -0.29,0.02 h -0.3 v -0.83 c 1.84,0 3.17,-0.93 3.65,-2.68 0.36,-1.27 0.36,-3.35 0.36,-4.82 0,-1.68 0,-3.7 -0.37,-5.2 -0.66,-2.42 -2.64,-2.78 -3.64,-2.78 v 0 c -0.93,0 -3.02,0.31 -3.64,2.83 -0.35,1.34 -0.38,3.12 -0.38,5.15 0,1.85 0,3.57 0.41,4.99 0.62,2.09 2.54,2.51 3.61,2.51 v 0.83 c -6.5,0 -6.5,-6.83 -6.5,-8.62 0,-1.81 0,-8.52 6.5,-8.52 6.5,0 6.5,6.71 6.5,8.52 z"
           inkscape:connector-curvature="0"
           style="fill:#000000;stroke-width:0" /><path
           id="path1115"
           d="m 495.76,423.81 v 0.04 0.04 0.04 0.04 0.05 0.04 l -0.01,0.04 v 0.05 0.04 l -0.01,0.05 -0.01,0.04 -0.01,0.05 -0.01,0.04 -0.01,0.05 -0.01,0.04 -0.02,0.04 -0.01,0.04 -0.02,0.04 -0.03,0.04 -0.02,0.03 -0.03,0.04 -0.03,0.03 -0.03,0.03 -0.02,0.01 -0.01,0.02 -0.02,0.01 -0.02,0.01 -0.02,0.01 -0.03,0.01 -0.02,0.01 -0.02,0.01 -0.02,0.01 -0.03,0.01 h -0.02 l -0.03,0.01 -0.03,0.01 h -0.03 -0.03 l -0.03,0.01 h -0.03 -0.03 c -0.7,0 -0.7,-0.68 -0.7,-1.08 v -22.77 c 0,-0.4 0,-1.08 0.7,-1.08 0.7,0 0.7,0.68 0.7,1.08 z"
           inkscape:connector-curvature="0"
           style="fill:#000000;stroke-width:0" /><path
           id="path1117"
           d="m 510.68,422.04 v 0.04 0.03 0.03 l -0.01,0.04 v 0.03 0.02 0.03 0.03 0.03 0.02 0.03 l -0.01,0.02 v 0.02 0.03 l -0.01,0.02 v 0.02 0.02 l -0.01,0.01 -0.01,0.04 -0.01,0.03 -0.01,0.03 -0.02,0.03 -0.02,0.02 -0.01,0.02 -0.03,0.02 -0.02,0.02 -0.03,0.01 -0.03,0.01 -0.03,0.01 -0.03,0.01 -0.04,0.01 -0.04,0.01 h -0.03 -0.02 -0.02 l -0.03,0.01 h -0.02 -0.03 -0.03 -0.02 -0.03 -0.03 -0.03 -0.04 -0.03 -0.03 -0.04 -0.03 -0.04 -0.04 c -1.77,-1.59 -4.53,-1.59 -5.03,-1.59 h -0.42 v -1.09 h 0.42 c 0.58,0 2.19,0.06 3.64,0.68 v -12.45 c 0,-0.77 0,-1.05 -2.64,-1.05 h -1.25 v -1.09 c 1.37,0.09 3.59,0.09 5.03,0.09 1.45,0 3.67,0 5.03,-0.09 v 1.09 h -1.23 c -2.64,0 -2.64,0.28 -2.64,1.05 z"
           inkscape:connector-curvature="0"
           style="fill:#000000;stroke-width:0" /><path
           id="path1119"
           d="m 525.89,414.45 0.21,-0.01 0.21,-0.01 0.21,-0.02 0.19,-0.03 0.2,-0.03 0.19,-0.05 0.18,-0.05 0.18,-0.06 0.17,-0.07 0.16,-0.08 0.16,-0.08 0.16,-0.09 0.14,-0.1 0.15,-0.11 0.13,-0.11 0.13,-0.12 0.12,-0.13 0.11,-0.13 0.11,-0.15 0.1,-0.15 0.1,-0.15 0.08,-0.17 0.08,-0.17 0.07,-0.17 0.06,-0.19 0.06,-0.19 0.04,-0.19 0.04,-0.21 0.03,-0.2 0.03,-0.22 0.01,-0.22 v -0.23 c 0,-2.55 -1.56,-3.89 -3.78,-3.89 -0.28,0 -3.25,0 -4.51,1.29 1.03,0.16 1.32,0.93 1.32,1.52 0,0.92 -0.7,1.53 -1.53,1.53 -0.79,0 -1.53,-0.53 -1.53,-1.58 0,-2.59 2.94,-3.78 6.31,-3.78 4.1,0 6.64,2.47 6.64,4.88 0,2.04 -1.82,3.79 -4.67,4.43 3,0.97 3.8,2.88 3.8,4.27 0,2.05 -2.55,3.56 -5.69,3.56 -3.06,0 -5.53,-1.29 -5.53,-3.54 0,-1.18 0.95,-1.47 1.42,-1.47 0.72,0 1.43,0.53 1.43,1.42 0,0.58 -0.3,1.28 -1.19,1.42 1.06,1.14 3.28,1.22 3.79,1.22 1.83,0 3.13,-0.92 3.13,-2.61 0,-1.45 -0.95,-3.72 -3.56,-3.86 -0.71,-0.03 -0.8,-0.05 -1.46,-0.08 -0.26,-0.03 -0.54,-0.04 -0.54,-0.42 0,-0.42 0.25,-0.42 0.7,-0.42 z"
           inkscape:connector-curvature="0"
           style="fill:#000000;stroke-width:0" /></g>    </g>
    <circle
       style="opacity:1;fill:#000000;fill-opacity:1;fill-rule:nonzero;stroke:#000000;stroke-width:1;stroke-linecap:square;stroke-linejoin:bevel;stroke-miterlimit:4;stroke-dasharray:none;stroke-dashoffset:0;stroke-opacity:1;paint-order:normal"
       id="path1134"
       cx="111.50298"
       cy="14.198204"
       r="3.7797618"
       inkscape:export-filename="/home/user/Downloads/figures/3boxesecl.png"
       inkscape:export-xdpi="96.279999"
       inkscape:export-ydpi="96.279999" />
    <circle
       style="opacity:1;fill:#000000;fill-opacity:1;fill-rule:nonzero;stroke:#000000;stroke-width:1;stroke-linecap:square;stroke-linejoin:bevel;stroke-miterlimit:4;stroke-dasharray:none;stroke-dashoffset:0;stroke-opacity:1;paint-order:normal"
       id="path1134-6"
       cx="111.88095"
       cy="47.989285"
       r="3.7797618"
       inkscape:export-filename="/home/user/Downloads/figures/3boxesecl.png"
       inkscape:export-xdpi="96.279999"
       inkscape:export-ydpi="96.279999" />
    <circle
       style="opacity:1;fill:#000000;fill-opacity:1;fill-rule:nonzero;stroke:#000000;stroke-width:1;stroke-linecap:square;stroke-linejoin:bevel;stroke-miterlimit:4;stroke-dasharray:none;stroke-dashoffset:0;stroke-opacity:1;paint-order:normal"
       id="path1134-7"
       cx="64.936317"
       cy="127.74226"
       r="3.7797618"
       inkscape:export-filename="/home/user/Downloads/figures/3boxesecl.png"
       inkscape:export-xdpi="96.279999"
       inkscape:export-ydpi="96.279999" />
    <circle
       style="opacity:1;fill:#000000;fill-opacity:1;fill-rule:nonzero;stroke:#000000;stroke-width:1;stroke-linecap:square;stroke-linejoin:bevel;stroke-miterlimit:4;stroke-dasharray:none;stroke-dashoffset:0;stroke-opacity:1;paint-order:normal"
       id="path1134-5"
       cx="35.907734"
       cy="145.58273"
       r="3.7797618"
       inkscape:export-filename="/home/user/Downloads/figures/3boxesecl.png"
       inkscape:export-xdpi="96.279999"
       inkscape:export-ydpi="96.279999" />
    <circle
       style="opacity:1;fill:#000000;fill-opacity:1;fill-rule:nonzero;stroke:#000000;stroke-width:1;stroke-linecap:square;stroke-linejoin:bevel;stroke-miterlimit:4;stroke-dasharray:none;stroke-dashoffset:0;stroke-opacity:1;paint-order:normal"
       id="path1134-3"
       cx="158.06963"
       cy="127.74226"
       r="3.7797618"
       inkscape:export-filename="/home/user/Downloads/figures/3boxesecl.png"
       inkscape:export-xdpi="96.279999"
       inkscape:export-ydpi="96.279999" />
    <circle
       style="opacity:1;fill:#000000;fill-opacity:1;fill-rule:nonzero;stroke:#000000;stroke-width:1;stroke-linecap:square;stroke-linejoin:bevel;stroke-miterlimit:4;stroke-dasharray:none;stroke-dashoffset:0;stroke-opacity:1;paint-order:normal"
       id="path1134-56"
       cx="187.85417"
       cy="146.1875"
       r="3.7797618"
       inkscape:export-filename="/home/user/Downloads/figures/3boxesecl.png"
       inkscape:export-xdpi="96.279999"
       inkscape:export-ydpi="96.279999" />
  </g>
</svg>
