<?xml version="1.0" encoding="UTF-8" standalone="no"?>
<svg
   xmlns:osb="http://www.openswatchbook.org/uri/2009/osb"
   xmlns:dc="http://purl.org/dc/elements/1.1/"
   xmlns:cc="http://creativecommons.org/ns#"
   xmlns:rdf="http://www.w3.org/1999/02/22-rdf-syntax-ns#"
   xmlns:svg="http://www.w3.org/2000/svg"
   xmlns="http://www.w3.org/2000/svg"
   xmlns:xlink="http://www.w3.org/1999/xlink"
   xmlns:sodipodi="http://sodipodi.sourceforge.net/DTD/sodipodi-0.dtd"
   xmlns:inkscape="http://www.inkscape.org/namespaces/inkscape"
   id="svg8"
   version="1.1"
   viewBox="0 0 210 297"
   height="297mm"
   width="210mm"
   inkscape:version="1.0.1 (3bc2e813f5, 2020-09-07)"
   sodipodi:docname="3boxes.svg"
   inkscape:export-filename="/home/user/Downloads/master_thesis/images/3boxes.png"
   inkscape:export-xdpi="200"
   inkscape:export-ydpi="200">
  <defs
     id="defs2">
    <linearGradient
       id="linearGradient2391"
       osb:paint="solid">
      <stop
         style="stop-color:#000000;stop-opacity:1;"
         offset="0"
         id="stop2389" />
    </linearGradient>
    <linearGradient
       id="linearGradient2359"
       osb:paint="solid">
      <stop
         style="stop-color:#000000;stop-opacity:1;"
         offset="0"
         id="stop2357" />
    </linearGradient>
    <linearGradient
       id="linearGradient2353"
       osb:paint="solid">
      <stop
         style="stop-color:#000000;stop-opacity:1;"
         offset="0"
         id="stop2351" />
    </linearGradient>
    <linearGradient
       id="linearGradient2335"
       osb:paint="solid">
      <stop
         style="stop-color:#000000;stop-opacity:1;"
         offset="0"
         id="stop2333" />
    </linearGradient>
    <linearGradient
       id="linearGradient2329"
       osb:paint="solid">
      <stop
         style="stop-color:#000000;stop-opacity:1;"
         offset="0"
         id="stop2327" />
    </linearGradient>
    <linearGradient
       id="linearGradient2321"
       osb:paint="solid">
      <stop
         style="stop-color:#000000;stop-opacity:1;"
         offset="0"
         id="stop2319" />
    </linearGradient>
    <linearGradient
       inkscape:collect="always"
       xlink:href="#linearGradient2329"
       id="linearGradient2355"
       x1="79.568993"
       y1="59.130112"
       x2="120.34859"
       y2="59.130112"
       gradientUnits="userSpaceOnUse" />
    <linearGradient
       inkscape:collect="always"
       xlink:href="#linearGradient2391"
       id="linearGradient2393"
       x1="44.401283"
       y1="116.3258"
       x2="86.026253"
       y2="116.3258"
       gradientUnits="userSpaceOnUse"
       gradientTransform="translate(-6.9490077,-1.6036172)" />
  </defs>
  <sodipodi:namedview
     id="base"
     pagecolor="#ffffff"
     bordercolor="#666666"
     borderopacity="1.0"
     inkscape:pageopacity="0.0"
     inkscape:pageshadow="2"
     inkscape:zoom="0.61730582"
     inkscape:cx="258.7259"
     inkscape:cy="603.09316"
     inkscape:document-units="mm"
     inkscape:current-layer="layer4"
     showgrid="false"
     inkscape:window-width="1280"
     inkscape:window-height="656"
     inkscape:window-x="0"
     inkscape:window-y="0"
     inkscape:window-maximized="1"
     inkscape:snap-global="false"
     inkscape:document-rotation="0" />
  <metadata
     id="metadata5">
    <rdf:RDF>
      <cc:Work
         rdf:about="">
        <dc:format>image/svg+xml</dc:format>
        <dc:type
           rdf:resource="http://purl.org/dc/dcmitype/StillImage" />
        <dc:title />
      </cc:Work>
    </rdf:RDF>
  </metadata>
  <g
     inkscape:label="Layer 1"
     inkscape:groupmode="layer"
     id="layer1"
     style="display:inline">
    <text
       xml:space="preserve"
       style="font-style:normal;font-weight:normal;font-size:10.5833px;line-height:1.25;font-family:sans-serif;letter-spacing:0px;word-spacing:0px;fill:#000000;fill-opacity:1;stroke:none;stroke-width:0.264583"
       x="98.889725"
       y="56.991962"
       id="text2397" />
    <flowRoot
       xml:space="preserve"
       id="flowRoot2436"
       style="font-style:normal;font-weight:normal;font-size:40px;line-height:1.25;font-family:sans-serif;letter-spacing:0px;word-spacing:0px;fill:#000000;fill-opacity:1;stroke:none"
       transform="scale(0.26458333)"><flowRegion
         id="flowRegion2438"><rect
           id="rect2440"
           width="38.385796"
           height="42.426407"
           x="359.61432"
           y="193.17931" /></flowRegion><flowPara
         id="flowPara2442" /></flowRoot>
  </g>
  <g
     inkscape:groupmode="layer"
     id="layer4"
     inkscape:label="Layer 2">
    <g
       id="g6812">
      <g
         style="font-style:normal;font-variant:normal;font-weight:normal;font-stretch:normal;letter-spacing:normal;word-spacing:normal;text-anchor:start;fill:none;fill-opacity:1;fill-rule:evenodd;stroke:#000000;stroke-linecap:butt;stroke-linejoin:miter;stroke-miterlimit:10.43299961;stroke-dasharray:none;stroke-dashoffset:0;stroke-opacity:1"
         id="g7858"
         transform="matrix(0.3,0,0,-0.3,-58.320833,192.5875)"
         xml:space="preserve"
         stroke-miterlimit="10.433"
         font-style="normal"
         font-variant="normal"
         font-weight="normal"
         font-stretch="normal"
         font-size-adjust="none"
         letter-spacing="normal"
         word-spacing="normal" />
    </g>
    <g
       id="g10529"
       transform="translate(-22.28771,-54.862056)">
      <ellipse
         ry="20.977678"
         rx="20.978001"
         cy="154.77013"
         cx="122.58249"
         id="path2566-5-3"
         style="opacity:0.98000004;fill:#ffffff;fill-opacity:1;stroke:#000000;stroke-width:0.75;stroke-linejoin:round;stroke-miterlimit:4;stroke-dasharray:none;stroke-opacity:1" />
    </g>
    <circle
       style="opacity:0.98000004;fill:#ffffff;fill-opacity:1;stroke:#000000;stroke-width:0.75;stroke-linejoin:round;stroke-miterlimit:4;stroke-dasharray:none;stroke-opacity:1"
       id="path2566"
       cx="47.807713"
       cy="172.5833"
       r="20.977678" />
    <g
       id="g6430"
       transform="translate(-46.390995,74.514044)">
      <g
         word-spacing="normal"
         letter-spacing="normal"
         font-size-adjust="none"
         font-stretch="normal"
         font-weight="normal"
         font-variant="normal"
         font-style="normal"
         stroke-miterlimit="10.433"
         xml:space="preserve"
         transform="matrix(0.3,0,0,-0.3,-52.5,222.75)"
         id="g6428"
         style="font-style:normal;font-variant:normal;font-weight:normal;font-stretch:normal;letter-spacing:normal;word-spacing:normal;text-anchor:start;fill:none;fill-opacity:1;fill-rule:evenodd;stroke:#000000;stroke-linecap:butt;stroke-linejoin:miter;stroke-miterlimit:10.43299961;stroke-dasharray:none;stroke-dashoffset:0;stroke-opacity:1"><g
           id="g6493"><path
             style="fill:#000000;stroke-width:0"
             inkscape:connector-curvature="0"
             d="m 501.66,436.39 0.04,0.16 0.04,0.16 0.04,0.15 0.04,0.14 0.04,0.14 0.04,0.13 0.04,0.12 0.05,0.11 0.05,0.11 0.05,0.11 0.07,0.09 0.06,0.09 0.08,0.09 0.08,0.08 0.09,0.07 0.09,0.07 0.11,0.06 0.12,0.06 0.13,0.05 0.14,0.05 0.15,0.04 0.09,0.02 0.08,0.02 0.09,0.02 0.09,0.02 0.1,0.01 0.1,0.02 0.1,0.01 0.11,0.01 0.11,0.02 0.12,0.01 0.12,0.01 h 0.12 l 0.13,0.01 0.13,0.01 0.14,0.01 h 0.14 0.15 l 0.15,0.01 h 0.16 0.16 0.17 0.17 c 1.14,0 1.6,0 1.6,1 0,0.55 -0.5,0.55 -1.35,0.55 h -6.58 c -1.29,0 -1.34,0 -1.93,-0.95 l -18.19,-28.39 -3.89,28.18 c -0.16,1.16 -0.25,1.16 -1.55,1.16 h -6.83 c -0.93,0 -1.48,0 -1.48,-0.95 0,-0.6 0.44,-0.6 1.44,-0.6 0.65,0 1.54,-0.04 2.14,-0.09 0.79,-0.11 1.09,-0.25 1.09,-0.8 0,-0.2 -0.05,-0.36 -0.19,-0.95 l -6.33,-25.36 c -0.5,-2 -1.34,-3.59 -5.39,-3.73 -0.25,0 -0.89,-0.05 -0.89,-0.96 0,-0.43 0.3,-0.59 0.71,-0.59 1.59,0 3.32,0.16 4.97,0.16 1.7,0 3.5,-0.16 5.14,-0.16 0.25,0 0.89,0 0.89,1 0,0.55 -0.55,0.55 -0.89,0.55 -2.85,0.04 -3.39,1.04 -3.39,2.18 0,0.35 0.04,0.6 0.2,1.14 l 6.76,27.16 h 0.07 l 4.28,-30.89 c 0.09,-0.59 0.14,-1.14 0.75,-1.14 0.54,0 0.84,0.55 1.09,0.89 l 20.13,31.55 h 0.04 l -7.12,-28.55 c -0.5,-1.95 -0.6,-2.34 -4.53,-2.34 -0.85,0 -1.39,0 -1.39,-0.96 0,-0.59 0.59,-0.59 0.75,-0.59 1.39,0 4.78,0.16 6.17,0.16 2.05,0 4.19,-0.16 6.23,-0.16 0.3,0 0.94,0 0.94,1 0,0.55 -0.45,0.55 -1.39,0.55 -1.84,0 -3.23,0 -3.23,0.89 0,0.2 0,0.29 0.25,1.2 z"
             id="path6424" /></g><path
           id="path6426"
           d="m 521.47,405.11 h -1.19 c -0.09,-0.77 -0.45,-2.83 -0.9,-3.18 -0.27,-0.2 -2.95,-0.2 -3.44,-0.2 h -6.42 c 3.66,3.23 4.88,4.2 6.97,5.84 2.58,2.07 4.98,4.22 4.98,7.54 0,4.21 -3.69,6.79 -8.15,6.79 -4.32,0 -7.25,-3.03 -7.25,-6.23 0,-1.78 1.5,-1.96 1.86,-1.96 0.82,0 1.84,0.6 1.84,1.85 0,0.62 -0.25,1.84 -2.06,1.84 1.08,2.47 3.45,3.24 5.09,3.24 3.48,0 5.3,-2.71 5.3,-5.53 0,-3.04 -2.16,-5.44 -3.28,-6.69 l -8.39,-8.3 c -0.36,-0.31 -0.36,-0.39 -0.36,-1.36 h 14.36 z"
           inkscape:connector-curvature="0"
           style="fill:#000000;stroke-width:0" /></g>
    </g>
    <path
       style="fill:none;stroke:#000000;stroke-width:1.01683187;stroke-linecap:butt;stroke-linejoin:miter;stroke-miterlimit:4;stroke-dasharray:none;stroke-opacity:1"
       d="m 68.600277,172.95228 62.787103,-0.26331"
       id="path6511"
       inkscape:connector-curvature="0" />
    <path
       style="display:inline;fill:none;stroke:#000000;stroke-width:1.0500288;stroke-linecap:butt;stroke-linejoin:miter;stroke-miterlimit:4;stroke-dasharray:none;stroke-dashoffset:0;stroke-opacity:1"
       d="m 140.87908,156.40427 c -27.2286,-40.49332 -27.2286,-40.49332 -27.2286,-40.49332"
       id="path6505-8"
       inkscape:connector-curvature="0"
       inkscape:transform-center-x="-1.8066727"
       inkscape:transform-center-y="-1.1315982" />
    <circle
       style="display:inline;opacity:0.98000004;fill:#ffffff;fill-opacity:1;stroke:#000000;stroke-width:0.75;stroke-linejoin:round;stroke-miterlimit:4;stroke-dasharray:none;stroke-opacity:1"
       id="path2566-10"
       cx="-152.51134"
       cy="172.32915"
       r="20.977678"
       transform="scale(-1,1)" />
    <path
       style="display:inline;fill:none;stroke:#000000;stroke-width:1.0500288;stroke-linecap:butt;stroke-linejoin:miter;stroke-miterlimit:4;stroke-dasharray:none;stroke-dashoffset:0;stroke-opacity:1"
       d="M 59.334576,155.78412 C 86.56317,115.2908 86.56317,115.2908 86.56317,115.2908"
       id="path6505-8-4"
       inkscape:connector-curvature="0"
       inkscape:transform-center-x="1.8066727"
       inkscape:transform-center-y="-1.1315982" />
    <g
       id="g6484"
       transform="translate(58.359796,74.012164)">
      <g
         word-spacing="normal"
         letter-spacing="normal"
         font-size-adjust="none"
         font-stretch="normal"
         font-weight="normal"
         font-variant="normal"
         font-style="normal"
         stroke-miterlimit="10.433"
         xml:space="preserve"
         transform="matrix(0.3,0,0,-0.3,-52.5,222.75)"
         id="g6482"
         style="font-style:normal;font-variant:normal;font-weight:normal;font-stretch:normal;letter-spacing:normal;word-spacing:normal;text-anchor:start;fill:none;fill-opacity:1;fill-rule:evenodd;stroke:#000000;stroke-linecap:butt;stroke-linejoin:miter;stroke-miterlimit:10.43299961;stroke-dasharray:none;stroke-dashoffset:0;stroke-opacity:1"><path
           id="path6478"
           d="m 501.66,436.39 0.04,0.16 0.04,0.16 0.04,0.15 0.04,0.14 0.04,0.14 0.04,0.13 0.04,0.12 0.05,0.11 0.05,0.11 0.05,0.11 0.07,0.09 0.06,0.09 0.08,0.09 0.08,0.08 0.09,0.07 0.09,0.07 0.11,0.06 0.12,0.06 0.13,0.05 0.14,0.05 0.15,0.04 0.09,0.02 0.08,0.02 0.09,0.02 0.09,0.02 0.1,0.01 0.1,0.02 0.1,0.01 0.11,0.01 0.11,0.02 0.12,0.01 0.12,0.01 h 0.12 l 0.13,0.01 0.13,0.01 0.14,0.01 h 0.14 0.15 l 0.15,0.01 h 0.16 0.16 0.17 0.17 c 1.14,0 1.6,0 1.6,1 0,0.55 -0.5,0.55 -1.35,0.55 h -6.58 c -1.29,0 -1.34,0 -1.93,-0.95 l -18.19,-28.39 -3.89,28.18 c -0.16,1.16 -0.25,1.16 -1.55,1.16 h -6.83 c -0.93,0 -1.48,0 -1.48,-0.95 0,-0.6 0.44,-0.6 1.44,-0.6 0.65,0 1.54,-0.04 2.14,-0.09 0.79,-0.11 1.09,-0.25 1.09,-0.8 0,-0.2 -0.05,-0.36 -0.19,-0.95 l -6.33,-25.36 c -0.5,-2 -1.34,-3.59 -5.39,-3.73 -0.25,0 -0.89,-0.05 -0.89,-0.96 0,-0.43 0.3,-0.59 0.71,-0.59 1.59,0 3.32,0.16 4.97,0.16 1.7,0 3.5,-0.16 5.14,-0.16 0.25,0 0.89,0 0.89,1 0,0.55 -0.55,0.55 -0.89,0.55 -2.85,0.04 -3.39,1.04 -3.39,2.18 0,0.35 0.04,0.6 0.2,1.14 l 6.76,27.16 h 0.07 l 4.28,-30.89 c 0.09,-0.59 0.14,-1.14 0.75,-1.14 0.54,0 0.84,0.55 1.09,0.89 l 20.13,31.55 h 0.04 l -7.12,-28.55 c -0.5,-1.95 -0.6,-2.34 -4.53,-2.34 -0.85,0 -1.39,0 -1.39,-0.96 0,-0.59 0.59,-0.59 0.75,-0.59 1.39,0 4.78,0.16 6.17,0.16 2.05,0 4.19,-0.16 6.23,-0.16 0.3,0 0.94,0 0.94,1 0,0.55 -0.45,0.55 -1.39,0.55 -1.84,0 -3.23,0 -3.23,0.89 0,0.2 0,0.29 0.25,1.2 z"
           inkscape:connector-curvature="0"
           style="fill:#000000;stroke-width:0" /><path
           id="path6480"
           d="m 513.4,410.4 h 0.25 l 0.25,-0.02 0.24,-0.03 0.24,-0.04 0.23,-0.05 0.23,-0.06 0.22,-0.07 0.21,-0.08 0.21,-0.1 0.2,-0.1 0.2,-0.12 0.19,-0.12 0.18,-0.14 0.17,-0.15 0.17,-0.16 0.16,-0.17 0.15,-0.18 0.14,-0.19 0.14,-0.2 0.12,-0.22 0.12,-0.22 0.11,-0.24 0.1,-0.24 0.09,-0.26 0.08,-0.27 0.07,-0.28 0.06,-0.29 0.05,-0.3 0.04,-0.31 0.02,-0.32 0.02,-0.33 0.01,-0.35 c 0,-4.33 -2.52,-5.61 -4.54,-5.61 -1.38,0 -4.46,0.38 -5.92,2.44 1.63,0.06 2.02,1.22 2.02,1.95 0,1.11 -0.84,1.91 -1.92,1.91 -0.97,0 -1.96,-0.59 -1.96,-2.02 0,-3.28 3.63,-5.4 7.85,-5.4 4.84,0 8.18,3.25 8.18,6.73 0,2.72 -2.21,5.44 -6.06,6.24 3.66,1.33 4.99,3.93 4.99,6.06 0,2.75 -3.18,4.81 -7.03,4.81 -3.88,0 -6.83,-1.89 -6.83,-4.67 0,-1.19 0.76,-1.84 1.81,-1.84 1.08,0 1.77,0.79 1.77,1.76 0,1.02 -0.69,1.75 -1.77,1.81 1.22,1.55 3.61,1.93 4.91,1.93 1.56,0 3.76,-0.77 3.76,-3.8 0,-1.47 -0.48,-3.06 -1.39,-4.14 -1.16,-1.33 -2.12,-1.41 -3.87,-1.5 -0.88,-0.08 -0.94,-0.08 -1.11,-0.11 -0.08,0 -0.36,-0.06 -0.36,-0.45 0,-0.49 0.31,-0.49 0.9,-0.49 z"
           inkscape:connector-curvature="0"
           style="fill:#000000;stroke-width:0" /></g>
    </g>
    <g
       id="g11735"
       transform="rotate(-54.340952,111.67441,152.71379)">
      <g
         word-spacing="normal"
         letter-spacing="normal"
         font-size-adjust="none"
         font-stretch="normal"
         font-weight="normal"
         font-variant="normal"
         font-style="normal"
         stroke-miterlimit="10.433"
         xml:space="preserve"
         transform="matrix(0.29986687,-0.0089365,-0.0089365,-0.29986687,-53.470813,224.30215)"
         id="g11733"
         style="font-style:normal;font-variant:normal;font-weight:normal;font-stretch:normal;letter-spacing:normal;word-spacing:normal;text-anchor:start;fill:none;fill-opacity:1;fill-rule:evenodd;stroke:#000000;stroke-linecap:butt;stroke-linejoin:miter;stroke-miterlimit:10.43299961;stroke-dasharray:none;stroke-dashoffset:0;stroke-opacity:1"><path
           id="path11711"
           d="m 466.71,416.23 -0.03,-0.02 -0.04,-0.03 -0.03,-0.02 -0.03,-0.03 -0.02,-0.02 -0.03,-0.03 -0.03,-0.03 -0.02,-0.03 -0.03,-0.03 -0.02,-0.03 -0.03,-0.03 -0.02,-0.03 -0.02,-0.03 -0.02,-0.04 -0.02,-0.03 -0.02,-0.03 -0.01,-0.04 -0.02,-0.04 -0.01,-0.03 -0.02,-0.04 -0.01,-0.04 -0.01,-0.04 -0.01,-0.03 -0.01,-0.04 -0.01,-0.04 -0.01,-0.04 -0.01,-0.04 v -0.05 -0.04 l -0.01,-0.04 v -0.04 -0.04 c 0,-0.82 0.63,-1.32 1.31,-1.32 0.61,0 1.33,0.39 1.33,1.35 0,2.11 -2.76,2.19 -4.51,2.19 -4.88,0 -6.97,-3.29 -6.97,-5.79 0,-3.07 2.9,-5.65 6.67,-5.65 4.31,0 5.15,3.04 5.15,3.26 0,0.36 -0.37,0.36 -0.51,0.36 -0.41,0 -0.44,-0.08 -0.55,-0.37 -0.86,-2.08 -2.67,-2.35 -3.76,-2.35 -2.14,0 -4.52,1.44 -4.52,4.79 0,1.09 0.24,2.46 1.16,3.51 1.18,1.34 2.65,1.34 3.43,1.34 0.74,0 1.44,0 2.32,-0.23 z"
           inkscape:connector-curvature="0"
           style="fill:#000000;stroke-width:0" /><path
           id="path11713"
           d="m 486.07,411.51 -0.01,0.29 -0.02,0.29 -0.05,0.28 -0.05,0.29 -0.08,0.27 -0.09,0.28 -0.1,0.26 -0.12,0.27 -0.13,0.25 -0.15,0.25 -0.16,0.25 -0.18,0.24 -0.18,0.23 -0.2,0.22 -0.21,0.21 -0.23,0.21 -0.23,0.2 -0.25,0.18 -0.25,0.18 -0.27,0.17 -0.28,0.15 -0.29,0.15 -0.29,0.13 -0.31,0.12 -0.31,0.11 -0.32,0.09 -0.33,0.08 -0.34,0.07 -0.34,0.05 -0.35,0.04 -0.36,0.03 -0.36,0.01 v -0.82 c 4.36,0 4.36,-3.67 4.36,-4.78 0,-1.23 0,-4.94 -4.36,-4.94 v 0 c -4.36,0 -4.36,3.71 -4.36,4.94 0,1.11 0,4.78 4.36,4.78 v 0.82 c -3.91,0 -6.85,-2.74 -6.85,-5.85 0,-3 2.96,-5.59 6.85,-5.59 3.9,0 6.84,2.59 6.84,5.59 z"
           inkscape:connector-curvature="0"
           style="fill:#000000;stroke-width:0" /><path
           id="path11715"
           d="m 511.29,413.71 -0.01,0.15 V 414 l -0.01,0.13 -0.01,0.13 -0.02,0.13 -0.01,0.12 -0.02,0.12 -0.03,0.12 -0.03,0.11 -0.02,0.11 -0.04,0.11 -0.03,0.1 -0.04,0.1 -0.04,0.1 -0.09,0.18 -0.1,0.17 -0.1,0.16 -0.12,0.15 -0.12,0.14 -0.13,0.12 -0.14,0.12 -0.14,0.1 -0.15,0.1 -0.16,0.09 -0.16,0.08 -0.17,0.07 -0.16,0.06 -0.18,0.05 -0.17,0.05 -0.18,0.05 -0.18,0.03 -0.18,0.03 -0.18,0.03 -0.19,0.02 -0.18,0.01 -0.18,0.01 -0.18,0.01 h -0.36 c -2.44,0 -3.86,-1.21 -4.56,-2.32 -0.63,2.29 -3.16,2.32 -4.08,2.32 -2.56,0 -4.01,-1.37 -4.64,-2.45 v 2.45 l -4.08,-0.28 v -1.09 c 1.85,0 2.07,-0.17 2.07,-1.39 v -6.16 c 0,-0.78 0,-1 -1.63,-1 h -0.44 v -1.09 c 1.07,0.08 2.11,0.09 3.19,0.09 1.05,0 2.11,-0.01 3.16,-0.09 v 1.09 h -0.44 c -1.63,0 -1.63,0.22 -1.63,1 v 4.33 c 0,2.77 2.55,3.77 4.16,3.77 1.83,0 2.27,-1.02 2.27,-2.64 v -5.46 c 0,-0.78 0,-1 -1.61,-1 h -0.46 v -1.09 c 1.08,0.08 2.11,0.09 3.19,0.09 1.05,0 2.13,-0.01 3.16,-0.09 v 1.09 h -0.44 c -1.63,0 -1.63,0.22 -1.63,1 v 4.33 c 0,2.77 2.55,3.77 4.16,3.77 1.83,0 2.27,-1.02 2.27,-2.64 v -5.46 c 0,-0.78 0,-1 -1.61,-1 H 507 v -1.09 c 1.08,0.08 2.13,0.09 3.19,0.09 1.05,0 2.13,-0.01 3.17,-0.09 v 1.09 h -0.45 c -1.62,0 -1.62,0.22 -1.62,1 z"
           inkscape:connector-curvature="0"
           style="fill:#000000;stroke-width:0" /><path
           id="path11717"
           d="m 523.28,402.46 h -0.45 c -1.62,0 -1.62,0.22 -1.62,1 v 3.88 c 1.07,-0.94 2.42,-1.42 3.84,-1.42 l -0.17,0.83 c -1.13,0 -2.44,0.46 -3.31,1.59 -0.36,0.42 -0.36,0.47 -0.36,0.95 v 5.17 c 1.07,1.54 2.97,1.85 3.97,1.85 2.47,0 4.23,-2.22 4.23,-4.74 0,-2.7 -2.06,-4.82 -4.53,-4.82 l 0.17,-0.83 c 3.78,0 6.85,2.54 6.85,5.65 0,3 -2.74,5.64 -6.43,5.64 -1.97,0 -3.51,-0.7 -4.36,-1.42 v 1.42 l -4.18,-0.28 v -1.09 c 1.79,0 2.06,0 2.06,-1.08 v -11.3 c 0,-0.78 0,-1 -1.61,-1 h -0.45 v -1.09 c 1.07,0.06 2.12,0.09 3.18,0.09 1.05,0 2.13,-0.03 3.17,-0.09 z"
           inkscape:connector-curvature="0"
           style="fill:#000000;stroke-width:0" /><path
           id="path11719"
           d="m 546.78,413.61 v 0.22 l -0.02,0.21 -0.04,0.21 -0.05,0.2 -0.06,0.2 -0.08,0.19 -0.09,0.18 -0.1,0.18 -0.11,0.17 -0.12,0.16 -0.14,0.16 -0.14,0.15 -0.16,0.15 -0.17,0.13 -0.17,0.13 -0.19,0.13 -0.19,0.11 -0.21,0.11 -0.21,0.1 -0.22,0.1 -0.23,0.09 -0.23,0.08 -0.24,0.07 -0.25,0.07 -0.26,0.05 -0.26,0.05 -0.26,0.05 -0.27,0.03 -0.28,0.03 -0.28,0.02 -0.29,0.01 -0.28,0.01 c -1.52,0 -4.41,-0.08 -4.41,-2.19 0,-0.92 0.7,-1.35 1.31,-1.35 0.67,0 1.33,0.47 1.33,1.32 0,0.61 -0.34,0.98 -0.58,1.12 0.83,0.28 2.02,0.28 2.3,0.28 2.11,0 3.44,-1.17 3.44,-2.97 v -0.65 -0.74 -2.45 c 0,-2.73 -2.99,-2.98 -3.61,-2.98 -1.47,0 -2.88,0.76 -2.88,2.06 0,0.83 0.53,3.12 6.49,3.37 v 0.74 c -2.42,-0.13 -3.77,-0.19 -5.69,-0.86 -1.64,-0.58 -3.08,-1.63 -3.08,-3.25 0,-2.33 2.89,-2.89 4.88,-2.89 1.92,0 3.42,0.78 4.18,2.04 0.1,-0.87 0.67,-1.92 1.94,-1.92 0.19,0 3.02,0 3.02,2.39 v 1.38 h -1.05 v -1.31 c 0,-0.25 0,-1.35 -0.99,-1.35 -1,0 -1,1.1 -1,1.35 z"
           inkscape:connector-curvature="0"
           style="fill:#000000;stroke-width:0" /><path
           id="path11721"
           d="m 556.8,415.84 h 4.4 v 1.09 h -4.4 v 4.58 h -1.05 c -0.02,-2.33 -1.27,-4.78 -3.81,-4.84 v -0.83 h 2.64 v -6.5 c 0,-2.84 2.34,-3.42 3.89,-3.42 1.87,0 3.26,1.37 3.26,3.42 v 1.37 h -1.04 v -1.29 c 0,-1.88 -1.1,-2.6 -1.97,-2.6 -1.92,0 -1.92,1.99 -1.92,2.52 z"
           inkscape:connector-curvature="0"
           style="fill:#000000;stroke-width:0" /><path
           id="path11723"
           d="m 570.41,421.54 -0.01,0.08 v 0.08 l -0.01,0.07 -0.01,0.08 -0.02,0.07 -0.02,0.07 -0.03,0.07 -0.02,0.07 -0.03,0.07 -0.04,0.06 -0.03,0.06 -0.04,0.07 -0.04,0.06 -0.05,0.05 -0.05,0.06 -0.05,0.05 -0.05,0.05 -0.05,0.05 -0.06,0.05 -0.06,0.04 -0.06,0.04 -0.06,0.03 -0.07,0.04 -0.07,0.03 -0.07,0.03 -0.07,0.02 -0.07,0.02 -0.07,0.02 -0.08,0.01 -0.07,0.01 -0.08,0.01 h -0.08 c -0.77,0 -1.51,-0.6 -1.51,-1.52 0,-0.89 0.74,-1.51 1.51,-1.51 0.84,0 1.52,0.68 1.52,1.51 z"
           inkscape:connector-curvature="0"
           style="fill:#000000;stroke-width:0" /><path
           id="path11725"
           d="m 566.28,416.93 v -1.09 c 1.77,0 1.97,-0.17 1.97,-1.39 v -6.16 c 0,-0.78 0,-1 -1.63,-1 h -0.45 v -1.09 c 1.03,0.08 2.08,0.09 3.1,0.09 0.95,0 2.04,-0.01 2.96,-0.09 v 1.09 c -1.67,0 -1.87,0 -1.87,1 v 8.92 z"
           inkscape:connector-curvature="0"
           style="fill:#000000;stroke-width:0" /><path
           id="path11727"
           d="m 580.27,423.48 -4.19,-0.27 v -1.09 c 1.84,0 2.06,-0.17 2.06,-1.41 V 406.2 h 1.05 c 0.2,0.33 0.4,0.67 0.58,1 0.07,0.14 0.17,0.31 0.28,0.47 1.06,-1.14 2.57,-1.75 4.15,-1.75 l -0.15,0.83 c -1.69,0 -2.99,0.95 -3.69,2.09 v 5.67 c 0.86,1.24 2.5,1.88 3.98,1.88 2.96,0 4.22,-2.18 4.22,-4.82 0,-1.43 -0.33,-2.7 -1.29,-3.62 -0.8,-0.75 -2.02,-1.2 -3.22,-1.2 l 0.15,-0.83 c 3.78,0 6.85,2.54 6.85,5.65 0,3 -2.77,5.64 -6.52,5.64 -1.34,0 -2.92,-0.35 -4.26,-1.4 z"
           inkscape:connector-curvature="0"
           style="fill:#000000;stroke-width:0" /><path
           id="path11729"
           d="m 599.16,423.48 -4.19,-0.27 v -1.09 c 1.84,0 2.08,-0.17 2.08,-1.41 v -12.42 c 0,-0.78 0,-1 -1.63,-1 h -0.45 v -1.09 c 1.05,0.08 2.08,0.09 3.12,0.09 1.05,0 2.1,-0.01 3.13,-0.09 v 1.09 h -0.44 c -1.62,0 -1.62,0.22 -1.62,1 z"
           inkscape:connector-curvature="0"
           style="fill:#000000;stroke-width:0" /><path
           id="path11731"
           d="m 615.86,411.81 h 0.05 0.05 0.04 0.04 0.05 0.04 l 0.03,0.01 h 0.04 0.04 l 0.03,0.01 h 0.03 l 0.03,0.01 0.03,0.01 0.02,0.01 0.03,0.01 0.02,0.01 0.03,0.02 0.02,0.01 0.01,0.02 0.02,0.02 0.02,0.03 0.01,0.02 0.01,0.02 0.01,0.01 v 0.01 l 0.01,0.02 v 0.02 l 0.01,0.01 v 0.02 l 0.01,0.02 v 0.02 0.02 l 0.01,0.02 v 0.02 0.02 0.02 0.02 l 0.01,0.03 v 0.02 0.03 0.02 0.03 c 0,1.67 -0.89,4.96 -5.55,4.96 -3.79,0 -6.45,-2.72 -6.45,-5.68 0,-3.17 3.03,-5.76 6.81,-5.76 3.97,0 5.19,2.76 5.19,3.25 0,0.42 -0.39,0.42 -0.52,0.42 -0.37,0 -0.43,-0.11 -0.57,-0.45 -0.71,-1.72 -2.55,-2.32 -3.94,-2.32 -2.02,0 -3.14,1.13 -3.52,1.55 -0.97,1.19 -0.97,2.77 -0.97,3.44 l 0.05,0.76 c 0.3,3.3 2.72,3.97 3.89,3.97 3.47,0 3.64,-3.25 3.66,-3.97 h -7.55 l -0.05,-0.76 z"
           inkscape:connector-curvature="0"
           style="fill:#000000;stroke-width:0" /></g>
    </g>
    <g
       id="g6380"
       transform="translate(6.511993,-26.207085)">
      <g
         word-spacing="normal"
         letter-spacing="normal"
         font-size-adjust="none"
         font-stretch="normal"
         font-weight="normal"
         font-variant="normal"
         font-style="normal"
         stroke-miterlimit="10.433"
         xml:space="preserve"
         transform="matrix(0.3,0,0,-0.3,-51.970833,251.325)"
         id="g6378"
         style="font-style:normal;font-variant:normal;font-weight:normal;font-stretch:normal;letter-spacing:normal;word-spacing:normal;text-anchor:start;fill:none;fill-opacity:1;fill-rule:evenodd;stroke:#000000;stroke-linecap:butt;stroke-linejoin:miter;stroke-miterlimit:10.43299961;stroke-dasharray:none;stroke-dashoffset:0;stroke-opacity:1"><path
           id="path6374"
           d="m 501.66,436.39 0.04,0.16 0.04,0.16 0.04,0.15 0.04,0.14 0.04,0.14 0.04,0.13 0.04,0.12 0.05,0.11 0.05,0.11 0.05,0.11 0.07,0.09 0.06,0.09 0.08,0.09 0.08,0.08 0.09,0.07 0.09,0.07 0.11,0.06 0.12,0.06 0.13,0.05 0.14,0.05 0.15,0.04 0.09,0.02 0.08,0.02 0.09,0.02 0.09,0.02 0.1,0.01 0.1,0.02 0.1,0.01 0.11,0.01 0.11,0.02 0.12,0.01 0.12,0.01 h 0.12 l 0.13,0.01 0.13,0.01 0.14,0.01 h 0.14 0.15 l 0.15,0.01 h 0.16 0.16 0.17 0.17 c 1.14,0 1.6,0 1.6,1 0,0.55 -0.5,0.55 -1.35,0.55 h -6.58 c -1.29,0 -1.34,0 -1.93,-0.95 l -18.19,-28.39 -3.89,28.18 c -0.16,1.16 -0.25,1.16 -1.55,1.16 h -6.83 c -0.93,0 -1.48,0 -1.48,-0.95 0,-0.6 0.44,-0.6 1.44,-0.6 0.65,0 1.54,-0.04 2.14,-0.09 0.79,-0.11 1.09,-0.25 1.09,-0.8 0,-0.2 -0.05,-0.36 -0.19,-0.95 l -6.33,-25.36 c -0.5,-2 -1.34,-3.59 -5.39,-3.73 -0.25,0 -0.89,-0.05 -0.89,-0.96 0,-0.43 0.3,-0.59 0.71,-0.59 1.59,0 3.32,0.16 4.97,0.16 1.7,0 3.5,-0.16 5.14,-0.16 0.25,0 0.89,0 0.89,1 0,0.55 -0.55,0.55 -0.89,0.55 -2.85,0.04 -3.39,1.04 -3.39,2.18 0,0.35 0.04,0.6 0.2,1.14 l 6.76,27.16 h 0.07 l 4.28,-30.89 c 0.09,-0.59 0.14,-1.14 0.75,-1.14 0.54,0 0.84,0.55 1.09,0.89 l 20.13,31.55 h 0.04 l -7.12,-28.55 c -0.5,-1.95 -0.6,-2.34 -4.53,-2.34 -0.85,0 -1.39,0 -1.39,-0.96 0,-0.59 0.59,-0.59 0.75,-0.59 1.39,0 4.78,0.16 6.17,0.16 2.05,0 4.19,-0.16 6.23,-0.16 0.3,0 0.94,0 0.94,1 0,0.55 -0.45,0.55 -1.39,0.55 -1.84,0 -3.23,0 -3.23,0.89 0,0.2 0,0.29 0.25,1.2 z"
           inkscape:connector-curvature="0"
           style="fill:#000000;stroke-width:0" /><path
           id="path6376"
           d="m 515.55,420.92 v 0.04 0.04 0.05 0.04 0.03 0.04 0.04 0.03 l -0.01,0.04 v 0.03 0.03 0.03 0.03 l -0.01,0.03 v 0.03 0.02 l -0.01,0.03 v 0.02 l -0.01,0.03 v 0.02 l -0.02,0.04 -0.01,0.04 -0.02,0.03 -0.02,0.03 -0.02,0.03 -0.02,0.03 -0.03,0.02 -0.03,0.02 -0.04,0.02 -0.03,0.01 -0.04,0.01 -0.05,0.02 h -0.02 -0.03 l -0.02,0.01 h -0.03 l -0.02,0.01 h -0.03 -0.03 -0.03 -0.04 l -0.03,0.01 h -0.03 -0.04 -0.04 -0.03 -0.04 -0.04 -0.04 -0.05 -0.04 -0.05 c -2.23,-2.2 -5.39,-2.23 -6.82,-2.23 v -1.25 c 0.84,0 3.14,0 5.04,0.97 v -17.77 c 0,-1.16 0,-1.61 -3.48,-1.61 h -1.31 v -1.25 c 0.62,0.03 4.9,0.14 6.2,0.14 1.08,0 5.47,-0.11 6.23,-0.14 v 1.25 h -1.33 c -3.48,0 -3.48,0.45 -3.48,1.61 z"
           inkscape:connector-curvature="0"
           style="fill:#000000;stroke-width:0" /></g>
    </g>
    <g
       id="g10310"
       transform="translate(-30.046303,100.2947)"
       inkscape:export-filename="/home/user/Downloads/3boxesnew.png"
       inkscape:export-xdpi="96"
       inkscape:export-ydpi="96">
      <g
         word-spacing="normal"
         letter-spacing="normal"
         font-size-adjust="none"
         font-stretch="normal"
         font-weight="normal"
         font-variant="normal"
         font-style="normal"
         stroke-miterlimit="10.433"
         xml:space="preserve"
         transform="matrix(0.3,0,0,-0.3,-52.5,222.75)"
         id="g10308"
         style="font-style:normal;font-variant:normal;font-weight:normal;font-stretch:normal;letter-spacing:normal;word-spacing:normal;text-anchor:start;fill:none;fill-opacity:1;fill-rule:evenodd;stroke:#000000;stroke-linecap:butt;stroke-linejoin:miter;stroke-miterlimit:10.43299961;stroke-dasharray:none;stroke-dashoffset:0;stroke-opacity:1"><path
           id="path10278"
           d="m 468.94,408.37 -0.01,-0.05 -0.01,-0.05 -0.02,-0.06 -0.01,-0.05 -0.01,-0.06 -0.02,-0.06 -0.03,-0.12 -0.02,-0.12 -0.03,-0.12 -0.03,-0.12 -0.03,-0.11 -0.01,-0.06 -0.01,-0.06 -0.01,-0.05 -0.02,-0.05 -0.01,-0.05 -0.01,-0.05 -0.01,-0.05 -0.01,-0.04 V 407 l -0.01,-0.04 -0.01,-0.04 v -0.03 l -0.01,-0.03 v -0.03 -0.02 -0.02 c 0,-0.54 0.45,-0.87 0.92,-0.87 0.37,0 0.92,0.2 1.2,0.83 0.02,0.12 0.32,1.29 0.47,1.93 0.85,3.38 0.85,3.43 0.89,3.52 0.33,0.67 2.13,4.16 5.16,4.16 1.22,0 1.75,-0.68 1.75,-1.79 0,-1.42 -1.05,-3.98 -1.63,-5.4 -0.12,-0.3 -0.25,-0.63 -0.25,-1.05 0,-1.3 1.25,-2.2 2.72,-2.2 2.67,0 4.03,3.25 4.03,3.87 0,0.35 -0.42,0.35 -0.51,0.35 -0.42,0 -0.46,-0.1 -0.6,-0.58 -0.48,-1.49 -1.62,-2.78 -2.82,-2.78 -0.57,0 -0.74,0.39 -0.74,0.93 0,0.54 0.1,0.79 0.31,1.33 0.43,1 1.58,3.83 1.58,5.21 0,1.84 -1.33,2.96 -3.69,2.96 -2.31,0 -3.93,-1.42 -4.93,-2.75 -0.22,2.55 -2.69,2.75 -3.71,2.75 -2.45,0 -3.84,-1.53 -4.73,-2.46 -0.11,2.18 -2.39,2.46 -3.02,2.46 -2.5,0 -3.21,-3.81 -3.21,-3.85 0,-0.36 0.4,-0.36 0.53,-0.36 0.42,0 0.47,0.15 0.56,0.48 0.37,1.44 0.95,2.88 2,2.88 0.84,0 1.01,-0.8 1.01,-1.32 0,-0.34 -0.25,-1.29 -0.39,-1.93 -0.18,-0.68 -0.42,-1.71 -0.54,-2.25 l -0.58,-2.22 c -0.16,-0.63 -0.42,-1.72 -0.42,-1.85 0,-0.54 0.43,-0.87 0.92,-0.87 0.37,0 0.92,0.2 1.19,0.83 0.03,0.12 0.32,1.29 0.48,1.93 0.09,0.41 0.38,1.47 0.44,1.72 0.12,0.56 0.28,1.11 0.4,1.67 0.05,0.11 0.94,1.93 2.16,3 0.41,0.35 1.45,1.29 3.08,1.29 1.26,0 1.73,-0.72 1.73,-1.79 0,-0.54 -0.25,-1.54 -0.45,-2.32 z"
           inkscape:connector-curvature="0"
           style="fill:#000000;stroke-width:0" /><path
           id="path10280"
           d="m 495.98,413.71 v 0.05 l -0.01,0.06 v 0.05 l -0.01,0.05 -0.01,0.05 -0.01,0.06 -0.02,0.05 -0.02,0.04 -0.02,0.05 -0.02,0.05 -0.03,0.04 -0.02,0.04 -0.03,0.05 -0.03,0.04 -0.04,0.03 -0.03,0.04 -0.04,0.04 -0.04,0.03 -0.04,0.03 -0.04,0.03 -0.04,0.03 -0.05,0.02 -0.05,0.03 -0.05,0.02 -0.05,0.02 -0.05,0.01 -0.05,0.02 -0.06,0.01 -0.05,0.01 h -0.06 l -0.06,0.01 h -0.06 c -0.69,0 -1.52,-0.67 -1.52,-1.48 0,-0.71 0.55,-1.08 1.06,-1.08 0.83,0 1.55,0.75 1.55,1.5 z"
           inkscape:connector-curvature="0"
           style="fill:#000000;stroke-width:0" /><path
           id="path10282"
           d="m 497.15,401.75 v 0.02 0.02 0.01 0.01 l -0.01,0.02 v 0.01 0.01 l -0.01,0.02 v 0.01 l -0.01,0.01 v 0.01 l -0.01,0.01 v 0.01 l -0.01,0.01 -0.01,0.01 -0.01,0.01 v 0.01 l -0.01,0.01 -0.01,0.01 -0.01,0.01 -0.02,0.01 -0.02,0.01 -0.02,0.02 -0.02,0.01 -0.02,0.01 h -0.02 l -0.02,0.01 -0.02,0.01 h -0.03 l -0.02,0.01 h -0.02 l -0.02,0.01 h -0.02 -0.02 -0.02 l -0.02,0.01 h -0.02 -0.01 -0.02 -0.01 -0.01 -0.01 v 0 c -0.43,0 -0.46,-0.1 -0.6,-0.58 -0.43,-1.36 -1.54,-2.78 -2.79,-2.78 -0.58,0 -0.75,0.39 -0.75,0.94 0,0.53 0.12,0.79 0.32,1.28 0.21,0.48 0.39,0.98 0.52,1.34 0.11,0.22 1.08,2.53 1.42,3.44 0.2,0.5 0.36,0.81 0.36,1.23 0,1.21 -1.16,2.21 -2.72,2.21 -2.62,0 -4.01,-3.19 -4.01,-3.86 0,-0.36 0.4,-0.36 0.53,-0.36 0.42,0 0.44,0.12 0.56,0.5 0.55,1.76 1.75,2.86 2.81,2.86 0.49,0 0.75,-0.27 0.75,-0.94 0,-0.09 0,-0.42 -0.14,-0.91 -0.19,-0.43 -1.29,-3.11 -1.65,-3.95 -0.18,-0.42 -0.18,-0.47 -0.55,-1.31 -0.13,-0.36 -0.27,-0.71 -0.27,-1.13 0,-1.29 1.22,-2.2 2.72,-2.2 2.61,0 4,3.25 4,3.87 z"
           inkscape:connector-curvature="0"
           style="fill:#000000;stroke-width:0" /><path
           id="path10284"
           d="m 530.61,411.73 h 0.04 0.04 0.04 0.05 0.04 0.04 l 0.05,0.01 h 0.04 l 0.05,0.01 h 0.04 l 0.05,0.01 0.04,0.01 0.05,0.01 0.04,0.01 0.04,0.01 0.04,0.02 0.04,0.02 0.04,0.02 0.04,0.02 0.04,0.02 0.03,0.03 0.03,0.03 0.03,0.03 0.02,0.02 0.01,0.02 0.01,0.02 0.01,0.02 0.02,0.02 0.01,0.02 0.01,0.02 0.01,0.02 v 0.03 l 0.01,0.02 0.01,0.03 v 0.02 l 0.01,0.03 v 0.03 l 0.01,0.03 v 0.03 0.03 0.03 c 0,0.69 -0.67,0.69 -1.08,0.69 H 517.6 c 0.3,3.56 3.62,6.66 8.11,6.66 h 4.9 c 0.41,0 1.08,0 1.08,0.7 0,0.69 -0.67,0.69 -1.08,0.69 h -5 c -5.01,0 -9.46,-3.71 -9.46,-8.74 0,-5.03 4.45,-8.75 9.46,-8.75 h 5 c 0.41,0 1.08,0 1.08,0.71 0,0.68 -0.67,0.68 -1.08,0.68 h -4.9 c -4.49,0 -7.81,3.1 -8.11,6.66 z"
           inkscape:connector-curvature="0"
           style="fill:#000000;stroke-width:0" /><path
           id="path10286"
           d="m 556.11,421.64 v 0.07 l 0.01,0.07 0.01,0.08 0.01,0.08 0.02,0.09 0.02,0.09 0.03,0.09 0.04,0.09 0.04,0.09 0.05,0.1 0.06,0.09 0.07,0.1 0.07,0.1 0.09,0.09 0.09,0.09 0.11,0.1 0.11,0.09 0.13,0.09 0.14,0.08 0.15,0.09 0.17,0.08 0.18,0.07 0.09,0.04 0.1,0.04 0.1,0.03 0.1,0.03 0.11,0.04 0.12,0.03 0.11,0.03 0.12,0.03 0.13,0.02 0.12,0.03 0.14,0.02 0.13,0.02 0.14,0.03 0.15,0.02 0.15,0.01 0.15,0.02 0.16,0.01 0.16,0.01 0.17,0.01 0.17,0.01 c 0.1,0 0.32,0.1 0.32,0.42 0,0.43 -0.25,0.43 -0.74,0.43 -1.92,0 -5.48,-0.36 -5.91,-2.94 -0.03,-0.16 -0.03,-0.2 -0.03,-0.99 v -4.48 c 0,-1.44 0,-1.98 -0.81,-2.66 -1,-0.78 -2.38,-0.95 -3.08,-0.96 -0.42,-0.04 -0.64,-0.04 -0.64,-0.43 0,-0.07 0,-0.4 0.38,-0.43 3.53,-0.13 4.14,-1.79 4.15,-2.54 v -5.26 c 0,-1.61 0,-2.64 1.97,-3.56 0.78,-0.35 2.34,-0.68 3.97,-0.68 0.49,0 0.74,0 0.74,0.44 0,0.06 0,0.39 -0.38,0.42 -2.52,0.1 -3.78,0.86 -4.11,1.99 -0.05,0.23 -0.05,0.5 -0.05,0.83 v 5.4 c 0,0.85 0,2.57 -2.95,3.39 1.99,0.55 2.95,1.61 2.95,3.13 z"
           inkscape:connector-curvature="0"
           style="fill:#000000;stroke-width:0" /><path
           id="path10288"
           d="m 571.33,411.81 -0.12,0.84 h -1.44 c 1.13,3.47 4.19,3.71 4.94,3.71 1.23,0 2.32,-0.49 2.32,-1.41 0,-2.3 -4.65,-2.3 -5.82,-2.3 l 0.12,-0.84 c 2.52,0 6.99,0.3 6.99,3.15 0,1.27 -1.3,2.25 -3.6,2.25 -3.39,0 -7.69,-2.26 -7.69,-6.4 0,-2.27 1.47,-4.89 5.25,-4.89 0.47,0 2.47,0 4.15,0.65 1.65,0.64 2.65,1.8 2.65,2.07 0,0.2 -0.33,0.57 -0.55,0.57 -0.12,0 -0.13,-0.03 -0.54,-0.42 -1.22,-1.37 -3.44,-2.01 -5.67,-2.01 -2.05,0 -3.02,1.26 -3.02,3.14 0,0.23 0,0.89 0.25,1.89 z"
           inkscape:connector-curvature="0"
           style="fill:#000000;stroke-width:0" /><path
           id="path10290"
           d="m 594.58,408.37 -0.01,-0.05 -0.02,-0.05 -0.01,-0.06 -0.01,-0.05 -0.02,-0.06 -0.01,-0.06 -0.03,-0.12 -0.03,-0.12 -0.03,-0.12 -0.02,-0.12 -0.03,-0.11 -0.01,-0.06 -0.02,-0.06 -0.01,-0.05 -0.01,-0.05 -0.01,-0.05 -0.01,-0.05 -0.01,-0.05 -0.01,-0.04 -0.01,-0.04 v -0.04 l -0.01,-0.04 -0.01,-0.03 v -0.03 -0.03 l -0.01,-0.02 v -0.02 c 0,-0.54 0.46,-0.87 0.93,-0.87 0.37,0 0.92,0.2 1.2,0.83 0.02,0.12 0.31,1.29 0.47,1.93 0.84,3.38 0.84,3.43 0.89,3.52 0.33,0.67 2.12,4.16 5.16,4.16 1.21,0 1.74,-0.68 1.74,-1.79 0,-1.42 -1.04,-3.98 -1.62,-5.4 -0.12,-0.3 -0.25,-0.63 -0.25,-1.05 0,-1.3 1.25,-2.2 2.72,-2.2 2.67,0 4.03,3.25 4.03,3.87 0,0.35 -0.42,0.35 -0.52,0.35 -0.42,0 -0.45,-0.1 -0.59,-0.58 -0.48,-1.49 -1.62,-2.78 -2.83,-2.78 -0.56,0 -0.73,0.39 -0.73,0.93 0,0.54 0.09,0.79 0.31,1.33 0.42,1 1.58,3.83 1.58,5.21 0,1.84 -1.33,2.96 -3.69,2.96 -2.31,0 -3.94,-1.42 -4.94,-2.75 -0.21,2.55 -2.68,2.75 -3.7,2.75 -2.45,0 -3.84,-1.53 -4.73,-2.46 -0.11,2.18 -2.39,2.46 -3.02,2.46 -2.5,0 -3.22,-3.81 -3.22,-3.85 0,-0.36 0.41,-0.36 0.53,-0.36 0.43,0 0.47,0.15 0.57,0.48 0.37,1.44 0.95,2.88 2,2.88 0.84,0 1.01,-0.8 1.01,-1.32 0,-0.34 -0.25,-1.29 -0.39,-1.93 -0.19,-0.68 -0.42,-1.71 -0.55,-2.25 l -0.57,-2.22 c -0.16,-0.63 -0.43,-1.72 -0.43,-1.85 0,-0.54 0.44,-0.87 0.93,-0.87 0.37,0 0.92,0.2 1.18,0.83 0.03,0.12 0.33,1.29 0.49,1.93 0.09,0.41 0.37,1.47 0.43,1.72 0.13,0.56 0.29,1.11 0.41,1.67 0.05,0.11 0.94,1.93 2.16,3 0.4,0.35 1.45,1.29 3.08,1.29 1.26,0 1.73,-0.72 1.73,-1.79 0,-0.54 -0.25,-1.54 -0.45,-2.32 z"
           inkscape:connector-curvature="0"
           style="fill:#000000;stroke-width:0" /><path
           id="path10292"
           d="m 615.24,403.28 -0.02,-0.06 -0.01,-0.06 -0.02,-0.05 -0.01,-0.05 -0.02,-0.05 -0.01,-0.04 -0.02,-0.05 -0.01,-0.04 -0.02,-0.04 -0.02,-0.03 -0.02,-0.04 -0.02,-0.03 -0.02,-0.03 -0.03,-0.02 -0.03,-0.03 -0.03,-0.02 -0.03,-0.02 -0.04,-0.02 -0.03,-0.02 -0.05,-0.02 -0.04,-0.01 -0.05,-0.01 -0.06,-0.02 h -0.03 l -0.03,-0.01 h -0.03 -0.03 l -0.03,-0.01 h -0.04 -0.03 l -0.04,-0.01 h -0.04 -0.04 -0.04 l -0.04,-0.01 h -0.04 -0.05 -0.05 -0.04 -0.05 -0.05 c -0.38,0 -0.8,0 -0.8,-0.69 0,-0.28 0.22,-0.42 0.39,-0.42 0.38,0 0.83,0.06 1.22,0.06 0.41,0 0.83,0.03 1.25,0.03 0.5,0 0.97,-0.03 1.47,-0.03 0.42,0 0.95,-0.06 1.37,-0.06 0.33,0 0.63,0.17 0.63,0.69 0,0.42 -0.43,0.42 -0.78,0.42 -0.82,0 -1.36,0 -1.36,0.31 0,0.14 0.39,1.66 1.14,4.63 0.62,-0.85 1.61,-1.5 2.98,-1.5 v 0.86 c -2.06,0 -2.59,2.01 -2.59,2.22 0,0.12 0.06,0.26 0.08,0.39 l 1.07,4.23 c 0.1,0.41 0.13,0.45 0.55,0.95 1,1.1 2.27,1.79 3.45,1.79 1.03,0 2.21,-0.65 2.21,-2.54 0,-1.09 -0.58,-3.48 -1.28,-4.68 -1.05,-1.82 -2.53,-2.36 -3.49,-2.36 v -0.86 c 3.52,0 7,3.44 7,6.95 0,2.5 -1.81,4.34 -4.36,4.34 -1.93,0 -3.45,-1.28 -3.95,-1.75 -0.5,1.35 -2,1.75 -2.92,1.75 -0.85,0 -1.6,-0.4 -2.22,-1.37 -0.64,-1.05 -0.97,-2.34 -0.97,-2.47 0,-0.37 0.38,-0.37 0.53,-0.37 0.42,0 0.47,0.12 0.56,0.53 0.29,0.98 0.8,2.83 1.97,2.83 0.88,0 1.03,-0.82 1.03,-1.32 0,-0.34 -0.03,-0.45 -0.08,-0.64 z"
           inkscape:connector-curvature="0"
           style="fill:#000000;stroke-width:0" /><path
           id="path10294"
           d="M 638.06,415.81 H 641 c 0.51,0 0.54,0.03 0.67,0.12 0.12,0.11 0.2,0.43 0.2,0.58 0,0.42 -0.37,0.42 -0.8,0.42 h -2.75 l 0.53,2.07 c 0.15,0.65 0.44,1.78 0.44,1.92 0,0.42 -0.31,0.87 -0.92,0.87 -0.42,0 -1.02,-0.28 -1.22,-0.95 -0.12,-0.42 0.17,0.75 -1,-3.91 h -2.95 c -0.5,0 -0.88,0 -0.88,-0.7 0,-0.42 0.35,-0.42 0.8,-0.42 h 2.77 l -1.47,-5.85 c -0.13,-0.54 -0.33,-1.32 -0.33,-1.62 0,-1.42 1.33,-2.42 3.06,-2.42 3.02,0 4.86,3.37 4.86,3.87 0,0.35 -0.42,0.35 -0.51,0.35 -0.41,0 -0.46,-0.1 -0.58,-0.43 -0.83,-1.79 -2.38,-2.93 -3.66,-2.93 -0.79,0 -1.04,0.56 -1.04,1.31 0,0.41 0.01,0.47 0.06,0.7 z"
           inkscape:connector-curvature="0"
           style="fill:#000000;stroke-width:0" /><path
           id="path10296"
           d="m 660.75,415.5 0.01,0.03 0.01,0.03 0.01,0.04 0.01,0.03 0.01,0.03 v 0.03 l 0.01,0.02 0.01,0.03 v 0.03 l 0.01,0.02 v 0.02 l 0.01,0.02 v 0.03 0.02 l 0.01,0.01 v 0.02 0.02 0.01 l 0.01,0.02 v 0.01 0.02 0.01 0.01 0.01 0.01 0 0.01 0.01 0 0 0.01 0 c 0,0.55 -0.45,0.87 -0.92,0.87 -1,0 -1.2,-0.87 -1.37,-1.54 l -0.52,-2.07 -0.78,-3.11 c -0.09,-0.32 -0.22,-0.85 -0.25,-1 -0.02,-0.09 -1.36,-2.43 -3.49,-2.43 -1.13,0 -2.04,0.54 -2.04,2.14 0,1.36 0.75,3.19 1.47,4.98 0.12,0.3 0.31,0.69 0.31,1.11 0,1.22 -1.17,2.2 -2.72,2.2 -2.62,0 -4.02,-3.18 -4.02,-3.85 0,-0.36 0.41,-0.36 0.54,-0.36 0.42,0 0.43,0.12 0.56,0.5 0.53,1.71 1.7,2.86 2.81,2.86 0.49,0 0.75,-0.27 0.75,-0.94 0,-0.5 -0.14,-0.85 -0.33,-1.3 -1.21,-2.97 -1.43,-3.86 -1.43,-4.86 0,-2.76 2.31,-3.34 3.98,-3.34 1.42,0 2.47,0.7 3.09,1.23 -0.35,-1.4 -0.62,-2.5 -1.79,-3.69 -0.58,-0.57 -1.75,-1.53 -3.28,-1.53 -0.46,0 -1.38,0.08 -1.96,0.61 1.13,0.27 1.25,1.24 1.25,1.49 0,0.73 -0.57,1.03 -1.09,1.03 -0.72,0 -1.58,-0.61 -1.58,-1.75 0,-1.25 1.28,-2.22 3.38,-2.22 2.82,0 6.2,1.89 7,5.08 z"
           inkscape:connector-curvature="0"
           style="fill:#000000;stroke-width:0" /><path
           id="path10298"
           d="m 670.07,406.54 -0.01,-0.22 -0.01,-0.21 -0.02,-0.21 -0.02,-0.21 -0.03,-0.19 -0.04,-0.19 -0.04,-0.19 -0.04,-0.18 -0.06,-0.17 -0.05,-0.17 -0.06,-0.17 -0.06,-0.15 -0.07,-0.15 -0.07,-0.15 -0.07,-0.14 -0.08,-0.14 -0.08,-0.13 -0.07,-0.12 -0.08,-0.12 -0.08,-0.11 -0.08,-0.11 -0.09,-0.11 -0.08,-0.09 -0.08,-0.1 -0.08,-0.09 -0.08,-0.08 -0.07,-0.08 -0.08,-0.07 -0.07,-0.07 -0.07,-0.06 -0.07,-0.06 -0.07,-0.05 c -0.25,-0.21 -0.31,-0.25 -0.31,-0.44 0,-0.14 0.23,-0.44 0.45,-0.44 0.33,0 2.68,1.94 2.68,5.05 0,1.7 -0.75,2.83 -1.88,2.83 -0.94,0 -1.52,-0.75 -1.52,-1.54 0,-0.79 0.58,-1.51 1.52,-1.51 0.38,0 0.75,0.09 1.02,0.34 z"
           inkscape:connector-curvature="0"
           style="fill:#000000;stroke-width:0" /><path
           id="path10300"
           d="m 696.31,415.26 0.01,0.02 v 0.02 l 0.01,0.02 v 0.02 l 0.01,0.02 v 0.02 l 0.01,0.02 v 0.01 l 0.01,0.02 v 0.02 l 0.01,0.01 v 0.02 0.01 l 0.01,0.02 v 0.01 l 0.01,0.01 v 0.02 0.01 l 0.01,0.02 v 0.02 l 0.01,0.02 v 0.02 l 0.01,0.02 v 0.02 0.01 l 0.01,0.02 v 0.01 0.01 0.01 0.01 0.01 l 0.01,0.01 v 0.01 0.01 0.01 0.01 0.02 0.01 c 0,0.42 -0.32,0.87 -0.92,0.87 -0.5,0 -1.05,-0.35 -1.24,-0.96 -0.83,1.09 -1.89,1.46 -3,1.46 -3.4,0 -6.92,-3.25 -6.92,-6.75 0,-2.62 2,-4.26 4.36,-4.26 l 0.11,0.84 c -0.99,0 -2.22,0.53 -2.22,2.5 0,0.97 0.44,3.33 1.39,4.78 0.67,1.1 1.97,2.04 3.28,2.04 2.08,0 2.6,-1.94 2.6,-2.16 0,-0.05 -0.02,-0.24 -0.08,-0.38 l -1.02,-4.09 c -0.09,-0.39 -0.12,-0.48 -0.59,-0.98 -0.92,-0.93 -2.08,-1.71 -3.36,-1.71 l -0.11,-0.84 c 1.59,0 2.94,0.87 3.51,1.34 -0.04,-0.25 -0.5,-1.93 -0.59,-2.36 -0.23,-0.9 -0.41,-1.65 -1.55,-2.45 -1.17,-0.8 -2.26,-0.8 -2.98,-0.8 -0.2,0 -2.03,0.03 -2.03,0.19 l 0.11,0.06 c 0.43,0.41 0.56,0.96 0.56,1.21 0,0.42 -0.3,1.01 -1.11,1.01 -0.8,0 -1.55,-0.69 -1.55,-1.64 0,-1.67 2.53,-1.67 4.03,-1.67 3.43,0 5.96,1.16 6.55,3.56 z"
           inkscape:connector-curvature="0"
           style="fill:#000000;stroke-width:0" /><path
           id="path10302"
           d="m 705.96,411.81 -0.12,0.84 h -1.44 c 1.12,3.47 4.19,3.71 4.94,3.71 1.23,0 2.32,-0.49 2.32,-1.41 0,-2.3 -4.65,-2.3 -5.82,-2.3 l 0.12,-0.84 c 2.52,0 6.99,0.3 6.99,3.15 0,1.27 -1.3,2.25 -3.6,2.25 -3.39,0 -7.69,-2.26 -7.69,-6.4 0,-2.27 1.47,-4.89 5.25,-4.89 0.47,0 2.47,0 4.14,0.65 1.66,0.64 2.66,1.8 2.66,2.07 0,0.2 -0.33,0.57 -0.55,0.57 -0.12,0 -0.14,-0.03 -0.54,-0.42 -1.22,-1.37 -3.44,-2.01 -5.67,-2.01 -2.05,0 -3.02,1.26 -3.02,3.14 0,0.23 0,0.89 0.25,1.89 z"
           inkscape:connector-curvature="0"
           style="fill:#000000;stroke-width:0" /><path
           id="path10304"
           d="m 729.21,408.37 -0.02,-0.05 -0.01,-0.05 -0.01,-0.06 -0.01,-0.05 -0.02,-0.06 -0.01,-0.06 -0.03,-0.12 -0.03,-0.12 -0.03,-0.12 -0.02,-0.12 -0.03,-0.11 -0.01,-0.06 -0.02,-0.06 -0.01,-0.05 -0.01,-0.05 -0.01,-0.05 -0.01,-0.05 -0.01,-0.05 -0.01,-0.04 -0.01,-0.04 -0.01,-0.04 v -0.04 l -0.01,-0.03 v -0.03 -0.03 l -0.01,-0.02 v -0.02 c 0,-0.54 0.46,-0.87 0.92,-0.87 0.38,0 0.93,0.2 1.21,0.83 0.01,0.12 0.31,1.29 0.47,1.93 0.84,3.38 0.84,3.43 0.89,3.52 0.33,0.67 2.12,4.16 5.15,4.16 1.22,0 1.75,-0.68 1.75,-1.79 0,-1.42 -1.04,-3.98 -1.62,-5.4 -0.13,-0.3 -0.25,-0.63 -0.25,-1.05 0,-1.3 1.25,-2.2 2.72,-2.2 2.67,0 4.03,3.25 4.03,3.87 0,0.35 -0.42,0.35 -0.52,0.35 -0.42,0 -0.45,-0.1 -0.59,-0.58 -0.49,-1.49 -1.62,-2.78 -2.83,-2.78 -0.56,0 -0.73,0.39 -0.73,0.93 0,0.54 0.09,0.79 0.31,1.33 0.42,1 1.58,3.83 1.58,5.21 0,1.84 -1.33,2.96 -3.69,2.96 -2.31,0 -3.94,-1.42 -4.94,-2.75 -0.22,2.55 -2.69,2.75 -3.7,2.75 -2.45,0 -3.84,-1.53 -4.74,-2.46 -0.1,2.18 -2.38,2.46 -3.01,2.46 -2.5,0 -3.22,-3.81 -3.22,-3.85 0,-0.36 0.41,-0.36 0.53,-0.36 0.42,0 0.47,0.15 0.57,0.48 0.37,1.44 0.95,2.88 2,2.88 0.84,0 1.01,-0.8 1.01,-1.32 0,-0.34 -0.25,-1.29 -0.39,-1.93 -0.19,-0.68 -0.42,-1.71 -0.55,-2.25 l -0.57,-2.22 c -0.16,-0.63 -0.43,-1.72 -0.43,-1.85 0,-0.54 0.44,-0.87 0.93,-0.87 0.37,0 0.92,0.2 1.18,0.83 0.03,0.12 0.33,1.29 0.49,1.93 0.09,0.41 0.37,1.47 0.43,1.72 0.13,0.56 0.28,1.11 0.41,1.67 0.05,0.11 0.94,1.93 2.16,3 0.4,0.35 1.45,1.29 3.08,1.29 1.26,0 1.73,-0.72 1.73,-1.79 0,-0.54 -0.25,-1.54 -0.45,-2.32 z"
           inkscape:connector-curvature="0"
           style="fill:#000000;stroke-width:0" /><path
           id="path10306"
           d="m 754.48,403.21 v -0.07 l -0.01,-0.07 -0.01,-0.08 -0.01,-0.08 -0.02,-0.09 -0.02,-0.09 -0.03,-0.09 -0.04,-0.09 -0.04,-0.09 -0.05,-0.1 -0.06,-0.09 -0.07,-0.1 -0.07,-0.09 -0.09,-0.1 -0.09,-0.09 -0.11,-0.09 -0.11,-0.09 -0.13,-0.09 -0.14,-0.09 -0.15,-0.08 -0.16,-0.08 -0.18,-0.08 -0.09,-0.03 -0.1,-0.04 -0.1,-0.03 -0.11,-0.04 -0.11,-0.03 -0.11,-0.03 -0.11,-0.03 -0.12,-0.03 -0.13,-0.02 -0.13,-0.03 -0.13,-0.02 -0.13,-0.02 -0.14,-0.02 -0.15,-0.02 -0.15,-0.02 -0.15,-0.01 -0.16,-0.02 -0.16,-0.01 -0.17,-0.01 -0.17,-0.01 c -0.2,-0.03 -0.32,-0.2 -0.32,-0.42 0,-0.44 0.25,-0.44 0.76,-0.44 1.84,0 5.47,0.33 5.89,2.96 0.02,0.14 0.02,0.19 0.02,0.97 v 4.48 c 0,1.44 0,1.99 0.83,2.66 1,0.78 2.35,0.95 3.06,0.97 0.42,0.03 0.64,0.03 0.64,0.43 0,0.07 0,0.39 -0.38,0.43 -3.53,0.12 -4.12,1.78 -4.15,2.53 v 5.26 c 0,1.61 0,2.64 -1.97,3.56 -0.81,0.38 -2.41,0.68 -3.94,0.68 -0.51,0 -0.76,0 -0.76,-0.43 0,-0.07 0,-0.4 0.37,-0.42 2.52,-0.11 3.78,-0.87 4.11,-2 0.05,-0.22 0.05,-0.5 0.05,-0.83 v -5.4 c 0,-0.85 0,-2.56 2.97,-3.38 -2,-0.56 -2.97,-1.62 -2.97,-3.14 z"
           inkscape:connector-curvature="0"
           style="fill:#000000;stroke-width:0" /></g>
    </g>
  </g>
</svg>
