<?xml version="1.0" encoding="UTF-8" standalone="no"?>
<svg
   xmlns:osb="http://www.openswatchbook.org/uri/2009/osb"
   xmlns:dc="http://purl.org/dc/elements/1.1/"
   xmlns:cc="http://creativecommons.org/ns#"
   xmlns:rdf="http://www.w3.org/1999/02/22-rdf-syntax-ns#"
   xmlns:svg="http://www.w3.org/2000/svg"
   xmlns="http://www.w3.org/2000/svg"
   xmlns:xlink="http://www.w3.org/1999/xlink"
   xmlns:sodipodi="http://sodipodi.sourceforge.net/DTD/sodipodi-0.dtd"
   xmlns:inkscape="http://www.inkscape.org/namespaces/inkscape"
   id="svg8"
   version="1.1"
   viewBox="0 0 210 297"
   height="297mm"
   width="210mm"
   inkscape:version="1.0.1 (3bc2e813f5, 2020-09-07)"
   sodipodi:docname="bell.svg"
   inkscape:export-filename="/home/user/Downloads/master_thesis/images/bell.png"
   inkscape:export-xdpi="200"
   inkscape:export-ydpi="200">
  <defs
     id="defs2">
    <linearGradient
       id="linearGradient8012"
       osb:paint="solid">
      <stop
         style="stop-color:#d4d4d4;stop-opacity:1;"
         offset="0"
         id="stop8010" />
    </linearGradient>
    <linearGradient
       id="linearGradient6668"
       osb:paint="solid">
      <stop
         style="stop-color:#c9c9c9;stop-opacity:1;"
         offset="0"
         id="stop6666" />
    </linearGradient>
    <linearGradient
       id="linearGradient6660"
       osb:paint="solid">
      <stop
         style="stop-color:#d4d4d4;stop-opacity:1;"
         offset="0"
         id="stop6658" />
    </linearGradient>
    <marker
       inkscape:stockid="Arrow1Mstart"
       orient="auto"
       refY="0.0"
       refX="0.0"
       id="Arrow1Mstart"
       style="overflow:visible"
       inkscape:isstock="true">
      <path
         id="path1487"
         d="M 0.0,0.0 L 5.0,-5.0 L -12.5,0.0 L 5.0,5.0 L 0.0,0.0 z "
         style="fill-rule:evenodd;stroke:#000000;stroke-width:1pt;stroke-opacity:1;fill:#000000;fill-opacity:1"
         transform="scale(0.4) translate(10,0)" />
    </marker>
    <marker
       inkscape:stockid="Arrow1Lstart"
       orient="auto"
       refY="0.0"
       refX="0.0"
       id="Arrow1Lstart"
       style="overflow:visible"
       inkscape:isstock="true">
      <path
         id="path1481"
         d="M 0.0,0.0 L 5.0,-5.0 L -12.5,0.0 L 5.0,5.0 L 0.0,0.0 z "
         style="fill-rule:evenodd;stroke:#000000;stroke-width:1pt;stroke-opacity:1;fill:#000000;fill-opacity:1"
         transform="scale(0.8) translate(12.5,0)" />
    </marker>
    <marker
       inkscape:stockid="Arrow2Lend"
       orient="auto"
       refY="0.0"
       refX="0.0"
       id="Arrow2Lend"
       style="overflow:visible;"
       inkscape:isstock="true">
      <path
         id="path1502"
         style="fill-rule:evenodd;stroke-width:0.625;stroke-linejoin:round;stroke:#000000;stroke-opacity:1;fill:#000000;fill-opacity:1"
         d="M 8.7185878,4.0337352 L -2.2072895,0.016013256 L 8.7185884,-4.0017078 C 6.9730900,-1.6296469 6.9831476,1.6157441 8.7185878,4.0337352 z "
         transform="scale(1.1) rotate(180) translate(1,0)" />
    </marker>
    <marker
       inkscape:isstock="true"
       style="overflow:visible"
       id="marker3562"
       refX="0"
       refY="0"
       orient="auto"
       inkscape:stockid="Arrow1Lend">
      <path
         transform="matrix(-0.8,0,0,-0.8,-10,0)"
         style="fill:#000000;fill-opacity:1;fill-rule:evenodd;stroke:#000000;stroke-width:1.00000003pt;stroke-opacity:1"
         d="M 0,0 5,-5 -12.5,0 5,5 Z"
         id="path3560"
         inkscape:connector-curvature="0" />
    </marker>
    <marker
       inkscape:stockid="Arrow1Lend"
       orient="auto"
       refY="0.0"
       refX="0.0"
       id="Arrow1Lend"
       style="overflow:visible;"
       inkscape:isstock="true">
      <path
         id="path1484"
         d="M 0.0,0.0 L 5.0,-5.0 L -12.5,0.0 L 5.0,5.0 L 0.0,0.0 z "
         style="fill-rule:evenodd;stroke:#000000;stroke-width:1pt;stroke-opacity:1;fill:#000000;fill-opacity:1"
         transform="scale(0.8) rotate(180) translate(12.5,0)" />
    </marker>
    <marker
       inkscape:stockid="Arrow1Mstart"
       orient="auto"
       refY="0"
       refX="0"
       id="Arrow1Mstart-8"
       style="overflow:visible"
       inkscape:isstock="true">
      <path
         inkscape:connector-curvature="0"
         id="path1487-7"
         d="M 0,0 5,-5 -12.5,0 5,5 Z"
         style="fill:#000000;fill-opacity:1;fill-rule:evenodd;stroke:#000000;stroke-width:1.00000003pt;stroke-opacity:1"
         transform="matrix(0.4,0,0,0.4,4,0)" />
    </marker>
    <marker
       inkscape:stockid="Arrow1Mstart"
       orient="auto"
       refY="0"
       refX="0"
       id="Arrow1Mstart-2"
       style="overflow:visible"
       inkscape:isstock="true">
      <path
         inkscape:connector-curvature="0"
         id="path1487-0"
         d="M 0,0 5,-5 -12.5,0 5,5 Z"
         style="fill:#000000;fill-opacity:1;fill-rule:evenodd;stroke:#000000;stroke-width:1.00000003pt;stroke-opacity:1"
         transform="matrix(0.4,0,0,0.4,4,0)" />
    </marker>
    <marker
       inkscape:stockid="Arrow1Mstart"
       orient="auto"
       refY="0"
       refX="0"
       id="Arrow1Mstart-8-3"
       style="overflow:visible"
       inkscape:isstock="true">
      <path
         inkscape:connector-curvature="0"
         id="path1487-7-7"
         d="M 0,0 5,-5 -12.5,0 5,5 Z"
         style="fill:#000000;fill-opacity:1;fill-rule:evenodd;stroke:#000000;stroke-width:1.00000003pt;stroke-opacity:1"
         transform="matrix(0.4,0,0,0.4,4,0)" />
    </marker>
    <linearGradient
       inkscape:collect="always"
       xlink:href="#linearGradient6668"
       id="linearGradient6676"
       x1="13.900807"
       y1="118.03535"
       x2="53.519031"
       y2="118.03535"
       gradientUnits="userSpaceOnUse"
       gradientTransform="translate(-0.52916663,0.42872647)" />
    <linearGradient
       gradientTransform="translate(127.08122,0.42873027)"
       inkscape:collect="always"
       xlink:href="#linearGradient6668"
       id="linearGradient6676-9"
       x1="13.900807"
       y1="118.03535"
       x2="53.519032"
       y2="118.03535"
       gradientUnits="userSpaceOnUse" />
    <filter
       inkscape:collect="always"
       style="color-interpolation-filters:sRGB"
       id="filter8784"
       x="-0.7296"
       width="2.4592"
       y="-0.7296"
       height="2.4592">
      <feGaussianBlur
         inkscape:collect="always"
         stdDeviation="7.4688091"
         id="feGaussianBlur8786" />
    </filter>
  </defs>
  <sodipodi:namedview
     id="base"
     pagecolor="#ffffff"
     bordercolor="#666666"
     borderopacity="1.0"
     inkscape:pageopacity="0.0"
     inkscape:pageshadow="2"
     inkscape:zoom="0.7"
     inkscape:cx="105.21407"
     inkscape:cy="587.08863"
     inkscape:document-units="mm"
     inkscape:current-layer="layer1"
     showgrid="false"
     inkscape:window-width="1280"
     inkscape:window-height="656"
     inkscape:window-x="0"
     inkscape:window-y="0"
     inkscape:window-maximized="1"
     inkscape:snap-global="false"
     inkscape:object-nodes="false"
     inkscape:document-rotation="0" />
  <metadata
     id="metadata5">
    <rdf:RDF>
      <cc:Work
         rdf:about="">
        <dc:format>image/svg+xml</dc:format>
        <dc:type
           rdf:resource="http://purl.org/dc/dcmitype/StillImage" />
        <dc:title />
      </cc:Work>
    </rdf:RDF>
  </metadata>
  <g
     inkscape:label="Layer 1"
     inkscape:groupmode="layer"
     id="layer1">
    <circle
       style="opacity:1;fill:#80b3ff;fill-opacity:1;stroke:none;stroke-width:0.5;stroke-linejoin:round;stroke-miterlimit:4;stroke-dasharray:none;stroke-dashoffset:0;stroke-opacity:1;filter:url(#filter8784)"
       id="path8016"
       cx="101.18423"
       cy="116.51636"
       r="12.284225"
       transform="matrix(1.3513236,0,0,1.131356,-39.809777,-13.357407)" />
    <rect
       style="opacity:0.75;fill:url(#linearGradient6676-9);fill-opacity:1;stroke:#000000;stroke-width:0.5822472;stroke-linejoin:round;stroke-miterlimit:4;stroke-dasharray:none;stroke-dashoffset:0;stroke-opacity:1"
       id="rect815-6-5-2"
       width="39.035976"
       height="20.187557"
       x="141.27293"
       y="108.37029"
       rx="3.6681852"
       ry="3.6681852" />
    <rect
       style="opacity:0.75;fill:url(#linearGradient6676);fill-opacity:1;stroke:#000000;stroke-width:0.58224714;stroke-linejoin:round;stroke-miterlimit:4;stroke-dasharray:none;stroke-dashoffset:0;stroke-opacity:1"
       id="rect815-6-5"
       width="39.035976"
       height="20.187557"
       x="13.662765"
       y="108.37029"
       rx="3.6681852"
       ry="3.6681852" />
    <g
       id="g3805"
       transform="translate(60.325004,19.261571)">
      <g
         word-spacing="normal"
         letter-spacing="normal"
         font-size-adjust="none"
         font-stretch="normal"
         font-weight="normal"
         font-variant="normal"
         font-style="normal"
         stroke-miterlimit="10.433"
         xml:space="preserve"
         transform="matrix(0.3,0,0,-0.3,-52.5,222.75)"
         id="g3803"
         style="font-style:normal;font-variant:normal;font-weight:normal;font-stretch:normal;letter-spacing:normal;word-spacing:normal;text-anchor:start;fill:none;fill-opacity:1;fill-rule:evenodd;stroke:#000000;stroke-linecap:butt;stroke-linejoin:miter;stroke-miterlimit:10.43299961;stroke-dasharray:none;stroke-dashoffset:0;stroke-opacity:1"><path
           id="path3793"
           d="m 461.69,408.26 -0.02,-0.07 -0.01,-0.06 -0.02,-0.06 -0.02,-0.06 -0.01,-0.06 -0.02,-0.05 -0.02,-0.05 -0.02,-0.05 -0.02,-0.05 -0.03,-0.04 -0.03,-0.04 -0.03,-0.03 -0.03,-0.04 -0.04,-0.03 -0.05,-0.03 -0.04,-0.03 -0.06,-0.02 -0.06,-0.03 -0.06,-0.02 -0.07,-0.02 -0.04,-0.01 h -0.04 l -0.04,-0.01 -0.04,-0.01 -0.04,-0.01 h -0.05 l -0.05,-0.01 h -0.05 l -0.05,-0.01 -0.05,-0.01 h -0.06 -0.06 l -0.06,-0.01 h -0.06 -0.06 l -0.07,-0.01 h -0.07 -0.07 -0.08 -0.07 -0.08 l -0.09,-0.01 h -0.08 -0.09 c -0.65,0 -1.04,0 -1.04,-0.7 0,-0.42 0.39,-0.42 0.82,-0.42 h 10.83 c 4.49,0 8.13,2.8 8.13,5.28 0,1.55 -1.46,3.22 -4.85,3.64 2.47,0.31 5.99,1.97 5.99,4.45 0,2.1 -2.47,3.64 -5.86,3.64 l -0.44,-1.12 c 2.47,0 3.64,-1.27 3.64,-2.59 0,-2.02 -2.7,-4.04 -6.19,-4.04 h -4.7 l -0.23,-0.84 h 6.07 c 2.55,0 3.82,-1.47 3.82,-3.05 0,-2.4 -2.96,-4.25 -6.05,-4.25 h -4.81 c -0.19,0 -0.55,0 -0.8,0.05 0.03,0.2 0.03,0.25 0.08,0.45 l 1.69,6.8 0.23,0.84 1.44,5.82 c 0.2,0.76 0.2,0.81 1.25,0.81 h 4.56 l 0.44,1.12 h -10.21 c -0.46,0 -0.87,0 -0.87,-0.7 0,-0.42 0.33,-0.42 0.92,-0.42 0.25,0 1.08,0 1.6,-0.14 0,-0.31 0,-0.36 -0.08,-0.63 z"
           inkscape:connector-curvature="0"
           style="fill:#000000;stroke-width:0" /><path
           id="path3795"
           d="m 491.24,414.61 v 0.03 0.03 0.04 0.03 0.03 0.03 0.03 0.02 0.03 l -0.01,0.02 v 0.03 0.02 0.03 l -0.01,0.02 v 0.02 0.02 l -0.01,0.02 v 0.02 l -0.01,0.03 -0.01,0.03 -0.02,0.03 -0.01,0.03 -0.02,0.02 -0.02,0.02 -0.02,0.02 -0.02,0.02 -0.03,0.01 -0.03,0.01 -0.03,0.02 h -0.04 l -0.04,0.01 -0.04,0.01 h -0.02 -0.02 l -0.03,0.01 h -0.02 -0.03 -0.02 -0.03 -0.03 -0.03 -0.03 -0.03 -0.03 -0.03 -0.04 -0.03 -0.04 l -0.04,0.01 h -0.03 c -1.77,-1.6 -4.54,-1.6 -5.04,-1.6 h -0.42 v -1.09 h 0.42 c 0.58,0 2.19,0.06 3.65,0.69 V 400.9 c 0,-0.76 0,-1.04 -2.65,-1.04 h -1.25 v -1.1 c 1.38,0.1 3.6,0.1 5.04,0.1 1.45,0 3.67,0 5.03,-0.1 v 1.1 h -1.24 c -2.64,0 -2.64,0.28 -2.64,1.04 z"
           inkscape:connector-curvature="0"
           style="fill:#000000;stroke-width:0" /><path
           id="path3797"
           d="m 515.93,423.64 v 0.01 l 0.01,0.02 0.01,0.02 0.01,0.01 v 0.02 l 0.01,0.02 0.01,0.01 v 0.01 l 0.01,0.03 0.02,0.03 0.01,0.03 0.01,0.02 v 0.02 l 0.01,0.02 0.01,0.02 0.01,0.02 v 0.02 l 0.01,0.02 v 0.02 l 0.01,0.01 v 0.02 0.01 l 0.01,0.01 v 0.02 0.01 0.01 0.01 l 0.01,0.01 v 0.01 0.01 0.01 0.02 0.01 c 0,0.38 -0.33,0.71 -0.7,0.71 -0.4,0 -0.6,-0.28 -0.74,-0.63 l -10.5,-23.05 c -0.17,-0.37 -0.17,-0.46 -0.17,-0.54 0,-0.38 0.33,-0.71 0.7,-0.71 0.39,0 0.6,0.29 0.75,0.63 z"
           inkscape:connector-curvature="0"
           style="fill:#000000;stroke-width:0" /><path
           id="path3799"
           d="m 525.41,408.26 -0.02,-0.07 -0.01,-0.06 -0.02,-0.06 -0.02,-0.06 -0.01,-0.06 -0.02,-0.05 -0.02,-0.05 -0.02,-0.05 -0.03,-0.05 -0.02,-0.04 -0.03,-0.04 -0.03,-0.03 -0.04,-0.04 -0.04,-0.03 -0.04,-0.03 -0.05,-0.03 -0.05,-0.02 -0.06,-0.03 -0.06,-0.02 -0.07,-0.02 -0.04,-0.01 h -0.04 l -0.04,-0.01 -0.04,-0.01 -0.04,-0.01 h -0.05 l -0.05,-0.01 h -0.05 l -0.05,-0.01 -0.05,-0.01 h -0.06 -0.06 l -0.06,-0.01 h -0.06 -0.07 l -0.06,-0.01 h -0.07 -0.07 -0.08 -0.08 -0.08 l -0.08,-0.01 h -0.08 -0.09 c -0.65,0 -1.05,0 -1.05,-0.7 0,-0.42 0.4,-0.42 0.83,-0.42 h 10.83 c 4.49,0 8.12,2.8 8.12,5.28 0,1.55 -1.45,3.22 -4.84,3.64 2.47,0.31 5.99,1.97 5.99,4.45 0,2.1 -2.47,3.64 -5.86,3.64 l -0.44,-1.12 c 2.47,0 3.64,-1.27 3.64,-2.59 0,-2.02 -2.7,-4.04 -6.19,-4.04 h -4.7 l -0.23,-0.84 h 6.07 c 2.55,0 3.81,-1.47 3.81,-3.05 0,-2.4 -2.95,-4.25 -6.04,-4.25 h -4.81 c -0.19,0 -0.55,0 -0.8,0.05 0.03,0.2 0.03,0.25 0.08,0.45 l 1.69,6.8 0.23,0.84 1.44,5.82 c 0.2,0.76 0.2,0.81 1.25,0.81 h 4.56 l 0.44,1.12 h -10.21 c -0.46,0 -0.87,0 -0.87,-0.7 0,-0.42 0.33,-0.42 0.92,-0.42 0.25,0 1.08,0 1.59,-0.14 0,-0.31 0,-0.36 -0.07,-0.63 z"
           inkscape:connector-curvature="0"
           style="fill:#000000;stroke-width:0" /><path
           id="path3801"
           d="m 559.71,403.57 h -1.05 c -0.07,-0.48 -0.32,-2.01 -0.71,-2.26 -0.21,-0.16 -2.3,-0.16 -2.68,-0.16 h -4.87 c 1.64,1.22 3.48,2.61 4.98,3.61 2.24,1.55 4.33,3 4.33,5.64 0,3.19 -3.01,4.96 -6.58,4.96 -3.36,0 -5.83,-1.96 -5.83,-4.4 0,-1.29 1.1,-1.51 1.46,-1.51 0.67,0 1.47,0.45 1.47,1.47 0,0.89 -0.66,1.39 -1.43,1.47 0.69,1.12 2.15,1.87 3.82,1.87 2.4,0 4.42,-1.45 4.42,-3.89 0,-2.09 -1.44,-3.69 -3.36,-5.31 l -6.08,-5.16 c -0.25,-0.22 -0.26,-0.22 -0.3,-0.39 v -0.75 h 11.58 z"
           inkscape:connector-curvature="0"
           style="fill:#000000;stroke-width:0" /></g>
    </g>
    <g
       id="g3853"
       transform="translate(-67.128574,19.261571)">
      <g
         word-spacing="normal"
         letter-spacing="normal"
         font-size-adjust="none"
         font-stretch="normal"
         font-weight="normal"
         font-variant="normal"
         font-style="normal"
         stroke-miterlimit="10.433"
         xml:space="preserve"
         transform="matrix(0.3,0,0,-0.3,-52.5,222.75)"
         id="content"
         style="font-style:normal;font-variant:normal;font-weight:normal;font-stretch:normal;letter-spacing:normal;word-spacing:normal;text-anchor:start;fill:none;fill-opacity:1;fill-rule:evenodd;stroke:#000000;stroke-linecap:butt;stroke-linejoin:miter;stroke-miterlimit:10.43299961;stroke-dasharray:none;stroke-dashoffset:0;stroke-opacity:1"><path
           id="path3842"
           d="m 473.63,423.36 -0.01,0.04 -0.01,0.05 -0.01,0.04 -0.01,0.05 -0.01,0.04 -0.01,0.04 -0.01,0.03 -0.01,0.04 -0.01,0.03 -0.02,0.03 -0.01,0.03 -0.02,0.03 -0.01,0.02 -0.02,0.03 -0.02,0.02 -0.02,0.02 -0.02,0.02 -0.02,0.01 -0.02,0.02 -0.03,0.02 -0.02,0.01 -0.03,0.01 -0.03,0.01 -0.04,0.01 -0.03,0.01 -0.04,0.01 h -0.04 l -0.04,0.01 h -0.04 -0.04 -0.05 -0.05 c -0.59,0 -0.75,-0.2 -1,-0.58 l -9.77,-14.15 c -1.03,-1.52 -1.9,-1.91 -3.53,-1.99 -0.47,-0.03 -0.47,-0.67 -0.47,-0.7 0,-0.34 0.3,-0.42 0.39,-0.42 0.36,0 0.79,0.08 1.13,0.08 0.42,0 0.84,0.01 1.26,0.01 0.49,0 0.93,-0.01 1.38,-0.01 0.45,0 0.97,-0.08 1.42,-0.08 0.17,0 0.6,0 0.6,0.7 0,0.39 -0.38,0.42 -0.47,0.42 -0.21,0 -1.18,0.05 -1.18,0.64 0,0.3 0.3,0.72 0.47,0.97 l 1.83,2.68 c 0.13,0.15 0.14,0.17 0.61,0.17 h 7.56 l -0.2,1.12 h -7.08 l 5.56,8.06 1.52,-8.06 0.2,-1.12 c 0.05,-0.3 0.07,-0.42 0.14,-0.72 0.08,-0.45 0.58,-2.94 0.58,-3.19 0,-0.55 -1.58,-0.55 -1.7,-0.55 -0.38,0 -0.77,0 -0.77,-0.7 0,-0.25 0.18,-0.42 0.46,-0.42 0.51,0 1.11,0.08 1.65,0.08 0.61,0 1.17,0.01 1.78,0.01 0.52,0 1.07,-0.01 1.6,-0.01 0.5,0 1.06,-0.08 1.56,-0.08 0.42,0 0.59,0.3 0.59,0.7 0,0.42 -0.39,0.42 -0.73,0.42 -1.66,0 -1.67,0.18 -1.78,0.72 z"
           inkscape:connector-curvature="0"
           style="fill:#000000;stroke-width:0" /><path
           id="path3844"
           d="m 491.24,414.61 v 0.03 0.03 0.04 0.03 0.03 0.03 0.03 0.02 0.03 l -0.01,0.02 v 0.03 0.02 0.03 l -0.01,0.02 v 0.02 0.02 l -0.01,0.02 v 0.02 l -0.01,0.03 -0.01,0.03 -0.02,0.03 -0.01,0.03 -0.02,0.02 -0.02,0.02 -0.02,0.02 -0.02,0.02 -0.03,0.01 -0.03,0.01 -0.03,0.02 h -0.04 l -0.04,0.01 -0.04,0.01 h -0.02 -0.02 l -0.03,0.01 h -0.02 -0.03 -0.02 -0.03 -0.03 -0.03 -0.03 -0.03 -0.03 -0.03 -0.04 -0.03 -0.04 l -0.04,0.01 h -0.03 c -1.77,-1.6 -4.54,-1.6 -5.04,-1.6 h -0.42 v -1.09 h 0.42 c 0.58,0 2.19,0.06 3.65,0.69 V 400.9 c 0,-0.76 0,-1.04 -2.65,-1.04 h -1.25 v -1.1 c 1.38,0.1 3.6,0.1 5.04,0.1 1.45,0 3.67,0 5.03,-0.1 v 1.1 h -1.24 c -2.64,0 -2.64,0.28 -2.64,1.04 z"
           inkscape:connector-curvature="0"
           style="fill:#000000;stroke-width:0" /><path
           id="path3846"
           d="m 515.81,423.64 0.01,0.01 v 0.02 l 0.01,0.02 0.01,0.01 0.01,0.02 v 0.02 l 0.01,0.01 0.01,0.01 0.01,0.03 0.01,0.03 0.01,0.03 0.01,0.02 0.01,0.02 v 0.02 l 0.01,0.02 0.01,0.02 v 0.02 l 0.01,0.02 v 0.02 l 0.01,0.01 v 0.02 l 0.01,0.01 v 0.01 0.02 0.01 0.01 l 0.01,0.01 v 0.01 0.01 0.01 0.01 0.02 0.01 c 0,0.38 -0.33,0.71 -0.7,0.71 -0.39,0 -0.6,-0.28 -0.74,-0.63 l -10.5,-23.05 c -0.17,-0.37 -0.17,-0.46 -0.17,-0.54 0,-0.38 0.33,-0.71 0.7,-0.71 0.39,0 0.6,0.29 0.75,0.63 z"
           inkscape:connector-curvature="0"
           style="fill:#000000;stroke-width:0" /><path
           id="path3848"
           d="m 535.55,423.36 -0.01,0.04 -0.01,0.05 -0.01,0.04 -0.01,0.05 -0.01,0.04 -0.01,0.04 -0.01,0.03 -0.01,0.04 -0.02,0.03 -0.01,0.03 -0.01,0.03 -0.02,0.03 -0.01,0.02 -0.02,0.03 -0.02,0.02 -0.02,0.02 -0.02,0.02 -0.02,0.01 -0.02,0.02 -0.03,0.02 -0.03,0.01 -0.03,0.01 -0.03,0.01 -0.03,0.01 -0.03,0.01 -0.04,0.01 h -0.04 l -0.04,0.01 h -0.04 -0.05 -0.04 -0.05 c -0.6,0 -0.75,-0.2 -1,-0.58 l -9.77,-14.15 c -1.03,-1.52 -1.91,-1.91 -3.53,-1.99 -0.47,-0.03 -0.47,-0.67 -0.47,-0.7 0,-0.34 0.3,-0.42 0.39,-0.42 0.36,0 0.78,0.08 1.13,0.08 0.42,0 0.84,0.01 1.26,0.01 0.49,0 0.92,-0.01 1.38,-0.01 0.45,0 0.97,-0.08 1.42,-0.08 0.17,0 0.59,0 0.59,0.7 0,0.39 -0.37,0.42 -0.47,0.42 -0.2,0 -1.17,0.05 -1.17,0.64 0,0.3 0.3,0.72 0.47,0.97 l 1.83,2.68 c 0.12,0.15 0.14,0.17 0.61,0.17 h 7.56 l -0.2,1.12 h -7.08 l 5.56,8.06 1.52,-8.06 0.2,-1.12 c 0.05,-0.3 0.06,-0.42 0.14,-0.72 0.08,-0.45 0.58,-2.94 0.58,-3.19 0,-0.55 -1.58,-0.55 -1.7,-0.55 -0.38,0 -0.77,0 -0.77,-0.7 0,-0.25 0.17,-0.42 0.45,-0.42 0.52,0 1.11,0.08 1.66,0.08 0.61,0 1.17,0.01 1.78,0.01 0.52,0 1.06,-0.01 1.6,-0.01 0.5,0 1.06,-0.08 1.56,-0.08 0.42,0 0.59,0.3 0.59,0.7 0,0.42 -0.39,0.42 -0.73,0.42 -1.66,0 -1.67,0.18 -1.78,0.72 z"
           inkscape:connector-curvature="0"
           style="fill:#000000;stroke-width:0" /><path
           id="path3850"
           d="m 557.91,403.57 h -1.05 c -0.08,-0.48 -0.33,-2.01 -0.71,-2.26 -0.21,-0.16 -2.3,-0.16 -2.68,-0.16 h -4.87 c 1.64,1.22 3.48,2.61 4.98,3.61 2.24,1.55 4.33,3 4.33,5.64 0,3.19 -3.01,4.96 -6.58,4.96 -3.36,0 -5.83,-1.96 -5.83,-4.4 0,-1.29 1.1,-1.51 1.46,-1.51 0.67,0 1.47,0.45 1.47,1.47 0,0.89 -0.66,1.39 -1.43,1.47 0.69,1.12 2.15,1.87 3.82,1.87 2.4,0 4.42,-1.45 4.42,-3.89 0,-2.09 -1.44,-3.69 -3.36,-5.31 l -6.08,-5.16 c -0.25,-0.22 -0.27,-0.22 -0.3,-0.39 v -0.75 h 11.58 z"
           inkscape:connector-curvature="0"
           style="fill:#000000;stroke-width:0" /></g>
    </g>
    <path
       style="fill:none;stroke:#000000;stroke-width:0.47081852;stroke-linecap:butt;stroke-linejoin:miter;stroke-miterlimit:4;stroke-dasharray:none;stroke-opacity:1"
       d="m 52.960996,118.47172 c 7.864516,-0.0135 15.72909,0.002 23.593603,-0.0153"
       id="path4090-6"
       inkscape:connector-curvature="0"
       sodipodi:nodetypes="cc" />
    <path
       style="fill:none;stroke:#000000;stroke-width:0.47081855;stroke-linecap:butt;stroke-linejoin:miter;stroke-miterlimit:4;stroke-dasharray:none;stroke-opacity:1"
       d="m 117.24428,118.47172 c 7.86452,-0.0135 15.72909,0.002 23.59361,-0.0153"
       id="path4090-6-1"
       inkscape:connector-curvature="0"
       sodipodi:nodetypes="cc" />
    <path
       style="fill:none;stroke:#000000;stroke-width:0.5;stroke-linecap:butt;stroke-linejoin:miter;stroke-miterlimit:4;stroke-dasharray:none;stroke-opacity:1;marker-start:url(#Arrow1Mstart)"
       d="m 33.17091,129.10086 0.04735,16.63518"
       id="path4137"
       inkscape:connector-curvature="0" />
    <path
       style="fill:none;stroke:#000000;stroke-width:0.5;stroke-linecap:butt;stroke-linejoin:miter;stroke-miterlimit:4;stroke-dasharray:none;stroke-opacity:1;marker-start:url(#Arrow1Mstart-8)"
       d="m 160.78109,129.3664 0.0473,16.63518"
       id="path4137-9"
       inkscape:connector-curvature="0" />
    <path
       style="fill:none;stroke:#000000;stroke-width:0.5;stroke-linecap:butt;stroke-linejoin:miter;stroke-miterlimit:4;stroke-dasharray:none;stroke-opacity:1;marker-start:url(#Arrow1Mstart-2)"
       d="m 33.17091,91.493172 0.04735,16.635178"
       id="path4137-2"
       inkscape:connector-curvature="0" />
    <path
       style="fill:none;stroke:#000000;stroke-width:0.5;stroke-linecap:butt;stroke-linejoin:miter;stroke-miterlimit:4;stroke-dasharray:none;stroke-opacity:1;marker-start:url(#Arrow1Mstart-8-3)"
       d="m 160.78109,91.266385 0.0473,16.635185"
       id="path4137-9-5"
       inkscape:connector-curvature="0" />
    <g
       id="g9411"
       transform="translate(8.6178549,22.678571)">
      <g
         word-spacing="normal"
         letter-spacing="normal"
         font-size-adjust="none"
         font-stretch="normal"
         font-weight="normal"
         font-variant="normal"
         font-style="normal"
         stroke-miterlimit="10.433"
         xml:space="preserve"
         transform="matrix(0.3,0,0,-0.3,-52.5,222.75)"
         id="g9409"
         style="font-style:normal;font-variant:normal;font-weight:normal;font-stretch:normal;letter-spacing:normal;word-spacing:normal;text-anchor:start;fill:none;fill-opacity:1;fill-rule:evenodd;stroke:#000000;stroke-linecap:butt;stroke-linejoin:miter;stroke-miterlimit:10.43299961;stroke-dasharray:none;stroke-dashoffset:0;stroke-opacity:1"><path
           id="path9407"
           d="m 472.91,425.53 -6.37,1.54 c -3.1,0.75 -5.04,3.44 -5.04,6.33 0,3.49 2.69,6.53 6.58,6.53 8.31,0 9.41,-8.17 9.71,-10.42 0.04,-0.3 0.04,-0.59 0.6,-0.59 0.65,0 0.65,0.25 0.65,1.2 v 10 c 0,0.86 0,1.2 -0.55,1.2 -0.35,0 -0.41,-0.04 -0.75,-0.65 L 476,437.84 c -1.5,1.44 -3.54,3.48 -7.98,3.48 -5.53,0 -9.7,-4.39 -9.7,-9.67 0,-4.12 2.64,-7.76 6.51,-9.11 0.55,-0.2 3.1,-0.79 6.58,-1.64 1.34,-0.36 2.84,-0.7 4.23,-2.54 1.05,-1.3 1.55,-2.94 1.55,-4.58 0,-3.55 -2.48,-7.13 -6.67,-7.13 -1.45,0 -5.23,0.25 -7.88,2.69 -2.89,2.69 -3.04,5.87 -3.09,7.67 -0.05,0.5 -0.44,0.5 -0.59,0.5 -0.64,0 -0.64,-0.36 -0.64,-1.25 v -9.97 c 0,-0.84 0,-1.18 0.54,-1.18 0.35,0 0.39,0.09 0.74,0.64 0,0.04 0.15,0.2 1.79,2.84 1.55,-1.69 4.74,-3.48 9.18,-3.48 5.82,0 9.81,4.87 9.81,10.35 0,4.99 -3.28,9.07 -7.47,10.07 z"
           inkscape:connector-curvature="0"
           style="fill:#000000;stroke-width:0" /></g>
    </g>
    <g
       id="g9726"
       transform="translate(-54.639747,-15.119048)">
      <g
         word-spacing="normal"
         letter-spacing="normal"
         font-size-adjust="none"
         font-stretch="normal"
         font-weight="normal"
         font-variant="normal"
         font-style="normal"
         stroke-miterlimit="10.433"
         xml:space="preserve"
         transform="matrix(0.3,0,0,-0.3,-52.5,222.75)"
         id="g9724"
         style="font-style:normal;font-variant:normal;font-weight:normal;font-stretch:normal;letter-spacing:normal;word-spacing:normal;text-anchor:start;fill:none;fill-opacity:1;fill-rule:evenodd;stroke:#000000;stroke-linecap:butt;stroke-linejoin:miter;stroke-miterlimit:10.43299961;stroke-dasharray:none;stroke-dashoffset:0;stroke-opacity:1"><path
           id="path9722"
           d="m 468.68,415.75 4.28,4.95 c 0.92,1.06 2.31,1.42 4.06,1.42 v 1.09 c -1.17,-0.09 -1.97,-0.09 -3.11,-0.09 -1.41,0 -2.77,0.05 -3.59,0.09 v -1.09 c 1.07,-0.03 1.37,-0.61 1.37,-0.92 0,-0.28 -0.15,-0.42 -0.33,-0.66 l -3.4,-3.95 -3.88,4.58 c -0.22,0.25 -0.22,0.29 -0.22,0.37 0,0.28 0.58,0.58 1.5,0.58 v 1.09 c -0.97,-0.03 -2.79,-0.09 -4.14,-0.09 -1.42,0 -2.54,0.05 -3.65,0.09 v -1.09 h 0.67 c 1.47,0 1.98,-0.16 2.47,-0.72 l 5.65,-6.7 -5.14,-5.99 c -1.04,-1.21 -2.84,-1.42 -4.08,-1.42 v -1.09 c 1.18,0.09 1.97,0.09 3.11,0.09 1.39,0 2.77,-0.04 3.58,-0.09 v 1.09 c -1.01,0.03 -1.36,0.55 -1.36,0.92 0,0.29 0.14,0.46 0.3,0.63 l 4.28,5 4.78,-5.64 c 0.21,-0.2 0.21,-0.25 0.21,-0.31 0,-0.3 -0.63,-0.6 -1.5,-0.6 v -1.09 c 1.12,0.05 2.89,0.09 4.1,0.09 1,0 2.4,-0.01 3.69,-0.09 v 1.09 h -0.67 c -1.84,0 -2.06,0.25 -2.53,0.83 z"
           inkscape:connector-curvature="0"
           style="fill:#000000;stroke-width:0" /></g>
    </g>
    <g
       id="g9795"
       transform="translate(72.973423,-15.119048)">
      <g
         word-spacing="normal"
         letter-spacing="normal"
         font-size-adjust="none"
         font-stretch="normal"
         font-weight="normal"
         font-variant="normal"
         font-style="normal"
         stroke-miterlimit="10.433"
         xml:space="preserve"
         transform="matrix(0.3,0,0,-0.3,-52.5,222.75)"
         id="g9793"
         style="font-style:normal;font-variant:normal;font-weight:normal;font-stretch:normal;letter-spacing:normal;word-spacing:normal;text-anchor:start;fill:none;fill-opacity:1;fill-rule:evenodd;stroke:#000000;stroke-linecap:butt;stroke-linejoin:miter;stroke-miterlimit:10.43299961;stroke-dasharray:none;stroke-dashoffset:0;stroke-opacity:1"><path
           id="path9791"
           d="m 475.05,420.65 0.03,0.04 0.04,0.05 0.04,0.05 0.04,0.05 0.05,0.05 0.05,0.05 0.05,0.06 0.06,0.06 0.07,0.06 0.06,0.06 0.08,0.06 0.08,0.06 0.08,0.06 0.09,0.06 0.1,0.07 0.1,0.05 0.11,0.06 0.11,0.06 0.13,0.05 0.13,0.06 0.13,0.05 0.14,0.05 0.16,0.04 0.15,0.04 0.17,0.04 0.18,0.03 0.18,0.03 0.19,0.03 0.2,0.01 0.21,0.02 0.22,0.01 h 0.23 v 1.09 c -0.88,-0.07 -1.89,-0.09 -2.77,-0.09 -0.98,0 -2.4,0.05 -3.26,0.09 v -1.09 c 1,0 1.28,-0.42 1.28,-0.78 0,-0.3 -0.13,-0.44 -0.36,-0.72 l -4.96,-6.3 -5.42,6.89 c -0.25,0.29 -0.25,0.33 -0.25,0.43 0,0.48 0.97,0.48 1.64,0.48 v 1.09 c -0.97,-0.03 -2.79,-0.09 -4.18,-0.09 -1,0 -2.39,0.02 -3.69,0.09 v -1.09 h 0.67 c 1.72,0 2.02,-0.25 2.44,-0.78 l 6.61,-8.34 v -4.68 c 0,-0.78 0,-1.03 -2.02,-1.03 h -0.75 v -1.09 c 1.14,0.05 2.67,0.09 4.03,0.09 1.38,0 2.82,-0.04 4.03,-0.09 v 1.09 h -0.73 c -2.02,0 -2.02,0.25 -2.02,1.05 V 413 Z"
           inkscape:connector-curvature="0"
           style="fill:#000000;stroke-width:0" /></g>
    </g>
  </g>
</svg>
