<?xml version="1.0" encoding="UTF-8" standalone="no"?>
<!-- Created with Inkscape (http://www.inkscape.org/) -->

<svg
   xmlns:dc="http://purl.org/dc/elements/1.1/"
   xmlns:cc="http://creativecommons.org/ns#"
   xmlns:rdf="http://www.w3.org/1999/02/22-rdf-syntax-ns#"
   xmlns:svg="http://www.w3.org/2000/svg"
   xmlns="http://www.w3.org/2000/svg"
   xmlns:sodipodi="http://sodipodi.sourceforge.net/DTD/sodipodi-0.dtd"
   xmlns:inkscape="http://www.inkscape.org/namespaces/inkscape"
   width="210mm"
   height="297mm"
   viewBox="0 0 210 297"
   version="1.1"
   id="svg8"
   inkscape:version="0.92.5 (2060ec1f9f, 2020-04-08)"
   sodipodi:docname="chshexcl.svg">
  <defs
     id="defs2" />
  <sodipodi:namedview
     id="base"
     pagecolor="#ffffff"
     bordercolor="#666666"
     borderopacity="1.0"
     inkscape:pageopacity="0.0"
     inkscape:pageshadow="2"
     inkscape:zoom="0.63378907"
     inkscape:cx="369.84902"
     inkscape:cy="799.66073"
     inkscape:document-units="mm"
     inkscape:current-layer="layer1"
     showgrid="false"
     showguides="false"
     inkscape:window-width="1208"
     inkscape:window-height="656"
     inkscape:window-x="72"
     inkscape:window-y="27"
     inkscape:window-maximized="1"
     inkscape:snap-global="true" />
  <metadata
     id="metadata5">
    <rdf:RDF>
      <cc:Work
         rdf:about="">
        <dc:format>image/svg+xml</dc:format>
        <dc:type
           rdf:resource="http://purl.org/dc/dcmitype/StillImage" />
        <dc:title></dc:title>
      </cc:Work>
    </rdf:RDF>
  </metadata>
  <g
     inkscape:label="Layer 1"
     inkscape:groupmode="layer"
     id="layer1">
    <path
       sodipodi:type="star"
       style="opacity:1;fill:none;fill-opacity:1;fill-rule:nonzero;stroke:#000000;stroke-width:0.8;stroke-linecap:square;stroke-linejoin:bevel;stroke-miterlimit:4;stroke-dasharray:none;stroke-dashoffset:0;stroke-opacity:1;paint-order:normal"
       id="path886"
       sodipodi:sides="8"
       sodipodi:cx="105.8157"
       sodipodi:cy="52.770393"
       sodipodi:r1="56.784554"
       sodipodi:r2="52.241791"
       sodipodi:arg1="1.1816375"
       sodipodi:arg2="1.5743366"
       inkscape:flatsided="false"
       inkscape:rounded="0"
       inkscape:randomized="0"
       d="M 127.36034,105.30908 105.63075,105.01186 83.899596,105.15522 68.744624,89.579907 53.277007,74.315036 53.574233,52.585444 53.43087,30.854293 69.006183,15.699321 84.271054,0.23170399 106.00065,0.52892999 127.7318,0.38556674 142.88677,15.96088 l 15.46762,15.26487 -0.29723,21.729593 0.14336,21.731151 -15.57531,15.154972 z"
       transform="rotate(-157.93271,108.34366,65.734981)"
       inkscape:export-filename="/home/user/Downloads/chshexcl.png"
       inkscape:export-xdpi="96.279999"
       inkscape:export-ydpi="96.279999" />
    <circle
       style="opacity:1;fill:#000000;fill-opacity:1;fill-rule:nonzero;stroke:#000000;stroke-width:0.8;stroke-linecap:square;stroke-linejoin:bevel;stroke-miterlimit:4;stroke-dasharray:none;stroke-dashoffset:0;stroke-opacity:1;paint-order:normal"
       id="path888-9-0-9"
       cx="106.0344"
       cy="135.41202"
       r="2.271791"
       inkscape:export-filename="/home/user/Downloads/chshexcl.png"
       inkscape:export-xdpi="96.279999"
       inkscape:export-ydpi="96.279999" />
    <circle
       style="opacity:1;fill:#000000;fill-opacity:1;fill-rule:nonzero;stroke:#000000;stroke-width:0.8;stroke-linecap:square;stroke-linejoin:bevel;stroke-miterlimit:4;stroke-dasharray:none;stroke-dashoffset:0;stroke-opacity:1;paint-order:normal"
       id="path888-9-0-3"
       cx="146.11119"
       cy="118.67876"
       r="2.271791"
       inkscape:export-filename="/home/user/Downloads/chshexcl.png"
       inkscape:export-xdpi="96.279999"
       inkscape:export-ydpi="96.279999" />
    <circle
       style="opacity:1;fill:#000000;fill-opacity:1;fill-rule:nonzero;stroke:#000000;stroke-width:0.8;stroke-linecap:square;stroke-linejoin:bevel;stroke-miterlimit:4;stroke-dasharray:none;stroke-dashoffset:0;stroke-opacity:1;paint-order:normal"
       id="path888-9-0"
       cx="162.52675"
       cy="78.468857"
       r="2.271791"
       inkscape:export-filename="/home/user/Downloads/chshexcl.png"
       inkscape:export-xdpi="96.279999"
       inkscape:export-ydpi="96.279999" />
    <circle
       style="opacity:1;fill:#000000;fill-opacity:1;fill-rule:nonzero;stroke:#000000;stroke-width:0.8;stroke-linecap:square;stroke-linejoin:bevel;stroke-miterlimit:4;stroke-dasharray:none;stroke-dashoffset:0;stroke-opacity:1;paint-order:normal"
       id="path888-9-7"
       cx="145.78204"
       cy="38.386543"
       r="2.271791"
       inkscape:export-filename="/home/user/Downloads/chshexcl.png"
       inkscape:export-xdpi="96.279999"
       inkscape:export-ydpi="96.279999" />
    <circle
       style="opacity:1;fill:#000000;fill-opacity:1;fill-rule:nonzero;stroke:#000000;stroke-width:0.8;stroke-linecap:square;stroke-linejoin:bevel;stroke-miterlimit:4;stroke-dasharray:none;stroke-dashoffset:0;stroke-opacity:1;paint-order:normal"
       id="path888"
       cx="105.60615"
       cy="21.916191"
       r="2.271791"
       inkscape:export-filename="/home/user/Downloads/chshexcl.png"
       inkscape:export-xdpi="96.279999"
       inkscape:export-ydpi="96.279999" />
    <circle
       style="opacity:1;fill:#000000;fill-opacity:1;fill-rule:nonzero;stroke:#000000;stroke-width:0.8;stroke-linecap:square;stroke-linejoin:bevel;stroke-miterlimit:4;stroke-dasharray:none;stroke-dashoffset:0;stroke-opacity:1;paint-order:normal"
       id="path888-9"
       cx="65.410789"
       cy="38.776253"
       r="2.271791"
       inkscape:export-filename="/home/user/Downloads/chshexcl.png"
       inkscape:export-xdpi="96.279999"
       inkscape:export-ydpi="96.279999" />
    <circle
       style="opacity:1;fill:#000000;fill-opacity:1;fill-rule:nonzero;stroke:#000000;stroke-width:0.8;stroke-linecap:square;stroke-linejoin:bevel;stroke-miterlimit:4;stroke-dasharray:none;stroke-dashoffset:0;stroke-opacity:1;paint-order:normal"
       id="path888-9-1"
       cx="49.125198"
       cy="78.854645"
       r="2.271791"
       inkscape:export-filename="/home/user/Downloads/chshexcl.png"
       inkscape:export-xdpi="96.279999"
       inkscape:export-ydpi="96.279999" />
    <circle
       style="opacity:1;fill:#000000;fill-opacity:1;fill-rule:nonzero;stroke:#000000;stroke-width:0.8;stroke-linecap:square;stroke-linejoin:bevel;stroke-miterlimit:4;stroke-dasharray:none;stroke-dashoffset:0;stroke-opacity:1;paint-order:normal"
       id="path888-9-2"
       cx="65.824112"
       cy="118.91338"
       r="2.271791"
       inkscape:export-filename="/home/user/Downloads/chshexcl.png"
       inkscape:export-xdpi="96.279999"
       inkscape:export-ydpi="96.279999" />
    <g
       id="g986"
       transform="translate(1.3861478,-86.414791)"
       inkscape:export-filename="/home/user/Downloads/chshexcl.png"
       inkscape:export-xdpi="96.279999"
       inkscape:export-ydpi="96.279999">
      <g
         word-spacing="normal"
         letter-spacing="normal"
         font-size-adjust="none"
         font-stretch="normal"
         font-weight="normal"
         font-variant="normal"
         font-style="normal"
         stroke-miterlimit="10.433"
         xml:space="preserve"
         transform="matrix(0.3,0,0,-0.3,-52.5,222.75)"
         id="content"
         style="font-style:normal;font-variant:normal;font-weight:normal;font-stretch:normal;letter-spacing:normal;word-spacing:normal;text-anchor:start;fill:none;fill-opacity:1;fill-rule:evenodd;stroke:#000000;stroke-linecap:butt;stroke-linejoin:miter;stroke-miterlimit:10.43299961;stroke-dasharray:none;stroke-dashoffset:0;stroke-opacity:1"><path
           id="path971"
           d="m 465.44,422.04 v 0.04 0.03 0.03 0.04 0.03 0.02 0.03 0.03 l -0.01,0.03 v 0.02 0.03 0.02 0.02 l -0.01,0.03 v 0.02 0.02 l -0.01,0.02 v 0.01 l -0.01,0.04 -0.01,0.03 -0.02,0.03 -0.01,0.03 -0.02,0.02 -0.02,0.02 -0.02,0.02 -0.03,0.02 -0.02,0.01 -0.03,0.01 -0.03,0.01 -0.04,0.01 -0.04,0.01 -0.04,0.01 h -0.02 -0.02 -0.03 l -0.02,0.01 h -0.03 -0.02 -0.03 -0.03 -0.03 -0.03 -0.03 -0.03 -0.03 -0.04 -0.03 -0.04 -0.04 -0.03 C 462.77,421.2 460,421.2 459.5,421.2 h -0.42 v -1.09 h 0.42 c 0.58,0 2.19,0.06 3.64,0.68 v -12.45 c 0,-0.77 0,-1.05 -2.64,-1.05 h -1.25 v -1.09 c 1.38,0.09 3.6,0.09 5.04,0.09 1.45,0 3.67,0 5.03,-0.09 v 1.09 h -1.24 c -2.64,0 -2.64,0.28 -2.64,1.05 z"
           inkscape:connector-curvature="0"
           style="fill:#000000;stroke-width:0" /><path
           id="path973"
           d="m 482.36,422.04 v 0.04 0.03 0.03 0.04 0.03 0.02 0.03 l -0.01,0.03 v 0.03 0.02 0.03 0.02 l -0.01,0.02 v 0.03 0.02 l -0.01,0.02 v 0.02 0.01 l -0.01,0.04 -0.02,0.03 -0.01,0.03 -0.01,0.03 -0.02,0.02 -0.02,0.02 -0.02,0.02 -0.03,0.02 -0.02,0.01 -0.03,0.01 -0.04,0.01 -0.03,0.01 -0.04,0.01 -0.04,0.01 h -0.02 -0.03 -0.02 l -0.02,0.01 h -0.03 -0.03 -0.02 -0.03 -0.03 -0.03 -0.03 -0.03 -0.04 -0.03 -0.04 -0.03 -0.04 -0.04 c -1.76,-1.59 -4.53,-1.59 -5.03,-1.59 H 476 v -1.09 h 0.42 c 0.58,0 2.19,0.06 3.64,0.68 v -12.45 c 0,-0.77 0,-1.05 -2.64,-1.05 h -1.25 v -1.09 c 1.38,0.09 3.6,0.09 5.03,0.09 1.46,0 3.68,0 5.03,-0.09 v 1.09 H 485 c -2.64,0 -2.64,0.28 -2.64,1.05 z"
           inkscape:connector-curvature="0"
           style="fill:#000000;stroke-width:0" /><path
           id="path975"
           d="m 495.76,423.81 v 0.04 0.04 0.04 0.04 0.05 0.04 l -0.01,0.04 v 0.05 0.04 l -0.01,0.05 -0.01,0.04 -0.01,0.05 -0.01,0.04 -0.01,0.05 -0.01,0.04 -0.02,0.04 -0.01,0.04 -0.02,0.04 -0.03,0.04 -0.02,0.03 -0.03,0.04 -0.03,0.03 -0.03,0.03 -0.02,0.01 -0.01,0.02 -0.02,0.01 -0.02,0.01 -0.02,0.01 -0.03,0.01 -0.02,0.01 -0.02,0.01 -0.02,0.01 -0.03,0.01 h -0.02 l -0.03,0.01 -0.03,0.01 h -0.03 -0.03 l -0.03,0.01 h -0.03 -0.03 c -0.7,0 -0.7,-0.68 -0.7,-1.08 v -22.77 c 0,-0.4 0,-1.08 0.7,-1.08 0.7,0 0.7,0.68 0.7,1.08 z"
           inkscape:connector-curvature="0"
           style="fill:#000000;stroke-width:0" /><path
           id="path977"
           d="m 518.86,423.36 -0.01,0.04 v 0.05 l -0.01,0.04 -0.01,0.05 -0.01,0.04 -0.01,0.04 -0.01,0.03 -0.02,0.04 -0.01,0.03 -0.01,0.03 -0.02,0.03 -0.01,0.03 -0.02,0.02 -0.01,0.03 -0.02,0.02 -0.02,0.02 -0.02,0.02 -0.02,0.01 -0.03,0.02 -0.02,0.02 -0.03,0.01 -0.03,0.01 -0.03,0.01 -0.03,0.01 -0.04,0.01 -0.03,0.01 h -0.04 l -0.04,0.01 h -0.04 -0.05 -0.05 -0.05 c -0.59,0 -0.75,-0.2 -1,-0.58 l -9.76,-14.15 c -1.03,-1.52 -1.91,-1.91 -3.53,-1.99 -0.47,-0.03 -0.47,-0.67 -0.47,-0.7 0,-0.34 0.29,-0.42 0.39,-0.42 0.36,0 0.78,0.08 1.12,0.08 0.43,0 0.85,0.01 1.27,0.01 0.48,0 0.92,-0.01 1.37,-0.01 0.46,0 0.97,-0.08 1.43,-0.08 0.17,0 0.59,0 0.59,0.7 0,0.39 -0.38,0.42 -0.47,0.42 -0.2,0 -1.17,0.05 -1.17,0.64 0,0.3 0.3,0.72 0.47,0.97 l 1.83,2.68 c 0.12,0.15 0.14,0.17 0.61,0.17 h 7.56 l -0.2,1.12 h -7.08 l 5.56,8.06 1.52,-8.06 0.2,-1.12 c 0.05,-0.3 0.06,-0.42 0.14,-0.72 0.08,-0.45 0.58,-2.94 0.58,-3.19 0,-0.55 -1.58,-0.55 -1.71,-0.55 -0.37,0 -0.76,0 -0.76,-0.7 0,-0.25 0.17,-0.42 0.45,-0.42 0.52,0 1.11,0.08 1.66,0.08 0.61,0 1.17,0.01 1.78,0.01 0.51,0 1.06,-0.01 1.59,-0.01 0.5,0 1.07,-0.08 1.57,-0.08 0.42,0 0.59,0.3 0.59,0.7 0,0.42 -0.39,0.42 -0.74,0.42 -1.65,0 -1.67,0.18 -1.78,0.72 z"
           inkscape:connector-curvature="0"
           style="fill:#000000;stroke-width:0" /><path
           id="path979"
           d="m 536.48,414.61 v 0.03 0.03 0.04 0.03 0.03 0.03 0.03 0.02 l -0.01,0.03 v 0.02 0.03 0.02 l -0.01,0.03 v 0.02 0.02 l -0.01,0.02 v 0.02 0.02 l -0.01,0.03 -0.01,0.03 -0.02,0.03 -0.01,0.03 -0.02,0.02 -0.02,0.02 -0.02,0.02 -0.03,0.02 -0.02,0.01 -0.03,0.01 -0.04,0.02 h -0.03 l -0.04,0.01 -0.04,0.01 h -0.02 -0.03 l -0.02,0.01 h -0.02 -0.03 -0.02 -0.03 -0.03 -0.03 -0.03 -0.03 -0.03 -0.04 -0.03 -0.03 -0.04 l -0.04,0.01 h -0.04 c -1.76,-1.6 -4.53,-1.6 -5.03,-1.6 h -0.42 v -1.09 h 0.42 c 0.58,0 2.19,0.06 3.64,0.69 V 400.9 c 0,-0.76 0,-1.04 -2.64,-1.04 h -1.25 v -1.1 c 1.38,0.1 3.6,0.1 5.03,0.1 1.46,0 3.68,0 5.03,-0.1 v 1.1 h -1.23 c -2.64,0 -2.64,0.28 -2.64,1.04 z"
           inkscape:connector-curvature="0"
           style="fill:#000000;stroke-width:0" /><path
           id="path981"
           d="m 552.29,408.26 -0.01,-0.07 -0.02,-0.06 -0.02,-0.06 -0.01,-0.06 -0.02,-0.06 -0.02,-0.05 -0.02,-0.05 -0.02,-0.05 -0.02,-0.05 -0.03,-0.04 -0.03,-0.04 -0.03,-0.03 -0.03,-0.04 -0.04,-0.03 -0.05,-0.03 -0.04,-0.03 -0.06,-0.02 -0.05,-0.03 -0.07,-0.02 -0.07,-0.02 -0.04,-0.01 h -0.03 l -0.04,-0.01 -0.05,-0.01 -0.04,-0.01 h -0.05 l -0.05,-0.01 h -0.05 l -0.05,-0.01 -0.05,-0.01 h -0.06 -0.06 L 551,407.34 h -0.06 -0.06 l -0.07,-0.01 h -0.07 -0.07 -0.08 -0.07 -0.08 l -0.08,-0.01 h -0.09 -0.09 c -0.65,0 -1.04,0 -1.04,-0.7 0,-0.42 0.39,-0.42 0.83,-0.42 h 10.82 c 4.49,0 8.13,2.8 8.13,5.28 0,1.55 -1.45,3.22 -4.85,3.64 2.47,0.31 5.99,1.97 5.99,4.45 0,2.1 -2.47,3.64 -5.86,3.64 l -0.44,-1.12 c 2.47,0 3.64,-1.27 3.64,-2.59 0,-2.02 -2.7,-4.04 -6.18,-4.04 h -4.71 l -0.23,-0.84 h 6.07 c 2.55,0 3.82,-1.47 3.82,-3.05 0,-2.4 -2.95,-4.25 -6.05,-4.25 h -4.81 c -0.19,0 -0.55,0 -0.8,0.05 0.03,0.2 0.03,0.25 0.08,0.45 l 1.69,6.8 0.23,0.84 1.44,5.82 c 0.2,0.76 0.2,0.81 1.25,0.81 h 4.56 l 0.44,1.12 H 554 c -0.47,0 -0.88,0 -0.88,-0.7 0,-0.42 0.33,-0.42 0.92,-0.42 0.25,0 1.08,0 1.6,-0.14 0,-0.31 0,-0.36 -0.08,-0.63 z"
           inkscape:connector-curvature="0"
           style="fill:#000000;stroke-width:0" /><path
           id="path983"
           d="m 581.84,414.61 v 0.03 0.03 0.04 0.03 0.03 0.03 0.03 0.02 0.03 0.02 l -0.01,0.03 v 0.02 0.03 0.02 l -0.01,0.02 v 0.02 l -0.01,0.02 v 0.02 l -0.01,0.03 -0.01,0.03 -0.01,0.03 -0.02,0.03 -0.02,0.02 -0.02,0.02 -0.02,0.02 -0.02,0.02 -0.03,0.01 -0.03,0.01 -0.03,0.02 h -0.04 l -0.03,0.01 -0.05,0.01 h -0.02 -0.02 l -0.02,0.01 h -0.03 -0.02 -0.03 -0.03 -0.03 -0.03 -0.03 -0.03 -0.03 -0.03 -0.04 -0.03 -0.04 l -0.03,0.01 h -0.04 c -1.77,-1.6 -4.53,-1.6 -5.03,-1.6 h -0.43 v -1.09 h 0.43 c 0.57,0 2.18,0.06 3.64,0.69 V 400.9 c 0,-0.76 0,-1.04 -2.64,-1.04 h -1.25 v -1.1 c 1.37,0.1 3.59,0.1 5.03,0.1 1.45,0 3.67,0 5.03,-0.1 v 1.1 h -1.24 c -2.64,0 -2.64,0.28 -2.64,1.04 z"
           inkscape:connector-curvature="0"
           style="fill:#000000;stroke-width:0" /></g>    </g>
    <g
       id="g1157"
       transform="translate(-1.7653522,47.021458)"
       inkscape:export-filename="/home/user/Downloads/chshexcl.png"
       inkscape:export-xdpi="96.279999"
       inkscape:export-ydpi="96.279999">
      <g
         word-spacing="normal"
         letter-spacing="normal"
         font-size-adjust="none"
         font-stretch="normal"
         font-weight="normal"
         font-variant="normal"
         font-style="normal"
         stroke-miterlimit="10.433"
         xml:space="preserve"
         transform="matrix(0.3,0,0,-0.3,-52.5,222.75)"
         id="g1155"
         style="font-style:normal;font-variant:normal;font-weight:normal;font-stretch:normal;letter-spacing:normal;word-spacing:normal;text-anchor:start;fill:none;fill-opacity:1;fill-rule:evenodd;stroke:#000000;stroke-linecap:butt;stroke-linejoin:miter;stroke-miterlimit:10.43299961;stroke-dasharray:none;stroke-dashoffset:0;stroke-opacity:1"><polygon
           id="polygon1137"
           points="464.83,412.53 456.57,412.53 456.57,410.61 464.83,410.61 "
           style="fill:#000000;stroke-width:0" /><path
           id="path1139"
           d="m 477.2,422.04 v 0.04 0.03 0.03 0.04 0.03 0.02 0.03 l -0.01,0.03 v 0.03 0.02 0.03 0.02 l -0.01,0.02 v 0.03 0.02 l -0.01,0.02 v 0.02 0.01 l -0.01,0.04 -0.02,0.03 -0.01,0.03 -0.01,0.03 -0.02,0.02 -0.02,0.02 -0.02,0.02 -0.03,0.02 -0.02,0.01 -0.03,0.01 -0.04,0.01 -0.03,0.01 -0.04,0.01 -0.04,0.01 h -0.02 -0.03 -0.02 l -0.02,0.01 h -0.03 -0.03 -0.02 -0.03 -0.03 -0.03 -0.03 -0.03 -0.04 -0.03 -0.04 -0.03 -0.04 -0.04 c -1.76,-1.59 -4.53,-1.59 -5.03,-1.59 h -0.42 v -1.09 h 0.42 c 0.58,0 2.19,0.06 3.64,0.68 v -12.45 c 0,-0.77 0,-1.05 -2.64,-1.05 h -1.25 v -1.09 c 1.38,0.09 3.6,0.09 5.03,0.09 1.46,0 3.67,0 5.03,-0.09 v 1.09 h -1.23 c -2.64,0 -2.64,0.28 -2.64,1.05 z"
           inkscape:connector-curvature="0"
           style="fill:#000000;stroke-width:0" /><polygon
           id="polygon1141"
           points="493.51,412.53 485.24,412.53 485.24,410.61 493.51,410.61 "
           style="fill:#000000;stroke-width:0" /><path
           id="path1143"
           d="m 506,422.04 v 0.04 0.03 0.03 l -0.01,0.04 v 0.03 0.02 0.03 0.03 0.03 0.02 0.03 l -0.01,0.02 v 0.02 0.03 l -0.01,0.02 v 0.02 0.02 l -0.01,0.01 -0.01,0.04 -0.01,0.03 -0.01,0.03 -0.02,0.03 -0.02,0.02 -0.01,0.02 -0.03,0.02 -0.02,0.02 -0.03,0.01 -0.03,0.01 -0.03,0.01 -0.03,0.01 -0.04,0.01 -0.04,0.01 h -0.03 -0.02 -0.02 l -0.03,0.01 h -0.02 -0.03 -0.03 -0.02 -0.03 -0.03 -0.03 -0.04 -0.03 -0.03 -0.04 -0.03 -0.04 -0.04 c -1.77,-1.59 -4.53,-1.59 -5.03,-1.59 h -0.42 v -1.09 h 0.42 c 0.58,0 2.19,0.06 3.64,0.68 v -12.45 c 0,-0.77 0,-1.05 -2.64,-1.05 h -1.25 v -1.09 c 1.37,0.09 3.59,0.09 5.03,0.09 1.45,0 3.67,0 5.03,-0.09 v 1.09 h -1.23 c -2.64,0 -2.64,0.28 -2.64,1.05 z"
           inkscape:connector-curvature="0"
           style="fill:#000000;stroke-width:0" /><path
           id="path1145"
           d="m 519.4,423.81 v 0.04 0.04 0.04 0.04 0.05 l -0.01,0.04 v 0.04 0.05 l -0.01,0.04 v 0.05 l -0.01,0.04 -0.01,0.05 -0.01,0.04 -0.01,0.05 -0.01,0.04 -0.02,0.04 -0.02,0.04 -0.02,0.04 -0.02,0.04 -0.02,0.03 -0.03,0.04 -0.03,0.03 -0.03,0.03 -0.02,0.01 -0.02,0.02 -0.02,0.01 -0.02,0.01 -0.02,0.01 -0.02,0.01 -0.02,0.01 -0.02,0.01 -0.03,0.01 -0.02,0.01 h -0.03 l -0.03,0.01 -0.02,0.01 h -0.03 -0.03 l -0.03,0.01 h -0.03 -0.03 c -0.71,0 -0.71,-0.68 -0.71,-1.08 v -22.77 c 0,-0.4 0,-1.08 0.71,-1.08 0.7,0 0.7,0.68 0.7,1.08 z"
           inkscape:connector-curvature="0"
           style="fill:#000000;stroke-width:0" /><path
           id="path1147"
           d="m 542.5,423.36 -0.01,0.04 -0.01,0.05 -0.01,0.04 -0.01,0.05 -0.01,0.04 -0.01,0.04 -0.01,0.03 -0.01,0.04 -0.01,0.03 -0.02,0.03 -0.01,0.03 -0.01,0.03 -0.02,0.02 -0.02,0.03 -0.02,0.02 -0.02,0.02 -0.02,0.02 -0.02,0.01 -0.02,0.02 -0.03,0.02 -0.02,0.01 -0.03,0.01 -0.03,0.01 -0.04,0.01 -0.03,0.01 -0.04,0.01 h -0.03 l -0.04,0.01 h -0.05 -0.04 -0.05 -0.05 c -0.59,0 -0.75,-0.2 -1,-0.58 l -9.77,-14.15 c -1.03,-1.52 -1.9,-1.91 -3.53,-1.99 -0.47,-0.03 -0.47,-0.67 -0.47,-0.7 0,-0.34 0.3,-0.42 0.4,-0.42 0.35,0 0.78,0.08 1.12,0.08 0.42,0 0.84,0.01 1.27,0.01 0.48,0 0.92,-0.01 1.37,-0.01 0.45,0 0.97,-0.08 1.42,-0.08 0.17,0 0.6,0 0.6,0.7 0,0.39 -0.38,0.42 -0.47,0.42 -0.21,0 -1.17,0.05 -1.17,0.64 0,0.3 0.29,0.72 0.46,0.97 l 1.83,2.68 c 0.13,0.15 0.14,0.17 0.61,0.17 h 7.56 l -0.2,1.12 h -7.08 l 5.57,8.06 1.51,-8.06 0.2,-1.12 c 0.05,-0.3 0.07,-0.42 0.14,-0.72 0.08,-0.45 0.58,-2.94 0.58,-3.19 0,-0.55 -1.58,-0.55 -1.7,-0.55 -0.38,0 -0.77,0 -0.77,-0.7 0,-0.25 0.18,-0.42 0.46,-0.42 0.51,0 1.11,0.08 1.65,0.08 0.61,0 1.18,0.01 1.78,0.01 0.52,0 1.07,-0.01 1.6,-0.01 0.5,0 1.06,-0.08 1.56,-0.08 0.42,0 0.6,0.3 0.6,0.7 0,0.42 -0.4,0.42 -0.74,0.42 -1.66,0 -1.67,0.18 -1.78,0.72 z"
           inkscape:connector-curvature="0"
           style="fill:#000000;stroke-width:0" /><path
           id="path1149"
           d="m 560.12,414.61 v 0.03 0.03 0.04 0.03 0.03 0.03 0.03 0.02 l -0.01,0.03 v 0.02 0.03 0.02 0.03 L 560.1,415 v 0.02 0.02 l -0.01,0.02 v 0.02 l -0.01,0.03 -0.01,0.03 -0.02,0.03 -0.01,0.03 -0.02,0.02 -0.02,0.02 -0.02,0.02 -0.03,0.02 -0.02,0.01 -0.03,0.01 -0.03,0.02 h -0.04 l -0.04,0.01 -0.04,0.01 h -0.02 -0.02 l -0.03,0.01 h -0.02 -0.03 -0.02 -0.03 -0.03 -0.03 -0.03 -0.03 -0.03 -0.03 -0.04 -0.03 -0.04 l -0.04,0.01 h -0.03 c -1.77,-1.6 -4.54,-1.6 -5.04,-1.6 h -0.42 v -1.09 h 0.42 c 0.58,0 2.19,0.06 3.64,0.69 V 400.9 c 0,-0.76 0,-1.04 -2.64,-1.04 h -1.25 v -1.1 c 1.38,0.1 3.6,0.1 5.04,0.1 1.45,0 3.67,0 5.03,-0.1 v 1.1 h -1.24 c -2.64,0 -2.64,0.28 -2.64,1.04 z"
           inkscape:connector-curvature="0"
           style="fill:#000000;stroke-width:0" /><path
           id="path1151"
           d="m 575.81,408.26 -0.01,-0.07 -0.02,-0.06 -0.02,-0.06 -0.01,-0.06 -0.02,-0.06 -0.02,-0.05 -0.02,-0.05 -0.02,-0.05 -0.02,-0.05 -0.03,-0.04 -0.03,-0.04 -0.03,-0.03 -0.03,-0.04 -0.04,-0.03 -0.05,-0.03 -0.04,-0.03 -0.06,-0.02 -0.05,-0.03 -0.07,-0.02 -0.07,-0.02 -0.04,-0.01 h -0.03 l -0.05,-0.01 -0.04,-0.01 -0.04,-0.01 h -0.05 l -0.05,-0.01 h -0.05 l -0.05,-0.01 -0.05,-0.01 h -0.06 -0.06 l -0.06,-0.01 h -0.06 -0.06 l -0.07,-0.01 h -0.07 -0.07 -0.08 -0.07 -0.08 l -0.09,-0.01 h -0.08 -0.09 c -0.65,0 -1.04,0 -1.04,-0.7 0,-0.42 0.39,-0.42 0.82,-0.42 h 10.83 c 4.49,0 8.13,2.8 8.13,5.28 0,1.55 -1.46,3.22 -4.85,3.64 2.47,0.31 5.99,1.97 5.99,4.45 0,2.1 -2.47,3.64 -5.86,3.64 l -0.44,-1.12 c 2.47,0 3.64,-1.27 3.64,-2.59 0,-2.02 -2.7,-4.04 -6.19,-4.04 h -4.7 l -0.23,-0.84 h 6.08 c 2.54,0 3.81,-1.47 3.81,-3.05 0,-2.4 -2.96,-4.25 -6.05,-4.25 h -4.81 c -0.19,0 -0.55,0 -0.8,0.05 0.03,0.2 0.03,0.25 0.08,0.45 l 1.69,6.8 0.23,0.84 1.44,5.82 c 0.2,0.76 0.2,0.81 1.25,0.81 h 4.56 l 0.44,1.12 h -10.2 c -0.47,0 -0.88,0 -0.88,-0.7 0,-0.42 0.33,-0.42 0.92,-0.42 0.25,0 1.08,0 1.6,-0.14 0,-0.31 0,-0.36 -0.08,-0.63 z"
           inkscape:connector-curvature="0"
           style="fill:#000000;stroke-width:0" /><path
           id="path1153"
           d="m 605.36,414.61 v 0.03 0.03 0.04 0.03 0.03 0.03 0.03 0.02 0.03 l -0.01,0.02 v 0.03 0.02 0.03 l -0.01,0.02 v 0.02 0.02 l -0.01,0.02 v 0.02 l -0.01,0.03 -0.01,0.03 -0.02,0.03 -0.01,0.03 -0.02,0.02 -0.02,0.02 -0.02,0.02 -0.02,0.02 -0.03,0.01 -0.03,0.01 -0.03,0.02 h -0.04 l -0.04,0.01 -0.04,0.01 h -0.02 -0.02 l -0.03,0.01 h -0.02 -0.03 -0.02 -0.03 -0.03 -0.03 -0.03 -0.03 -0.03 -0.03 -0.04 -0.03 -0.04 l -0.03,0.01 h -0.04 c -1.77,-1.6 -4.53,-1.6 -5.03,-1.6 H 599 v -1.09 h 0.43 c 0.57,0 2.18,0.06 3.64,0.69 V 400.9 c 0,-0.76 0,-1.04 -2.64,-1.04 h -1.25 v -1.1 c 1.37,0.1 3.59,0.1 5.03,0.1 1.45,0 3.67,0 5.03,-0.1 v 1.1 H 608 c -2.64,0 -2.64,0.28 -2.64,1.04 z"
           inkscape:connector-curvature="0"
           style="fill:#000000;stroke-width:0" /></g>    </g>
    <g
       id="g1224"
       transform="translate(-87.882391,-21.290601)"
       inkscape:export-filename="/home/user/Downloads/chshexcl.png"
       inkscape:export-xdpi="96.279999"
       inkscape:export-ydpi="96.279999">
      <g
         word-spacing="normal"
         letter-spacing="normal"
         font-size-adjust="none"
         font-stretch="normal"
         font-weight="normal"
         font-variant="normal"
         font-style="normal"
         stroke-miterlimit="10.433"
         xml:space="preserve"
         transform="matrix(0.3,0,0,-0.3,-52.5,222.75)"
         id="g1222"
         style="font-style:normal;font-variant:normal;font-weight:normal;font-stretch:normal;letter-spacing:normal;word-spacing:normal;text-anchor:start;fill:none;fill-opacity:1;fill-rule:evenodd;stroke:#000000;stroke-linecap:butt;stroke-linejoin:miter;stroke-miterlimit:10.43299961;stroke-dasharray:none;stroke-dashoffset:0;stroke-opacity:1"><polygon
           id="polygon1204"
           points="456.57,410.61 464.83,410.61 464.83,412.53 456.57,412.53 "
           style="fill:#000000;stroke-width:0" /><path
           id="path1206"
           d="m 477.2,422.04 v 0.04 0.03 0.03 0.04 0.03 0.02 0.03 l -0.01,0.03 v 0.03 0.02 0.03 0.02 l -0.01,0.02 v 0.03 0.02 l -0.01,0.02 v 0.02 0.01 l -0.01,0.04 -0.02,0.03 -0.01,0.03 -0.01,0.03 -0.02,0.02 -0.02,0.02 -0.02,0.02 -0.03,0.02 -0.02,0.01 -0.03,0.01 -0.04,0.01 -0.03,0.01 -0.04,0.01 -0.04,0.01 h -0.02 -0.03 -0.02 l -0.02,0.01 h -0.03 -0.03 -0.02 -0.03 -0.03 -0.03 -0.03 -0.03 -0.04 -0.03 -0.04 -0.03 -0.04 -0.04 c -1.76,-1.59 -4.53,-1.59 -5.03,-1.59 h -0.42 v -1.09 h 0.42 c 0.58,0 2.19,0.06 3.64,0.68 v -12.45 c 0,-0.77 0,-1.05 -2.64,-1.05 h -1.25 v -1.09 c 1.38,0.09 3.6,0.09 5.03,0.09 1.46,0 3.67,0 5.03,-0.09 v 1.09 h -1.23 c -2.64,0 -2.64,0.28 -2.64,1.05 z"
           inkscape:connector-curvature="0"
           style="fill:#000000;stroke-width:0" /><polygon
           id="polygon1208"
           points="485.24,410.61 493.51,410.61 493.51,412.53 485.24,412.53 "
           style="fill:#000000;stroke-width:0" /><path
           id="path1210"
           d="m 506,422.04 v 0.04 0.03 0.03 l -0.01,0.04 v 0.03 0.02 0.03 0.03 0.03 0.02 0.03 l -0.01,0.02 v 0.02 0.03 l -0.01,0.02 v 0.02 0.02 l -0.01,0.01 -0.01,0.04 -0.01,0.03 -0.01,0.03 -0.02,0.03 -0.02,0.02 -0.01,0.02 -0.03,0.02 -0.02,0.02 -0.03,0.01 -0.03,0.01 -0.03,0.01 -0.03,0.01 -0.04,0.01 -0.04,0.01 h -0.03 -0.02 -0.02 l -0.03,0.01 h -0.02 -0.03 -0.03 -0.02 -0.03 -0.03 -0.03 -0.04 -0.03 -0.03 -0.04 -0.03 -0.04 -0.04 c -1.77,-1.59 -4.53,-1.59 -5.03,-1.59 h -0.42 v -1.09 h 0.42 c 0.58,0 2.19,0.06 3.64,0.68 v -12.45 c 0,-0.77 0,-1.05 -2.64,-1.05 h -1.25 v -1.09 c 1.37,0.09 3.59,0.09 5.03,0.09 1.45,0 3.67,0 5.03,-0.09 v 1.09 h -1.23 c -2.64,0 -2.64,0.28 -2.64,1.05 z"
           inkscape:connector-curvature="0"
           style="fill:#000000;stroke-width:0" /><path
           id="path1212"
           d="m 519.4,423.81 v 0.04 0.04 0.04 0.04 0.05 l -0.01,0.04 v 0.04 0.05 l -0.01,0.04 v 0.05 l -0.01,0.04 -0.01,0.05 -0.01,0.04 -0.01,0.05 -0.01,0.04 -0.02,0.04 -0.02,0.04 -0.02,0.04 -0.02,0.04 -0.02,0.03 -0.03,0.04 -0.03,0.03 -0.03,0.03 -0.02,0.01 -0.02,0.02 -0.02,0.01 -0.02,0.01 -0.02,0.01 -0.02,0.01 -0.02,0.01 -0.02,0.01 -0.03,0.01 -0.02,0.01 h -0.03 l -0.03,0.01 -0.02,0.01 h -0.03 -0.03 l -0.03,0.01 h -0.03 -0.03 c -0.71,0 -0.71,-0.68 -0.71,-1.08 v -22.77 c 0,-0.4 0,-1.08 0.71,-1.08 0.7,0 0.7,0.68 0.7,1.08 z"
           inkscape:connector-curvature="0"
           style="fill:#000000;stroke-width:0" /><path
           id="path1214"
           d="m 542.5,423.36 -0.01,0.04 -0.01,0.05 -0.01,0.04 -0.01,0.05 -0.01,0.04 -0.01,0.04 -0.01,0.03 -0.01,0.04 -0.01,0.03 -0.02,0.03 -0.01,0.03 -0.01,0.03 -0.02,0.02 -0.02,0.03 -0.02,0.02 -0.02,0.02 -0.02,0.02 -0.02,0.01 -0.02,0.02 -0.03,0.02 -0.02,0.01 -0.03,0.01 -0.03,0.01 -0.04,0.01 -0.03,0.01 -0.04,0.01 h -0.03 l -0.04,0.01 h -0.05 -0.04 -0.05 -0.05 c -0.59,0 -0.75,-0.2 -1,-0.58 l -9.77,-14.15 c -1.03,-1.52 -1.9,-1.91 -3.53,-1.99 -0.47,-0.03 -0.47,-0.67 -0.47,-0.7 0,-0.34 0.3,-0.42 0.4,-0.42 0.35,0 0.78,0.08 1.12,0.08 0.42,0 0.84,0.01 1.27,0.01 0.48,0 0.92,-0.01 1.37,-0.01 0.45,0 0.97,-0.08 1.42,-0.08 0.17,0 0.6,0 0.6,0.7 0,0.39 -0.38,0.42 -0.47,0.42 -0.21,0 -1.17,0.05 -1.17,0.64 0,0.3 0.29,0.72 0.46,0.97 l 1.83,2.68 c 0.13,0.15 0.14,0.17 0.61,0.17 h 7.56 l -0.2,1.12 h -7.08 l 5.57,8.06 1.51,-8.06 0.2,-1.12 c 0.05,-0.3 0.07,-0.42 0.14,-0.72 0.08,-0.45 0.58,-2.94 0.58,-3.19 0,-0.55 -1.58,-0.55 -1.7,-0.55 -0.38,0 -0.77,0 -0.77,-0.7 0,-0.25 0.18,-0.42 0.46,-0.42 0.51,0 1.11,0.08 1.65,0.08 0.61,0 1.18,0.01 1.78,0.01 0.52,0 1.07,-0.01 1.6,-0.01 0.5,0 1.06,-0.08 1.56,-0.08 0.42,0 0.6,0.3 0.6,0.7 0,0.42 -0.4,0.42 -0.74,0.42 -1.66,0 -1.67,0.18 -1.78,0.72 z"
           inkscape:connector-curvature="0"
           style="fill:#000000;stroke-width:0" /><path
           id="path1216"
           d="m 564.87,403.57 h -1.05 c -0.07,-0.48 -0.32,-2.01 -0.72,-2.26 -0.2,-0.16 -2.29,-0.16 -2.67,-0.16 h -4.87 c 1.64,1.22 3.48,2.61 4.98,3.61 2.24,1.55 4.33,3 4.33,5.64 0,3.19 -3.02,4.96 -6.58,4.96 -3.36,0 -5.82,-1.96 -5.82,-4.4 0,-1.29 1.09,-1.51 1.45,-1.51 0.67,0 1.47,0.45 1.47,1.47 0,0.89 -0.66,1.39 -1.42,1.47 0.68,1.12 2.13,1.87 3.81,1.87 2.4,0 4.42,-1.45 4.42,-3.89 0,-2.09 -1.44,-3.69 -3.36,-5.31 l -6.08,-5.16 c -0.25,-0.22 -0.26,-0.22 -0.29,-0.39 v -0.75 h 11.57 z"
           inkscape:connector-curvature="0"
           style="fill:#000000;stroke-width:0" /><path
           id="path1218"
           d="m 575.81,408.26 -0.01,-0.07 -0.02,-0.06 -0.02,-0.06 -0.01,-0.06 -0.02,-0.06 -0.02,-0.05 -0.02,-0.05 -0.02,-0.05 -0.02,-0.05 -0.03,-0.04 -0.03,-0.04 -0.03,-0.03 -0.03,-0.04 -0.04,-0.03 -0.05,-0.03 -0.04,-0.03 -0.06,-0.02 -0.05,-0.03 -0.07,-0.02 -0.07,-0.02 -0.04,-0.01 h -0.03 l -0.05,-0.01 -0.04,-0.01 -0.04,-0.01 h -0.05 l -0.05,-0.01 h -0.05 l -0.05,-0.01 -0.05,-0.01 h -0.06 -0.06 l -0.06,-0.01 h -0.06 -0.06 l -0.07,-0.01 h -0.07 -0.07 -0.08 -0.07 -0.08 l -0.09,-0.01 h -0.08 -0.09 c -0.65,0 -1.04,0 -1.04,-0.7 0,-0.42 0.39,-0.42 0.82,-0.42 h 10.83 c 4.49,0 8.13,2.8 8.13,5.28 0,1.55 -1.46,3.22 -4.85,3.64 2.47,0.31 5.99,1.97 5.99,4.45 0,2.1 -2.47,3.64 -5.86,3.64 l -0.44,-1.12 c 2.47,0 3.64,-1.27 3.64,-2.59 0,-2.02 -2.7,-4.04 -6.19,-4.04 h -4.7 l -0.23,-0.84 h 6.08 c 2.54,0 3.81,-1.47 3.81,-3.05 0,-2.4 -2.96,-4.25 -6.05,-4.25 h -4.81 c -0.19,0 -0.55,0 -0.8,0.05 0.03,0.2 0.03,0.25 0.08,0.45 l 1.69,6.8 0.23,0.84 1.44,5.82 c 0.2,0.76 0.2,0.81 1.25,0.81 h 4.56 l 0.44,1.12 h -10.2 c -0.47,0 -0.88,0 -0.88,-0.7 0,-0.42 0.33,-0.42 0.92,-0.42 0.25,0 1.08,0 1.6,-0.14 0,-0.31 0,-0.36 -0.08,-0.63 z"
           inkscape:connector-curvature="0"
           style="fill:#000000;stroke-width:0" /><path
           id="path1220"
           d="m 610.11,403.57 h -1.04 c -0.08,-0.48 -0.33,-2.01 -0.72,-2.26 -0.2,-0.16 -2.3,-0.16 -2.67,-0.16 h -4.88 c 1.64,1.22 3.48,2.61 4.98,3.61 2.24,1.55 4.33,3 4.33,5.64 0,3.19 -3.01,4.96 -6.58,4.96 -3.35,0 -5.82,-1.96 -5.82,-4.4 0,-1.29 1.09,-1.51 1.45,-1.51 0.67,0 1.47,0.45 1.47,1.47 0,0.89 -0.66,1.39 -1.42,1.47 0.69,1.12 2.14,1.87 3.81,1.87 2.41,0 4.42,-1.45 4.42,-3.89 0,-2.09 -1.44,-3.69 -3.36,-5.31 L 598,399.9 c -0.25,-0.22 -0.26,-0.22 -0.29,-0.39 v -0.75 h 11.57 z"
           inkscape:connector-curvature="0"
           style="fill:#000000;stroke-width:0" /></g>    </g>
    <g
       id="g1302"
       transform="translate(57.216399,-69.694339)"
       inkscape:export-filename="/home/user/Downloads/chshexcl.png"
       inkscape:export-xdpi="96.279999"
       inkscape:export-ydpi="96.279999">
      <g
         word-spacing="normal"
         letter-spacing="normal"
         font-size-adjust="none"
         font-stretch="normal"
         font-weight="normal"
         font-variant="normal"
         font-style="normal"
         stroke-miterlimit="10.433"
         xml:space="preserve"
         transform="matrix(0.3,0,0,-0.3,-52.5,222.75)"
         id="g1300"
         style="font-style:normal;font-variant:normal;font-weight:normal;font-stretch:normal;letter-spacing:normal;word-spacing:normal;text-anchor:start;fill:none;fill-opacity:1;fill-rule:evenodd;stroke:#000000;stroke-linecap:butt;stroke-linejoin:miter;stroke-miterlimit:10.43299961;stroke-dasharray:none;stroke-dashoffset:0;stroke-opacity:1"><polygon
           id="polygon1282"
           points="464.83,412.53 456.57,412.53 456.57,410.61 464.83,410.61 "
           style="fill:#000000;stroke-width:0" /><path
           id="path1284"
           d="m 477.2,422.04 v 0.04 0.03 0.03 0.04 0.03 0.02 0.03 l -0.01,0.03 v 0.03 0.02 0.03 0.02 l -0.01,0.02 v 0.03 0.02 l -0.01,0.02 v 0.02 0.01 l -0.01,0.04 -0.02,0.03 -0.01,0.03 -0.01,0.03 -0.02,0.02 -0.02,0.02 -0.02,0.02 -0.03,0.02 -0.02,0.01 -0.03,0.01 -0.04,0.01 -0.03,0.01 -0.04,0.01 -0.04,0.01 h -0.02 -0.03 -0.02 l -0.02,0.01 h -0.03 -0.03 -0.02 -0.03 -0.03 -0.03 -0.03 -0.03 -0.04 -0.03 -0.04 -0.03 -0.04 -0.04 c -1.76,-1.59 -4.53,-1.59 -5.03,-1.59 h -0.42 v -1.09 h 0.42 c 0.58,0 2.19,0.06 3.64,0.68 v -12.45 c 0,-0.77 0,-1.05 -2.64,-1.05 h -1.25 v -1.09 c 1.38,0.09 3.6,0.09 5.03,0.09 1.46,0 3.67,0 5.03,-0.09 v 1.09 h -1.23 c -2.64,0 -2.64,0.28 -2.64,1.05 z"
           inkscape:connector-curvature="0"
           style="fill:#000000;stroke-width:0" /><polygon
           id="polygon1286"
           points="493.51,412.53 485.24,412.53 485.24,410.61 493.51,410.61 "
           style="fill:#000000;stroke-width:0" /><path
           id="path1288"
           d="m 506,422.04 v 0.04 0.03 0.03 l -0.01,0.04 v 0.03 0.02 0.03 0.03 0.03 0.02 0.03 l -0.01,0.02 v 0.02 0.03 l -0.01,0.02 v 0.02 0.02 l -0.01,0.01 -0.01,0.04 -0.01,0.03 -0.01,0.03 -0.02,0.03 -0.02,0.02 -0.01,0.02 -0.03,0.02 -0.02,0.02 -0.03,0.01 -0.03,0.01 -0.03,0.01 -0.03,0.01 -0.04,0.01 -0.04,0.01 h -0.03 -0.02 -0.02 l -0.03,0.01 h -0.02 -0.03 -0.03 -0.02 -0.03 -0.03 -0.03 -0.04 -0.03 -0.03 -0.04 -0.03 -0.04 -0.04 c -1.77,-1.59 -4.53,-1.59 -5.03,-1.59 h -0.42 v -1.09 h 0.42 c 0.58,0 2.19,0.06 3.64,0.68 v -12.45 c 0,-0.77 0,-1.05 -2.64,-1.05 h -1.25 v -1.09 c 1.37,0.09 3.59,0.09 5.03,0.09 1.45,0 3.67,0 5.03,-0.09 v 1.09 h -1.23 c -2.64,0 -2.64,0.28 -2.64,1.05 z"
           inkscape:connector-curvature="0"
           style="fill:#000000;stroke-width:0" /><path
           id="path1290"
           d="m 519.4,423.81 v 0.04 0.04 0.04 0.04 0.05 l -0.01,0.04 v 0.04 0.05 l -0.01,0.04 v 0.05 l -0.01,0.04 -0.01,0.05 -0.01,0.04 -0.01,0.05 -0.01,0.04 -0.02,0.04 -0.02,0.04 -0.02,0.04 -0.02,0.04 -0.02,0.03 -0.03,0.04 -0.03,0.03 -0.03,0.03 -0.02,0.01 -0.02,0.02 -0.02,0.01 -0.02,0.01 -0.02,0.01 -0.02,0.01 -0.02,0.01 -0.02,0.01 -0.03,0.01 -0.02,0.01 h -0.03 l -0.03,0.01 -0.02,0.01 h -0.03 -0.03 l -0.03,0.01 h -0.03 -0.03 c -0.71,0 -0.71,-0.68 -0.71,-1.08 v -22.77 c 0,-0.4 0,-1.08 0.71,-1.08 0.7,0 0.7,0.68 0.7,1.08 z"
           inkscape:connector-curvature="0"
           style="fill:#000000;stroke-width:0" /><path
           id="path1292"
           d="m 542.5,423.36 -0.01,0.04 -0.01,0.05 -0.01,0.04 -0.01,0.05 -0.01,0.04 -0.01,0.04 -0.01,0.03 -0.01,0.04 -0.01,0.03 -0.02,0.03 -0.01,0.03 -0.01,0.03 -0.02,0.02 -0.02,0.03 -0.02,0.02 -0.02,0.02 -0.02,0.02 -0.02,0.01 -0.02,0.02 -0.03,0.02 -0.02,0.01 -0.03,0.01 -0.03,0.01 -0.04,0.01 -0.03,0.01 -0.04,0.01 h -0.03 l -0.04,0.01 h -0.05 -0.04 -0.05 -0.05 c -0.59,0 -0.75,-0.2 -1,-0.58 l -9.77,-14.15 c -1.03,-1.52 -1.9,-1.91 -3.53,-1.99 -0.47,-0.03 -0.47,-0.67 -0.47,-0.7 0,-0.34 0.3,-0.42 0.4,-0.42 0.35,0 0.78,0.08 1.12,0.08 0.42,0 0.84,0.01 1.27,0.01 0.48,0 0.92,-0.01 1.37,-0.01 0.45,0 0.97,-0.08 1.42,-0.08 0.17,0 0.6,0 0.6,0.7 0,0.39 -0.38,0.42 -0.47,0.42 -0.21,0 -1.17,0.05 -1.17,0.64 0,0.3 0.29,0.72 0.46,0.97 l 1.83,2.68 c 0.13,0.15 0.14,0.17 0.61,0.17 h 7.56 l -0.2,1.12 h -7.08 l 5.57,8.06 1.51,-8.06 0.2,-1.12 c 0.05,-0.3 0.07,-0.42 0.14,-0.72 0.08,-0.45 0.58,-2.94 0.58,-3.19 0,-0.55 -1.58,-0.55 -1.7,-0.55 -0.38,0 -0.77,0 -0.77,-0.7 0,-0.25 0.18,-0.42 0.46,-0.42 0.51,0 1.11,0.08 1.65,0.08 0.61,0 1.18,0.01 1.78,0.01 0.52,0 1.07,-0.01 1.6,-0.01 0.5,0 1.06,-0.08 1.56,-0.08 0.42,0 0.6,0.3 0.6,0.7 0,0.42 -0.4,0.42 -0.74,0.42 -1.66,0 -1.67,0.18 -1.78,0.72 z"
           inkscape:connector-curvature="0"
           style="fill:#000000;stroke-width:0" /><path
           id="path1294"
           d="m 564.87,403.57 h -1.05 c -0.07,-0.48 -0.32,-2.01 -0.72,-2.26 -0.2,-0.16 -2.29,-0.16 -2.67,-0.16 h -4.87 c 1.64,1.22 3.48,2.61 4.98,3.61 2.24,1.55 4.33,3 4.33,5.64 0,3.19 -3.02,4.96 -6.58,4.96 -3.36,0 -5.82,-1.96 -5.82,-4.4 0,-1.29 1.09,-1.51 1.45,-1.51 0.67,0 1.47,0.45 1.47,1.47 0,0.89 -0.66,1.39 -1.42,1.47 0.68,1.12 2.13,1.87 3.81,1.87 2.4,0 4.42,-1.45 4.42,-3.89 0,-2.09 -1.44,-3.69 -3.36,-5.31 l -6.08,-5.16 c -0.25,-0.22 -0.26,-0.22 -0.29,-0.39 v -0.75 h 11.57 z"
           inkscape:connector-curvature="0"
           style="fill:#000000;stroke-width:0" /><path
           id="path1296"
           d="m 575.81,408.26 -0.01,-0.07 -0.02,-0.06 -0.02,-0.06 -0.01,-0.06 -0.02,-0.06 -0.02,-0.05 -0.02,-0.05 -0.02,-0.05 -0.02,-0.05 -0.03,-0.04 -0.03,-0.04 -0.03,-0.03 -0.03,-0.04 -0.04,-0.03 -0.05,-0.03 -0.04,-0.03 -0.06,-0.02 -0.05,-0.03 -0.07,-0.02 -0.07,-0.02 -0.04,-0.01 h -0.03 l -0.05,-0.01 -0.04,-0.01 -0.04,-0.01 h -0.05 l -0.05,-0.01 h -0.05 l -0.05,-0.01 -0.05,-0.01 h -0.06 -0.06 l -0.06,-0.01 h -0.06 -0.06 l -0.07,-0.01 h -0.07 -0.07 -0.08 -0.07 -0.08 l -0.09,-0.01 h -0.08 -0.09 c -0.65,0 -1.04,0 -1.04,-0.7 0,-0.42 0.39,-0.42 0.82,-0.42 h 10.83 c 4.49,0 8.13,2.8 8.13,5.28 0,1.55 -1.46,3.22 -4.85,3.64 2.47,0.31 5.99,1.97 5.99,4.45 0,2.1 -2.47,3.64 -5.86,3.64 l -0.44,-1.12 c 2.47,0 3.64,-1.27 3.64,-2.59 0,-2.02 -2.7,-4.04 -6.19,-4.04 h -4.7 l -0.23,-0.84 h 6.08 c 2.54,0 3.81,-1.47 3.81,-3.05 0,-2.4 -2.96,-4.25 -6.05,-4.25 h -4.81 c -0.19,0 -0.55,0 -0.8,0.05 0.03,0.2 0.03,0.25 0.08,0.45 l 1.69,6.8 0.23,0.84 1.44,5.82 c 0.2,0.76 0.2,0.81 1.25,0.81 h 4.56 l 0.44,1.12 h -10.2 c -0.47,0 -0.88,0 -0.88,-0.7 0,-0.42 0.33,-0.42 0.92,-0.42 0.25,0 1.08,0 1.6,-0.14 0,-0.31 0,-0.36 -0.08,-0.63 z"
           inkscape:connector-curvature="0"
           style="fill:#000000;stroke-width:0" /><path
           id="path1298"
           d="m 605.36,414.61 v 0.03 0.03 0.04 0.03 0.03 0.03 0.03 0.02 0.03 l -0.01,0.02 v 0.03 0.02 0.03 l -0.01,0.02 v 0.02 0.02 l -0.01,0.02 v 0.02 l -0.01,0.03 -0.01,0.03 -0.02,0.03 -0.01,0.03 -0.02,0.02 -0.02,0.02 -0.02,0.02 -0.02,0.02 -0.03,0.01 -0.03,0.01 -0.03,0.02 h -0.04 l -0.04,0.01 -0.04,0.01 h -0.02 -0.02 l -0.03,0.01 h -0.02 -0.03 -0.02 -0.03 -0.03 -0.03 -0.03 -0.03 -0.03 -0.03 -0.04 -0.03 -0.04 l -0.03,0.01 h -0.04 c -1.77,-1.6 -4.53,-1.6 -5.03,-1.6 H 599 v -1.09 h 0.43 c 0.57,0 2.18,0.06 3.64,0.69 V 400.9 c 0,-0.76 0,-1.04 -2.64,-1.04 h -1.25 v -1.1 c 1.37,0.1 3.59,0.1 5.03,0.1 1.45,0 3.67,0 5.03,-0.1 v 1.1 H 608 c -2.64,0 -2.64,0.28 -2.64,1.04 z"
           inkscape:connector-curvature="0"
           style="fill:#000000;stroke-width:0" /></g>    </g>
    <g
       id="g1387"
       transform="translate(-61.93634,28.416822)"
       inkscape:export-filename="/home/user/Downloads/chshexcl.png"
       inkscape:export-xdpi="96.279999"
       inkscape:export-ydpi="96.279999">
      <g
         word-spacing="normal"
         letter-spacing="normal"
         font-size-adjust="none"
         font-stretch="normal"
         font-weight="normal"
         font-variant="normal"
         font-style="normal"
         stroke-miterlimit="10.433"
         xml:space="preserve"
         transform="matrix(0.3,0,0,-0.3,-52.5,222.75)"
         id="g1385"
         style="font-style:normal;font-variant:normal;font-weight:normal;font-stretch:normal;letter-spacing:normal;word-spacing:normal;text-anchor:start;fill:none;fill-opacity:1;fill-rule:evenodd;stroke:#000000;stroke-linecap:butt;stroke-linejoin:miter;stroke-miterlimit:10.43299961;stroke-dasharray:none;stroke-dashoffset:0;stroke-opacity:1"><path
           id="path1371"
           d="m 465.44,422.04 v 0.04 0.03 0.03 0.04 0.03 0.02 0.03 0.03 l -0.01,0.03 v 0.02 0.03 0.02 0.02 l -0.01,0.03 v 0.02 0.02 l -0.01,0.02 v 0.01 l -0.01,0.04 -0.01,0.03 -0.02,0.03 -0.01,0.03 -0.02,0.02 -0.02,0.02 -0.02,0.02 -0.03,0.02 -0.02,0.01 -0.03,0.01 -0.03,0.01 -0.04,0.01 -0.04,0.01 -0.04,0.01 h -0.02 -0.02 -0.03 l -0.02,0.01 h -0.03 -0.02 -0.03 -0.03 -0.03 -0.03 -0.03 -0.03 -0.03 -0.04 -0.03 -0.04 -0.04 -0.03 C 462.77,421.2 460,421.2 459.5,421.2 h -0.42 v -1.09 h 0.42 c 0.58,0 2.19,0.06 3.64,0.68 v -12.45 c 0,-0.77 0,-1.05 -2.64,-1.05 h -1.25 v -1.09 c 1.38,0.09 3.6,0.09 5.04,0.09 1.45,0 3.67,0 5.03,-0.09 v 1.09 h -1.24 c -2.64,0 -2.64,0.28 -2.64,1.05 z"
           inkscape:connector-curvature="0"
           style="fill:#000000;stroke-width:0" /><path
           id="path1373"
           d="m 482.36,422.04 v 0.04 0.03 0.03 0.04 0.03 0.02 0.03 l -0.01,0.03 v 0.03 0.02 0.03 0.02 l -0.01,0.02 v 0.03 0.02 l -0.01,0.02 v 0.02 0.01 l -0.01,0.04 -0.02,0.03 -0.01,0.03 -0.01,0.03 -0.02,0.02 -0.02,0.02 -0.02,0.02 -0.03,0.02 -0.02,0.01 -0.03,0.01 -0.04,0.01 -0.03,0.01 -0.04,0.01 -0.04,0.01 h -0.02 -0.03 -0.02 l -0.02,0.01 h -0.03 -0.03 -0.02 -0.03 -0.03 -0.03 -0.03 -0.03 -0.04 -0.03 -0.04 -0.03 -0.04 -0.04 c -1.76,-1.59 -4.53,-1.59 -5.03,-1.59 H 476 v -1.09 h 0.42 c 0.58,0 2.19,0.06 3.64,0.68 v -12.45 c 0,-0.77 0,-1.05 -2.64,-1.05 h -1.25 v -1.09 c 1.38,0.09 3.6,0.09 5.03,0.09 1.46,0 3.68,0 5.03,-0.09 v 1.09 H 485 c -2.64,0 -2.64,0.28 -2.64,1.05 z"
           inkscape:connector-curvature="0"
           style="fill:#000000;stroke-width:0" /><path
           id="path1375"
           d="m 495.76,423.81 v 0.04 0.04 0.04 0.04 0.05 0.04 l -0.01,0.04 v 0.05 0.04 l -0.01,0.05 -0.01,0.04 -0.01,0.05 -0.01,0.04 -0.01,0.05 -0.01,0.04 -0.02,0.04 -0.01,0.04 -0.02,0.04 -0.03,0.04 -0.02,0.03 -0.03,0.04 -0.03,0.03 -0.03,0.03 -0.02,0.01 -0.01,0.02 -0.02,0.01 -0.02,0.01 -0.02,0.01 -0.03,0.01 -0.02,0.01 -0.02,0.01 -0.02,0.01 -0.03,0.01 h -0.02 l -0.03,0.01 -0.03,0.01 h -0.03 -0.03 l -0.03,0.01 h -0.03 -0.03 c -0.7,0 -0.7,-0.68 -0.7,-1.08 v -22.77 c 0,-0.4 0,-1.08 0.7,-1.08 0.7,0 0.7,0.68 0.7,1.08 z"
           inkscape:connector-curvature="0"
           style="fill:#000000;stroke-width:0" /><path
           id="path1377"
           d="m 518.86,423.36 -0.01,0.04 v 0.05 l -0.01,0.04 -0.01,0.05 -0.01,0.04 -0.01,0.04 -0.01,0.03 -0.02,0.04 -0.01,0.03 -0.01,0.03 -0.02,0.03 -0.01,0.03 -0.02,0.02 -0.01,0.03 -0.02,0.02 -0.02,0.02 -0.02,0.02 -0.02,0.01 -0.03,0.02 -0.02,0.02 -0.03,0.01 -0.03,0.01 -0.03,0.01 -0.03,0.01 -0.04,0.01 -0.03,0.01 h -0.04 l -0.04,0.01 h -0.04 -0.05 -0.05 -0.05 c -0.59,0 -0.75,-0.2 -1,-0.58 l -9.76,-14.15 c -1.03,-1.52 -1.91,-1.91 -3.53,-1.99 -0.47,-0.03 -0.47,-0.67 -0.47,-0.7 0,-0.34 0.29,-0.42 0.39,-0.42 0.36,0 0.78,0.08 1.12,0.08 0.43,0 0.85,0.01 1.27,0.01 0.48,0 0.92,-0.01 1.37,-0.01 0.46,0 0.97,-0.08 1.43,-0.08 0.17,0 0.59,0 0.59,0.7 0,0.39 -0.38,0.42 -0.47,0.42 -0.2,0 -1.17,0.05 -1.17,0.64 0,0.3 0.3,0.72 0.47,0.97 l 1.83,2.68 c 0.12,0.15 0.14,0.17 0.61,0.17 h 7.56 l -0.2,1.12 h -7.08 l 5.56,8.06 1.52,-8.06 0.2,-1.12 c 0.05,-0.3 0.06,-0.42 0.14,-0.72 0.08,-0.45 0.58,-2.94 0.58,-3.19 0,-0.55 -1.58,-0.55 -1.71,-0.55 -0.37,0 -0.76,0 -0.76,-0.7 0,-0.25 0.17,-0.42 0.45,-0.42 0.52,0 1.11,0.08 1.66,0.08 0.61,0 1.17,0.01 1.78,0.01 0.51,0 1.06,-0.01 1.59,-0.01 0.5,0 1.07,-0.08 1.57,-0.08 0.42,0 0.59,0.3 0.59,0.7 0,0.42 -0.39,0.42 -0.74,0.42 -1.65,0 -1.67,0.18 -1.78,0.72 z"
           inkscape:connector-curvature="0"
           style="fill:#000000;stroke-width:0" /><path
           id="path1379"
           d="m 541.23,403.57 h -1.05 c -0.08,-0.48 -0.33,-2.01 -0.71,-2.26 -0.21,-0.16 -2.3,-0.16 -2.68,-0.16 h -4.87 c 1.64,1.22 3.48,2.61 4.98,3.61 2.24,1.55 4.33,3 4.33,5.64 0,3.19 -3.01,4.96 -6.58,4.96 -3.36,0 -5.83,-1.96 -5.83,-4.4 0,-1.29 1.1,-1.51 1.46,-1.51 0.67,0 1.47,0.45 1.47,1.47 0,0.89 -0.66,1.39 -1.43,1.47 0.69,1.12 2.15,1.87 3.82,1.87 2.4,0 4.42,-1.45 4.42,-3.89 0,-2.09 -1.44,-3.69 -3.36,-5.31 l -6.08,-5.16 c -0.25,-0.22 -0.27,-0.22 -0.3,-0.39 v -0.75 h 11.58 z"
           inkscape:connector-curvature="0"
           style="fill:#000000;stroke-width:0" /><path
           id="path1381"
           d="m 552.29,408.26 -0.01,-0.07 -0.02,-0.06 -0.02,-0.06 -0.01,-0.06 -0.02,-0.06 -0.02,-0.05 -0.02,-0.05 -0.02,-0.05 -0.02,-0.05 -0.03,-0.04 -0.03,-0.04 -0.03,-0.03 -0.03,-0.04 -0.04,-0.03 -0.05,-0.03 -0.04,-0.03 -0.06,-0.02 -0.05,-0.03 -0.07,-0.02 -0.07,-0.02 -0.04,-0.01 h -0.03 l -0.04,-0.01 -0.05,-0.01 -0.04,-0.01 h -0.05 l -0.05,-0.01 h -0.05 l -0.05,-0.01 -0.05,-0.01 h -0.06 -0.06 L 551,407.34 h -0.06 -0.06 l -0.07,-0.01 h -0.07 -0.07 -0.08 -0.07 -0.08 l -0.08,-0.01 h -0.09 -0.09 c -0.65,0 -1.04,0 -1.04,-0.7 0,-0.42 0.39,-0.42 0.83,-0.42 h 10.82 c 4.49,0 8.13,2.8 8.13,5.28 0,1.55 -1.45,3.22 -4.85,3.64 2.47,0.31 5.99,1.97 5.99,4.45 0,2.1 -2.47,3.64 -5.86,3.64 l -0.44,-1.12 c 2.47,0 3.64,-1.27 3.64,-2.59 0,-2.02 -2.7,-4.04 -6.18,-4.04 h -4.71 l -0.23,-0.84 h 6.07 c 2.55,0 3.82,-1.47 3.82,-3.05 0,-2.4 -2.95,-4.25 -6.05,-4.25 h -4.81 c -0.19,0 -0.55,0 -0.8,0.05 0.03,0.2 0.03,0.25 0.08,0.45 l 1.69,6.8 0.23,0.84 1.44,5.82 c 0.2,0.76 0.2,0.81 1.25,0.81 h 4.56 l 0.44,1.12 H 554 c -0.47,0 -0.88,0 -0.88,-0.7 0,-0.42 0.33,-0.42 0.92,-0.42 0.25,0 1.08,0 1.6,-0.14 0,-0.31 0,-0.36 -0.08,-0.63 z"
           inkscape:connector-curvature="0"
           style="fill:#000000;stroke-width:0" /><path
           id="path1383"
           d="m 581.84,414.61 v 0.03 0.03 0.04 0.03 0.03 0.03 0.03 0.02 0.03 0.02 l -0.01,0.03 v 0.02 0.03 0.02 l -0.01,0.02 v 0.02 l -0.01,0.02 v 0.02 l -0.01,0.03 -0.01,0.03 -0.01,0.03 -0.02,0.03 -0.02,0.02 -0.02,0.02 -0.02,0.02 -0.02,0.02 -0.03,0.01 -0.03,0.01 -0.03,0.02 h -0.04 l -0.03,0.01 -0.05,0.01 h -0.02 -0.02 l -0.02,0.01 h -0.03 -0.02 -0.03 -0.03 -0.03 -0.03 -0.03 -0.03 -0.03 -0.03 -0.04 -0.03 -0.04 l -0.03,0.01 h -0.04 c -1.77,-1.6 -4.53,-1.6 -5.03,-1.6 h -0.43 v -1.09 h 0.43 c 0.57,0 2.18,0.06 3.64,0.69 V 400.9 c 0,-0.76 0,-1.04 -2.64,-1.04 h -1.25 v -1.1 c 1.37,0.1 3.59,0.1 5.03,0.1 1.45,0 3.67,0 5.03,-0.1 v 1.1 h -1.24 c -2.64,0 -2.64,0.28 -2.64,1.04 z"
           inkscape:connector-curvature="0"
           style="fill:#000000;stroke-width:0" /></g>    </g>
    <g
       id="g1479"
       transform="translate(82.657626,-21.290601)"
       inkscape:export-filename="/home/user/Downloads/chshexcl.png"
       inkscape:export-xdpi="96.279999"
       inkscape:export-ydpi="96.279999">
      <g
         word-spacing="normal"
         letter-spacing="normal"
         font-size-adjust="none"
         font-stretch="normal"
         font-weight="normal"
         font-variant="normal"
         font-style="normal"
         stroke-miterlimit="10.433"
         xml:space="preserve"
         transform="matrix(0.3,0,0,-0.3,-52.5,222.75)"
         id="g1477"
         style="font-style:normal;font-variant:normal;font-weight:normal;font-stretch:normal;letter-spacing:normal;word-spacing:normal;text-anchor:start;fill:none;fill-opacity:1;fill-rule:evenodd;stroke:#000000;stroke-linecap:butt;stroke-linejoin:miter;stroke-miterlimit:10.43299961;stroke-dasharray:none;stroke-dashoffset:0;stroke-opacity:1"><path
           id="path1463"
           d="m 465.44,422.04 v 0.04 0.03 0.03 0.04 0.03 0.02 0.03 0.03 l -0.01,0.03 v 0.02 0.03 0.02 0.02 l -0.01,0.03 v 0.02 0.02 l -0.01,0.02 v 0.01 l -0.01,0.04 -0.01,0.03 -0.02,0.03 -0.01,0.03 -0.02,0.02 -0.02,0.02 -0.02,0.02 -0.03,0.02 -0.02,0.01 -0.03,0.01 -0.03,0.01 -0.04,0.01 -0.04,0.01 -0.04,0.01 h -0.02 -0.02 -0.03 l -0.02,0.01 h -0.03 -0.02 -0.03 -0.03 -0.03 -0.03 -0.03 -0.03 -0.03 -0.04 -0.03 -0.04 -0.04 -0.03 C 462.77,421.2 460,421.2 459.5,421.2 h -0.42 v -1.09 h 0.42 c 0.58,0 2.19,0.06 3.64,0.68 v -12.45 c 0,-0.77 0,-1.05 -2.64,-1.05 h -1.25 v -1.09 c 1.38,0.09 3.6,0.09 5.04,0.09 1.45,0 3.67,0 5.03,-0.09 v 1.09 h -1.24 c -2.64,0 -2.64,0.28 -2.64,1.05 z"
           inkscape:connector-curvature="0"
           style="fill:#000000;stroke-width:0" /><path
           id="path1465"
           d="m 482.36,422.04 v 0.04 0.03 0.03 0.04 0.03 0.02 0.03 l -0.01,0.03 v 0.03 0.02 0.03 0.02 l -0.01,0.02 v 0.03 0.02 l -0.01,0.02 v 0.02 0.01 l -0.01,0.04 -0.02,0.03 -0.01,0.03 -0.01,0.03 -0.02,0.02 -0.02,0.02 -0.02,0.02 -0.03,0.02 -0.02,0.01 -0.03,0.01 -0.04,0.01 -0.03,0.01 -0.04,0.01 -0.04,0.01 h -0.02 -0.03 -0.02 l -0.02,0.01 h -0.03 -0.03 -0.02 -0.03 -0.03 -0.03 -0.03 -0.03 -0.04 -0.03 -0.04 -0.03 -0.04 -0.04 c -1.76,-1.59 -4.53,-1.59 -5.03,-1.59 H 476 v -1.09 h 0.42 c 0.58,0 2.19,0.06 3.64,0.68 v -12.45 c 0,-0.77 0,-1.05 -2.64,-1.05 h -1.25 v -1.09 c 1.38,0.09 3.6,0.09 5.03,0.09 1.46,0 3.68,0 5.03,-0.09 v 1.09 H 485 c -2.64,0 -2.64,0.28 -2.64,1.05 z"
           inkscape:connector-curvature="0"
           style="fill:#000000;stroke-width:0" /><path
           id="path1467"
           d="m 495.76,423.81 v 0.04 0.04 0.04 0.04 0.05 0.04 l -0.01,0.04 v 0.05 0.04 l -0.01,0.05 -0.01,0.04 -0.01,0.05 -0.01,0.04 -0.01,0.05 -0.01,0.04 -0.02,0.04 -0.01,0.04 -0.02,0.04 -0.03,0.04 -0.02,0.03 -0.03,0.04 -0.03,0.03 -0.03,0.03 -0.02,0.01 -0.01,0.02 -0.02,0.01 -0.02,0.01 -0.02,0.01 -0.03,0.01 -0.02,0.01 -0.02,0.01 -0.02,0.01 -0.03,0.01 h -0.02 l -0.03,0.01 -0.03,0.01 h -0.03 -0.03 l -0.03,0.01 h -0.03 -0.03 c -0.7,0 -0.7,-0.68 -0.7,-1.08 v -22.77 c 0,-0.4 0,-1.08 0.7,-1.08 0.7,0 0.7,0.68 0.7,1.08 z"
           inkscape:connector-curvature="0"
           style="fill:#000000;stroke-width:0" /><path
           id="path1469"
           d="m 518.86,423.36 -0.01,0.04 v 0.05 l -0.01,0.04 -0.01,0.05 -0.01,0.04 -0.01,0.04 -0.01,0.03 -0.02,0.04 -0.01,0.03 -0.01,0.03 -0.02,0.03 -0.01,0.03 -0.02,0.02 -0.01,0.03 -0.02,0.02 -0.02,0.02 -0.02,0.02 -0.02,0.01 -0.03,0.02 -0.02,0.02 -0.03,0.01 -0.03,0.01 -0.03,0.01 -0.03,0.01 -0.04,0.01 -0.03,0.01 h -0.04 l -0.04,0.01 h -0.04 -0.05 -0.05 -0.05 c -0.59,0 -0.75,-0.2 -1,-0.58 l -9.76,-14.15 c -1.03,-1.52 -1.91,-1.91 -3.53,-1.99 -0.47,-0.03 -0.47,-0.67 -0.47,-0.7 0,-0.34 0.29,-0.42 0.39,-0.42 0.36,0 0.78,0.08 1.12,0.08 0.43,0 0.85,0.01 1.27,0.01 0.48,0 0.92,-0.01 1.37,-0.01 0.46,0 0.97,-0.08 1.43,-0.08 0.17,0 0.59,0 0.59,0.7 0,0.39 -0.38,0.42 -0.47,0.42 -0.2,0 -1.17,0.05 -1.17,0.64 0,0.3 0.3,0.72 0.47,0.97 l 1.83,2.68 c 0.12,0.15 0.14,0.17 0.61,0.17 h 7.56 l -0.2,1.12 h -7.08 l 5.56,8.06 1.52,-8.06 0.2,-1.12 c 0.05,-0.3 0.06,-0.42 0.14,-0.72 0.08,-0.45 0.58,-2.94 0.58,-3.19 0,-0.55 -1.58,-0.55 -1.71,-0.55 -0.37,0 -0.76,0 -0.76,-0.7 0,-0.25 0.17,-0.42 0.45,-0.42 0.52,0 1.11,0.08 1.66,0.08 0.61,0 1.17,0.01 1.78,0.01 0.51,0 1.06,-0.01 1.59,-0.01 0.5,0 1.07,-0.08 1.57,-0.08 0.42,0 0.59,0.3 0.59,0.7 0,0.42 -0.39,0.42 -0.74,0.42 -1.65,0 -1.67,0.18 -1.78,0.72 z"
           inkscape:connector-curvature="0"
           style="fill:#000000;stroke-width:0" /><path
           id="path1471"
           d="m 541.23,403.57 h -1.05 c -0.08,-0.48 -0.33,-2.01 -0.71,-2.26 -0.21,-0.16 -2.3,-0.16 -2.68,-0.16 h -4.87 c 1.64,1.22 3.48,2.61 4.98,3.61 2.24,1.55 4.33,3 4.33,5.64 0,3.19 -3.01,4.96 -6.58,4.96 -3.36,0 -5.83,-1.96 -5.83,-4.4 0,-1.29 1.1,-1.51 1.46,-1.51 0.67,0 1.47,0.45 1.47,1.47 0,0.89 -0.66,1.39 -1.43,1.47 0.69,1.12 2.15,1.87 3.82,1.87 2.4,0 4.42,-1.45 4.42,-3.89 0,-2.09 -1.44,-3.69 -3.36,-5.31 l -6.08,-5.16 c -0.25,-0.22 -0.27,-0.22 -0.3,-0.39 v -0.75 h 11.58 z"
           inkscape:connector-curvature="0"
           style="fill:#000000;stroke-width:0" /><path
           id="path1473"
           d="m 552.29,408.26 -0.01,-0.07 -0.02,-0.06 -0.02,-0.06 -0.01,-0.06 -0.02,-0.06 -0.02,-0.05 -0.02,-0.05 -0.02,-0.05 -0.02,-0.05 -0.03,-0.04 -0.03,-0.04 -0.03,-0.03 -0.03,-0.04 -0.04,-0.03 -0.05,-0.03 -0.04,-0.03 -0.06,-0.02 -0.05,-0.03 -0.07,-0.02 -0.07,-0.02 -0.04,-0.01 h -0.03 l -0.04,-0.01 -0.05,-0.01 -0.04,-0.01 h -0.05 l -0.05,-0.01 h -0.05 l -0.05,-0.01 -0.05,-0.01 h -0.06 -0.06 L 551,407.34 h -0.06 -0.06 l -0.07,-0.01 h -0.07 -0.07 -0.08 -0.07 -0.08 l -0.08,-0.01 h -0.09 -0.09 c -0.65,0 -1.04,0 -1.04,-0.7 0,-0.42 0.39,-0.42 0.83,-0.42 h 10.82 c 4.49,0 8.13,2.8 8.13,5.28 0,1.55 -1.45,3.22 -4.85,3.64 2.47,0.31 5.99,1.97 5.99,4.45 0,2.1 -2.47,3.64 -5.86,3.64 l -0.44,-1.12 c 2.47,0 3.64,-1.27 3.64,-2.59 0,-2.02 -2.7,-4.04 -6.18,-4.04 h -4.71 l -0.23,-0.84 h 6.07 c 2.55,0 3.82,-1.47 3.82,-3.05 0,-2.4 -2.95,-4.25 -6.05,-4.25 h -4.81 c -0.19,0 -0.55,0 -0.8,0.05 0.03,0.2 0.03,0.25 0.08,0.45 l 1.69,6.8 0.23,0.84 1.44,5.82 c 0.2,0.76 0.2,0.81 1.25,0.81 h 4.56 l 0.44,1.12 H 554 c -0.47,0 -0.88,0 -0.88,-0.7 0,-0.42 0.33,-0.42 0.92,-0.42 0.25,0 1.08,0 1.6,-0.14 0,-0.31 0,-0.36 -0.08,-0.63 z"
           inkscape:connector-curvature="0"
           style="fill:#000000;stroke-width:0" /><path
           id="path1475"
           d="m 586.59,403.57 h -1.04 c -0.08,-0.48 -0.33,-2.01 -0.72,-2.26 -0.21,-0.16 -2.3,-0.16 -2.67,-0.16 h -4.88 c 1.64,1.22 3.49,2.61 4.99,3.61 2.23,1.55 4.32,3 4.32,5.64 0,3.19 -3.01,4.96 -6.57,4.96 -3.36,0 -5.83,-1.96 -5.83,-4.4 0,-1.29 1.09,-1.51 1.45,-1.51 0.67,0 1.47,0.45 1.47,1.47 0,0.89 -0.66,1.39 -1.42,1.47 0.69,1.12 2.14,1.87 3.81,1.87 2.41,0 4.42,-1.45 4.42,-3.89 0,-2.09 -1.44,-3.69 -3.36,-5.31 l -6.08,-5.16 c -0.25,-0.22 -0.26,-0.22 -0.29,-0.39 v -0.75 h 11.58 z"
           inkscape:connector-curvature="0"
           style="fill:#000000;stroke-width:0" /></g>    </g>
    <g
       id="g1582"
       transform="translate(58.473399,28.416822)"
       inkscape:export-filename="/home/user/Downloads/chshexcl.png"
       inkscape:export-xdpi="96.279999"
       inkscape:export-ydpi="96.279999">
      <g
         word-spacing="normal"
         letter-spacing="normal"
         font-size-adjust="none"
         font-stretch="normal"
         font-weight="normal"
         font-variant="normal"
         font-style="normal"
         stroke-miterlimit="10.433"
         xml:space="preserve"
         transform="matrix(0.3,0,0,-0.3,-52.5,222.75)"
         id="g1580"
         style="font-style:normal;font-variant:normal;font-weight:normal;font-stretch:normal;letter-spacing:normal;word-spacing:normal;text-anchor:start;fill:none;fill-opacity:1;fill-rule:evenodd;stroke:#000000;stroke-linecap:butt;stroke-linejoin:miter;stroke-miterlimit:10.43299961;stroke-dasharray:none;stroke-dashoffset:0;stroke-opacity:1"><path
           id="path1564"
           d="m 465.44,422.04 v 0.04 0.03 0.03 0.04 0.03 0.02 0.03 0.03 l -0.01,0.03 v 0.02 0.03 0.02 0.02 l -0.01,0.03 v 0.02 0.02 l -0.01,0.02 v 0.01 l -0.01,0.04 -0.01,0.03 -0.02,0.03 -0.01,0.03 -0.02,0.02 -0.02,0.02 -0.02,0.02 -0.03,0.02 -0.02,0.01 -0.03,0.01 -0.03,0.01 -0.04,0.01 -0.04,0.01 -0.04,0.01 h -0.02 -0.02 -0.03 l -0.02,0.01 h -0.03 -0.02 -0.03 -0.03 -0.03 -0.03 -0.03 -0.03 -0.03 -0.04 -0.03 -0.04 -0.04 -0.03 C 462.77,421.2 460,421.2 459.5,421.2 h -0.42 v -1.09 h 0.42 c 0.58,0 2.19,0.06 3.64,0.68 v -12.45 c 0,-0.77 0,-1.05 -2.64,-1.05 h -1.25 v -1.09 c 1.38,0.09 3.6,0.09 5.04,0.09 1.45,0 3.67,0 5.03,-0.09 v 1.09 h -1.24 c -2.64,0 -2.64,0.28 -2.64,1.05 z"
           inkscape:connector-curvature="0"
           style="fill:#000000;stroke-width:0" /><polygon
           id="polygon1566"
           points="481.75,410.61 481.75,412.53 473.48,412.53 473.48,410.61 "
           style="fill:#000000;stroke-width:0" /><path
           id="path1568"
           d="m 494.24,422.04 v 0.04 0.03 0.03 0.04 0.03 0.02 l -0.01,0.03 v 0.03 0.03 0.02 0.03 0.02 l -0.01,0.02 v 0.03 0.02 l -0.01,0.02 v 0.02 l -0.01,0.01 -0.01,0.04 -0.01,0.03 -0.01,0.03 -0.02,0.03 -0.01,0.02 -0.02,0.02 -0.02,0.02 -0.03,0.02 -0.03,0.01 -0.03,0.01 -0.03,0.01 -0.03,0.01 -0.04,0.01 -0.04,0.01 h -0.02 -0.03 -0.02 l -0.03,0.01 h -0.02 -0.03 -0.02 -0.03 -0.03 -0.03 -0.03 -0.03 -0.04 -0.03 -0.04 -0.03 -0.04 -0.04 c -1.76,-1.59 -4.53,-1.59 -5.03,-1.59 h -0.42 v -1.09 h 0.42 c 0.58,0 2.19,0.06 3.64,0.68 v -12.45 c 0,-0.77 0,-1.05 -2.64,-1.05 h -1.25 v -1.09 c 1.38,0.09 3.59,0.09 5.03,0.09 1.46,0 3.67,0 5.03,-0.09 v 1.09 h -1.23 c -2.64,0 -2.64,0.28 -2.64,1.05 z"
           inkscape:connector-curvature="0"
           style="fill:#000000;stroke-width:0" /><path
           id="path1570"
           d="m 507.64,423.81 v 0.04 0.04 0.04 0.04 0.05 0.04 l -0.01,0.04 v 0.05 0.04 l -0.01,0.05 -0.01,0.04 -0.01,0.05 -0.01,0.04 -0.01,0.05 -0.01,0.04 -0.02,0.04 -0.01,0.04 -0.02,0.04 -0.03,0.04 -0.02,0.03 -0.03,0.04 -0.03,0.03 -0.03,0.03 -0.02,0.01 -0.02,0.02 -0.01,0.01 -0.02,0.01 -0.02,0.01 -0.03,0.01 -0.02,0.01 -0.02,0.01 -0.03,0.01 -0.02,0.01 h -0.03 l -0.02,0.01 -0.03,0.01 h -0.03 -0.03 l -0.03,0.01 h -0.03 -0.03 c -0.71,0 -0.71,-0.68 -0.71,-1.08 v -22.77 c 0,-0.4 0,-1.08 0.71,-1.08 0.7,0 0.7,0.68 0.7,1.08 z"
           inkscape:connector-curvature="0"
           style="fill:#000000;stroke-width:0" /><path
           id="path1572"
           d="m 530.74,423.36 -0.01,0.04 -0.01,0.05 -0.01,0.04 v 0.05 l -0.01,0.04 -0.02,0.04 -0.01,0.03 -0.01,0.04 -0.01,0.03 -0.01,0.03 -0.02,0.03 -0.01,0.03 -0.02,0.02 -0.02,0.03 -0.01,0.02 -0.02,0.02 -0.02,0.02 -0.03,0.01 -0.02,0.02 -0.03,0.02 -0.02,0.01 -0.03,0.01 -0.03,0.01 -0.03,0.01 -0.04,0.01 -0.03,0.01 h -0.04 l -0.04,0.01 h -0.05 -0.04 -0.05 -0.05 c -0.59,0 -0.75,-0.2 -1,-0.58 l -9.76,-14.15 c -1.03,-1.52 -1.91,-1.91 -3.53,-1.99 -0.47,-0.03 -0.47,-0.67 -0.47,-0.7 0,-0.34 0.29,-0.42 0.39,-0.42 0.36,0 0.78,0.08 1.12,0.08 0.42,0 0.85,0.01 1.27,0.01 0.48,0 0.92,-0.01 1.37,-0.01 0.46,0 0.97,-0.08 1.42,-0.08 0.18,0 0.6,0 0.6,0.7 0,0.39 -0.38,0.42 -0.47,0.42 -0.2,0 -1.17,0.05 -1.17,0.64 0,0.3 0.29,0.72 0.47,0.97 l 1.82,2.68 c 0.13,0.15 0.15,0.17 0.61,0.17 h 7.57 l -0.21,1.12 h -7.07 l 5.56,8.06 1.51,-8.06 0.21,-1.12 c 0.04,-0.3 0.06,-0.42 0.14,-0.72 0.08,-0.45 0.58,-2.94 0.58,-3.19 0,-0.55 -1.58,-0.55 -1.71,-0.55 -0.37,0 -0.76,0 -0.76,-0.7 0,-0.25 0.17,-0.42 0.45,-0.42 0.52,0 1.11,0.08 1.66,0.08 0.61,0 1.17,0.01 1.78,0.01 0.51,0 1.06,-0.01 1.59,-0.01 0.5,0 1.06,-0.08 1.56,-0.08 0.43,0 0.6,0.3 0.6,0.7 0,0.42 -0.39,0.42 -0.74,0.42 -1.65,0 -1.67,0.18 -1.78,0.72 z"
           inkscape:connector-curvature="0"
           style="fill:#000000;stroke-width:0" /><path
           id="path1574"
           d="m 548.36,414.61 v 0.03 0.03 0.04 0.03 0.03 0.03 0.03 0.02 0.03 l -0.01,0.02 v 0.03 0.02 0.03 l -0.01,0.02 v 0.02 0.02 l -0.01,0.02 v 0.02 l -0.01,0.03 -0.01,0.03 -0.02,0.03 -0.01,0.03 -0.02,0.02 -0.02,0.02 -0.02,0.02 -0.02,0.02 -0.03,0.01 -0.03,0.01 -0.03,0.02 h -0.04 l -0.04,0.01 -0.04,0.01 h -0.02 -0.02 l -0.03,0.01 h -0.02 -0.03 -0.02 -0.03 -0.03 -0.03 -0.03 -0.03 -0.03 -0.03 -0.04 -0.03 -0.04 l -0.03,0.01 h -0.04 c -1.77,-1.6 -4.53,-1.6 -5.03,-1.6 H 542 v -1.09 h 0.43 c 0.57,0 2.18,0.06 3.64,0.69 V 400.9 c 0,-0.76 0,-1.04 -2.64,-1.04 h -1.25 v -1.1 c 1.37,0.1 3.59,0.1 5.03,0.1 1.45,0 3.67,0 5.03,-0.1 v 1.1 H 551 c -2.64,0 -2.64,0.28 -2.64,1.04 z"
           inkscape:connector-curvature="0"
           style="fill:#000000;stroke-width:0" /><path
           id="path1576"
           d="m 564.05,408.26 -0.02,-0.07 -0.01,-0.06 -0.02,-0.06 -0.02,-0.06 -0.01,-0.06 -0.02,-0.05 -0.02,-0.05 -0.02,-0.05 -0.03,-0.05 -0.02,-0.04 -0.03,-0.04 -0.03,-0.03 -0.04,-0.04 -0.03,-0.03 -0.05,-0.03 -0.05,-0.03 -0.05,-0.02 -0.06,-0.03 -0.06,-0.02 -0.07,-0.02 -0.04,-0.01 h -0.04 l -0.04,-0.01 -0.04,-0.01 -0.04,-0.01 h -0.05 l -0.05,-0.01 h -0.05 l -0.05,-0.01 -0.05,-0.01 h -0.06 -0.06 l -0.06,-0.01 h -0.06 -0.07 l -0.06,-0.01 h -0.07 -0.07 -0.08 -0.08 -0.08 l -0.08,-0.01 h -0.08 -0.09 c -0.66,0 -1.04,0 -1.04,-0.7 0,-0.42 0.38,-0.42 0.82,-0.42 h 10.83 c 4.48,0 8.13,2.8 8.13,5.28 0,1.55 -1.46,3.22 -4.85,3.64 2.47,0.31 5.99,1.97 5.99,4.45 0,2.1 -2.47,3.64 -5.86,3.64 l -0.44,-1.12 c 2.47,0 3.64,-1.27 3.64,-2.59 0,-2.02 -2.7,-4.04 -6.19,-4.04 h -4.7 l -0.24,-0.84 h 6.08 c 2.55,0 3.82,-1.47 3.82,-3.05 0,-2.4 -2.96,-4.25 -6.05,-4.25 h -4.81 c -0.19,0 -0.55,0 -0.8,0.05 0.03,0.2 0.03,0.25 0.08,0.45 l 1.68,6.8 0.24,0.84 1.44,5.82 c 0.2,0.76 0.2,0.81 1.25,0.81 h 4.56 l 0.44,1.12 h -10.21 c -0.47,0 -0.87,0 -0.87,-0.7 0,-0.42 0.33,-0.42 0.92,-0.42 0.25,0 1.08,0 1.6,-0.14 0,-0.31 0,-0.36 -0.08,-0.63 z"
           inkscape:connector-curvature="0"
           style="fill:#000000;stroke-width:0" /><path
           id="path1578"
           d="m 598.35,403.57 h -1.05 c -0.07,-0.48 -0.32,-2.01 -0.71,-2.26 -0.21,-0.16 -2.3,-0.16 -2.68,-0.16 h -4.87 c 1.64,1.22 3.48,2.61 4.98,3.61 2.24,1.55 4.33,3 4.33,5.64 0,3.19 -3.01,4.96 -6.58,4.96 -3.36,0 -5.82,-1.96 -5.82,-4.4 0,-1.29 1.09,-1.51 1.45,-1.51 0.67,0 1.47,0.45 1.47,1.47 0,0.89 -0.66,1.39 -1.42,1.47 0.68,1.12 2.14,1.87 3.81,1.87 2.4,0 4.42,-1.45 4.42,-3.89 0,-2.09 -1.44,-3.69 -3.36,-5.31 l -6.08,-5.16 c -0.25,-0.22 -0.26,-0.22 -0.29,-0.39 v -0.75 h 11.57 z"
           inkscape:connector-curvature="0"
           style="fill:#000000;stroke-width:0" /></g>    </g>
    <g
       id="g1696"
       transform="translate(-63.45434,-69.694339)"
       inkscape:export-filename="/home/user/Downloads/chshexcl.png"
       inkscape:export-xdpi="96.279999"
       inkscape:export-ydpi="96.279999">
      <g
         word-spacing="normal"
         letter-spacing="normal"
         font-size-adjust="none"
         font-stretch="normal"
         font-weight="normal"
         font-variant="normal"
         font-style="normal"
         stroke-miterlimit="10.433"
         xml:space="preserve"
         transform="matrix(0.3,0,0,-0.3,-52.5,222.75)"
         id="g1694"
         style="font-style:normal;font-variant:normal;font-weight:normal;font-stretch:normal;letter-spacing:normal;word-spacing:normal;text-anchor:start;fill:none;fill-opacity:1;fill-rule:evenodd;stroke:#000000;stroke-linecap:butt;stroke-linejoin:miter;stroke-miterlimit:10.43299961;stroke-dasharray:none;stroke-dashoffset:0;stroke-opacity:1"><polygon
           id="polygon1678"
           points="464.83,412.53 456.57,412.53 456.57,410.61 464.83,410.61 "
           style="fill:#000000;stroke-width:0" /><path
           id="path1680"
           d="m 477.2,422.04 v 0.04 0.03 0.03 0.04 0.03 0.02 0.03 l -0.01,0.03 v 0.03 0.02 0.03 0.02 l -0.01,0.02 v 0.03 0.02 l -0.01,0.02 v 0.02 0.01 l -0.01,0.04 -0.02,0.03 -0.01,0.03 -0.01,0.03 -0.02,0.02 -0.02,0.02 -0.02,0.02 -0.03,0.02 -0.02,0.01 -0.03,0.01 -0.04,0.01 -0.03,0.01 -0.04,0.01 -0.04,0.01 h -0.02 -0.03 -0.02 l -0.02,0.01 h -0.03 -0.03 -0.02 -0.03 -0.03 -0.03 -0.03 -0.03 -0.04 -0.03 -0.04 -0.03 -0.04 -0.04 c -1.76,-1.59 -4.53,-1.59 -5.03,-1.59 h -0.42 v -1.09 h 0.42 c 0.58,0 2.19,0.06 3.64,0.68 v -12.45 c 0,-0.77 0,-1.05 -2.64,-1.05 h -1.25 v -1.09 c 1.38,0.09 3.6,0.09 5.03,0.09 1.46,0 3.67,0 5.03,-0.09 v 1.09 h -1.23 c -2.64,0 -2.64,0.28 -2.64,1.05 z"
           inkscape:connector-curvature="0"
           style="fill:#000000;stroke-width:0" /><path
           id="path1682"
           d="m 494.12,422.04 v 0.04 0.03 0.03 0.04 0.03 l -0.01,0.02 v 0.03 0.03 0.03 0.02 0.03 l -0.01,0.02 v 0.02 0.03 0.02 l -0.01,0.02 v 0.02 l -0.01,0.01 -0.01,0.04 -0.01,0.03 -0.01,0.03 -0.02,0.03 -0.01,0.02 -0.02,0.02 -0.03,0.02 -0.02,0.02 -0.03,0.01 -0.03,0.01 -0.03,0.01 -0.03,0.01 -0.04,0.01 -0.04,0.01 h -0.03 -0.02 -0.02 l -0.03,0.01 h -0.02 -0.03 -0.03 -0.02 -0.03 -0.03 -0.03 -0.04 -0.03 -0.03 -0.04 -0.03 -0.04 -0.04 c -1.76,-1.59 -4.53,-1.59 -5.03,-1.59 h -0.42 v -1.09 h 0.42 c 0.58,0 2.19,0.06 3.64,0.68 v -12.45 c 0,-0.77 0,-1.05 -2.64,-1.05 h -1.25 v -1.09 c 1.37,0.09 3.59,0.09 5.03,0.09 1.45,0 3.67,0 5.03,-0.09 v 1.09 h -1.23 c -2.64,0 -2.64,0.28 -2.64,1.05 z"
           inkscape:connector-curvature="0"
           style="fill:#000000;stroke-width:0" /><path
           id="path1684"
           d="m 507.52,423.81 v 0.04 0.04 0.04 0.04 0.05 0.04 l -0.01,0.04 v 0.05 l -0.01,0.04 v 0.05 l -0.01,0.04 -0.01,0.05 -0.01,0.04 -0.01,0.05 -0.01,0.04 -0.02,0.04 -0.02,0.04 -0.02,0.04 -0.02,0.04 -0.02,0.03 -0.03,0.04 -0.03,0.03 -0.03,0.03 -0.02,0.01 -0.02,0.02 -0.02,0.01 -0.02,0.01 -0.02,0.01 -0.02,0.01 -0.02,0.01 -0.02,0.01 -0.03,0.01 -0.02,0.01 h -0.03 l -0.02,0.01 -0.03,0.01 h -0.03 -0.03 l -0.03,0.01 h -0.03 -0.03 c -0.71,0 -0.71,-0.68 -0.71,-1.08 v -22.77 c 0,-0.4 0,-1.08 0.71,-1.08 0.7,0 0.7,0.68 0.7,1.08 z"
           inkscape:connector-curvature="0"
           style="fill:#000000;stroke-width:0" /><path
           id="path1686"
           d="m 530.62,423.36 -0.01,0.04 -0.01,0.05 -0.01,0.04 -0.01,0.05 -0.01,0.04 -0.01,0.04 -0.01,0.03 -0.01,0.04 -0.01,0.03 -0.01,0.03 -0.02,0.03 -0.01,0.03 -0.02,0.02 -0.02,0.03 -0.01,0.02 -0.02,0.02 -0.02,0.02 -0.03,0.01 -0.02,0.02 -0.03,0.02 -0.02,0.01 -0.03,0.01 -0.03,0.01 -0.03,0.01 -0.04,0.01 -0.03,0.01 h -0.04 l -0.04,0.01 h -0.05 -0.04 -0.05 -0.05 c -0.59,0 -0.75,-0.2 -1,-0.58 l -9.77,-14.15 c -1.03,-1.52 -1.9,-1.91 -3.53,-1.99 -0.47,-0.03 -0.47,-0.67 -0.47,-0.7 0,-0.34 0.3,-0.42 0.4,-0.42 0.35,0 0.78,0.08 1.12,0.08 0.42,0 0.85,0.01 1.27,0.01 0.48,0 0.92,-0.01 1.37,-0.01 0.46,0 0.97,-0.08 1.42,-0.08 0.17,0 0.6,0 0.6,0.7 0,0.39 -0.38,0.42 -0.47,0.42 -0.21,0 -1.17,0.05 -1.17,0.64 0,0.3 0.29,0.72 0.46,0.97 l 1.83,2.68 c 0.13,0.15 0.14,0.17 0.61,0.17 h 7.56 l -0.2,1.12 h -7.08 l 5.57,8.06 1.51,-8.06 0.2,-1.12 c 0.05,-0.3 0.07,-0.42 0.15,-0.72 0.07,-0.45 0.57,-2.94 0.57,-3.19 0,-0.55 -1.57,-0.55 -1.7,-0.55 -0.37,0 -0.77,0 -0.77,-0.7 0,-0.25 0.18,-0.42 0.46,-0.42 0.51,0 1.11,0.08 1.66,0.08 0.6,0 1.17,0.01 1.78,0.01 0.51,0 1.06,-0.01 1.59,-0.01 0.5,0 1.06,-0.08 1.56,-0.08 0.42,0 0.6,0.3 0.6,0.7 0,0.42 -0.4,0.42 -0.74,0.42 -1.66,0 -1.67,0.18 -1.78,0.72 z"
           inkscape:connector-curvature="0"
           style="fill:#000000;stroke-width:0" /><path
           id="path1688"
           d="m 548.24,414.61 v 0.03 0.03 0.04 0.03 0.03 0.03 0.03 0.02 0.03 l -0.01,0.02 v 0.03 0.02 0.03 l -0.01,0.02 v 0.02 0.02 l -0.01,0.02 v 0.02 l -0.01,0.03 -0.01,0.03 -0.02,0.03 -0.01,0.03 -0.02,0.02 -0.02,0.02 -0.02,0.02 -0.02,0.02 -0.03,0.01 -0.03,0.01 -0.03,0.02 h -0.04 l -0.04,0.01 -0.04,0.01 h -0.02 -0.02 l -0.03,0.01 h -0.02 -0.03 -0.02 -0.03 -0.03 -0.03 -0.03 -0.03 -0.03 -0.03 -0.04 -0.03 -0.04 l -0.04,0.01 h -0.03 c -1.77,-1.6 -4.54,-1.6 -5.04,-1.6 h -0.42 v -1.09 h 0.42 c 0.58,0 2.19,0.06 3.65,0.69 V 400.9 c 0,-0.76 0,-1.04 -2.65,-1.04 h -1.25 v -1.1 c 1.38,0.1 3.6,0.1 5.04,0.1 1.45,0 3.67,0 5.03,-0.1 v 1.1 h -1.24 c -2.64,0 -2.64,0.28 -2.64,1.04 z"
           inkscape:connector-curvature="0"
           style="fill:#000000;stroke-width:0" /><path
           id="path1690"
           d="m 564.05,408.26 -0.02,-0.07 -0.01,-0.06 -0.02,-0.06 -0.02,-0.06 -0.01,-0.06 -0.02,-0.05 -0.02,-0.05 -0.02,-0.05 -0.03,-0.05 -0.02,-0.04 -0.03,-0.04 -0.03,-0.03 -0.04,-0.04 -0.03,-0.03 -0.05,-0.03 -0.05,-0.03 -0.05,-0.02 -0.06,-0.03 -0.06,-0.02 -0.07,-0.02 -0.04,-0.01 h -0.04 l -0.04,-0.01 -0.04,-0.01 -0.04,-0.01 h -0.05 l -0.05,-0.01 h -0.05 l -0.05,-0.01 -0.05,-0.01 h -0.06 -0.06 l -0.06,-0.01 h -0.06 -0.07 l -0.06,-0.01 h -0.07 -0.07 -0.08 -0.08 -0.08 l -0.08,-0.01 h -0.08 -0.09 c -0.66,0 -1.04,0 -1.04,-0.7 0,-0.42 0.38,-0.42 0.82,-0.42 h 10.83 c 4.48,0 8.13,2.8 8.13,5.28 0,1.55 -1.46,3.22 -4.85,3.64 2.47,0.31 5.99,1.97 5.99,4.45 0,2.1 -2.47,3.64 -5.86,3.64 l -0.44,-1.12 c 2.47,0 3.64,-1.27 3.64,-2.59 0,-2.02 -2.7,-4.04 -6.19,-4.04 h -4.7 l -0.24,-0.84 h 6.08 c 2.55,0 3.82,-1.47 3.82,-3.05 0,-2.4 -2.96,-4.25 -6.05,-4.25 h -4.81 c -0.19,0 -0.55,0 -0.8,0.05 0.03,0.2 0.03,0.25 0.08,0.45 l 1.68,6.8 0.24,0.84 1.44,5.82 c 0.2,0.76 0.2,0.81 1.25,0.81 h 4.56 l 0.44,1.12 h -10.21 c -0.47,0 -0.87,0 -0.87,-0.7 0,-0.42 0.33,-0.42 0.92,-0.42 0.25,0 1.08,0 1.6,-0.14 0,-0.31 0,-0.36 -0.08,-0.63 z"
           inkscape:connector-curvature="0"
           style="fill:#000000;stroke-width:0" /><path
           id="path1692"
           d="m 598.35,403.57 h -1.05 c -0.07,-0.48 -0.32,-2.01 -0.71,-2.26 -0.21,-0.16 -2.3,-0.16 -2.68,-0.16 h -4.87 c 1.64,1.22 3.48,2.61 4.98,3.61 2.24,1.55 4.33,3 4.33,5.64 0,3.19 -3.01,4.96 -6.58,4.96 -3.36,0 -5.82,-1.96 -5.82,-4.4 0,-1.29 1.09,-1.51 1.45,-1.51 0.67,0 1.47,0.45 1.47,1.47 0,0.89 -0.66,1.39 -1.42,1.47 0.68,1.12 2.14,1.87 3.81,1.87 2.4,0 4.42,-1.45 4.42,-3.89 0,-2.09 -1.44,-3.69 -3.36,-5.31 l -6.08,-5.16 c -0.25,-0.22 -0.26,-0.22 -0.29,-0.39 v -0.75 h 11.57 z"
           inkscape:connector-curvature="0"
           style="fill:#000000;stroke-width:0" /></g>    </g>
    <path
       style="fill:none;stroke:#000000;stroke-width:0.8;stroke-linecap:butt;stroke-linejoin:miter;stroke-opacity:1;stroke-miterlimit:4;stroke-dasharray:none"
       d="m 105.58788,21.915472 0.45563,113.568188"
       id="path1716"
       inkscape:connector-curvature="0"
       inkscape:export-filename="/home/user/Downloads/chshexcl.png"
       inkscape:export-xdpi="96.279999"
       inkscape:export-ydpi="96.279999" />
    <path
       style="fill:none;stroke:#000000;stroke-width:0.8;stroke-linecap:butt;stroke-linejoin:miter;stroke-opacity:1;stroke-miterlimit:4;stroke-dasharray:none"
       d="M 145.80703,38.386059 65.824369,119.01308"
       id="path1718"
       inkscape:connector-curvature="0"
       inkscape:export-filename="/home/user/Downloads/chshexcl.png"
       inkscape:export-xdpi="96.279999"
       inkscape:export-ydpi="96.279999" />
    <path
       style="fill:none;stroke:#000000;stroke-width:0.8;stroke-linecap:butt;stroke-linejoin:miter;stroke-opacity:1;stroke-miterlimit:4;stroke-dasharray:none"
       d="M 146.12921,118.6909 65.502189,38.70824"
       id="path1720"
       inkscape:connector-curvature="0"
       inkscape:export-filename="/home/user/Downloads/chshexcl.png"
       inkscape:export-xdpi="96.279999"
       inkscape:export-ydpi="96.279999" />
    <path
       style="fill:none;stroke:#000000;stroke-width:0.8;stroke-linecap:butt;stroke-linejoin:miter;stroke-opacity:1;stroke-miterlimit:4;stroke-dasharray:none"
       d="M 162.59979,78.471751 49.031601,78.927385"
       id="path1722"
       inkscape:connector-curvature="0"
       inkscape:export-filename="/home/user/Downloads/chshexcl.png"
       inkscape:export-xdpi="96.279999"
       inkscape:export-ydpi="96.279999" />
  </g>
</svg>
