<?xml version="1.0" encoding="UTF-8" standalone="no"?>
<svg
   xmlns:dc="http://purl.org/dc/elements/1.1/"
   xmlns:cc="http://creativecommons.org/ns#"
   xmlns:rdf="http://www.w3.org/1999/02/22-rdf-syntax-ns#"
   xmlns:svg="http://www.w3.org/2000/svg"
   xmlns="http://www.w3.org/2000/svg"
   xmlns:sodipodi="http://sodipodi.sourceforge.net/DTD/sodipodi-0.dtd"
   xmlns:inkscape="http://www.inkscape.org/namespaces/inkscape"
   id="svg16321"
   version="1.1"
   viewBox="0 0 297 210"
   height="210mm"
   width="297mm"
   inkscape:version="1.0.1 (3bc2e813f5, 2020-09-07)"
   sodipodi:docname="chshmnts.svg"
   inkscape:export-filename="/home/user/Downloads/master_thesis/images/chshmnts.png"
   inkscape:export-xdpi="200"
   inkscape:export-ydpi="200">
  <defs
     id="defs16315" />
  <sodipodi:namedview
     id="base"
     pagecolor="#ffffff"
     bordercolor="#666666"
     borderopacity="1.0"
     inkscape:pageopacity="0.0"
     inkscape:pageshadow="2"
     inkscape:zoom="0.7"
     inkscape:cx="445.72144"
     inkscape:cy="251.62901"
     inkscape:document-units="mm"
     inkscape:current-layer="layer1"
     showgrid="false"
     inkscape:window-width="1280"
     inkscape:window-height="656"
     inkscape:window-x="0"
     inkscape:window-y="0"
     inkscape:window-maximized="1"
     inkscape:snap-global="false"
     units="mm"
     inkscape:document-rotation="0" />
  <metadata
     id="metadata16318">
    <rdf:RDF>
      <cc:Work
         rdf:about="">
        <dc:format>image/svg+xml</dc:format>
        <dc:type
           rdf:resource="http://purl.org/dc/dcmitype/StillImage" />
        <dc:title />
      </cc:Work>
    </rdf:RDF>
  </metadata>
  <g
     inkscape:label="Layer 1"
     inkscape:groupmode="layer"
     id="layer1"
     style="display:inline"
     transform="translate(0,-87)">
    <path
       style="fill:none;stroke:#000000;stroke-width:0.30000001;stroke-linecap:butt;stroke-linejoin:miter;stroke-miterlimit:4;stroke-dasharray:none;stroke-opacity:1"
       d="M 178.10145,150.85212 92.227202,230.57428"
       id="path16870-4"
       inkscape:connector-curvature="0"
       inkscape:export-filename="/home/user/Downloads/master_thesis/images/chshmnts.png"
       inkscape:export-xdpi="200"
       inkscape:export-ydpi="200" />
    <circle
       style="opacity:0.98000004;fill:none;fill-opacity:1;stroke:#181818;stroke-width:1.01699996;stroke-linejoin:round;stroke-miterlimit:4;stroke-dasharray:none;stroke-dashoffset:0;stroke-opacity:1"
       id="path16868"
       cx="135.05089"
       cy="190.67491"
       r="58.39732"
       inkscape:export-filename="/home/user/Downloads/master_thesis/images/chshmnts.png"
       inkscape:export-xdpi="200"
       inkscape:export-ydpi="200" />
    <path
       style="fill:none;stroke:#000000;stroke-width:0.26458332px;stroke-linecap:butt;stroke-linejoin:miter;stroke-opacity:1"
       d="m 135.0744,131.89882 -0.0469,117.17513"
       id="path16870"
       inkscape:connector-curvature="0"
       inkscape:export-filename="/home/user/Downloads/master_thesis/images/chshmnts.png"
       inkscape:export-xdpi="200"
       inkscape:export-ydpi="200" />
    <path
       style="fill:none;stroke:#000000;stroke-width:0.30000001;stroke-linecap:butt;stroke-linejoin:miter;stroke-miterlimit:4;stroke-dasharray:none;stroke-opacity:1"
       d="m 193.44949,190.69886 -117.1751,-0.0469"
       id="path16870-9"
       inkscape:connector-curvature="0"
       inkscape:export-filename="/home/user/Downloads/master_thesis/images/chshmnts.png"
       inkscape:export-xdpi="200"
       inkscape:export-ydpi="200" />
    <path
       style="fill:none;fill-opacity:1;stroke:#000000;stroke-width:0.30000001;stroke-linecap:butt;stroke-linejoin:miter;stroke-miterlimit:4;stroke-dasharray:none;stroke-opacity:1"
       d="m 92.113806,151.00331 85.874254,79.72217"
       id="path16870-4-7"
       inkscape:connector-curvature="0"
       inkscape:export-filename="/home/user/Downloads/master_thesis/images/chshmnts.png"
       inkscape:export-xdpi="200"
       inkscape:export-ydpi="200" />
    <g
       id="g18795"
       transform="translate(-47.700589,138.79292)"
       inkscape:export-filename="/home/user/Downloads/master_thesis/images/chshmnts.png"
       inkscape:export-xdpi="200"
       inkscape:export-ydpi="200">
      <g
         word-spacing="normal"
         letter-spacing="normal"
         font-size-adjust="none"
         font-stretch="normal"
         font-weight="normal"
         font-variant="normal"
         font-style="normal"
         stroke-miterlimit="10.433"
         xml:space="preserve"
         transform="matrix(0.3,0,0,-0.3,-52.5,222.75)"
         id="g18793"
         style="font-style:normal;font-variant:normal;font-weight:normal;font-stretch:normal;letter-spacing:normal;word-spacing:normal;text-anchor:start;fill:none;fill-opacity:1;fill-rule:evenodd;stroke:#000000;stroke-linecap:butt;stroke-linejoin:miter;stroke-miterlimit:10.43299961;stroke-dasharray:none;stroke-dashoffset:0;stroke-opacity:1"><path
           id="path18767"
           d="m 461.93,423.81 v 0.04 0.04 0.04 l -0.01,0.04 v 0.05 0.04 0.04 0.05 l -0.01,0.04 -0.01,0.05 v 0.04 l -0.01,0.05 -0.01,0.04 -0.01,0.05 -0.02,0.04 -0.01,0.04 -0.02,0.04 -0.02,0.04 -0.02,0.04 -0.03,0.03 -0.02,0.04 -0.03,0.03 -0.04,0.03 -0.01,0.01 -0.02,0.02 -0.02,0.01 -0.02,0.01 -0.02,0.01 -0.02,0.01 -0.02,0.01 -0.03,0.01 -0.02,0.01 -0.02,0.01 h -0.03 l -0.03,0.01 -0.02,0.01 h -0.03 -0.03 l -0.03,0.01 h -0.03 -0.04 c -0.7,0 -0.7,-0.68 -0.7,-1.08 v -22.77 c 0,-0.4 0,-1.08 0.7,-1.08 0.71,0 0.71,0.68 0.71,1.08 z"
           inkscape:connector-curvature="0"
           style="fill:#000000;stroke-width:0" /><path
           id="path18769"
           d="m 477.8,429.52 0.12,-0.03 0.12,-0.03 0.12,-0.02 0.12,-0.02 0.12,-0.02 0.12,-0.03 0.11,-0.01 0.11,-0.02 0.11,-0.02 0.11,-0.01 0.11,-0.01 0.1,-0.02 0.1,-0.01 0.1,-0.01 0.09,-0.01 h 0.09 l 0.09,-0.01 0.09,-0.01 h 0.08 l 0.08,-0.01 h 0.07 0.07 l 0.07,-0.01 h 0.07 0.05 0.06 0.05 0.05 0.04 0.04 0.03 0.03 c 1.7,0 2.93,0.5 3.59,0.84 0.59,0.3 2.3,1.38 2.3,1.92 0,0.38 -0.29,0.42 -0.36,0.42 -0.05,0 -0.1,0 -0.38,-0.12 -0.94,-0.33 -2.48,-0.67 -4.12,-0.67 -1.43,0 -2.8,0.25 -4.11,0.69 -0.28,0.1 -0.33,0.1 -0.38,0.1 -0.36,0 -0.36,-0.29 -0.36,-0.7 v -7.47 c 0,-0.42 0,-0.75 0.49,-0.75 0.26,0 0.29,0.05 0.51,0.33 0.96,1.09 2.27,1.64 3.97,1.64 1.44,0 2.24,-0.84 2.58,-1.37 0.58,-0.85 0.7,-1.97 0.7,-3.16 0,-1.05 -0.09,-2.44 -1.07,-3.42 -1.11,-1.14 -2.54,-1.22 -3.08,-1.22 -1.63,0 -3.44,0.7 -4.22,2.17 1.04,0.08 1.4,0.83 1.4,1.39 0,0.8 -0.6,1.41 -1.4,1.41 -0.55,0 -1.39,-0.33 -1.39,-1.49 0,-2.43 2.39,-4.5 5.65,-4.5 3.72,0 6.75,2.49 6.75,5.58 0,2.81 -2.42,5.44 -5.87,5.44 -1.58,0 -2.84,-0.41 -3.92,-1.23 z"
           inkscape:connector-curvature="0"
           style="fill:#000000;stroke-width:0" /><path
           id="path18771"
           d="m 507.4,424.64 h 0.04 l 0.04,0.01 h 0.04 0.04 0.04 0.04 0.03 0.04 0.03 0.04 l 0.06,0.01 0.06,0.01 0.07,0.01 H 508 l 0.03,0.01 0.03,0.01 0.03,0.01 0.03,0.01 0.02,0.01 0.03,0.01 0.03,0.01 0.03,0.01 0.03,0.02 0.03,0.02 0.03,0.01 0.03,0.02 0.04,0.02 0.03,0.02 0.03,0.02 c 0.14,0.15 0.39,0.5 0.39,0.85 0,0.8 -0.73,0.8 -1.16,0.8 H 497 c -0.57,0 -1.68,0 -3.14,-1.25 -0.68,-0.6 -1.8,-1.86 -1.8,-2.16 0,-0.36 0.34,-0.36 0.5,-0.36 0.34,0 0.34,0.03 0.55,0.25 0.84,1.08 2.04,1.62 3.56,1.62 h 1.76 c -0.89,-3.1 -2.17,-5.7 -3.03,-7.28 -0.37,-0.64 -0.37,-0.68 -0.37,-0.93 0,-0.58 0.43,-0.91 0.93,-0.91 1.05,0 1.4,1.16 1.97,3.17 0.58,1.94 1.03,3.74 1.6,5.95 h 3.26 c -0.09,-0.37 -0.79,-3.09 -0.79,-5.06 0,-1.72 0.62,-4.06 1.71,-4.06 0.6,0 1.3,0.58 1.3,1.23 0,0.27 -0.09,0.39 -0.28,0.69 -1.14,1.88 -1.14,4.06 -1.14,4.52 0,0.84 0.12,1.84 0.28,2.68 z"
           inkscape:connector-curvature="0"
           style="fill:#000000;stroke-width:0" /><polyline
           id="polyline18773"
           points="473,412 511.64,412 511.64,413.32 473,413.32 "
           style="fill:#000000;fill-rule:nonzero;stroke-width:0" /><path
           id="path18775"
           d="m 499.09,396.94 v 1.1 h -3.12 V 409 c 0,0.6 -0.02,0.74 -0.67,0.74 -0.5,0 -0.52,-0.02 -0.8,-0.38 l -9.22,-11.32 v -1.1 h 8.3 l 0.2,1.1 h -7.33 l 7.33,9.01 v -9.01 l -0.2,-1.1 V 395 c 0,-0.78 0,-1.03 -2.16,-1.03 h -0.87 v -1.09 c 1.17,0.05 2.78,0.09 4.23,0.09 1.44,0 3.03,-0.04 4.24,-0.09 v 1.09 h -0.88 c -2.17,0 -2.17,0.25 -2.17,1.03 v 1.94 z"
           inkscape:connector-curvature="0"
           style="fill:#000000;stroke-width:0" /><path
           id="path18777"
           d="m 527.3,411.87 0.02,0.03 0.01,0.04 0.02,0.03 0.01,0.03 0.01,0.02 0.01,0.03 0.01,0.03 0.01,0.02 0.01,0.03 0.01,0.02 v 0.02 l 0.01,0.02 0.01,0.02 v 0.02 l 0.01,0.02 v 0.01 l 0.01,0.02 v 0.01 0.02 0.01 l 0.01,0.02 v 0.01 0.01 0.01 0.01 0.01 0.01 0.01 0 0.01 0.01 0 c 0,0.18 -0.06,0.3 -0.14,0.47 L 522,424.21 c -0.17,0.4 -0.32,0.68 -0.75,0.68 -0.37,0 -0.7,-0.33 -0.7,-0.71 0,-0.17 0.08,-0.29 0.16,-0.47 l 5.29,-11.28 -5.28,-11.22 c -0.17,-0.34 -0.17,-0.5 -0.17,-0.54 0,-0.38 0.33,-0.71 0.7,-0.71 0.4,0 0.6,0.32 0.75,0.63 z"
           inkscape:connector-curvature="0"
           style="fill:#000000;stroke-width:0" /><path
           id="path18779"
           d="m 565.32,417.64 h 0.03 0.04 0.04 0.04 0.04 0.04 0.05 l 0.04,0.01 h 0.04 l 0.05,0.01 h 0.04 l 0.05,0.01 0.04,0.01 0.04,0.01 0.05,0.02 0.04,0.01 0.04,0.02 0.04,0.02 0.04,0.02 0.03,0.02 0.04,0.03 0.03,0.03 0.03,0.03 0.01,0.02 0.02,0.02 0.01,0.02 0.01,0.01 0.01,0.02 0.01,0.03 0.01,0.02 0.01,0.02 0.01,0.02 0.01,0.03 0.01,0.02 v 0.03 l 0.01,0.03 v 0.02 0.03 l 0.01,0.03 v 0.03 0.03 c 0,0.71 -0.67,0.71 -1.06,0.71 h -18.61 c -0.41,0 -1.08,0 -1.08,-0.71 0,-0.68 0.7,-0.68 1.08,-0.68 z"
           inkscape:connector-curvature="0"
           style="fill:#000000;stroke-width:0" /><path
           id="path18781"
           d="m 565.32,405.82 h 0.03 0.04 0.04 l 0.04,0.01 h 0.05 0.04 0.04 0.05 l 0.04,0.01 0.05,0.01 h 0.04 l 0.04,0.01 0.05,0.01 0.04,0.01 0.04,0.02 0.04,0.01 0.04,0.02 0.04,0.02 0.04,0.02 0.04,0.03 0.03,0.02 0.03,0.03 0.03,0.04 0.01,0.01 0.02,0.02 0.01,0.02 0.01,0.02 0.01,0.02 0.01,0.02 0.01,0.02 0.01,0.03 0.01,0.02 0.01,0.02 0.01,0.03 v 0.03 l 0.01,0.02 v 0.03 0.03 l 0.01,0.03 v 0.03 0.04 c 0,0.68 -0.69,0.68 -1.06,0.68 h -18.61 c -0.38,0 -1.08,0 -1.08,-0.68 0,-0.71 0.67,-0.71 1.08,-0.71 z"
           inkscape:connector-curvature="0"
           style="fill:#000000;stroke-width:0" /><path
           id="path18783"
           d="m 565.32,411.73 h 0.03 0.04 0.04 0.04 0.05 0.04 l 0.04,0.01 h 0.05 l 0.04,0.01 h 0.05 l 0.04,0.01 0.04,0.01 0.05,0.01 0.04,0.01 0.04,0.01 0.04,0.02 0.04,0.02 0.04,0.02 0.04,0.02 0.04,0.02 0.03,0.03 0.03,0.03 0.03,0.03 0.01,0.02 0.02,0.02 0.01,0.02 0.01,0.02 0.01,0.02 0.01,0.02 0.01,0.02 0.01,0.02 0.01,0.03 0.01,0.02 0.01,0.03 v 0.02 l 0.01,0.03 v 0.03 0.03 l 0.01,0.03 v 0.03 0.03 c 0,0.69 -0.67,0.69 -1.06,0.69 h -18.61 c -0.41,0 -1.08,0 -1.08,-0.69 0,-0.7 0.67,-0.7 1.08,-0.7 z"
           inkscape:connector-curvature="0"
           style="fill:#000000;stroke-width:0" /><path
           id="path18785"
           d="m 585.89,408.26 -0.02,-0.07 -0.02,-0.06 -0.01,-0.06 -0.02,-0.06 -0.02,-0.06 -0.02,-0.05 -0.01,-0.05 -0.03,-0.05 -0.02,-0.05 -0.02,-0.04 -0.03,-0.04 -0.03,-0.03 -0.04,-0.04 -0.04,-0.03 -0.04,-0.03 -0.05,-0.03 -0.05,-0.02 -0.06,-0.03 -0.06,-0.02 -0.07,-0.02 -0.04,-0.01 h -0.04 l -0.04,-0.01 -0.04,-0.01 -0.05,-0.01 h -0.04 l -0.05,-0.01 h -0.05 l -0.05,-0.01 -0.06,-0.01 h -0.05 -0.06 l -0.06,-0.01 h -0.07 -0.06 l -0.07,-0.01 h -0.07 -0.07 -0.07 -0.08 -0.08 l -0.08,-0.01 h -0.09 -0.08 c -0.66,0 -1.05,0 -1.05,-0.7 0,-0.42 0.39,-0.42 0.83,-0.42 h 10.83 c 4.48,0 8.12,2.8 8.12,5.28 0,1.55 -1.45,3.22 -4.84,3.64 2.47,0.31 5.98,1.97 5.98,4.45 0,2.1 -2.47,3.64 -5.86,3.64 l -0.44,-1.12 c 2.47,0 3.65,-1.27 3.65,-2.59 0,-2.02 -2.71,-4.04 -6.19,-4.04 h -4.71 l -0.23,-0.84 h 6.08 c 2.55,0 3.81,-1.47 3.81,-3.05 0,-2.4 -2.95,-4.25 -6.04,-4.25 h -4.82 c -0.18,0 -0.55,0 -0.8,0.05 0.04,0.2 0.04,0.25 0.08,0.45 l 1.69,6.8 0.23,0.84 1.44,5.82 c 0.21,0.76 0.21,0.81 1.25,0.81 h 4.56 l 0.44,1.12 h -10.2 c -0.47,0 -0.87,0 -0.87,-0.7 0,-0.42 0.32,-0.42 0.92,-0.42 0.25,0 1.08,0 1.59,-0.14 0,-0.31 0,-0.36 -0.08,-0.63 z"
           inkscape:connector-curvature="0"
           style="fill:#000000;stroke-width:0" /><polygon
           id="polygon18787"
           points="607.77,422.61 607.77,420.69 616.03,420.69 616.03,422.61 "
           style="fill:#000000;stroke-width:0" /><path
           id="path18789"
           d="m 628.4,432.12 v 0.04 0.03 0.04 0.03 0.03 0.03 l -0.01,0.03 v 0.02 0.03 0.02 0.03 0.02 l -0.01,0.03 v 0.02 0.02 l -0.01,0.02 v 0.02 l -0.01,0.02 -0.01,0.03 -0.01,0.03 -0.01,0.03 -0.02,0.03 -0.01,0.02 -0.02,0.02 -0.02,0.02 -0.03,0.02 -0.03,0.01 -0.03,0.01 -0.03,0.02 h -0.03 l -0.04,0.01 -0.04,0.01 h -0.02 -0.03 l -0.02,0.01 h -0.03 -0.02 -0.03 -0.02 -0.03 -0.03 -0.03 -0.03 -0.03 -0.04 -0.03 -0.04 -0.03 -0.04 l -0.04,0.01 c -1.76,-1.6 -4.53,-1.6 -5.03,-1.6 h -0.42 v -1.09 h 0.42 c 0.58,0 2.19,0.06 3.64,0.69 v -12.46 c 0,-0.76 0,-1.04 -2.64,-1.04 h -1.25 v -1.1 c 1.38,0.1 3.59,0.1 5.03,0.1 1.46,0 3.67,0 5.03,-0.1 v 1.1 h -1.23 c -2.64,0 -2.64,0.28 -2.64,1.04 z"
           inkscape:connector-curvature="0"
           style="fill:#000000;stroke-width:0" /><path
           id="path18791"
           d="m 615.44,411.12 v 0.04 0.03 0.04 0.03 0.03 0.03 0.03 0.02 l -0.01,0.03 v 0.02 0.03 0.02 0.03 l -0.01,0.02 v 0.02 0.02 l -0.01,0.02 v 0.02 l -0.01,0.03 -0.01,0.03 -0.02,0.03 -0.01,0.03 -0.02,0.02 -0.02,0.02 -0.02,0.02 -0.03,0.02 -0.02,0.01 -0.03,0.01 -0.03,0.02 h -0.04 l -0.04,0.01 -0.04,0.01 h -0.02 -0.02 l -0.03,0.01 h -0.02 -0.03 -0.02 -0.03 -0.03 -0.03 -0.03 -0.03 -0.03 -0.03 -0.04 -0.03 -0.04 -0.04 l -0.04,0.01 c -1.76,-1.6 -4.53,-1.6 -5.03,-1.6 h -0.42 v -1.09 h 0.42 c 0.58,0 2.19,0.06 3.65,0.69 v -12.46 c 0,-0.76 0,-1.04 -2.65,-1.04 h -1.25 v -1.1 c 1.38,0.1 3.6,0.1 5.03,0.1 1.46,0 3.68,0 5.04,-0.1 v 1.1 h -1.24 c -2.64,0 -2.64,0.28 -2.64,1.04 z"
           inkscape:connector-curvature="0"
           style="fill:#000000;stroke-width:0" /></g>
    </g>
    <g
       id="g18930"
       transform="translate(94.040483,43.542864)"
       inkscape:export-filename="/home/user/Downloads/master_thesis/images/chshmnts.png"
       inkscape:export-xdpi="200"
       inkscape:export-ydpi="200">
      <g
         word-spacing="normal"
         letter-spacing="normal"
         font-size-adjust="none"
         font-stretch="normal"
         font-weight="normal"
         font-variant="normal"
         font-style="normal"
         stroke-miterlimit="10.433"
         xml:space="preserve"
         transform="matrix(0.3,0,0,-0.3,-52.5,222.75)"
         id="g18928"
         style="font-style:normal;font-variant:normal;font-weight:normal;font-stretch:normal;letter-spacing:normal;word-spacing:normal;text-anchor:start;fill:none;fill-opacity:1;fill-rule:evenodd;stroke:#000000;stroke-linecap:butt;stroke-linejoin:miter;stroke-miterlimit:10.43299961;stroke-dasharray:none;stroke-dashoffset:0;stroke-opacity:1"><path
           id="path18906"
           d="m 461.93,423.81 v 0.04 0.04 0.04 l -0.01,0.04 v 0.05 0.04 0.04 0.05 l -0.01,0.04 -0.01,0.05 v 0.04 l -0.01,0.05 -0.01,0.04 -0.01,0.05 -0.02,0.04 -0.01,0.04 -0.02,0.04 -0.02,0.04 -0.02,0.04 -0.03,0.03 -0.02,0.04 -0.03,0.03 -0.04,0.03 -0.01,0.01 -0.02,0.02 -0.02,0.01 -0.02,0.01 -0.02,0.01 -0.02,0.01 -0.02,0.01 -0.03,0.01 -0.02,0.01 -0.02,0.01 h -0.03 l -0.03,0.01 -0.02,0.01 h -0.03 -0.03 l -0.03,0.01 h -0.03 -0.04 c -0.7,0 -0.7,-0.68 -0.7,-1.08 v -22.77 c 0,-0.4 0,-1.08 0.7,-1.08 0.71,0 0.71,0.68 0.71,1.08 z"
           inkscape:connector-curvature="0"
           style="fill:#000000;stroke-width:0" /><path
           id="path18908"
           d="m 490.48,424.64 h 0.05 l 0.04,0.01 h 0.04 0.04 0.03 0.04 0.04 0.03 0.04 0.03 l 0.06,0.01 0.07,0.01 0.06,0.01 h 0.03 l 0.03,0.01 0.03,0.01 0.03,0.01 0.03,0.01 0.03,0.01 0.03,0.01 0.03,0.01 0.03,0.01 0.03,0.02 0.03,0.02 0.03,0.01 0.03,0.02 0.03,0.02 0.03,0.02 0.03,0.02 c 0.14,0.15 0.39,0.5 0.39,0.85 0,0.8 -0.73,0.8 -1.15,0.8 h -10.69 c -0.56,0 -1.67,0 -3.14,-1.25 -0.67,-0.6 -1.8,-1.86 -1.8,-2.16 0,-0.36 0.34,-0.36 0.5,-0.36 0.34,0 0.34,0.03 0.55,0.25 0.84,1.08 2.04,1.62 3.56,1.62 h 1.77 c -0.9,-3.1 -2.18,-5.7 -3.04,-7.28 -0.37,-0.64 -0.37,-0.68 -0.37,-0.93 0,-0.58 0.44,-0.91 0.94,-0.91 1.04,0 1.39,1.16 1.97,3.17 0.57,1.94 1.03,3.74 1.59,5.95 h 3.27 c -0.1,-0.37 -0.8,-3.09 -0.8,-5.06 0,-1.72 0.62,-4.06 1.72,-4.06 0.59,0 1.29,0.58 1.29,1.23 0,0.27 -0.09,0.39 -0.28,0.69 -1.14,1.88 -1.14,4.06 -1.14,4.52 0,0.84 0.13,1.84 0.28,2.68 z"
           inkscape:connector-curvature="0"
           style="fill:#000000;stroke-width:0" /><polyline
           id="polyline18910"
           points="473,412 494.6,412 494.6,413.32 473,413.32 "
           style="fill:#000000;fill-rule:nonzero;stroke-width:0" /><path
           id="path18912"
           d="m 490.57,396.94 v 1.1 h -3.12 V 409 c 0,0.6 -0.02,0.74 -0.67,0.74 -0.5,0 -0.52,-0.02 -0.8,-0.38 l -9.22,-11.32 v -1.1 h 8.3 l 0.2,1.1 h -7.33 l 7.33,9.01 v -9.01 l -0.2,-1.1 V 395 c 0,-0.78 0,-1.03 -2.16,-1.03 h -0.87 v -1.09 c 1.17,0.05 2.78,0.09 4.23,0.09 1.44,0 3.03,-0.04 4.24,-0.09 v 1.09 h -0.88 c -2.17,0 -2.17,0.25 -2.17,1.03 v 1.94 z"
           inkscape:connector-curvature="0"
           style="fill:#000000;stroke-width:0" /><path
           id="path18914"
           d="m 510.38,411.87 0.01,0.03 0.02,0.04 0.01,0.03 0.02,0.03 0.01,0.02 0.01,0.03 0.01,0.03 0.01,0.02 0.01,0.03 0.01,0.02 v 0.02 l 0.01,0.02 v 0.02 l 0.01,0.02 0.01,0.02 v 0.01 0.02 l 0.01,0.01 v 0.02 0.01 0.02 l 0.01,0.01 v 0.01 0.01 0.01 0.01 0.01 0.01 0 0.01 0.01 0 c 0,0.18 -0.06,0.3 -0.14,0.47 l -5.33,11.31 c -0.17,0.4 -0.33,0.68 -0.75,0.68 -0.37,0 -0.7,-0.33 -0.7,-0.71 0,-0.17 0.08,-0.29 0.16,-0.47 l 5.29,-11.28 -5.28,-11.22 c -0.17,-0.34 -0.17,-0.5 -0.17,-0.54 0,-0.38 0.33,-0.71 0.7,-0.71 0.39,0 0.6,0.32 0.75,0.63 z"
           inkscape:connector-curvature="0"
           style="fill:#000000;stroke-width:0" /><path
           id="path18916"
           d="m 548.4,417.64 h 0.03 0.04 0.04 0.04 0.04 0.04 0.05 l 0.04,0.01 h 0.04 l 0.05,0.01 h 0.04 l 0.05,0.01 0.04,0.01 0.04,0.01 0.05,0.02 0.04,0.01 0.04,0.02 0.04,0.02 0.03,0.02 0.04,0.02 0.03,0.03 0.04,0.03 0.03,0.03 0.01,0.02 0.01,0.02 0.02,0.02 0.01,0.01 0.01,0.02 0.01,0.03 0.01,0.02 0.01,0.02 0.01,0.02 0.01,0.03 v 0.02 l 0.01,0.03 v 0.03 l 0.01,0.02 v 0.03 0.03 l 0.01,0.03 v 0.03 c 0,0.71 -0.68,0.71 -1.06,0.71 h -18.62 c -0.4,0 -1.07,0 -1.07,-0.71 0,-0.68 0.7,-0.68 1.07,-0.68 z"
           inkscape:connector-curvature="0"
           style="fill:#000000;stroke-width:0" /><path
           id="path18918"
           d="m 548.4,405.82 h 0.03 0.04 0.04 l 0.04,0.01 h 0.04 0.05 0.04 0.05 l 0.04,0.01 0.04,0.01 h 0.05 l 0.04,0.01 0.05,0.01 0.04,0.01 0.04,0.02 0.04,0.01 0.04,0.02 0.04,0.02 0.04,0.02 0.03,0.03 0.04,0.02 0.03,0.03 0.03,0.04 0.01,0.01 0.02,0.02 0.01,0.02 0.01,0.02 0.01,0.02 0.01,0.02 0.01,0.02 0.01,0.03 0.01,0.02 0.01,0.02 v 0.03 l 0.01,0.03 0.01,0.02 v 0.03 0.03 l 0.01,0.03 v 0.03 0.04 c 0,0.68 -0.69,0.68 -1.06,0.68 h -18.62 c -0.37,0 -1.07,0 -1.07,-0.68 0,-0.71 0.67,-0.71 1.07,-0.71 z"
           inkscape:connector-curvature="0"
           style="fill:#000000;stroke-width:0" /><path
           id="path18920"
           d="m 548.4,411.73 h 0.03 0.04 0.04 0.04 0.04 0.05 l 0.04,0.01 h 0.05 l 0.04,0.01 h 0.04 l 0.05,0.01 0.04,0.01 0.05,0.01 0.04,0.01 0.04,0.01 0.04,0.02 0.04,0.02 0.04,0.02 0.04,0.02 0.03,0.02 0.04,0.03 0.03,0.03 0.03,0.03 0.01,0.02 0.02,0.02 0.01,0.02 0.01,0.02 0.01,0.02 0.01,0.02 0.01,0.02 0.01,0.02 0.01,0.03 0.01,0.02 v 0.03 l 0.01,0.02 0.01,0.03 v 0.03 0.03 l 0.01,0.03 v 0.03 0.03 c 0,0.69 -0.68,0.69 -1.06,0.69 h -18.62 c -0.4,0 -1.07,0 -1.07,-0.69 0,-0.7 0.67,-0.7 1.07,-0.7 z"
           inkscape:connector-curvature="0"
           style="fill:#000000;stroke-width:0" /><path
           id="path18922"
           d="m 568.97,408.26 -0.02,-0.07 -0.01,-0.06 -0.02,-0.06 -0.02,-0.06 -0.02,-0.06 -0.01,-0.05 -0.02,-0.05 -0.02,-0.05 -0.03,-0.05 -0.02,-0.04 -0.03,-0.04 -0.03,-0.03 -0.04,-0.04 -0.04,-0.03 -0.04,-0.03 -0.05,-0.03 -0.05,-0.02 -0.06,-0.03 -0.06,-0.02 -0.07,-0.02 -0.04,-0.01 h -0.04 l -0.04,-0.01 -0.04,-0.01 -0.05,-0.01 h -0.04 l -0.05,-0.01 h -0.05 l -0.05,-0.01 -0.06,-0.01 h -0.05 -0.06 l -0.06,-0.01 h -0.06 -0.07 l -0.07,-0.01 h -0.06 -0.08 -0.07 -0.08 -0.08 l -0.08,-0.01 h -0.08 -0.09 c -0.66,0 -1.05,0 -1.05,-0.7 0,-0.42 0.39,-0.42 0.83,-0.42 h 10.83 c 4.48,0 8.12,2.8 8.12,5.28 0,1.55 -1.45,3.22 -4.84,3.64 2.47,0.31 5.98,1.97 5.98,4.45 0,2.1 -2.46,3.64 -5.85,3.64 l -0.44,-1.12 c 2.47,0 3.64,-1.27 3.64,-2.59 0,-2.02 -2.7,-4.04 -6.19,-4.04 h -4.7 l -0.24,-0.84 h 6.08 c 2.55,0 3.81,-1.47 3.81,-3.05 0,-2.4 -2.95,-4.25 -6.04,-4.25 h -4.82 c -0.18,0 -0.54,0 -0.79,0.05 0.03,0.2 0.03,0.25 0.08,0.45 l 1.68,6.8 0.24,0.84 1.43,5.82 c 0.21,0.76 0.21,0.81 1.26,0.81 h 4.56 l 0.44,1.12 h -10.21 c -0.47,0 -0.87,0 -0.87,-0.7 0,-0.42 0.32,-0.42 0.92,-0.42 0.25,0 1.08,0 1.59,-0.14 0,-0.31 0,-0.36 -0.08,-0.63 z"
           inkscape:connector-curvature="0"
           style="fill:#000000;stroke-width:0" /><path
           id="path18924"
           d="m 599.72,432.12 v 0.04 0.03 0.04 0.03 0.03 0.03 0.03 0.02 0.03 l -0.01,0.02 v 0.03 0.02 0.03 l -0.01,0.02 v 0.02 0.02 l -0.01,0.02 v 0.02 l -0.01,0.03 -0.01,0.03 -0.02,0.03 -0.01,0.03 -0.02,0.02 -0.02,0.02 -0.02,0.02 -0.02,0.02 -0.03,0.01 -0.03,0.01 -0.03,0.02 h -0.04 l -0.04,0.01 -0.04,0.01 h -0.02 -0.02 l -0.03,0.01 h -0.02 -0.03 -0.02 -0.03 -0.03 -0.03 -0.03 -0.03 -0.03 -0.03 -0.04 -0.03 -0.04 -0.04 l -0.03,0.01 c -1.77,-1.6 -4.54,-1.6 -5.04,-1.6 h -0.42 v -1.09 h 0.42 c 0.58,0 2.19,0.06 3.65,0.69 v -12.46 c 0,-0.76 0,-1.04 -2.65,-1.04 h -1.25 v -1.1 c 1.38,0.1 3.6,0.1 5.04,0.1 1.45,0 3.67,0 5.03,-0.1 v 1.1 h -1.24 c -2.64,0 -2.64,0.28 -2.64,1.04 z"
           inkscape:connector-curvature="0"
           style="fill:#000000;stroke-width:0" /><path
           id="path18926"
           d="m 598.52,411.12 v 0.04 0.03 0.04 0.03 0.03 0.03 0.03 0.02 0.03 l -0.01,0.02 v 0.03 0.02 0.03 l -0.01,0.02 v 0.02 0.02 l -0.01,0.02 v 0.02 l -0.01,0.03 -0.01,0.03 -0.02,0.03 -0.01,0.03 -0.02,0.02 -0.02,0.02 -0.02,0.02 -0.02,0.02 -0.03,0.01 -0.03,0.01 -0.03,0.02 h -0.04 l -0.04,0.01 -0.04,0.01 h -0.02 -0.02 l -0.03,0.01 h -0.02 -0.03 -0.02 -0.03 -0.03 -0.03 -0.03 -0.03 -0.03 -0.03 -0.04 -0.03 -0.04 -0.03 l -0.04,0.01 c -1.77,-1.6 -4.53,-1.6 -5.03,-1.6 h -0.43 v -1.09 h 0.43 c 0.57,0 2.18,0.06 3.64,0.69 v -12.46 c 0,-0.76 0,-1.04 -2.64,-1.04 h -1.25 v -1.1 c 1.37,0.1 3.59,0.1 5.03,0.1 1.45,0 3.67,0 5.03,-0.1 v 1.1 h -1.24 c -2.64,0 -2.64,0.28 -2.64,1.04 z"
           inkscape:connector-curvature="0"
           style="fill:#000000;stroke-width:0" /></g>
    </g>
    <g
       id="g19044"
       transform="translate(30.61491,25.022029)"
       inkscape:export-filename="/home/user/Downloads/master_thesis/images/chshmnts.png"
       inkscape:export-xdpi="200"
       inkscape:export-ydpi="200">
      <g
         word-spacing="normal"
         letter-spacing="normal"
         font-size-adjust="none"
         font-stretch="normal"
         font-weight="normal"
         font-variant="normal"
         font-style="normal"
         stroke-miterlimit="10.433"
         xml:space="preserve"
         transform="matrix(0.3,0,0,-0.3,-52.5,222.75)"
         id="g19042"
         style="font-style:normal;font-variant:normal;font-weight:normal;font-stretch:normal;letter-spacing:normal;word-spacing:normal;text-anchor:start;fill:none;fill-opacity:1;fill-rule:evenodd;stroke:#000000;stroke-linecap:butt;stroke-linejoin:miter;stroke-miterlimit:10.43299961;stroke-dasharray:none;stroke-dashoffset:0;stroke-opacity:1"><path
           id="path19024"
           d="m 461.93,423.81 v 0.04 0.04 0.04 l -0.01,0.04 v 0.05 0.04 0.04 0.05 l -0.01,0.04 -0.01,0.05 v 0.04 l -0.01,0.05 -0.01,0.04 -0.01,0.05 -0.02,0.04 -0.01,0.04 -0.02,0.04 -0.02,0.04 -0.02,0.04 -0.03,0.03 -0.02,0.04 -0.03,0.03 -0.04,0.03 -0.01,0.01 -0.02,0.02 -0.02,0.01 -0.02,0.01 -0.02,0.01 -0.02,0.01 -0.02,0.01 -0.03,0.01 -0.02,0.01 -0.02,0.01 h -0.03 l -0.03,0.01 -0.02,0.01 h -0.03 -0.03 l -0.03,0.01 h -0.03 -0.04 c -0.7,0 -0.7,-0.68 -0.7,-1.08 v -22.77 c 0,-0.4 0,-1.08 0.7,-1.08 0.71,0 0.71,0.68 0.71,1.08 z"
           inkscape:connector-curvature="0"
           style="fill:#000000;stroke-width:0" /><path
           id="path19026"
           d="m 481.89,414.17 v 0.18 0.21 l -0.01,0.24 -0.01,0.25 -0.01,0.28 -0.02,0.3 -0.02,0.32 -0.03,0.32 -0.05,0.34 -0.05,0.35 -0.07,0.36 -0.08,0.37 -0.09,0.36 -0.11,0.37 -0.12,0.37 -0.15,0.36 -0.16,0.36 -0.18,0.36 -0.2,0.34 -0.23,0.33 -0.25,0.31 -0.28,0.3 -0.14,0.15 -0.16,0.14 -0.16,0.13 -0.17,0.13 -0.17,0.12 -0.18,0.12 -0.19,0.11 -0.2,0.1 -0.2,0.1 -0.22,0.09 -0.22,0.08 -0.23,0.08 -0.23,0.06 -0.25,0.06 -0.26,0.05 -0.26,0.05 -0.27,0.03 -0.28,0.02 -0.29,0.02 h -0.3 v -0.83 c 1.84,0 3.17,-0.93 3.65,-2.68 0.36,-1.27 0.36,-3.35 0.36,-4.82 0,-1.68 0,-3.7 -0.37,-5.2 -0.66,-2.42 -2.64,-2.78 -3.64,-2.78 v 0 c -0.93,0 -3.02,0.31 -3.64,2.83 -0.35,1.34 -0.38,3.12 -0.38,5.15 0,1.85 0,3.57 0.41,4.99 0.62,2.09 2.54,2.51 3.61,2.51 v 0.83 c -6.5,0 -6.5,-6.83 -6.5,-8.62 0,-1.81 0,-8.52 6.5,-8.52 6.5,0 6.5,6.71 6.5,8.52 z"
           inkscape:connector-curvature="0"
           style="fill:#000000;stroke-width:0" /><path
           id="path19028"
           d="m 493.7,411.87 0.01,0.03 0.02,0.04 0.01,0.03 0.01,0.03 0.01,0.02 0.01,0.03 0.01,0.03 0.01,0.02 0.01,0.03 0.01,0.02 0.01,0.02 0.01,0.02 v 0.02 l 0.01,0.02 v 0.02 l 0.01,0.01 v 0.02 0.01 l 0.01,0.02 v 0.01 0.02 0.01 0.01 0.01 l 0.01,0.01 v 0.01 0.01 0.01 0 0.01 0.01 0 c 0,0.18 -0.07,0.3 -0.14,0.47 l -5.33,11.31 c -0.17,0.4 -0.33,0.68 -0.75,0.68 -0.38,0 -0.7,-0.33 -0.7,-0.71 0,-0.17 0.07,-0.29 0.15,-0.47 l 5.3,-11.28 -5.28,-11.22 c -0.17,-0.34 -0.17,-0.5 -0.17,-0.54 0,-0.38 0.32,-0.71 0.7,-0.71 0.39,0 0.59,0.32 0.75,0.63 z"
           inkscape:connector-curvature="0"
           style="fill:#000000;stroke-width:0" /><path
           id="path19030"
           d="m 531.83,417.64 h 0.04 0.04 0.03 0.05 0.04 0.04 0.04 l 0.05,0.01 h 0.04 l 0.04,0.01 h 0.05 l 0.04,0.01 0.05,0.01 0.04,0.01 0.04,0.02 0.04,0.01 0.04,0.02 0.04,0.02 0.04,0.02 0.04,0.02 0.03,0.03 0.03,0.03 0.03,0.03 0.02,0.02 0.01,0.02 0.01,0.02 0.02,0.01 0.01,0.02 0.01,0.03 0.01,0.02 0.01,0.02 0.01,0.02 v 0.03 l 0.01,0.02 0.01,0.03 v 0.03 l 0.01,0.02 v 0.03 0.03 0.03 l 0.01,0.03 c 0,0.71 -0.68,0.71 -1.07,0.71 h -18.61 c -0.4,0 -1.07,0 -1.07,-0.71 0,-0.68 0.7,-0.68 1.07,-0.68 z"
           inkscape:connector-curvature="0"
           style="fill:#000000;stroke-width:0" /><path
           id="path19032"
           d="m 531.83,405.82 h 0.04 0.04 0.04 l 0.04,0.01 h 0.04 0.05 0.04 0.04 l 0.05,0.01 0.04,0.01 h 0.05 l 0.04,0.01 0.04,0.01 0.05,0.01 0.04,0.02 0.04,0.01 0.04,0.02 0.04,0.02 0.04,0.02 0.03,0.03 0.04,0.02 0.03,0.03 0.03,0.04 0.01,0.01 0.01,0.02 0.02,0.02 0.01,0.02 0.01,0.02 0.01,0.02 0.01,0.02 0.01,0.03 0.01,0.02 0.01,0.02 v 0.03 l 0.01,0.03 v 0.02 l 0.01,0.03 v 0.03 0.03 0.03 l 0.01,0.04 c 0,0.68 -0.69,0.68 -1.07,0.68 h -18.61 c -0.37,0 -1.07,0 -1.07,-0.68 0,-0.71 0.67,-0.71 1.07,-0.71 z"
           inkscape:connector-curvature="0"
           style="fill:#000000;stroke-width:0" /><path
           id="path19034"
           d="m 531.83,411.73 h 0.04 0.04 0.04 0.04 0.04 0.05 l 0.04,0.01 h 0.04 l 0.05,0.01 h 0.04 l 0.05,0.01 0.04,0.01 0.04,0.01 0.05,0.01 0.04,0.01 0.04,0.02 0.04,0.02 0.04,0.02 0.04,0.02 0.03,0.02 0.04,0.03 0.03,0.03 0.03,0.03 0.01,0.02 0.01,0.02 0.02,0.02 0.01,0.02 0.01,0.02 0.01,0.02 0.01,0.02 0.01,0.02 0.01,0.03 0.01,0.02 v 0.03 l 0.01,0.02 v 0.03 l 0.01,0.03 v 0.03 0.03 0.03 l 0.01,0.03 c 0,0.69 -0.68,0.69 -1.07,0.69 h -18.61 c -0.4,0 -1.07,0 -1.07,-0.69 0,-0.7 0.67,-0.7 1.07,-0.7 z"
           inkscape:connector-curvature="0"
           style="fill:#000000;stroke-width:0" /><path
           id="path19036"
           d="m 564.22,423.36 -0.01,0.04 v 0.05 l -0.01,0.04 -0.01,0.05 -0.01,0.04 -0.01,0.04 -0.02,0.03 -0.01,0.04 -0.01,0.03 -0.01,0.03 -0.02,0.03 -0.01,0.03 -0.02,0.02 -0.01,0.03 -0.02,0.02 -0.02,0.02 -0.02,0.02 -0.03,0.01 -0.02,0.02 -0.02,0.02 -0.03,0.01 -0.03,0.01 -0.03,0.01 -0.03,0.01 -0.04,0.01 -0.03,0.01 h -0.04 l -0.04,0.01 h -0.04 -0.05 -0.05 -0.05 c -0.59,0 -0.75,-0.2 -1,-0.58 l -9.76,-14.15 c -1.03,-1.52 -1.91,-1.91 -3.53,-1.99 -0.47,-0.03 -0.47,-0.67 -0.47,-0.7 0,-0.34 0.29,-0.42 0.39,-0.42 0.36,0 0.78,0.08 1.12,0.08 0.43,0 0.85,0.01 1.27,0.01 0.48,0 0.92,-0.01 1.37,-0.01 0.46,0 0.97,-0.08 1.42,-0.08 0.18,0 0.6,0 0.6,0.7 0,0.39 -0.38,0.42 -0.47,0.42 -0.2,0 -1.17,0.05 -1.17,0.64 0,0.3 0.29,0.72 0.47,0.97 l 1.82,2.68 c 0.13,0.15 0.15,0.17 0.62,0.17 h 7.56 l -0.21,1.12 h -7.07 l 5.56,8.06 1.51,-8.06 0.21,-1.12 c 0.04,-0.3 0.06,-0.42 0.14,-0.72 0.08,-0.45 0.58,-2.94 0.58,-3.19 0,-0.55 -1.58,-0.55 -1.71,-0.55 -0.37,0 -0.76,0 -0.76,-0.7 0,-0.25 0.17,-0.42 0.45,-0.42 0.52,0 1.11,0.08 1.66,0.08 0.61,0 1.17,0.01 1.78,0.01 0.51,0 1.06,-0.01 1.59,-0.01 0.5,0 1.06,-0.08 1.56,-0.08 0.43,0 0.6,0.3 0.6,0.7 0,0.42 -0.39,0.42 -0.74,0.42 -1.65,0 -1.67,0.18 -1.78,0.72 z"
           inkscape:connector-curvature="0"
           style="fill:#000000;stroke-width:0" /><path
           id="path19038"
           d="m 581.84,432.12 v 0.04 0.03 0.04 0.03 0.03 0.03 0.03 0.02 0.03 0.02 l -0.01,0.03 v 0.02 0.03 0.02 l -0.01,0.02 v 0.02 l -0.01,0.02 v 0.02 l -0.01,0.03 -0.01,0.03 -0.01,0.03 -0.02,0.03 -0.02,0.02 -0.02,0.02 -0.02,0.02 -0.02,0.02 -0.03,0.01 -0.03,0.01 -0.03,0.02 h -0.04 l -0.03,0.01 -0.05,0.01 h -0.02 -0.02 l -0.02,0.01 h -0.03 -0.02 -0.03 -0.03 -0.03 -0.03 -0.03 -0.03 -0.03 -0.03 -0.04 -0.03 -0.04 -0.03 l -0.04,0.01 c -1.77,-1.6 -4.53,-1.6 -5.03,-1.6 h -0.43 v -1.09 h 0.43 c 0.57,0 2.18,0.06 3.64,0.69 v -12.46 c 0,-0.76 0,-1.04 -2.64,-1.04 h -1.25 v -1.1 c 1.37,0.1 3.59,0.1 5.03,0.1 1.45,0 3.67,0 5.03,-0.1 v 1.1 h -1.24 c -2.64,0 -2.64,0.28 -2.64,1.04 z"
           inkscape:connector-curvature="0"
           style="fill:#000000;stroke-width:0" /><path
           id="path19040"
           d="m 581.84,411.12 v 0.04 0.03 0.04 0.03 0.03 0.03 0.03 0.02 0.03 0.02 l -0.01,0.03 v 0.02 0.03 0.02 l -0.01,0.02 v 0.02 l -0.01,0.02 v 0.02 l -0.01,0.03 -0.01,0.03 -0.01,0.03 -0.02,0.03 -0.02,0.02 -0.02,0.02 -0.02,0.02 -0.02,0.02 -0.03,0.01 -0.03,0.01 -0.03,0.02 h -0.04 l -0.03,0.01 -0.05,0.01 h -0.02 -0.02 l -0.02,0.01 h -0.03 -0.02 -0.03 -0.03 -0.03 -0.03 -0.03 -0.03 -0.03 -0.03 -0.04 -0.03 -0.04 -0.03 l -0.04,0.01 c -1.77,-1.6 -4.53,-1.6 -5.03,-1.6 h -0.43 v -1.09 h 0.43 c 0.57,0 2.18,0.06 3.64,0.69 v -12.46 c 0,-0.76 0,-1.04 -2.64,-1.04 h -1.25 v -1.1 c 1.37,0.1 3.59,0.1 5.03,0.1 1.45,0 3.67,0 5.03,-0.1 v 1.1 h -1.24 c -2.64,0 -2.64,0.28 -2.64,1.04 z"
           inkscape:connector-curvature="0"
           style="fill:#000000;stroke-width:0" /></g>
    </g>
    <g
       id="g19163"
       transform="translate(28.14891,160.33759)"
       inkscape:export-filename="/home/user/Downloads/master_thesis/images/chshmnts.png"
       inkscape:export-xdpi="200"
       inkscape:export-ydpi="200">
      <g
         word-spacing="normal"
         letter-spacing="normal"
         font-size-adjust="none"
         font-stretch="normal"
         font-weight="normal"
         font-variant="normal"
         font-style="normal"
         stroke-miterlimit="10.433"
         xml:space="preserve"
         transform="matrix(0.3,0,0,-0.3,-52.5,222.75)"
         id="content"
         style="font-style:normal;font-variant:normal;font-weight:normal;font-stretch:normal;letter-spacing:normal;word-spacing:normal;text-anchor:start;fill:none;fill-opacity:1;fill-rule:evenodd;stroke:#000000;stroke-linecap:butt;stroke-linejoin:miter;stroke-miterlimit:10.43299961;stroke-dasharray:none;stroke-dashoffset:0;stroke-opacity:1"><path
           id="path19142"
           d="m 461.93,423.81 v 0.04 0.04 0.04 l -0.01,0.04 v 0.05 0.04 0.04 0.05 l -0.01,0.04 -0.01,0.05 v 0.04 l -0.01,0.05 -0.01,0.04 -0.01,0.05 -0.02,0.04 -0.01,0.04 -0.02,0.04 -0.02,0.04 -0.02,0.04 -0.03,0.03 -0.02,0.04 -0.03,0.03 -0.04,0.03 -0.01,0.01 -0.02,0.02 -0.02,0.01 -0.02,0.01 -0.02,0.01 -0.02,0.01 -0.02,0.01 -0.03,0.01 -0.02,0.01 -0.02,0.01 h -0.03 l -0.03,0.01 -0.02,0.01 h -0.03 -0.03 l -0.03,0.01 h -0.03 -0.04 c -0.7,0 -0.7,-0.68 -0.7,-1.08 v -22.77 c 0,-0.4 0,-1.08 0.7,-1.08 0.71,0 0.71,0.68 0.71,1.08 z"
           inkscape:connector-curvature="0"
           style="fill:#000000;stroke-width:0" /><path
           id="path19144"
           d="m 484.48,415.04 h 0.04 0.04 0.04 0.04 0.04 0.04 l 0.03,0.01 h 0.04 0.03 0.03 l 0.07,0.01 h 0.06 l 0.07,0.01 0.03,0.01 0.03,0.01 0.03,0.01 h 0.02 l 0.03,0.01 0.03,0.01 0.03,0.02 0.03,0.01 0.03,0.01 0.03,0.02 0.03,0.01 0.03,0.02 0.03,0.02 0.03,0.02 0.04,0.02 0.03,0.02 c 0.14,0.14 0.39,0.5 0.39,0.85 0,0.79 -0.74,0.79 -1.16,0.79 h -10.69 c -0.56,0 -1.67,0 -3.14,-1.25 -0.67,-0.59 -1.79,-1.86 -1.79,-2.15 0,-0.36 0.34,-0.36 0.5,-0.36 0.34,0 0.34,0.03 0.54,0.25 0.85,1.08 2.05,1.62 3.57,1.62 h 1.76 c -0.89,-3.11 -2.17,-5.7 -3.03,-7.28 -0.37,-0.64 -0.37,-0.69 -0.37,-0.94 0,-0.57 0.43,-0.9 0.93,-0.9 1.05,0 1.39,1.15 1.97,3.17 0.58,1.94 1.03,3.73 1.6,5.95 h 3.26 c -0.09,-0.37 -0.8,-3.09 -0.8,-5.06 0,-1.72 0.63,-4.06 1.72,-4.06 0.6,0 1.3,0.58 1.3,1.23 0,0.27 -0.09,0.39 -0.28,0.69 -1.14,1.87 -1.14,4.06 -1.14,4.52 0,0.84 0.12,1.84 0.28,2.68 z"
           inkscape:connector-curvature="0"
           style="fill:#000000;stroke-width:0" /><path
           id="path19146"
           d="m 498.38,411.87 0.01,0.03 0.02,0.04 0.01,0.03 0.01,0.03 0.01,0.02 0.01,0.03 0.01,0.03 0.01,0.02 0.01,0.03 0.01,0.02 0.01,0.02 0.01,0.02 v 0.02 l 0.01,0.02 v 0.02 l 0.01,0.01 v 0.02 0.01 l 0.01,0.02 v 0.01 0.02 0.01 0.01 0.01 l 0.01,0.01 v 0.01 0.01 0.01 0 0.01 0.01 0 c 0,0.18 -0.07,0.3 -0.14,0.47 l -5.33,11.31 c -0.17,0.4 -0.33,0.68 -0.75,0.68 -0.38,0 -0.71,-0.33 -0.71,-0.71 0,-0.17 0.08,-0.29 0.16,-0.47 l 5.3,-11.28 -5.28,-11.22 c -0.18,-0.34 -0.18,-0.5 -0.18,-0.54 0,-0.38 0.33,-0.71 0.71,-0.71 0.39,0 0.59,0.32 0.75,0.63 z"
           inkscape:connector-curvature="0"
           style="fill:#000000;stroke-width:0" /><path
           id="path19148"
           d="m 536.39,417.64 h 0.04 0.03 0.04 0.04 0.05 0.04 0.04 l 0.05,0.01 h 0.04 l 0.04,0.01 h 0.05 l 0.04,0.01 0.05,0.01 0.04,0.01 0.04,0.02 0.04,0.01 0.04,0.02 0.04,0.02 0.04,0.02 0.04,0.02 0.03,0.03 0.03,0.03 0.03,0.03 0.02,0.02 0.01,0.02 0.01,0.02 0.01,0.01 0.02,0.02 0.01,0.03 0.01,0.02 0.01,0.02 0.01,0.02 v 0.03 l 0.01,0.02 0.01,0.03 v 0.03 l 0.01,0.02 v 0.03 0.03 0.03 0.03 c 0,0.71 -0.67,0.71 -1.06,0.71 h -18.61 c -0.4,0 -1.08,0 -1.08,-0.71 0,-0.68 0.71,-0.68 1.08,-0.68 z"
           inkscape:connector-curvature="0"
           style="fill:#000000;stroke-width:0" /><path
           id="path19150"
           d="m 536.39,405.82 h 0.04 0.04 0.04 l 0.04,0.01 h 0.04 0.04 0.05 0.04 l 0.05,0.01 0.04,0.01 h 0.04 l 0.05,0.01 0.04,0.01 0.04,0.01 0.05,0.02 0.04,0.01 0.04,0.02 0.04,0.02 0.03,0.02 0.04,0.03 0.03,0.02 0.04,0.03 0.02,0.04 0.02,0.01 0.01,0.02 0.01,0.02 0.02,0.02 0.01,0.02 0.01,0.02 0.01,0.02 0.01,0.03 0.01,0.02 v 0.02 l 0.01,0.03 0.01,0.03 v 0.02 l 0.01,0.03 v 0.03 0.03 0.03 0.04 c 0,0.68 -0.68,0.68 -1.06,0.68 h -18.61 c -0.37,0 -1.08,0 -1.08,-0.68 0,-0.71 0.68,-0.71 1.08,-0.71 z"
           inkscape:connector-curvature="0"
           style="fill:#000000;stroke-width:0" /><path
           id="path19152"
           d="m 536.39,411.73 h 0.04 0.04 0.04 0.04 0.04 0.04 l 0.05,0.01 h 0.04 l 0.05,0.01 h 0.04 l 0.04,0.01 0.05,0.01 0.04,0.01 0.04,0.01 0.05,0.01 0.04,0.02 0.04,0.02 0.04,0.02 0.03,0.02 0.04,0.02 0.03,0.03 0.04,0.03 0.02,0.03 0.02,0.02 0.01,0.02 0.01,0.02 0.02,0.02 0.01,0.02 0.01,0.02 0.01,0.02 0.01,0.02 0.01,0.03 v 0.02 l 0.01,0.03 0.01,0.02 v 0.03 l 0.01,0.03 v 0.03 0.03 0.03 0.03 c 0,0.69 -0.67,0.69 -1.06,0.69 h -18.61 c -0.4,0 -1.08,0 -1.08,-0.69 0,-0.7 0.68,-0.7 1.08,-0.7 z"
           inkscape:connector-curvature="0"
           style="fill:#000000;stroke-width:0" /><path
           id="path19154"
           d="m 568.9,423.36 -0.01,0.04 -0.01,0.05 v 0.04 l -0.01,0.05 -0.01,0.04 -0.01,0.04 -0.02,0.03 -0.01,0.04 -0.01,0.03 -0.01,0.03 -0.02,0.03 -0.01,0.03 -0.02,0.02 -0.02,0.03 -0.01,0.02 -0.02,0.02 -0.02,0.02 -0.03,0.01 -0.02,0.02 -0.02,0.02 -0.03,0.01 -0.03,0.01 -0.03,0.01 -0.03,0.01 -0.04,0.01 -0.03,0.01 h -0.04 l -0.04,0.01 h -0.05 -0.04 -0.05 -0.05 c -0.59,0 -0.75,-0.2 -1,-0.58 l -9.76,-14.15 c -1.04,-1.52 -1.91,-1.91 -3.54,-1.99 -0.46,-0.03 -0.46,-0.67 -0.46,-0.7 0,-0.34 0.29,-0.42 0.39,-0.42 0.36,0 0.78,0.08 1.12,0.08 0.42,0 0.85,0.01 1.27,0.01 0.48,0 0.92,-0.01 1.37,-0.01 0.46,0 0.97,-0.08 1.43,-0.08 0.17,0 0.59,0 0.59,0.7 0,0.39 -0.38,0.42 -0.47,0.42 -0.2,0 -1.17,0.05 -1.17,0.64 0,0.3 0.3,0.72 0.47,0.97 l 1.83,2.68 c 0.12,0.15 0.13,0.17 0.6,0.17 h 7.57 l -0.21,1.12 h -7.08 l 5.57,8.06 1.51,-8.06 0.21,-1.12 c 0.04,-0.3 0.06,-0.42 0.14,-0.72 0.07,-0.45 0.57,-2.94 0.57,-3.19 0,-0.55 -1.57,-0.55 -1.7,-0.55 -0.37,0 -0.76,0 -0.76,-0.7 0,-0.25 0.17,-0.42 0.45,-0.42 0.51,0 1.11,0.08 1.66,0.08 0.6,0 1.17,0.01 1.78,0.01 0.51,0 1.06,-0.01 1.59,-0.01 0.5,0 1.06,-0.08 1.56,-0.08 0.42,0 0.6,0.3 0.6,0.7 0,0.42 -0.39,0.42 -0.74,0.42 -1.65,0 -1.67,0.18 -1.78,0.72 z"
           inkscape:connector-curvature="0"
           style="fill:#000000;stroke-width:0" /><polygon
           id="polygon19156"
           points="585.91,422.61 577.65,422.61 577.65,420.69 585.91,420.69 "
           style="fill:#000000;stroke-width:0" /><path
           id="path19158"
           d="m 598.28,432.12 v 0.04 0.03 0.04 0.03 0.03 0.03 0.03 0.02 l -0.01,0.03 v 0.02 0.03 0.02 0.03 l -0.01,0.02 v 0.02 0.02 l -0.01,0.02 v 0.02 l -0.01,0.03 -0.01,0.03 -0.02,0.03 -0.01,0.03 -0.02,0.02 -0.02,0.02 -0.02,0.02 -0.03,0.02 -0.02,0.01 -0.03,0.01 -0.03,0.02 h -0.04 l -0.04,0.01 -0.04,0.01 h -0.02 -0.02 l -0.03,0.01 h -0.02 -0.03 -0.02 -0.03 -0.03 -0.03 -0.03 -0.03 -0.03 -0.03 -0.04 -0.03 -0.04 -0.04 l -0.03,0.01 c -1.77,-1.6 -4.54,-1.6 -5.04,-1.6 h -0.42 v -1.09 h 0.42 c 0.58,0 2.19,0.06 3.64,0.69 v -12.46 c 0,-0.76 0,-1.04 -2.64,-1.04 h -1.25 v -1.1 c 1.38,0.1 3.6,0.1 5.03,0.1 1.46,0 3.68,0 5.04,-0.1 v 1.1 h -1.24 c -2.64,0 -2.64,0.28 -2.64,1.04 z"
           inkscape:connector-curvature="0"
           style="fill:#000000;stroke-width:0" /><path
           id="path19160"
           d="m 586.52,411.12 v 0.04 0.03 0.04 0.03 0.03 0.03 0.03 0.02 0.03 l -0.01,0.02 v 0.03 0.02 0.03 l -0.01,0.02 v 0.02 0.02 l -0.01,0.02 v 0.02 l -0.01,0.03 -0.01,0.03 -0.02,0.03 -0.01,0.03 -0.02,0.02 -0.02,0.02 -0.02,0.02 -0.02,0.02 -0.03,0.01 -0.03,0.01 -0.03,0.02 h -0.04 l -0.04,0.01 -0.04,0.01 h -0.02 -0.02 l -0.03,0.01 h -0.02 -0.03 -0.02 -0.03 -0.03 -0.03 -0.03 -0.03 -0.03 -0.03 -0.04 -0.03 -0.04 -0.03 l -0.04,0.01 c -1.77,-1.6 -4.53,-1.6 -5.03,-1.6 h -0.43 v -1.09 h 0.43 c 0.57,0 2.18,0.06 3.64,0.69 v -12.46 c 0,-0.76 0,-1.04 -2.64,-1.04 h -1.25 v -1.1 c 1.37,0.1 3.59,0.1 5.03,0.1 1.45,0 3.67,0 5.03,-0.1 v 1.1 h -1.24 c -2.64,0 -2.64,0.28 -2.64,1.04 z"
           inkscape:connector-curvature="0"
           style="fill:#000000;stroke-width:0" /></g>
    </g>
    <g
       id="g19293"
       transform="translate(113.54406,91.789301)"
       inkscape:export-filename="/home/user/Downloads/master_thesis/images/chshmnts.png"
       inkscape:export-xdpi="200"
       inkscape:export-ydpi="200">
      <g
         word-spacing="normal"
         letter-spacing="normal"
         font-size-adjust="none"
         font-stretch="normal"
         font-weight="normal"
         font-variant="normal"
         font-style="normal"
         stroke-miterlimit="10.433"
         xml:space="preserve"
         transform="matrix(0.3,0,0,-0.3,-52.5,222.75)"
         id="g19291"
         style="font-style:normal;font-variant:normal;font-weight:normal;font-stretch:normal;letter-spacing:normal;word-spacing:normal;text-anchor:start;fill:none;fill-opacity:1;fill-rule:evenodd;stroke:#000000;stroke-linecap:butt;stroke-linejoin:miter;stroke-miterlimit:10.43299961;stroke-dasharray:none;stroke-dashoffset:0;stroke-opacity:1"><path
           id="path19269"
           d="m 461.93,423.81 v 0.04 0.04 0.04 l -0.01,0.04 v 0.05 0.04 0.04 0.05 l -0.01,0.04 -0.01,0.05 v 0.04 l -0.01,0.05 -0.01,0.04 -0.01,0.05 -0.02,0.04 -0.01,0.04 -0.02,0.04 -0.02,0.04 -0.02,0.04 -0.03,0.03 -0.02,0.04 -0.03,0.03 -0.04,0.03 -0.01,0.01 -0.02,0.02 -0.02,0.01 -0.02,0.01 -0.02,0.01 -0.02,0.01 -0.02,0.01 -0.03,0.01 -0.02,0.01 -0.02,0.01 h -0.03 l -0.03,0.01 -0.02,0.01 h -0.03 -0.03 l -0.03,0.01 h -0.03 -0.04 c -0.7,0 -0.7,-0.68 -0.7,-1.08 v -22.77 c 0,-0.4 0,-1.08 0.7,-1.08 0.71,0 0.71,0.68 0.71,1.08 z"
           inkscape:connector-curvature="0"
           style="fill:#000000;stroke-width:0" /><path
           id="path19271"
           d="m 490.48,424.64 h 0.05 l 0.04,0.01 h 0.04 0.04 0.03 0.04 0.04 0.03 0.04 0.03 l 0.06,0.01 0.07,0.01 0.06,0.01 h 0.03 l 0.03,0.01 0.03,0.01 0.03,0.01 0.03,0.01 0.03,0.01 0.03,0.01 0.03,0.01 0.03,0.01 0.03,0.02 0.03,0.02 0.03,0.01 0.03,0.02 0.03,0.02 0.03,0.02 0.03,0.02 c 0.14,0.15 0.39,0.5 0.39,0.85 0,0.8 -0.73,0.8 -1.15,0.8 h -10.69 c -0.56,0 -1.67,0 -3.14,-1.25 -0.67,-0.6 -1.8,-1.86 -1.8,-2.16 0,-0.36 0.34,-0.36 0.5,-0.36 0.34,0 0.34,0.03 0.55,0.25 0.84,1.08 2.04,1.62 3.56,1.62 h 1.77 c -0.9,-3.1 -2.18,-5.7 -3.04,-7.28 -0.37,-0.64 -0.37,-0.68 -0.37,-0.93 0,-0.58 0.44,-0.91 0.94,-0.91 1.04,0 1.39,1.16 1.97,3.17 0.57,1.94 1.03,3.74 1.59,5.95 h 3.27 c -0.1,-0.37 -0.8,-3.09 -0.8,-5.06 0,-1.72 0.62,-4.06 1.72,-4.06 0.59,0 1.29,0.58 1.29,1.23 0,0.27 -0.09,0.39 -0.28,0.69 -1.14,1.88 -1.14,4.06 -1.14,4.52 0,0.84 0.13,1.84 0.28,2.68 z"
           inkscape:connector-curvature="0"
           style="fill:#000000;stroke-width:0" /><polyline
           id="polyline19273"
           points="473,412 494.6,412 494.6,413.32 473,413.32 "
           style="fill:#000000;fill-rule:nonzero;stroke-width:0" /><path
           id="path19275"
           d="m 489.87,397.69 h -1.05 c -0.07,-0.48 -0.32,-2.01 -0.71,-2.26 -0.21,-0.16 -2.3,-0.16 -2.68,-0.16 h -4.87 c 1.64,1.22 3.48,2.61 4.98,3.61 2.24,1.55 4.33,3 4.33,5.64 0,3.19 -3.01,4.95 -6.58,4.95 -3.36,0 -5.83,-1.95 -5.83,-4.39 0,-1.29 1.1,-1.51 1.46,-1.51 0.67,0 1.47,0.45 1.47,1.47 0,0.89 -0.66,1.39 -1.43,1.46 0.69,1.13 2.15,1.88 3.82,1.88 2.4,0 4.42,-1.45 4.42,-3.89 0,-2.1 -1.44,-3.69 -3.36,-5.31 l -6.08,-5.16 c -0.25,-0.22 -0.26,-0.22 -0.3,-0.39 v -0.75 h 11.58 z"
           inkscape:connector-curvature="0"
           style="fill:#000000;stroke-width:0" /><path
           id="path19277"
           d="m 510.38,411.87 0.01,0.03 0.02,0.04 0.01,0.03 0.02,0.03 0.01,0.02 0.01,0.03 0.01,0.03 0.01,0.02 0.01,0.03 0.01,0.02 v 0.02 l 0.01,0.02 v 0.02 l 0.01,0.02 0.01,0.02 v 0.01 0.02 l 0.01,0.01 v 0.02 0.01 0.02 l 0.01,0.01 v 0.01 0.01 0.01 0.01 0.01 0.01 0 0.01 0.01 0 c 0,0.18 -0.06,0.3 -0.14,0.47 l -5.33,11.31 c -0.17,0.4 -0.33,0.68 -0.75,0.68 -0.37,0 -0.7,-0.33 -0.7,-0.71 0,-0.17 0.08,-0.29 0.16,-0.47 l 5.29,-11.28 -5.28,-11.22 c -0.17,-0.34 -0.17,-0.5 -0.17,-0.54 0,-0.38 0.33,-0.71 0.7,-0.71 0.39,0 0.6,0.32 0.75,0.63 z"
           inkscape:connector-curvature="0"
           style="fill:#000000;stroke-width:0" /><path
           id="path19279"
           d="m 548.4,417.64 h 0.03 0.04 0.04 0.04 0.04 0.04 0.05 l 0.04,0.01 h 0.04 l 0.05,0.01 h 0.04 l 0.05,0.01 0.04,0.01 0.04,0.01 0.05,0.02 0.04,0.01 0.04,0.02 0.04,0.02 0.03,0.02 0.04,0.02 0.03,0.03 0.04,0.03 0.03,0.03 0.01,0.02 0.01,0.02 0.02,0.02 0.01,0.01 0.01,0.02 0.01,0.03 0.01,0.02 0.01,0.02 0.01,0.02 0.01,0.03 v 0.02 l 0.01,0.03 v 0.03 l 0.01,0.02 v 0.03 0.03 l 0.01,0.03 v 0.03 c 0,0.71 -0.68,0.71 -1.06,0.71 h -18.62 c -0.4,0 -1.07,0 -1.07,-0.71 0,-0.68 0.7,-0.68 1.07,-0.68 z"
           inkscape:connector-curvature="0"
           style="fill:#000000;stroke-width:0" /><path
           id="path19281"
           d="m 548.4,405.82 h 0.03 0.04 0.04 l 0.04,0.01 h 0.04 0.05 0.04 0.05 l 0.04,0.01 0.04,0.01 h 0.05 l 0.04,0.01 0.05,0.01 0.04,0.01 0.04,0.02 0.04,0.01 0.04,0.02 0.04,0.02 0.04,0.02 0.03,0.03 0.04,0.02 0.03,0.03 0.03,0.04 0.01,0.01 0.02,0.02 0.01,0.02 0.01,0.02 0.01,0.02 0.01,0.02 0.01,0.02 0.01,0.03 0.01,0.02 0.01,0.02 v 0.03 l 0.01,0.03 0.01,0.02 v 0.03 0.03 l 0.01,0.03 v 0.03 0.04 c 0,0.68 -0.69,0.68 -1.06,0.68 h -18.62 c -0.37,0 -1.07,0 -1.07,-0.68 0,-0.71 0.67,-0.71 1.07,-0.71 z"
           inkscape:connector-curvature="0"
           style="fill:#000000;stroke-width:0" /><path
           id="path19283"
           d="m 548.4,411.73 h 0.03 0.04 0.04 0.04 0.04 0.05 l 0.04,0.01 h 0.05 l 0.04,0.01 h 0.04 l 0.05,0.01 0.04,0.01 0.05,0.01 0.04,0.01 0.04,0.01 0.04,0.02 0.04,0.02 0.04,0.02 0.04,0.02 0.03,0.02 0.04,0.03 0.03,0.03 0.03,0.03 0.01,0.02 0.02,0.02 0.01,0.02 0.01,0.02 0.01,0.02 0.01,0.02 0.01,0.02 0.01,0.02 0.01,0.03 0.01,0.02 v 0.03 l 0.01,0.02 0.01,0.03 v 0.03 0.03 l 0.01,0.03 v 0.03 0.03 c 0,0.69 -0.68,0.69 -1.06,0.69 h -18.62 c -0.4,0 -1.07,0 -1.07,-0.69 0,-0.7 0.67,-0.7 1.07,-0.7 z"
           inkscape:connector-curvature="0"
           style="fill:#000000;stroke-width:0" /><path
           id="path19285"
           d="m 580.91,423.36 -0.01,0.04 -0.01,0.05 -0.01,0.04 -0.01,0.05 -0.01,0.04 -0.01,0.04 -0.01,0.03 -0.01,0.04 -0.02,0.03 -0.01,0.03 -0.01,0.03 -0.02,0.03 -0.01,0.02 -0.02,0.03 -0.02,0.02 -0.02,0.02 -0.02,0.02 -0.02,0.01 -0.03,0.02 -0.02,0.02 -0.03,0.01 -0.03,0.01 -0.03,0.01 -0.03,0.01 -0.03,0.01 -0.04,0.01 h -0.04 l -0.04,0.01 h -0.04 -0.05 -0.04 -0.05 c -0.6,0 -0.75,-0.2 -1,-0.58 l -9.77,-14.15 c -1.03,-1.52 -1.91,-1.91 -3.53,-1.99 -0.47,-0.03 -0.47,-0.67 -0.47,-0.7 0,-0.34 0.3,-0.42 0.39,-0.42 0.36,0 0.78,0.08 1.13,0.08 0.42,0 0.84,0.01 1.26,0.01 0.49,0 0.92,-0.01 1.38,-0.01 0.45,0 0.97,-0.08 1.42,-0.08 0.17,0 0.59,0 0.59,0.7 0,0.39 -0.37,0.42 -0.47,0.42 -0.2,0 -1.17,0.05 -1.17,0.64 0,0.3 0.3,0.72 0.47,0.97 l 1.83,2.68 c 0.12,0.15 0.14,0.17 0.61,0.17 h 7.56 l -0.2,1.12 h -7.08 l 5.56,8.06 1.52,-8.06 0.2,-1.12 c 0.05,-0.3 0.06,-0.42 0.14,-0.72 0.08,-0.45 0.58,-2.94 0.58,-3.19 0,-0.55 -1.58,-0.55 -1.7,-0.55 -0.38,0 -0.77,0 -0.77,-0.7 0,-0.25 0.17,-0.42 0.45,-0.42 0.52,0 1.11,0.08 1.66,0.08 0.61,0 1.17,0.01 1.78,0.01 0.52,0 1.06,-0.01 1.59,-0.01 0.5,0 1.07,-0.08 1.57,-0.08 0.42,0 0.59,0.3 0.59,0.7 0,0.42 -0.39,0.42 -0.73,0.42 -1.66,0 -1.67,0.18 -1.78,0.72 z"
           inkscape:connector-curvature="0"
           style="fill:#000000;stroke-width:0" /><path
           id="path19287"
           d="m 598.52,432.12 v 0.04 0.03 0.04 0.03 0.03 0.03 0.03 0.02 0.03 l -0.01,0.02 v 0.03 0.02 0.03 l -0.01,0.02 v 0.02 0.02 l -0.01,0.02 v 0.02 l -0.01,0.03 -0.01,0.03 -0.02,0.03 -0.01,0.03 -0.02,0.02 -0.02,0.02 -0.02,0.02 -0.02,0.02 -0.03,0.01 -0.03,0.01 -0.03,0.02 h -0.04 l -0.04,0.01 -0.04,0.01 h -0.02 -0.02 l -0.03,0.01 h -0.02 -0.03 -0.02 -0.03 -0.03 -0.03 -0.03 -0.03 -0.03 -0.03 -0.04 -0.03 -0.04 -0.03 l -0.04,0.01 c -1.77,-1.6 -4.53,-1.6 -5.03,-1.6 h -0.43 v -1.09 h 0.43 c 0.57,0 2.18,0.06 3.64,0.69 v -12.46 c 0,-0.76 0,-1.04 -2.64,-1.04 h -1.25 v -1.1 c 1.37,0.1 3.59,0.1 5.03,0.1 1.45,0 3.67,0 5.03,-0.1 v 1.1 h -1.24 c -2.64,0 -2.64,0.28 -2.64,1.04 z"
           inkscape:connector-curvature="0"
           style="fill:#000000;stroke-width:0" /><path
           id="path19289"
           d="m 603.27,400.09 h -1.04 c -0.08,-0.48 -0.33,-2.01 -0.72,-2.26 -0.21,-0.16 -2.3,-0.16 -2.67,-0.16 h -4.88 c 1.64,1.22 3.49,2.61 4.99,3.61 2.23,1.55 4.32,3 4.32,5.64 0,3.19 -3.01,4.96 -6.57,4.96 -3.36,0 -5.83,-1.96 -5.83,-4.4 0,-1.29 1.09,-1.51 1.45,-1.51 0.67,0 1.47,0.45 1.47,1.47 0,0.89 -0.66,1.39 -1.42,1.47 0.68,1.12 2.14,1.87 3.81,1.87 2.41,0 4.42,-1.45 4.42,-3.89 0,-2.09 -1.44,-3.69 -3.36,-5.31 l -6.08,-5.16 c -0.25,-0.22 -0.26,-0.22 -0.29,-0.39 v -0.75 h 11.58 z"
           inkscape:connector-curvature="0"
           style="fill:#000000;stroke-width:0" /></g>
    </g>
    <g
       id="g19434"
       transform="translate(-65.541068,91.789301)"
       inkscape:export-filename="/home/user/Downloads/master_thesis/images/chshmnts.png"
       inkscape:export-xdpi="200"
       inkscape:export-ydpi="200">
      <g
         word-spacing="normal"
         letter-spacing="normal"
         font-size-adjust="none"
         font-stretch="normal"
         font-weight="normal"
         font-variant="normal"
         font-style="normal"
         stroke-miterlimit="10.433"
         xml:space="preserve"
         transform="matrix(0.3,0,0,-0.3,-52.5,222.75)"
         id="g19432"
         style="font-style:normal;font-variant:normal;font-weight:normal;font-stretch:normal;letter-spacing:normal;word-spacing:normal;text-anchor:start;fill:none;fill-opacity:1;fill-rule:evenodd;stroke:#000000;stroke-linecap:butt;stroke-linejoin:miter;stroke-miterlimit:10.43299961;stroke-dasharray:none;stroke-dashoffset:0;stroke-opacity:1"><path
           id="path19406"
           d="m 461.93,423.81 v 0.04 0.04 0.04 l -0.01,0.04 v 0.05 0.04 0.04 0.05 l -0.01,0.04 -0.01,0.05 v 0.04 l -0.01,0.05 -0.01,0.04 -0.01,0.05 -0.02,0.04 -0.01,0.04 -0.02,0.04 -0.02,0.04 -0.02,0.04 -0.03,0.03 -0.02,0.04 -0.03,0.03 -0.04,0.03 -0.01,0.01 -0.02,0.02 -0.02,0.01 -0.02,0.01 -0.02,0.01 -0.02,0.01 -0.02,0.01 -0.03,0.01 -0.02,0.01 -0.02,0.01 h -0.03 l -0.03,0.01 -0.02,0.01 h -0.03 -0.03 l -0.03,0.01 h -0.03 -0.04 c -0.7,0 -0.7,-0.68 -0.7,-1.08 v -22.77 c 0,-0.4 0,-1.08 0.7,-1.08 0.71,0 0.71,0.68 0.71,1.08 z"
           inkscape:connector-curvature="0"
           style="fill:#000000;stroke-width:0" /><path
           id="path19408"
           d="m 481.14,424.05 h 0.21 l 0.21,-0.02 0.21,-0.02 0.19,-0.02 0.2,-0.04 0.19,-0.05 0.18,-0.05 0.18,-0.06 0.17,-0.07 0.16,-0.07 0.16,-0.09 0.16,-0.09 0.14,-0.1 0.15,-0.1 0.13,-0.12 0.13,-0.12 0.12,-0.13 0.11,-0.13 0.11,-0.14 0.1,-0.15 0.1,-0.16 0.08,-0.16 0.08,-0.17 0.07,-0.18 0.06,-0.18 0.06,-0.19 0.04,-0.2 0.04,-0.2 0.03,-0.21 0.03,-0.22 0.01,-0.22 v -0.23 c 0,-2.55 -1.56,-3.89 -3.78,-3.89 -0.28,0 -3.25,0 -4.51,1.3 1.03,0.15 1.32,0.92 1.32,1.51 0,0.92 -0.7,1.53 -1.53,1.53 -0.79,0 -1.53,-0.53 -1.53,-1.57 0,-2.6 2.94,-3.79 6.31,-3.79 4.1,0 6.65,2.47 6.65,4.88 0,2.05 -1.83,3.8 -4.68,4.44 3,0.97 3.8,2.87 3.8,4.26 0,2.05 -2.55,3.56 -5.69,3.56 -3.06,0 -5.53,-1.29 -5.53,-3.54 0,-1.17 0.95,-1.47 1.42,-1.47 0.72,0 1.42,0.53 1.42,1.42 0,0.58 -0.29,1.28 -1.18,1.42 1.06,1.14 3.28,1.22 3.79,1.22 1.83,0 3.13,-0.92 3.13,-2.61 0,-1.45 -0.95,-3.72 -3.56,-3.86 -0.71,-0.03 -0.8,-0.04 -1.46,-0.08 -0.26,-0.03 -0.54,-0.04 -0.54,-0.42 0,-0.42 0.25,-0.42 0.7,-0.42 z"
           inkscape:connector-curvature="0"
           style="fill:#000000;stroke-width:0" /><path
           id="path19410"
           d="m 507.4,424.64 h 0.04 l 0.04,0.01 h 0.04 0.04 0.04 0.04 0.03 0.04 0.03 0.04 l 0.06,0.01 0.06,0.01 0.07,0.01 H 508 l 0.03,0.01 0.03,0.01 0.03,0.01 0.03,0.01 0.02,0.01 0.03,0.01 0.03,0.01 0.03,0.01 0.03,0.02 0.03,0.02 0.03,0.01 0.03,0.02 0.04,0.02 0.03,0.02 0.03,0.02 c 0.14,0.15 0.39,0.5 0.39,0.85 0,0.8 -0.73,0.8 -1.16,0.8 H 497 c -0.57,0 -1.68,0 -3.14,-1.25 -0.68,-0.6 -1.8,-1.86 -1.8,-2.16 0,-0.36 0.34,-0.36 0.5,-0.36 0.34,0 0.34,0.03 0.55,0.25 0.84,1.08 2.04,1.62 3.56,1.62 h 1.76 c -0.89,-3.1 -2.17,-5.7 -3.03,-7.28 -0.37,-0.64 -0.37,-0.68 -0.37,-0.93 0,-0.58 0.43,-0.91 0.93,-0.91 1.05,0 1.4,1.16 1.97,3.17 0.58,1.94 1.03,3.74 1.6,5.95 h 3.26 c -0.09,-0.37 -0.79,-3.09 -0.79,-5.06 0,-1.72 0.62,-4.06 1.71,-4.06 0.6,0 1.3,0.58 1.3,1.23 0,0.27 -0.09,0.39 -0.28,0.69 -1.14,1.88 -1.14,4.06 -1.14,4.52 0,0.84 0.12,1.84 0.28,2.68 z"
           inkscape:connector-curvature="0"
           style="fill:#000000;stroke-width:0" /><polyline
           id="polyline19412"
           points="473,412 511.64,412 511.64,413.32 473,413.32 "
           style="fill:#000000;fill-rule:nonzero;stroke-width:0" /><path
           id="path19414"
           d="m 498.39,397.69 h -1.05 c -0.07,-0.48 -0.32,-2.01 -0.72,-2.26 -0.2,-0.16 -2.29,-0.16 -2.67,-0.16 h -4.87 c 1.64,1.22 3.48,2.61 4.98,3.61 2.24,1.55 4.33,3 4.33,5.64 0,3.19 -3.01,4.95 -6.58,4.95 -3.36,0 -5.83,-1.95 -5.83,-4.39 0,-1.29 1.1,-1.51 1.46,-1.51 0.67,0 1.47,0.45 1.47,1.47 0,0.89 -0.66,1.39 -1.43,1.46 0.69,1.13 2.14,1.88 3.82,1.88 2.4,0 4.42,-1.45 4.42,-3.89 0,-2.1 -1.44,-3.69 -3.36,-5.31 l -6.08,-5.16 c -0.25,-0.22 -0.26,-0.22 -0.3,-0.39 v -0.75 h 11.58 z"
           inkscape:connector-curvature="0"
           style="fill:#000000;stroke-width:0" /><path
           id="path19416"
           d="m 527.3,411.87 0.02,0.03 0.01,0.04 0.02,0.03 0.01,0.03 0.01,0.02 0.01,0.03 0.01,0.03 0.01,0.02 0.01,0.03 0.01,0.02 v 0.02 l 0.01,0.02 0.01,0.02 v 0.02 l 0.01,0.02 v 0.01 l 0.01,0.02 v 0.01 0.02 0.01 l 0.01,0.02 v 0.01 0.01 0.01 0.01 0.01 0.01 0.01 0 0.01 0.01 0 c 0,0.18 -0.06,0.3 -0.14,0.47 L 522,424.21 c -0.17,0.4 -0.32,0.68 -0.75,0.68 -0.37,0 -0.7,-0.33 -0.7,-0.71 0,-0.17 0.08,-0.29 0.16,-0.47 l 5.29,-11.28 -5.28,-11.22 c -0.17,-0.34 -0.17,-0.5 -0.17,-0.54 0,-0.38 0.33,-0.71 0.7,-0.71 0.4,0 0.6,0.32 0.75,0.63 z"
           inkscape:connector-curvature="0"
           style="fill:#000000;stroke-width:0" /><path
           id="path19418"
           d="m 565.32,417.64 h 0.03 0.04 0.04 0.04 0.04 0.04 0.05 l 0.04,0.01 h 0.04 l 0.05,0.01 h 0.04 l 0.05,0.01 0.04,0.01 0.04,0.01 0.05,0.02 0.04,0.01 0.04,0.02 0.04,0.02 0.04,0.02 0.03,0.02 0.04,0.03 0.03,0.03 0.03,0.03 0.01,0.02 0.02,0.02 0.01,0.02 0.01,0.01 0.01,0.02 0.01,0.03 0.01,0.02 0.01,0.02 0.01,0.02 0.01,0.03 0.01,0.02 v 0.03 l 0.01,0.03 v 0.02 0.03 l 0.01,0.03 v 0.03 0.03 c 0,0.71 -0.67,0.71 -1.06,0.71 h -18.61 c -0.41,0 -1.08,0 -1.08,-0.71 0,-0.68 0.7,-0.68 1.08,-0.68 z"
           inkscape:connector-curvature="0"
           style="fill:#000000;stroke-width:0" /><path
           id="path19420"
           d="m 565.32,405.82 h 0.03 0.04 0.04 l 0.04,0.01 h 0.05 0.04 0.04 0.05 l 0.04,0.01 0.05,0.01 h 0.04 l 0.04,0.01 0.05,0.01 0.04,0.01 0.04,0.02 0.04,0.01 0.04,0.02 0.04,0.02 0.04,0.02 0.04,0.03 0.03,0.02 0.03,0.03 0.03,0.04 0.01,0.01 0.02,0.02 0.01,0.02 0.01,0.02 0.01,0.02 0.01,0.02 0.01,0.02 0.01,0.03 0.01,0.02 0.01,0.02 0.01,0.03 v 0.03 l 0.01,0.02 v 0.03 0.03 l 0.01,0.03 v 0.03 0.04 c 0,0.68 -0.69,0.68 -1.06,0.68 h -18.61 c -0.38,0 -1.08,0 -1.08,-0.68 0,-0.71 0.67,-0.71 1.08,-0.71 z"
           inkscape:connector-curvature="0"
           style="fill:#000000;stroke-width:0" /><path
           id="path19422"
           d="m 565.32,411.73 h 0.03 0.04 0.04 0.04 0.05 0.04 l 0.04,0.01 h 0.05 l 0.04,0.01 h 0.05 l 0.04,0.01 0.04,0.01 0.05,0.01 0.04,0.01 0.04,0.01 0.04,0.02 0.04,0.02 0.04,0.02 0.04,0.02 0.04,0.02 0.03,0.03 0.03,0.03 0.03,0.03 0.01,0.02 0.02,0.02 0.01,0.02 0.01,0.02 0.01,0.02 0.01,0.02 0.01,0.02 0.01,0.02 0.01,0.03 0.01,0.02 0.01,0.03 v 0.02 l 0.01,0.03 v 0.03 0.03 l 0.01,0.03 v 0.03 0.03 c 0,0.69 -0.67,0.69 -1.06,0.69 h -18.61 c -0.41,0 -1.08,0 -1.08,-0.69 0,-0.7 0.67,-0.7 1.08,-0.7 z"
           inkscape:connector-curvature="0"
           style="fill:#000000;stroke-width:0" /><path
           id="path19424"
           d="m 597.82,423.36 v 0.04 l -0.01,0.05 -0.01,0.04 -0.01,0.05 -0.01,0.04 -0.01,0.04 -0.01,0.03 -0.02,0.04 -0.01,0.03 -0.01,0.03 -0.02,0.03 -0.01,0.03 -0.02,0.02 -0.01,0.03 -0.02,0.02 -0.02,0.02 -0.02,0.02 -0.02,0.01 -0.03,0.02 -0.02,0.02 -0.03,0.01 -0.03,0.01 -0.03,0.01 -0.03,0.01 -0.04,0.01 -0.03,0.01 h -0.04 l -0.04,0.01 h -0.04 -0.05 -0.05 -0.05 c -0.59,0 -0.75,-0.2 -1,-0.58 l -9.76,-14.15 c -1.03,-1.52 -1.91,-1.91 -3.53,-1.99 -0.47,-0.03 -0.47,-0.67 -0.47,-0.7 0,-0.34 0.29,-0.42 0.39,-0.42 0.36,0 0.78,0.08 1.12,0.08 0.43,0 0.85,0.01 1.27,0.01 0.48,0 0.92,-0.01 1.38,-0.01 0.45,0 0.96,-0.08 1.42,-0.08 0.17,0 0.59,0 0.59,0.7 0,0.39 -0.38,0.42 -0.47,0.42 -0.2,0 -1.17,0.05 -1.17,0.64 0,0.3 0.3,0.72 0.47,0.97 l 1.83,2.68 c 0.12,0.15 0.14,0.17 0.61,0.17 h 7.56 l -0.21,1.12 h -7.07 l 5.56,8.06 1.51,-8.06 0.21,-1.12 c 0.04,-0.3 0.06,-0.42 0.14,-0.72 0.08,-0.45 0.58,-2.94 0.58,-3.19 0,-0.55 -1.58,-0.55 -1.71,-0.55 -0.37,0 -0.76,0 -0.76,-0.7 0,-0.25 0.17,-0.42 0.45,-0.42 0.52,0 1.11,0.08 1.66,0.08 0.61,0 1.17,0.01 1.78,0.01 0.52,0 1.06,-0.01 1.59,-0.01 0.5,0 1.06,-0.08 1.56,-0.08 0.43,0 0.6,0.3 0.6,0.7 0,0.42 -0.39,0.42 -0.73,0.42 -1.66,0 -1.68,0.18 -1.79,0.72 z"
           inkscape:connector-curvature="0"
           style="fill:#000000;stroke-width:0" /><polygon
           id="polygon19426"
           points="606.57,422.61 606.57,420.69 614.83,420.69 614.83,422.61 "
           style="fill:#000000;stroke-width:0" /><path
           id="path19428"
           d="m 627.2,432.12 v 0.04 0.03 0.04 0.03 0.03 0.03 0.03 l -0.01,0.02 v 0.03 0.02 0.03 0.02 l -0.01,0.03 v 0.02 0.02 l -0.01,0.02 v 0.02 0.02 l -0.01,0.03 -0.02,0.03 -0.01,0.03 -0.01,0.03 -0.02,0.02 -0.02,0.02 -0.02,0.02 -0.03,0.02 -0.02,0.01 -0.03,0.01 -0.04,0.02 h -0.03 l -0.04,0.01 -0.04,0.01 h -0.02 -0.03 l -0.02,0.01 h -0.02 -0.03 -0.03 -0.02 -0.03 -0.03 -0.03 -0.03 -0.03 -0.04 -0.03 -0.04 -0.03 -0.04 l -0.04,0.01 c -1.76,-1.6 -4.53,-1.6 -5.03,-1.6 h -0.42 v -1.09 h 0.42 c 0.58,0 2.19,0.06 3.64,0.69 v -12.46 c 0,-0.76 0,-1.04 -2.64,-1.04 h -1.25 v -1.1 c 1.38,0.1 3.59,0.1 5.03,0.1 1.46,0 3.68,0 5.03,-0.1 v 1.1 h -1.23 c -2.64,0 -2.64,0.28 -2.64,1.04 z"
           inkscape:connector-curvature="0"
           style="fill:#000000;stroke-width:0" /><path
           id="path19430"
           d="m 620.19,400.09 h -1.04 c -0.08,-0.48 -0.33,-2.01 -0.72,-2.26 -0.21,-0.16 -2.3,-0.16 -2.68,-0.16 h -4.87 c 1.64,1.22 3.48,2.61 4.98,3.61 2.24,1.55 4.33,3 4.33,5.64 0,3.19 -3.01,4.96 -6.58,4.96 -3.36,0 -5.83,-1.96 -5.83,-4.4 0,-1.29 1.1,-1.51 1.46,-1.51 0.67,0 1.47,0.45 1.47,1.47 0,0.89 -0.66,1.39 -1.43,1.47 0.69,1.12 2.15,1.87 3.82,1.87 2.4,0 4.42,-1.45 4.42,-3.89 0,-2.09 -1.44,-3.69 -3.36,-5.31 l -6.08,-5.16 c -0.25,-0.22 -0.26,-0.22 -0.3,-0.39 v -0.75 h 11.58 z"
           inkscape:connector-curvature="0"
           style="fill:#000000;stroke-width:0" /></g>
    </g>
    <g
       id="g19582"
       transform="translate(94.342862,138.79292)"
       inkscape:export-filename="/home/user/Downloads/master_thesis/images/chshmnts.png"
       inkscape:export-xdpi="200"
       inkscape:export-ydpi="200">
      <g
         word-spacing="normal"
         letter-spacing="normal"
         font-size-adjust="none"
         font-stretch="normal"
         font-weight="normal"
         font-variant="normal"
         font-style="normal"
         stroke-miterlimit="10.433"
         xml:space="preserve"
         transform="matrix(0.3,0,0,-0.3,-52.5,222.75)"
         id="g19580"
         style="font-style:normal;font-variant:normal;font-weight:normal;font-stretch:normal;letter-spacing:normal;word-spacing:normal;text-anchor:start;fill:none;fill-opacity:1;fill-rule:evenodd;stroke:#000000;stroke-linecap:butt;stroke-linejoin:miter;stroke-miterlimit:10.43299961;stroke-dasharray:none;stroke-dashoffset:0;stroke-opacity:1"><path
           id="path19556"
           d="m 461.93,423.81 v 0.04 0.04 0.04 l -0.01,0.04 v 0.05 0.04 0.04 0.05 l -0.01,0.04 -0.01,0.05 v 0.04 l -0.01,0.05 -0.01,0.04 -0.01,0.05 -0.02,0.04 -0.01,0.04 -0.02,0.04 -0.02,0.04 -0.02,0.04 -0.03,0.03 -0.02,0.04 -0.03,0.03 -0.04,0.03 -0.01,0.01 -0.02,0.02 -0.02,0.01 -0.02,0.01 -0.02,0.01 -0.02,0.01 -0.02,0.01 -0.03,0.01 -0.02,0.01 -0.02,0.01 h -0.03 l -0.03,0.01 -0.02,0.01 h -0.03 -0.03 l -0.03,0.01 h -0.03 -0.04 c -0.7,0 -0.7,-0.68 -0.7,-1.08 v -22.77 c 0,-0.4 0,-1.08 0.7,-1.08 0.71,0 0.71,0.68 0.71,1.08 z"
           inkscape:connector-curvature="0"
           style="fill:#000000;stroke-width:0" /><path
           id="path19558"
           d="m 481.14,424.05 h 0.21 l 0.21,-0.02 0.21,-0.02 0.19,-0.02 0.2,-0.04 0.19,-0.05 0.18,-0.05 0.18,-0.06 0.17,-0.07 0.16,-0.07 0.16,-0.09 0.16,-0.09 0.14,-0.1 0.15,-0.1 0.13,-0.12 0.13,-0.12 0.12,-0.13 0.11,-0.13 0.11,-0.14 0.1,-0.15 0.1,-0.16 0.08,-0.16 0.08,-0.17 0.07,-0.18 0.06,-0.18 0.06,-0.19 0.04,-0.2 0.04,-0.2 0.03,-0.21 0.03,-0.22 0.01,-0.22 v -0.23 c 0,-2.55 -1.56,-3.89 -3.78,-3.89 -0.28,0 -3.25,0 -4.51,1.3 1.03,0.15 1.32,0.92 1.32,1.51 0,0.92 -0.7,1.53 -1.53,1.53 -0.79,0 -1.53,-0.53 -1.53,-1.57 0,-2.6 2.94,-3.79 6.31,-3.79 4.1,0 6.65,2.47 6.65,4.88 0,2.05 -1.83,3.8 -4.68,4.44 3,0.97 3.8,2.87 3.8,4.26 0,2.05 -2.55,3.56 -5.69,3.56 -3.06,0 -5.53,-1.29 -5.53,-3.54 0,-1.17 0.95,-1.47 1.42,-1.47 0.72,0 1.42,0.53 1.42,1.42 0,0.58 -0.29,1.28 -1.18,1.42 1.06,1.14 3.28,1.22 3.79,1.22 1.83,0 3.13,-0.92 3.13,-2.61 0,-1.45 -0.95,-3.72 -3.56,-3.86 -0.71,-0.03 -0.8,-0.04 -1.46,-0.08 -0.26,-0.03 -0.54,-0.04 -0.54,-0.42 0,-0.42 0.25,-0.42 0.7,-0.42 z"
           inkscape:connector-curvature="0"
           style="fill:#000000;stroke-width:0" /><path
           id="path19560"
           d="m 507.4,424.64 h 0.04 l 0.04,0.01 h 0.04 0.04 0.04 0.04 0.03 0.04 0.03 0.04 l 0.06,0.01 0.06,0.01 0.07,0.01 H 508 l 0.03,0.01 0.03,0.01 0.03,0.01 0.03,0.01 0.02,0.01 0.03,0.01 0.03,0.01 0.03,0.01 0.03,0.02 0.03,0.02 0.03,0.01 0.03,0.02 0.04,0.02 0.03,0.02 0.03,0.02 c 0.14,0.15 0.39,0.5 0.39,0.85 0,0.8 -0.73,0.8 -1.16,0.8 H 497 c -0.57,0 -1.68,0 -3.14,-1.25 -0.68,-0.6 -1.8,-1.86 -1.8,-2.16 0,-0.36 0.34,-0.36 0.5,-0.36 0.34,0 0.34,0.03 0.55,0.25 0.84,1.08 2.04,1.62 3.56,1.62 h 1.76 c -0.89,-3.1 -2.17,-5.7 -3.03,-7.28 -0.37,-0.64 -0.37,-0.68 -0.37,-0.93 0,-0.58 0.43,-0.91 0.93,-0.91 1.05,0 1.4,1.16 1.97,3.17 0.58,1.94 1.03,3.74 1.6,5.95 h 3.26 c -0.09,-0.37 -0.79,-3.09 -0.79,-5.06 0,-1.72 0.62,-4.06 1.71,-4.06 0.6,0 1.3,0.58 1.3,1.23 0,0.27 -0.09,0.39 -0.28,0.69 -1.14,1.88 -1.14,4.06 -1.14,4.52 0,0.84 0.12,1.84 0.28,2.68 z"
           inkscape:connector-curvature="0"
           style="fill:#000000;stroke-width:0" /><polyline
           id="polyline19562"
           points="473,412 511.64,412 511.64,413.32 473,413.32 "
           style="fill:#000000;fill-rule:nonzero;stroke-width:0" /><path
           id="path19564"
           d="m 499.09,396.94 v 1.1 h -3.12 V 409 c 0,0.6 -0.02,0.74 -0.67,0.74 -0.5,0 -0.52,-0.02 -0.8,-0.38 l -9.22,-11.32 v -1.1 h 8.3 l 0.2,1.1 h -7.33 l 7.33,9.01 v -9.01 l -0.2,-1.1 V 395 c 0,-0.78 0,-1.03 -2.16,-1.03 h -0.87 v -1.09 c 1.17,0.05 2.78,0.09 4.23,0.09 1.44,0 3.03,-0.04 4.24,-0.09 v 1.09 h -0.88 c -2.17,0 -2.17,0.25 -2.17,1.03 v 1.94 z"
           inkscape:connector-curvature="0"
           style="fill:#000000;stroke-width:0" /><path
           id="path19566"
           d="m 527.3,411.87 0.02,0.03 0.01,0.04 0.02,0.03 0.01,0.03 0.01,0.02 0.01,0.03 0.01,0.03 0.01,0.02 0.01,0.03 0.01,0.02 v 0.02 l 0.01,0.02 0.01,0.02 v 0.02 l 0.01,0.02 v 0.01 l 0.01,0.02 v 0.01 0.02 0.01 l 0.01,0.02 v 0.01 0.01 0.01 0.01 0.01 0.01 0.01 0 0.01 0.01 0 c 0,0.18 -0.06,0.3 -0.14,0.47 L 522,424.21 c -0.17,0.4 -0.32,0.68 -0.75,0.68 -0.37,0 -0.7,-0.33 -0.7,-0.71 0,-0.17 0.08,-0.29 0.16,-0.47 l 5.29,-11.28 -5.28,-11.22 c -0.17,-0.34 -0.17,-0.5 -0.17,-0.54 0,-0.38 0.33,-0.71 0.7,-0.71 0.4,0 0.6,0.32 0.75,0.63 z"
           inkscape:connector-curvature="0"
           style="fill:#000000;stroke-width:0" /><path
           id="path19568"
           d="m 565.32,417.64 h 0.03 0.04 0.04 0.04 0.04 0.04 0.05 l 0.04,0.01 h 0.04 l 0.05,0.01 h 0.04 l 0.05,0.01 0.04,0.01 0.04,0.01 0.05,0.02 0.04,0.01 0.04,0.02 0.04,0.02 0.04,0.02 0.03,0.02 0.04,0.03 0.03,0.03 0.03,0.03 0.01,0.02 0.02,0.02 0.01,0.02 0.01,0.01 0.01,0.02 0.01,0.03 0.01,0.02 0.01,0.02 0.01,0.02 0.01,0.03 0.01,0.02 v 0.03 l 0.01,0.03 v 0.02 0.03 l 0.01,0.03 v 0.03 0.03 c 0,0.71 -0.67,0.71 -1.06,0.71 h -18.61 c -0.41,0 -1.08,0 -1.08,-0.71 0,-0.68 0.7,-0.68 1.08,-0.68 z"
           inkscape:connector-curvature="0"
           style="fill:#000000;stroke-width:0" /><path
           id="path19570"
           d="m 565.32,405.82 h 0.03 0.04 0.04 l 0.04,0.01 h 0.05 0.04 0.04 0.05 l 0.04,0.01 0.05,0.01 h 0.04 l 0.04,0.01 0.05,0.01 0.04,0.01 0.04,0.02 0.04,0.01 0.04,0.02 0.04,0.02 0.04,0.02 0.04,0.03 0.03,0.02 0.03,0.03 0.03,0.04 0.01,0.01 0.02,0.02 0.01,0.02 0.01,0.02 0.01,0.02 0.01,0.02 0.01,0.02 0.01,0.03 0.01,0.02 0.01,0.02 0.01,0.03 v 0.03 l 0.01,0.02 v 0.03 0.03 l 0.01,0.03 v 0.03 0.04 c 0,0.68 -0.69,0.68 -1.06,0.68 h -18.61 c -0.38,0 -1.08,0 -1.08,-0.68 0,-0.71 0.67,-0.71 1.08,-0.71 z"
           inkscape:connector-curvature="0"
           style="fill:#000000;stroke-width:0" /><path
           id="path19572"
           d="m 565.32,411.73 h 0.03 0.04 0.04 0.04 0.05 0.04 l 0.04,0.01 h 0.05 l 0.04,0.01 h 0.05 l 0.04,0.01 0.04,0.01 0.05,0.01 0.04,0.01 0.04,0.01 0.04,0.02 0.04,0.02 0.04,0.02 0.04,0.02 0.04,0.02 0.03,0.03 0.03,0.03 0.03,0.03 0.01,0.02 0.02,0.02 0.01,0.02 0.01,0.02 0.01,0.02 0.01,0.02 0.01,0.02 0.01,0.02 0.01,0.03 0.01,0.02 0.01,0.03 v 0.02 l 0.01,0.03 v 0.03 0.03 l 0.01,0.03 v 0.03 0.03 c 0,0.69 -0.67,0.69 -1.06,0.69 h -18.61 c -0.41,0 -1.08,0 -1.08,-0.69 0,-0.7 0.67,-0.7 1.08,-0.7 z"
           inkscape:connector-curvature="0"
           style="fill:#000000;stroke-width:0" /><path
           id="path19574"
           d="m 585.89,408.26 -0.02,-0.07 -0.02,-0.06 -0.01,-0.06 -0.02,-0.06 -0.02,-0.06 -0.02,-0.05 -0.01,-0.05 -0.03,-0.05 -0.02,-0.05 -0.02,-0.04 -0.03,-0.04 -0.03,-0.03 -0.04,-0.04 -0.04,-0.03 -0.04,-0.03 -0.05,-0.03 -0.05,-0.02 -0.06,-0.03 -0.06,-0.02 -0.07,-0.02 -0.04,-0.01 h -0.04 l -0.04,-0.01 -0.04,-0.01 -0.05,-0.01 h -0.04 l -0.05,-0.01 h -0.05 l -0.05,-0.01 -0.06,-0.01 h -0.05 -0.06 l -0.06,-0.01 h -0.07 -0.06 l -0.07,-0.01 h -0.07 -0.07 -0.07 -0.08 -0.08 l -0.08,-0.01 h -0.09 -0.08 c -0.66,0 -1.05,0 -1.05,-0.7 0,-0.42 0.39,-0.42 0.83,-0.42 h 10.83 c 4.48,0 8.12,2.8 8.12,5.28 0,1.55 -1.45,3.22 -4.84,3.64 2.47,0.31 5.98,1.97 5.98,4.45 0,2.1 -2.47,3.64 -5.86,3.64 l -0.44,-1.12 c 2.47,0 3.65,-1.27 3.65,-2.59 0,-2.02 -2.71,-4.04 -6.19,-4.04 h -4.71 l -0.23,-0.84 h 6.08 c 2.55,0 3.81,-1.47 3.81,-3.05 0,-2.4 -2.95,-4.25 -6.04,-4.25 h -4.82 c -0.18,0 -0.55,0 -0.8,0.05 0.04,0.2 0.04,0.25 0.08,0.45 l 1.69,6.8 0.23,0.84 1.44,5.82 c 0.21,0.76 0.21,0.81 1.25,0.81 h 4.56 l 0.44,1.12 h -10.2 c -0.47,0 -0.87,0 -0.87,-0.7 0,-0.42 0.32,-0.42 0.92,-0.42 0.25,0 1.08,0 1.59,-0.14 0,-0.31 0,-0.36 -0.08,-0.63 z"
           inkscape:connector-curvature="0"
           style="fill:#000000;stroke-width:0" /><path
           id="path19576"
           d="m 616.64,432.12 v 0.04 0.03 0.04 0.03 0.03 0.03 0.03 0.02 l -0.01,0.03 v 0.02 0.03 0.02 0.03 l -0.01,0.02 v 0.02 0.02 l -0.01,0.02 v 0.02 l -0.01,0.03 -0.01,0.03 -0.02,0.03 -0.01,0.03 -0.02,0.02 -0.02,0.02 -0.02,0.02 -0.03,0.02 -0.02,0.01 -0.03,0.01 -0.03,0.02 h -0.04 l -0.04,0.01 -0.04,0.01 h -0.02 -0.02 l -0.03,0.01 h -0.02 -0.03 -0.02 -0.03 -0.03 -0.03 -0.03 -0.03 -0.03 -0.04 -0.03 -0.03 -0.04 -0.04 l -0.04,0.01 c -1.76,-1.6 -4.53,-1.6 -5.03,-1.6 h -0.42 v -1.09 h 0.42 c 0.58,0 2.19,0.06 3.64,0.69 v -12.46 c 0,-0.76 0,-1.04 -2.64,-1.04 h -1.25 v -1.1 c 1.38,0.1 3.6,0.1 5.03,0.1 1.46,0 3.68,0 5.04,-0.1 v 1.1 h -1.24 c -2.64,0 -2.64,0.28 -2.64,1.04 z"
           inkscape:connector-curvature="0"
           style="fill:#000000;stroke-width:0" /><path
           id="path19578"
           d="m 620.19,400.09 h -1.04 c -0.08,-0.48 -0.33,-2.01 -0.72,-2.26 -0.21,-0.16 -2.3,-0.16 -2.68,-0.16 h -4.87 c 1.64,1.22 3.48,2.61 4.98,3.61 2.24,1.55 4.33,3 4.33,5.64 0,3.19 -3.01,4.96 -6.58,4.96 -3.36,0 -5.83,-1.96 -5.83,-4.4 0,-1.29 1.1,-1.51 1.46,-1.51 0.67,0 1.47,0.45 1.47,1.47 0,0.89 -0.66,1.39 -1.43,1.47 0.69,1.12 2.15,1.87 3.82,1.87 2.4,0 4.42,-1.45 4.42,-3.89 0,-2.09 -1.44,-3.69 -3.36,-5.31 l -6.08,-5.16 c -0.25,-0.22 -0.26,-0.22 -0.3,-0.39 v -0.75 h 11.58 z"
           inkscape:connector-curvature="0"
           style="fill:#000000;stroke-width:0" /></g>
    </g>
    <g
       id="g19737"
       transform="translate(-45.81071,43.542864)"
       inkscape:export-filename="/home/user/Downloads/master_thesis/images/chshmnts.png"
       inkscape:export-xdpi="200"
       inkscape:export-ydpi="200">
      <g
         word-spacing="normal"
         letter-spacing="normal"
         font-size-adjust="none"
         font-stretch="normal"
         font-weight="normal"
         font-variant="normal"
         font-style="normal"
         stroke-miterlimit="10.433"
         xml:space="preserve"
         transform="matrix(0.3,0,0,-0.3,-52.5,222.75)"
         id="g19735"
         style="font-style:normal;font-variant:normal;font-weight:normal;font-stretch:normal;letter-spacing:normal;word-spacing:normal;text-anchor:start;fill:none;fill-opacity:1;fill-rule:evenodd;stroke:#000000;stroke-linecap:butt;stroke-linejoin:miter;stroke-miterlimit:10.43299961;stroke-dasharray:none;stroke-dashoffset:0;stroke-opacity:1"><path
           id="path19709"
           d="m 461.93,423.81 v 0.04 0.04 0.04 l -0.01,0.04 v 0.05 0.04 0.04 0.05 l -0.01,0.04 -0.01,0.05 v 0.04 l -0.01,0.05 -0.01,0.04 -0.01,0.05 -0.02,0.04 -0.01,0.04 -0.02,0.04 -0.02,0.04 -0.02,0.04 -0.03,0.03 -0.02,0.04 -0.03,0.03 -0.04,0.03 -0.01,0.01 -0.02,0.02 -0.02,0.01 -0.02,0.01 -0.02,0.01 -0.02,0.01 -0.02,0.01 -0.03,0.01 -0.02,0.01 -0.02,0.01 h -0.03 l -0.03,0.01 -0.02,0.01 h -0.03 -0.03 l -0.03,0.01 h -0.03 -0.04 c -0.7,0 -0.7,-0.68 -0.7,-1.08 v -22.77 c 0,-0.4 0,-1.08 0.7,-1.08 0.71,0 0.71,0.68 0.71,1.08 z"
           inkscape:connector-curvature="0"
           style="fill:#000000;stroke-width:0" /><path
           id="path19711"
           d="m 488.48,430.75 0.01,0.01 0.02,0.01 0.01,0.01 0.01,0.01 v 0.01 l 0.01,0.01 0.01,0.01 0.01,0.01 0.01,0.01 0.01,0.01 0.01,0.01 0.02,0.02 0.01,0.01 0.01,0.01 0.01,0.02 0.01,0.01 0.01,0.01 0.01,0.01 0.01,0.01 0.01,0.01 v 0.01 l 0.01,0.01 V 431 l 0.01,0.01 v 0.01 0.01 l 0.01,0.01 v 0.01 0.01 l 0.01,0.02 v 0.02 0.01 0.01 0.01 0.01 0.71 h -6.01 c -0.66,0 -4.3,0.09 -4.74,0.17 -0.57,0.12 -0.6,0.37 -0.65,0.62 h -1.05 l -0.94,-5.6 h 1.05 c 0.05,0.37 0.31,2 0.73,2.26 0.16,0.13 2.5,0.16 2.88,0.16 h 5.92 c -1.04,-1.22 -2.39,-2.58 -3.36,-3.8 -2.97,-3.78 -3.34,-7.37 -3.34,-8.89 0,-1.38 0.87,-1.52 1.33,-1.52 1.31,0 1.31,1.27 1.31,1.57 v 0.5 c 0,4.43 0.95,7.17 2.45,8.82 z"
           inkscape:connector-curvature="0"
           style="fill:#000000;stroke-width:0" /><path
           id="path19713"
           d="m 507.4,424.64 h 0.04 l 0.04,0.01 h 0.04 0.04 0.04 0.04 0.03 0.04 0.03 0.04 l 0.06,0.01 0.06,0.01 0.07,0.01 H 508 l 0.03,0.01 0.03,0.01 0.03,0.01 0.03,0.01 0.02,0.01 0.03,0.01 0.03,0.01 0.03,0.01 0.03,0.02 0.03,0.02 0.03,0.01 0.03,0.02 0.04,0.02 0.03,0.02 0.03,0.02 c 0.14,0.15 0.39,0.5 0.39,0.85 0,0.8 -0.73,0.8 -1.16,0.8 H 497 c -0.57,0 -1.68,0 -3.14,-1.25 -0.68,-0.6 -1.8,-1.86 -1.8,-2.16 0,-0.36 0.34,-0.36 0.5,-0.36 0.34,0 0.34,0.03 0.55,0.25 0.84,1.08 2.04,1.62 3.56,1.62 h 1.76 c -0.89,-3.1 -2.17,-5.7 -3.03,-7.28 -0.37,-0.64 -0.37,-0.68 -0.37,-0.93 0,-0.58 0.43,-0.91 0.93,-0.91 1.05,0 1.4,1.16 1.97,3.17 0.58,1.94 1.03,3.74 1.6,5.95 h 3.26 c -0.09,-0.37 -0.79,-3.09 -0.79,-5.06 0,-1.72 0.62,-4.06 1.71,-4.06 0.6,0 1.3,0.58 1.3,1.23 0,0.27 -0.09,0.39 -0.28,0.69 -1.14,1.88 -1.14,4.06 -1.14,4.52 0,0.84 0.12,1.84 0.28,2.68 z"
           inkscape:connector-curvature="0"
           style="fill:#000000;stroke-width:0" /><polyline
           id="polyline19715"
           points="473,412 511.64,412 511.64,413.32 473,413.32 "
           style="fill:#000000;fill-rule:nonzero;stroke-width:0" /><path
           id="path19717"
           d="m 499.09,396.94 v 1.1 h -3.12 V 409 c 0,0.6 -0.02,0.74 -0.67,0.74 -0.5,0 -0.52,-0.02 -0.8,-0.38 l -9.22,-11.32 v -1.1 h 8.3 l 0.2,1.1 h -7.33 l 7.33,9.01 v -9.01 l -0.2,-1.1 V 395 c 0,-0.78 0,-1.03 -2.16,-1.03 h -0.87 v -1.09 c 1.17,0.05 2.78,0.09 4.23,0.09 1.44,0 3.03,-0.04 4.24,-0.09 v 1.09 h -0.88 c -2.17,0 -2.17,0.25 -2.17,1.03 v 1.94 z"
           inkscape:connector-curvature="0"
           style="fill:#000000;stroke-width:0" /><path
           id="path19719"
           d="m 527.3,411.87 0.02,0.03 0.01,0.04 0.02,0.03 0.01,0.03 0.01,0.02 0.01,0.03 0.01,0.03 0.01,0.02 0.01,0.03 0.01,0.02 v 0.02 l 0.01,0.02 0.01,0.02 v 0.02 l 0.01,0.02 v 0.01 l 0.01,0.02 v 0.01 0.02 0.01 l 0.01,0.02 v 0.01 0.01 0.01 0.01 0.01 0.01 0.01 0 0.01 0.01 0 c 0,0.18 -0.06,0.3 -0.14,0.47 L 522,424.21 c -0.17,0.4 -0.32,0.68 -0.75,0.68 -0.37,0 -0.7,-0.33 -0.7,-0.71 0,-0.17 0.08,-0.29 0.16,-0.47 l 5.29,-11.28 -5.28,-11.22 c -0.17,-0.34 -0.17,-0.5 -0.17,-0.54 0,-0.38 0.33,-0.71 0.7,-0.71 0.4,0 0.6,0.32 0.75,0.63 z"
           inkscape:connector-curvature="0"
           style="fill:#000000;stroke-width:0" /><path
           id="path19721"
           d="m 565.32,417.64 h 0.03 0.04 0.04 0.04 0.04 0.04 0.05 l 0.04,0.01 h 0.04 l 0.05,0.01 h 0.04 l 0.05,0.01 0.04,0.01 0.04,0.01 0.05,0.02 0.04,0.01 0.04,0.02 0.04,0.02 0.04,0.02 0.03,0.02 0.04,0.03 0.03,0.03 0.03,0.03 0.01,0.02 0.02,0.02 0.01,0.02 0.01,0.01 0.01,0.02 0.01,0.03 0.01,0.02 0.01,0.02 0.01,0.02 0.01,0.03 0.01,0.02 v 0.03 l 0.01,0.03 v 0.02 0.03 l 0.01,0.03 v 0.03 0.03 c 0,0.71 -0.67,0.71 -1.06,0.71 h -18.61 c -0.41,0 -1.08,0 -1.08,-0.71 0,-0.68 0.7,-0.68 1.08,-0.68 z"
           inkscape:connector-curvature="0"
           style="fill:#000000;stroke-width:0" /><path
           id="path19723"
           d="m 565.32,405.82 h 0.03 0.04 0.04 l 0.04,0.01 h 0.05 0.04 0.04 0.05 l 0.04,0.01 0.05,0.01 h 0.04 l 0.04,0.01 0.05,0.01 0.04,0.01 0.04,0.02 0.04,0.01 0.04,0.02 0.04,0.02 0.04,0.02 0.04,0.03 0.03,0.02 0.03,0.03 0.03,0.04 0.01,0.01 0.02,0.02 0.01,0.02 0.01,0.02 0.01,0.02 0.01,0.02 0.01,0.02 0.01,0.03 0.01,0.02 0.01,0.02 0.01,0.03 v 0.03 l 0.01,0.02 v 0.03 0.03 l 0.01,0.03 v 0.03 0.04 c 0,0.68 -0.69,0.68 -1.06,0.68 h -18.61 c -0.38,0 -1.08,0 -1.08,-0.68 0,-0.71 0.67,-0.71 1.08,-0.71 z"
           inkscape:connector-curvature="0"
           style="fill:#000000;stroke-width:0" /><path
           id="path19725"
           d="m 565.32,411.73 h 0.03 0.04 0.04 0.04 0.05 0.04 l 0.04,0.01 h 0.05 l 0.04,0.01 h 0.05 l 0.04,0.01 0.04,0.01 0.05,0.01 0.04,0.01 0.04,0.01 0.04,0.02 0.04,0.02 0.04,0.02 0.04,0.02 0.04,0.02 0.03,0.03 0.03,0.03 0.03,0.03 0.01,0.02 0.02,0.02 0.01,0.02 0.01,0.02 0.01,0.02 0.01,0.02 0.01,0.02 0.01,0.02 0.01,0.03 0.01,0.02 0.01,0.03 v 0.02 l 0.01,0.03 v 0.03 0.03 l 0.01,0.03 v 0.03 0.03 c 0,0.69 -0.67,0.69 -1.06,0.69 h -18.61 c -0.41,0 -1.08,0 -1.08,-0.69 0,-0.7 0.67,-0.7 1.08,-0.7 z"
           inkscape:connector-curvature="0"
           style="fill:#000000;stroke-width:0" /><path
           id="path19727"
           d="m 585.89,408.26 -0.02,-0.07 -0.02,-0.06 -0.01,-0.06 -0.02,-0.06 -0.02,-0.06 -0.02,-0.05 -0.01,-0.05 -0.03,-0.05 -0.02,-0.05 -0.02,-0.04 -0.03,-0.04 -0.03,-0.03 -0.04,-0.04 -0.04,-0.03 -0.04,-0.03 -0.05,-0.03 -0.05,-0.02 -0.06,-0.03 -0.06,-0.02 -0.07,-0.02 -0.04,-0.01 h -0.04 l -0.04,-0.01 -0.04,-0.01 -0.05,-0.01 h -0.04 l -0.05,-0.01 h -0.05 l -0.05,-0.01 -0.06,-0.01 h -0.05 -0.06 l -0.06,-0.01 h -0.07 -0.06 l -0.07,-0.01 h -0.07 -0.07 -0.07 -0.08 -0.08 l -0.08,-0.01 h -0.09 -0.08 c -0.66,0 -1.05,0 -1.05,-0.7 0,-0.42 0.39,-0.42 0.83,-0.42 h 10.83 c 4.48,0 8.12,2.8 8.12,5.28 0,1.55 -1.45,3.22 -4.84,3.64 2.47,0.31 5.98,1.97 5.98,4.45 0,2.1 -2.47,3.64 -5.86,3.64 l -0.44,-1.12 c 2.47,0 3.65,-1.27 3.65,-2.59 0,-2.02 -2.71,-4.04 -6.19,-4.04 h -4.71 l -0.23,-0.84 h 6.08 c 2.55,0 3.81,-1.47 3.81,-3.05 0,-2.4 -2.95,-4.25 -6.04,-4.25 h -4.82 c -0.18,0 -0.55,0 -0.8,0.05 0.04,0.2 0.04,0.25 0.08,0.45 l 1.69,6.8 0.23,0.84 1.44,5.82 c 0.21,0.76 0.21,0.81 1.25,0.81 h 4.56 l 0.44,1.12 h -10.2 c -0.47,0 -0.87,0 -0.87,-0.7 0,-0.42 0.32,-0.42 0.92,-0.42 0.25,0 1.08,0 1.59,-0.14 0,-0.31 0,-0.36 -0.08,-0.63 z"
           inkscape:connector-curvature="0"
           style="fill:#000000;stroke-width:0" /><polygon
           id="polygon19729"
           points="607.77,420.69 616.03,420.69 616.03,422.61 607.77,422.61 "
           style="fill:#000000;stroke-width:0" /><path
           id="path19731"
           d="m 628.4,432.12 v 0.04 0.03 0.04 0.03 0.03 0.03 l -0.01,0.03 v 0.02 0.03 0.02 0.03 0.02 l -0.01,0.03 v 0.02 0.02 l -0.01,0.02 v 0.02 l -0.01,0.02 -0.01,0.03 -0.01,0.03 -0.01,0.03 -0.02,0.03 -0.01,0.02 -0.02,0.02 -0.02,0.02 -0.03,0.02 -0.03,0.01 -0.03,0.01 -0.03,0.02 h -0.03 l -0.04,0.01 -0.04,0.01 h -0.02 -0.03 l -0.02,0.01 h -0.03 -0.02 -0.03 -0.02 -0.03 -0.03 -0.03 -0.03 -0.03 -0.04 -0.03 -0.04 -0.03 -0.04 l -0.04,0.01 c -1.76,-1.6 -4.53,-1.6 -5.03,-1.6 h -0.42 v -1.09 h 0.42 c 0.58,0 2.19,0.06 3.64,0.69 v -12.46 c 0,-0.76 0,-1.04 -2.64,-1.04 h -1.25 v -1.1 c 1.38,0.1 3.59,0.1 5.03,0.1 1.46,0 3.67,0 5.03,-0.1 v 1.1 h -1.23 c -2.64,0 -2.64,0.28 -2.64,1.04 z"
           inkscape:connector-curvature="0"
           style="fill:#000000;stroke-width:0" /><path
           id="path19733"
           d="m 620.19,400.09 h -1.04 c -0.08,-0.48 -0.33,-2.01 -0.72,-2.26 -0.21,-0.16 -2.3,-0.16 -2.68,-0.16 h -4.87 c 1.64,1.22 3.48,2.61 4.98,3.61 2.24,1.55 4.33,3 4.33,5.64 0,3.19 -3.01,4.96 -6.58,4.96 -3.36,0 -5.83,-1.96 -5.83,-4.4 0,-1.29 1.1,-1.51 1.46,-1.51 0.67,0 1.47,0.45 1.47,1.47 0,0.89 -0.66,1.39 -1.43,1.47 0.69,1.12 2.15,1.87 3.82,1.87 2.4,0 4.42,-1.45 4.42,-3.89 0,-2.09 -1.44,-3.69 -3.36,-5.31 l -6.08,-5.16 c -0.25,-0.22 -0.26,-0.22 -0.3,-0.39 v -0.75 h 11.58 z"
           inkscape:connector-curvature="0"
           style="fill:#000000;stroke-width:0" /></g>
    </g>
    <rect
       style="opacity:0.98000004;fill:none;fill-opacity:1;stroke:none;stroke-width:0.528;stroke-linejoin:round;stroke-miterlimit:4;stroke-dasharray:none;stroke-dashoffset:0;stroke-opacity:1"
       id="rect19756"
       width="243.41666"
       height="169.71132"
       x="-13.985119"
       y="22.967253"
       rx="6.8226252"
       ry="7.0969448" />
    <rect
       style="opacity:0.98000004;fill:none;fill-opacity:1;stroke:none;stroke-width:0.2;stroke-linejoin:round;stroke-miterlimit:4;stroke-dasharray:none;stroke-dashoffset:0;stroke-opacity:1"
       id="rect19824"
       width="228.67558"
       height="165.93155"
       x="-8.6934528"
       y="22.211302"
       rx="6.8226252"
       ry="7.0969448" />
    <rect
       style="opacity:0.98000004;fill:none;fill-opacity:1;stroke:none;stroke-width:0.528;stroke-linejoin:round;stroke-miterlimit:4;stroke-dasharray:none;stroke-dashoffset:0;stroke-opacity:1"
       id="rect19826"
       width="97.895836"
       height="39.309525"
       x="-172.73511"
       y="123.50892"
       rx="6.8226252"
       ry="7.0969448" />
    <rect
       style="opacity:0.98000004;fill:none;fill-opacity:1;stroke:none;stroke-width:0.528;stroke-linejoin:round;stroke-miterlimit:4;stroke-dasharray:none;stroke-dashoffset:0;stroke-opacity:1"
       id="rect19828"
       width="14.363094"
       height="14.363094"
       x="26.080357"
       y="174.91368"
       rx="6.8226252"
       ry="7.0969448"
       inkscape:export-filename="/home/user/Downloads/master_thesis/images/chshmnts.png"
       inkscape:export-xdpi="200"
       inkscape:export-ydpi="200" />
  </g>
</svg>
