<?xml version="1.0" encoding="UTF-8" standalone="no"?>
<svg
   xmlns:osb="http://www.openswatchbook.org/uri/2009/osb"
   xmlns:dc="http://purl.org/dc/elements/1.1/"
   xmlns:cc="http://creativecommons.org/ns#"
   xmlns:rdf="http://www.w3.org/1999/02/22-rdf-syntax-ns#"
   xmlns:svg="http://www.w3.org/2000/svg"
   xmlns="http://www.w3.org/2000/svg"
   xmlns:sodipodi="http://sodipodi.sourceforge.net/DTD/sodipodi-0.dtd"
   xmlns:inkscape="http://www.inkscape.org/namespaces/inkscape"
   width="210mm"
   height="297mm"
   viewBox="0 0 210 297"
   version="1.1"
   id="svg8"
   inkscape:version="1.0.1 (3bc2e813f5, 2020-09-07)"
   sodipodi:docname="correlations.svg"
   inkscape:export-filename="/home/user/Downloads/master_thesis/images/correlations.png"
   inkscape:export-xdpi="200"
   inkscape:export-ydpi="200">
  <defs
     id="defs2">
    <linearGradient
       id="linearGradient3908"
       osb:paint="solid">
      <stop
         style="stop-color:#ececec;stop-opacity:1;"
         offset="0"
         id="stop3906" />
    </linearGradient>
    <linearGradient
       id="linearGradient2299"
       osb:paint="solid">
      <stop
         style="stop-color:#ffd42a;stop-opacity:1;"
         offset="0"
         id="stop2297" />
    </linearGradient>
  </defs>
  <sodipodi:namedview
     id="base"
     pagecolor="#ffffff"
     bordercolor="#666666"
     borderopacity="1.0"
     inkscape:pageopacity="0.0"
     inkscape:pageshadow="2"
     inkscape:zoom="0.98994949"
     inkscape:cx="290.45727"
     inkscape:cy="613.20804"
     inkscape:document-units="mm"
     inkscape:current-layer="layer1"
     showgrid="false"
     inkscape:window-width="1280"
     inkscape:window-height="656"
     inkscape:window-x="0"
     inkscape:window-y="0"
     inkscape:window-maximized="1"
     inkscape:snap-global="false"
     inkscape:document-rotation="0" />
  <metadata
     id="metadata5">
    <rdf:RDF>
      <cc:Work
         rdf:about="">
        <dc:format>image/svg+xml</dc:format>
        <dc:type
           rdf:resource="http://purl.org/dc/dcmitype/StillImage" />
        <dc:title />
      </cc:Work>
    </rdf:RDF>
  </metadata>
  <g
     inkscape:label="Layer 1"
     inkscape:groupmode="layer"
     id="layer1">
    <rect
       style="opacity:1;fill:#666666;fill-opacity:1;stroke:#000000;stroke-width:0.8;stroke-linejoin:round;stroke-miterlimit:4;stroke-dasharray:none;stroke-dashoffset:0;stroke-opacity:0.98000002"
       id="rect827"
       width="96.042511"
       height="96.042511"
       x="-56.885078"
       y="-182.68112"
       transform="rotate(134.8781)" />
    <circle
       style="opacity:1;fill:#b3b3b3;fill-opacity:1;stroke:#000000;stroke-width:0.8;stroke-linejoin:round;stroke-miterlimit:4;stroke-dasharray:none;stroke-dashoffset:0;stroke-opacity:0.98000002"
       id="path817"
       cx="101.67559"
       cy="88.735115"
       r="48.002975" />
    <rect
       style="opacity:1;fill:#e6e6e6;fill-opacity:1;stroke:#000000;stroke-width:0.8;stroke-linejoin:round;stroke-miterlimit:4;stroke-dasharray:none;stroke-dashoffset:0;stroke-opacity:0.98000002;fill-rule:nonzero"
       id="rect819"
       width="68.814148"
       height="65.790344"
       x="67.419701"
       y="55.839943"
       rx="0"
       ry="0" />
    <g
       id="g3858"
       transform="translate(12.542275,-7.0503849)">
      <g
         word-spacing="normal"
         letter-spacing="normal"
         font-size-adjust="none"
         font-stretch="normal"
         font-weight="normal"
         font-variant="normal"
         font-style="normal"
         stroke-miterlimit="10.433"
         xml:space="preserve"
         transform="matrix(0.3,0,0,-0.3,-52.5,222.75)"
         id="content"
         style="font-style:normal;font-variant:normal;font-weight:normal;font-stretch:normal;letter-spacing:normal;word-spacing:normal;text-anchor:start;fill:none;fill-opacity:1;fill-rule:evenodd;stroke:#000000;stroke-linecap:butt;stroke-linejoin:miter;stroke-miterlimit:10.43299961;stroke-dasharray:none;stroke-dashoffset:0;stroke-opacity:1"><path
           id="path3855"
           d="m 464.49,410.84 0.24,0.39 0.24,0.38 0.23,0.38 0.21,0.37 0.21,0.37 0.2,0.36 0.18,0.35 0.18,0.35 0.18,0.35 0.16,0.34 0.15,0.33 0.15,0.33 0.14,0.33 0.14,0.32 0.24,0.62 0.23,0.61 0.2,0.6 0.19,0.57 0.16,0.56 0.16,0.54 0.14,0.53 0.13,0.52 0.13,0.5 c 1.73,6.87 3.64,12.86 6.71,16.3 0.61,0.65 1,1.09 2.6,1.09 3.44,0 3.53,-3.44 3.53,-4.12 0,-0.91 -0.25,-1.6 -0.25,-1.85 0,-0.36 0.31,-0.36 0.36,-0.36 0.8,0 2.14,0.55 3.39,1.46 0.89,0.68 1.34,1.18 1.34,3.23 0,2.69 -1.4,4.73 -4.18,4.73 -1.6,0 -5.99,-0.4 -10.86,-5.32 -3.99,-4.1 -6.33,-13.07 -7.28,-16.8 -0.9,-3.44 -1.3,-4.99 -2.79,-7.97 -0.36,-0.59 -1.65,-2.8 -2.34,-3.44 -1.34,-1.25 -1.84,-2.14 -1.84,-2.39 0,-0.09 0.09,-0.29 0.45,-0.29 0.19,0 1.23,0.2 2.53,1.04 0.84,0.5 0.95,0.6 2.09,1.8 2.5,-0.06 4.24,-0.5 7.38,-1.41 2.55,-0.68 5.08,-1.43 7.62,-1.43 4.04,0 8.13,3.03 9.72,5.23 0.99,1.34 1.3,2.58 1.3,2.73 0,0.35 -0.31,0.35 -0.36,0.35 -0.8,0 -1.98,-0.55 -2.84,-1.14 -1.35,-0.85 -1.44,-1.14 -1.74,-2 -0.25,-0.8 -0.54,-1.19 -0.75,-1.49 -0.39,-0.59 -0.45,-0.59 -1.2,-0.59 -2.39,0 -4.88,0.73 -8.16,1.64 -1.4,0.39 -4.14,1.19 -6.64,1.19 -0.64,0 -1.34,-0.05 -1.98,-0.19 z"
           inkscape:connector-curvature="0"
           style="fill:#000000;stroke-width:0" /></g>
    </g>
    <g
       id="g3880"
       transform="translate(10.947775,-48.229762)">
      <g
         word-spacing="normal"
         letter-spacing="normal"
         font-size-adjust="none"
         font-stretch="normal"
         font-weight="normal"
         font-variant="normal"
         font-style="normal"
         stroke-miterlimit="10.433"
         xml:space="preserve"
         transform="matrix(0.3,0,0,-0.3,-52.5,222.75)"
         id="g3878"
         style="font-style:normal;font-variant:normal;font-weight:normal;font-stretch:normal;letter-spacing:normal;word-spacing:normal;text-anchor:start;fill:none;fill-opacity:1;fill-rule:evenodd;stroke:#000000;stroke-linecap:butt;stroke-linejoin:miter;stroke-miterlimit:10.43299961;stroke-dasharray:none;stroke-dashoffset:0;stroke-opacity:1"><path
           id="path3876"
           d="m 466.63,407.59 h -0.09 -0.09 -0.16 -0.16 l -0.16,-0.01 -0.15,-0.01 -0.15,-0.02 -0.15,-0.02 -0.08,-0.02 -0.07,-0.01 -0.08,-0.02 -0.08,-0.02 -0.08,-0.03 -0.08,-0.02 -0.08,-0.03 -0.09,-0.03 -0.08,-0.04 -0.09,-0.04 -0.09,-0.04 -0.1,-0.04 -0.09,-0.05 -0.1,-0.05 -0.11,-0.06 -0.1,-0.06 -0.11,-0.06 -0.12,-0.07 c -0.4,-0.23 -1.59,-1.05 -1.59,-1.64 0,-0.34 0.25,-0.34 0.5,-0.34 3.33,-0.16 5.38,-0.6 10.36,-2.35 3.44,-1.25 6.97,-2.48 10.91,-2.48 5.82,0 10.65,5.12 10.65,7.17 0,0.25 -0.18,0.39 -0.43,0.39 -0.5,0 -1.55,-0.39 -2.35,-0.94 -1.14,-0.75 -1.25,-1.09 -1.5,-1.75 -0.69,-1.98 -1.73,-2.14 -3.09,-2.14 -3.28,0 -5.52,0.8 -12.71,3.24 8.63,2.43 19.49,11.06 19.49,23.07 0,6.77 -3.69,12.25 -11.02,12.25 -10.15,0 -21.97,-10.4 -21.97,-20.78 0,-5.28 3.15,-9.26 8.68,-9.26 5.03,0 10.72,3.29 10.72,4.48 0,0.3 -0.36,0.3 -0.55,0.3 -0.7,0 -1.55,-0.5 -2.25,-0.85 -2.05,-1.14 -4.14,-1.18 -4.63,-1.18 -4.48,0 -7.73,3.48 -7.73,8.61 0,6.23 5.64,15.95 14.45,15.95 6.28,0 10.06,-4.98 10.06,-11.61 0,-4.94 -2.04,-10.56 -6.78,-14.75 -3.23,-2.94 -6.87,-4.64 -15.03,-4.64 z"
           inkscape:connector-curvature="0"
           style="fill:#000000;stroke-width:0" /></g>
    </g>
    <g
       id="g3939"
       transform="translate(9.6967746,-65.163096)">
      <g
         word-spacing="normal"
         letter-spacing="normal"
         font-size-adjust="none"
         font-stretch="normal"
         font-weight="normal"
         font-variant="normal"
         font-style="normal"
         stroke-miterlimit="10.433"
         xml:space="preserve"
         transform="matrix(0.3,0,0,-0.3,-52.5,222.75)"
         id="g3937"
         style="font-style:normal;font-variant:normal;font-weight:normal;font-stretch:normal;letter-spacing:normal;word-spacing:normal;text-anchor:start;fill:none;fill-opacity:1;fill-rule:evenodd;stroke:#000000;stroke-linecap:butt;stroke-linejoin:miter;stroke-miterlimit:10.43299961;stroke-dasharray:none;stroke-dashoffset:0;stroke-opacity:1"><path
           id="path3933"
           d="m 466.83,423.61 -0.01,0.01 -0.02,0.01 -0.01,0.02 -0.01,0.01 -0.02,0.01 -0.01,0.01 -0.01,0.01 -0.01,0.01 h -0.02 l -0.01,0.01 -0.01,0.01 h -0.01 l -0.01,0.01 h -0.01 l -0.02,0.01 h -0.01 l -0.01,0.01 h -0.01 -0.01 -0.01 l -0.01,0.01 h -0.01 -0.02 -0.03 -0.02 -0.02 -0.02 c -0.41,0 -0.92,-0.25 -1.33,-0.53 -0.52,-0.42 -0.55,-0.64 -0.56,-1.16 -0.49,-6.43 -2.8,-12.21 -3.3,-13.23 -0.3,-0.67 -0.72,-1.38 -1.48,-1.38 -0.04,0 -1.5,0.04 -2.5,0.86 -0.38,-0.07 -0.52,-0.07 -0.88,-0.73 -0.19,-0.38 -0.37,-0.97 -0.37,-1.34 0,-0.33 0,-0.68 1.12,-1.1 0.84,-0.34 1.59,-0.37 1.75,-0.37 1.81,0 3.02,2.56 3.69,4.23 1,2.5 2.28,6.45 3.01,11.06 0.63,-1.34 4.08,-8.62 6.47,-11.87 0.71,-0.95 1.42,-1.88 2.27,-2.7 0.12,-0.1 0.25,-0.1 0.37,-0.1 0.55,0 1.5,0.46 1.85,1.21 l 0.03,0.01 0.01,0.03 c 1.96,8.61 3.64,14.22 4.22,15.47 1.05,0.92 2.56,1.09 3.99,1.09 0.57,0 0.67,0 1.01,0.52 0.24,0.36 0.5,1.05 0.5,1.58 0,0.59 -0.17,0.59 -0.75,0.59 -4.53,0 -5.34,-2.19 -6.03,-3.94 -0.67,-1.81 -1.95,-6.32 -3.12,-11.12 l -0.75,-3.05 c -1.83,2.02 -3.27,4.61 -5.02,7.85 -0.77,1.45 -2.19,4.26 -3.37,6.98 z"
           inkscape:connector-curvature="0"
           style="fill:#000000;stroke-width:0" /><path
           id="path3935"
           d="m 506.72,412.03 -0.01,0.24 -0.03,0.24 -0.04,0.23 -0.06,0.22 -0.07,0.21 -0.09,0.2 -0.11,0.19 -0.11,0.19 -0.13,0.17 -0.14,0.17 -0.16,0.17 -0.16,0.15 -0.18,0.15 -0.18,0.14 -0.2,0.14 -0.2,0.13 -0.21,0.12 -0.22,0.12 -0.23,0.11 -0.23,0.11 -0.24,0.1 -0.24,0.09 -0.24,0.09 -0.25,0.09 -0.51,0.16 -0.51,0.14 -0.52,0.13 -0.51,0.11 c -1.27,0.27 -4.19,0.89 -4.19,3.09 0,0.35 0.05,1.64 1.37,2.14 1.27,0.47 2.82,0.47 2.97,0.47 0.43,0 1.61,-0.03 2.96,-0.42 0.78,-0.22 1.59,-0.47 1.59,-1.72 0,-0.29 -0.06,-0.58 -0.06,-0.65 0,-0.25 0.22,-0.3 0.39,-0.3 0.55,0 1.22,0.42 1.47,0.62 0.45,0.33 0.72,0.63 0.72,1.5 0,1.57 -1.1,1.94 -1.82,2.16 -1.54,0.53 -2.93,0.53 -3.43,0.53 -4.96,0 -8.68,-2.69 -8.68,-5.48 0,-2.66 3.39,-3.39 4.79,-3.66 2.51,-0.55 5.18,-1.47 5.18,-3.76 0,-0.43 -0.04,-2.07 -1.93,-2.82 -1.6,-0.62 -3.77,-0.67 -4.22,-0.67 -2.99,0 -5.97,1.52 -5.97,3.28 0,0.71 0.22,0.8 0.47,0.96 0.62,0.29 1.14,0.79 1.14,1.12 0,0.25 -0.22,0.3 -0.46,0.3 -1.31,0 -3.67,-1.52 -3.67,-3.55 0,-1.11 0.67,-1.97 2.36,-2.86 1.85,-0.97 3.6,-0.97 4.31,-0.97 6.46,0 10.49,3.19 10.49,6.38 z"
           inkscape:connector-curvature="0"
           style="fill:#000000;stroke-width:0" /></g>
    </g>
    <path
       style="fill:#ff0000;stroke:#f80000;stroke-width:1.81056643;stroke-linecap:butt;stroke-linejoin:miter;stroke-miterlimit:4;stroke-dasharray:none;stroke-opacity:1"
       d="m 136.63699,41.099091 -0.17274,95.585169"
       id="path2462"
       inkscape:connector-curvature="0" />
    <g
       id="g4054"
       transform="translate(44.901281,-64.144686)">
      <g
         word-spacing="normal"
         letter-spacing="normal"
         font-size-adjust="none"
         font-stretch="normal"
         font-weight="normal"
         font-variant="normal"
         font-style="normal"
         stroke-miterlimit="10.433"
         xml:space="preserve"
         transform="matrix(0.3,0,0,-0.3,-52.5,222.75)"
         id="g4052"
         style="font-style:normal;font-variant:normal;font-weight:normal;font-stretch:normal;letter-spacing:normal;word-spacing:normal;text-anchor:start;fill:none;fill-opacity:1;fill-rule:evenodd;stroke:#000000;stroke-linecap:butt;stroke-linejoin:miter;stroke-miterlimit:10.43299961;stroke-dasharray:none;stroke-dashoffset:0;stroke-opacity:1"><path
           id="path4020"
           d="m 460.46,408.32 v -0.07 -0.07 -0.06 l -0.01,-0.06 V 408 l -0.01,-0.06 v -0.06 l -0.01,-0.05 -0.02,-0.05 -0.01,-0.04 -0.02,-0.04 -0.03,-0.05 -0.03,-0.03 -0.03,-0.04 -0.04,-0.03 -0.04,-0.03 -0.06,-0.03 -0.02,-0.02 -0.03,-0.01 -0.03,-0.01 -0.03,-0.01 -0.04,-0.02 -0.04,-0.01 -0.03,-0.01 -0.04,-0.01 -0.04,-0.01 -0.05,-0.01 h -0.04 l -0.05,-0.01 -0.05,-0.01 -0.05,-0.01 h -0.06 l -0.05,-0.01 h -0.06 l -0.06,-0.01 h -0.07 l -0.06,-0.01 h -0.07 -0.07 l -0.08,-0.01 h -0.07 -0.08 -0.08 l -0.09,-0.01 h -0.09 -0.09 -0.09 -0.75 v -1.09 h 11.83 c 3.84,0 6.84,2.14 6.84,4.61 0,1.76 -1.78,3.78 -5.82,4.31 2.51,0.39 4.96,1.84 4.96,3.83 0,2.33 -3.09,4.26 -6.81,4.26 l -0.17,-1.09 c 2.67,0 4.27,-1.64 4.27,-3.19 0,-1.82 -2.19,-3.47 -4.94,-3.47 h -4.96 v -0.82 h 5.88 c 3.34,0 4.78,-2.19 4.78,-3.8 0,-1.88 -2.06,-3.55 -4.98,-3.55 h -4.46 c -1.22,0 -1.22,0.17 -1.22,0.96 v 6.39 0.82 5.71 c 0,0.78 0,0.95 1.22,0.95 h 4.41 l 0.17,1.09 h -11 v -1.09 h 0.75 c 2.02,0 2.02,-0.25 2.02,-1.03 z"
           inkscape:connector-curvature="0"
           style="fill:#ff0000;stroke:#ff0000;stroke-width:0" /><path
           id="path4022"
           d="m 491.67,411.81 h 0.05 0.05 0.04 0.05 0.04 0.04 l 0.04,0.01 h 0.03 0.04 l 0.03,0.01 h 0.03 l 0.03,0.01 0.03,0.01 0.03,0.01 0.02,0.01 0.03,0.01 0.02,0.02 0.02,0.01 0.02,0.02 0.01,0.02 0.02,0.03 0.01,0.02 0.01,0.02 0.01,0.01 v 0.01 l 0.01,0.02 v 0.02 l 0.01,0.01 v 0.02 l 0.01,0.02 v 0.02 l 0.01,0.02 v 0.02 0.02 0.02 l 0.01,0.02 v 0.02 0.03 0.02 0.03 0.02 0.03 c 0,1.67 -0.89,4.96 -5.54,4.96 -3.8,0 -6.46,-2.72 -6.46,-5.68 0,-3.17 3.03,-5.76 6.81,-5.76 3.97,0 5.19,2.76 5.19,3.25 0,0.42 -0.39,0.42 -0.51,0.42 -0.38,0 -0.44,-0.11 -0.58,-0.45 -0.71,-1.72 -2.55,-2.32 -3.94,-2.32 -2.01,0 -3.14,1.13 -3.51,1.55 -0.97,1.19 -0.97,2.77 -0.97,3.44 l 0.04,0.76 c 0.3,3.3 2.72,3.97 3.89,3.97 3.47,0 3.64,-3.25 3.66,-3.97 h -7.55 l -0.04,-0.76 z"
           inkscape:connector-curvature="0"
           style="fill:#ff0000;stroke:#ff0000;stroke-width:0" /><path
           id="path4024"
           d="m 500.29,423.48 -4.19,-0.27 v -1.09 c 1.84,0 2.08,-0.17 2.08,-1.41 v -12.42 c 0,-0.78 0,-1 -1.63,-1 h -0.45 v -1.09 c 1.04,0.08 2.08,0.09 3.12,0.09 1.05,0 2.1,-0.01 3.13,-0.09 v 1.09 h -0.44 c -1.62,0 -1.62,0.22 -1.62,1 z"
           inkscape:connector-curvature="0"
           style="fill:#ff0000;stroke:#ff0000;stroke-width:0" /><path
           id="path4026"
           d="m 510.36,423.48 -4.18,-0.27 v -1.09 c 1.84,0 2.07,-0.17 2.07,-1.41 v -12.42 c 0,-0.78 0,-1 -1.62,-1 h -0.45 v -1.09 c 1.04,0.08 2.07,0.09 3.12,0.09 1.05,0 2.09,-0.01 3.13,-0.09 v 1.09 h -0.44 c -1.63,0 -1.63,0.22 -1.63,1 z"
           inkscape:connector-curvature="0"
           style="fill:#ff0000;stroke:#ff0000;stroke-width:0" /><path
           id="path4028"
           d="m 532.13,421.54 v 0.08 l -0.01,0.08 -0.01,0.07 -0.01,0.08 -0.02,0.07 -0.02,0.07 -0.02,0.07 -0.03,0.07 -0.03,0.07 -0.03,0.06 -0.04,0.06 -0.04,0.07 -0.04,0.06 -0.04,0.05 -0.05,0.06 -0.05,0.05 -0.06,0.05 -0.05,0.05 -0.06,0.05 -0.06,0.04 -0.06,0.04 -0.06,0.03 -0.07,0.04 -0.06,0.03 -0.07,0.03 -0.07,0.02 -0.08,0.02 -0.07,0.02 -0.07,0.01 -0.08,0.01 -0.08,0.01 h -0.08 c -0.76,0 -1.51,-0.6 -1.51,-1.52 0,-0.89 0.75,-1.51 1.51,-1.51 0.85,0 1.52,0.68 1.52,1.51 z"
           inkscape:connector-curvature="0"
           style="fill:#ff0000;stroke:#ff0000;stroke-width:0" /><path
           id="path4030"
           d="m 528,416.93 v -1.09 c 1.77,0 1.97,-0.17 1.97,-1.39 v -6.16 c 0,-0.78 0,-1 -1.62,-1 h -0.45 v -1.09 c 1.03,0.08 2.07,0.09 3.09,0.09 0.95,0 2.04,-0.01 2.97,-0.09 v 1.09 c -1.68,0 -1.88,0 -1.88,1 v 8.92 z"
           inkscape:connector-curvature="0"
           style="fill:#ff0000;stroke:#ff0000;stroke-width:0" /><path
           id="path4032"
           d="m 550.86,413.71 v 0.26 l -0.02,0.24 -0.03,0.23 -0.03,0.21 -0.05,0.21 -0.06,0.2 -0.06,0.19 -0.08,0.17 -0.08,0.17 -0.09,0.16 -0.1,0.14 -0.11,0.14 -0.12,0.13 -0.12,0.12 -0.13,0.11 -0.14,0.11 -0.15,0.09 -0.15,0.09 -0.16,0.08 -0.16,0.07 -0.17,0.07 -0.18,0.06 -0.18,0.05 -0.18,0.04 -0.19,0.04 -0.2,0.04 -0.2,0.03 -0.2,0.02 -0.21,0.01 -0.21,0.02 h -0.21 -0.21 c -2.68,0 -4.07,-1.46 -4.65,-2.45 v 2.45 l -4.07,-0.28 v -1.09 c 1.84,0 2.06,-0.17 2.06,-1.39 v -6.16 c 0,-0.78 0,-1 -1.62,-1 h -0.44 v -1.09 c 1.06,0.08 2.11,0.09 3.19,0.09 1.04,0 2.1,-0.01 3.15,-0.09 v 1.09 h -0.44 c -1.62,0 -1.62,0.22 -1.62,1 v 4.33 c 0,2.81 2.59,3.77 4.14,3.77 1.84,0 2.27,-1.05 2.27,-2.64 v -5.46 c 0,-0.78 0,-1 -1.63,-1 h -0.45 v -1.09 c 1.08,0.08 2.12,0.09 3.18,0.09 1.05,0 2.13,-0.01 3.18,-0.09 v 1.09 h -0.46 c -1.61,0 -1.61,0.22 -1.61,1 z"
           inkscape:connector-curvature="0"
           style="fill:#ff0000;stroke:#ff0000;stroke-width:0" /><path
           id="path4034"
           d="m 567.5,411.81 h 0.05 0.05 0.05 0.04 0.04 0.04 l 0.04,0.01 h 0.04 0.03 l 0.03,0.01 h 0.03 l 0.03,0.01 0.03,0.01 0.03,0.01 0.02,0.01 0.03,0.01 0.02,0.02 0.02,0.01 0.02,0.02 0.02,0.02 0.01,0.03 0.02,0.02 v 0.02 l 0.01,0.01 0.01,0.01 v 0.02 l 0.01,0.02 v 0.01 l 0.01,0.02 v 0.02 0.02 l 0.01,0.02 v 0.02 0.02 l 0.01,0.02 v 0.02 0.02 0.03 0.02 0.03 0.02 0.03 c 0,1.67 -0.89,4.96 -5.54,4.96 -3.8,0 -6.46,-2.72 -6.46,-5.68 0,-3.17 3.03,-5.76 6.82,-5.76 3.96,0 5.18,2.76 5.18,3.25 0,0.42 -0.39,0.42 -0.51,0.42 -0.38,0 -0.44,-0.11 -0.58,-0.45 -0.7,-1.72 -2.55,-2.32 -3.94,-2.32 -2.01,0 -3.14,1.13 -3.51,1.55 -0.97,1.19 -0.97,2.77 -0.97,3.44 l 0.04,0.76 c 0.3,3.3 2.72,3.97 3.9,3.97 3.47,0 3.64,-3.25 3.65,-3.97 h -7.55 l -0.04,-0.76 z"
           inkscape:connector-curvature="0"
           style="fill:#ff0000;stroke:#ff0000;stroke-width:0" /><path
           id="path4036"
           d="m 584.57,417.21 h -0.95 l -0.89,-2.12 c -1.08,1.39 -2.58,2.12 -4.3,2.12 -3.7,0 -6.77,-2.51 -6.77,-5.65 0,-3.1 2.94,-5.64 6.5,-5.64 l 0.21,0.83 c -2.39,0 -4.22,2.21 -4.22,4.81 0,2.69 2.12,4.75 4.51,4.75 2.24,0 3.79,-1.91 3.79,-3.36 v -3.06 c 0,-0.46 0,-0.6 -0.46,-1.22 -1.11,-1.58 -2.73,-1.92 -3.62,-1.92 l -0.21,-0.83 c 1.57,0 3.1,0.61 4.19,1.7 v -4.16 c 0,-0.78 0,-1 -1.62,-1 h -0.46 v -1.09 c 1.08,0.06 2.13,0.09 3.19,0.09 1.05,0 2.13,-0.03 3.17,-0.09 v 1.09 h -0.45 c -1.61,0 -1.61,0.22 -1.61,1 z"
           inkscape:connector-curvature="0"
           style="fill:#ff0000;stroke:#ff0000;stroke-width:0" /><path
           id="path4038"
           d="m 598.28,416.93 v -1.09 c 1.84,0 2.08,-0.17 2.08,-1.39 v -4.06 c 0,-2.3 -1.72,-3.64 -3.77,-3.64 -2.54,0 -2.64,1.01 -2.64,2.29 v 8.17 l -4.28,-0.28 v -1.09 c 1.91,0 2.06,-0.2 2.06,-1.47 v -5.44 c 0.22,-2.78 3.05,-3.01 4.66,-3.01 2.09,0 3.31,0.95 4.06,2.12 v -2.12 l 4.19,0.28 v 1.09 c -1.84,0 -2.06,0.17 -2.06,1.39 v 8.53 z"
           inkscape:connector-curvature="0"
           style="fill:#ff0000;stroke:#ff0000;stroke-width:0" /><path
           id="path4040"
           d="m 619.38,413.61 -0.01,0.22 -0.02,0.21 -0.04,0.21 -0.05,0.2 -0.06,0.2 -0.08,0.19 -0.09,0.18 -0.1,0.18 -0.11,0.17 -0.12,0.16 -0.14,0.16 -0.14,0.15 -0.16,0.15 -0.17,0.13 -0.17,0.13 -0.19,0.13 -0.19,0.11 -0.21,0.11 -0.21,0.1 -0.22,0.1 -0.23,0.09 -0.23,0.08 -0.24,0.07 -0.25,0.07 -0.26,0.05 -0.26,0.05 -0.26,0.05 -0.27,0.03 -0.28,0.03 -0.28,0.02 -0.29,0.01 -0.28,0.01 c -1.52,0 -4.41,-0.08 -4.41,-2.19 0,-0.92 0.7,-1.35 1.31,-1.35 0.67,0 1.33,0.47 1.33,1.32 0,0.61 -0.34,0.98 -0.58,1.12 0.83,0.28 2.02,0.28 2.3,0.28 2.11,0 3.44,-1.17 3.44,-2.97 v -0.65 -0.74 -2.45 c 0,-2.73 -2.99,-2.98 -3.61,-2.98 -1.47,0 -2.88,0.76 -2.88,2.06 0,0.83 0.53,3.12 6.49,3.37 v 0.74 c -2.43,-0.13 -3.77,-0.19 -5.69,-0.86 -1.64,-0.58 -3.08,-1.63 -3.08,-3.25 0,-2.33 2.89,-2.89 4.88,-2.89 1.92,0 3.42,0.78 4.18,2.04 0.1,-0.87 0.67,-1.92 1.94,-1.92 0.19,0 3.02,0 3.02,2.39 v 1.38 h -1.05 v -1.31 c 0,-0.25 0,-1.35 -0.98,-1.35 -1,0 -1,1.1 -1,1.35 z"
           inkscape:connector-curvature="0"
           style="fill:#ff0000;stroke:#ff0000;stroke-width:0" /><path
           id="path4042"
           d="m 629.51,423.48 -4.19,-0.27 v -1.09 c 1.85,0 2.08,-0.17 2.08,-1.41 v -12.42 c 0,-0.78 0,-1 -1.62,-1 h -0.46 v -1.09 c 1.05,0.08 2.08,0.09 3.13,0.09 1.05,0 2.09,-0.01 3.12,-0.09 v 1.09 h -0.43 c -1.63,0 -1.63,0.22 -1.63,1 z"
           inkscape:connector-curvature="0"
           style="fill:#ff0000;stroke:#ff0000;stroke-width:0" /><path
           id="path4044"
           d="m 639.64,421.54 v 0.08 l -0.01,0.08 -0.01,0.07 -0.01,0.08 -0.02,0.07 -0.02,0.07 -0.02,0.07 -0.03,0.07 -0.03,0.07 -0.03,0.06 -0.04,0.06 -0.04,0.07 -0.04,0.06 -0.05,0.05 -0.04,0.06 -0.05,0.05 -0.06,0.05 -0.05,0.05 -0.06,0.05 -0.06,0.04 -0.06,0.04 -0.06,0.03 -0.07,0.04 -0.07,0.03 -0.07,0.03 -0.07,0.02 -0.07,0.02 -0.07,0.02 -0.08,0.01 -0.07,0.01 -0.08,0.01 h -0.08 c -0.77,0 -1.52,-0.6 -1.52,-1.52 0,-0.89 0.75,-1.51 1.52,-1.51 0.85,0 1.52,0.68 1.52,1.51 z"
           inkscape:connector-curvature="0"
           style="fill:#ff0000;stroke:#ff0000;stroke-width:0" /><path
           id="path4046"
           d="m 635.51,416.93 v -1.09 c 1.77,0 1.97,-0.17 1.97,-1.39 v -6.16 c 0,-0.78 0,-1 -1.63,-1 h -0.45 v -1.09 c 1.03,0.08 2.08,0.09 3.1,0.09 0.95,0 2.04,-0.01 2.97,-0.09 v 1.09 c -1.68,0 -1.88,0 -1.88,1 v 8.92 z"
           inkscape:connector-curvature="0"
           style="fill:#ff0000;stroke:#ff0000;stroke-width:0" /><path
           id="path4048"
           d="m 649.54,415.84 h 4.41 v 1.09 h -4.41 v 4.58 h -1.04 c -0.02,-2.33 -1.27,-4.78 -3.82,-4.84 v -0.83 h 2.64 v -6.5 c 0,-2.84 2.35,-3.42 3.9,-3.42 1.87,0 3.26,1.37 3.26,3.42 v 1.37 h -1.05 v -1.29 c 0,-1.88 -1.09,-2.6 -1.96,-2.6 -1.93,0 -1.93,1.99 -1.93,2.52 z"
           inkscape:connector-curvature="0"
           style="fill:#ff0000;stroke:#ff0000;stroke-width:0" /><path
           id="path4050"
           d="m 669.73,414.29 0.03,0.06 0.03,0.06 0.07,0.11 0.04,0.07 0.04,0.06 0.04,0.06 0.04,0.06 0.05,0.07 0.04,0.06 0.06,0.07 0.05,0.06 0.06,0.06 0.07,0.06 0.06,0.06 0.07,0.06 0.08,0.06 0.08,0.05 0.09,0.06 0.09,0.05 0.1,0.05 0.1,0.04 0.11,0.05 0.11,0.04 0.12,0.03 0.13,0.04 0.13,0.02 0.15,0.03 0.14,0.02 0.16,0.01 0.08,0.01 h 0.08 l 0.09,0.01 h 0.09 v 1.09 c -0.52,-0.04 -1.25,-0.09 -2.19,-0.09 -0.8,0 -1.72,0.02 -2.52,0.09 v -1.09 c 0.68,0 1.07,-0.38 1.07,-0.88 0,-0.2 -0.08,-0.37 -0.15,-0.54 l -3.12,-5.92 -3.36,6.42 c -0.14,0.28 -0.14,0.34 -0.14,0.42 0,0.45 0.67,0.5 1.34,0.5 v 1.09 c -1.04,-0.07 -2.09,-0.09 -3.14,-0.09 -1.04,0 -1.7,0 -2.79,0.09 v -1.09 c 1.76,0 1.89,-0.09 2.26,-0.8 l 4.64,-8.84 c -1.04,-2.19 -2.06,-4.28 -4.14,-4.28 -0.64,0 -0.84,0.09 -1.11,0.26 0.17,0.08 0.69,0.38 0.69,1.13 0,0.76 -0.58,1.22 -1.22,1.22 -0.58,0 -1.22,-0.35 -1.22,-1.25 0,-1.24 1.3,-2.19 2.86,-2.19 1.47,0 3.13,0.92 4.27,3.09 z"
           inkscape:connector-curvature="0"
           style="fill:#ff0000;stroke:#ff0000;stroke-width:0" /></g>
    </g>
  </g>
</svg>
