<?xml version="1.0" encoding="UTF-8" standalone="no"?>
<svg
   xmlns:ns5="http://www.iki.fi/pav/software/textext/"
   xmlns:dc="http://purl.org/dc/elements/1.1/"
   xmlns:cc="http://creativecommons.org/ns#"
   xmlns:rdf="http://www.w3.org/1999/02/22-rdf-syntax-ns#"
   xmlns:svg="http://www.w3.org/2000/svg"
   xmlns="http://www.w3.org/2000/svg"
   xmlns:sodipodi="http://sodipodi.sourceforge.net/DTD/sodipodi-0.dtd"
   xmlns:inkscape="http://www.inkscape.org/namespaces/inkscape"
   width="210mm"
   height="297mm"
   viewBox="0 0 210 297"
   version="1.1"
   id="svg8"
   sodipodi:docname="feasibleset.svg"
   inkscape:export-filename="/home/user/Downloads/master_thesis/images/feasibleset.png"
   inkscape:export-xdpi="200"
   inkscape:export-ydpi="200"
   inkscape:version="1.0.2 (e86c870879, 2021-01-15)">
  <defs
     id="defs2">
    <marker
       style="overflow:visible;"
       id="Arrow1Mend"
       refX="0.0"
       refY="0.0"
       orient="auto"
       inkscape:stockid="Arrow1Mend"
       inkscape:isstock="true">
      <path
         transform="scale(0.4) rotate(180) translate(10,0)"
         style="fill-rule:evenodd;stroke:#000000;stroke-width:1pt;stroke-opacity:1;fill:#000000;fill-opacity:1"
         d="M 0.0,0.0 L 5.0,-5.0 L -12.5,0.0 L 5.0,5.0 L 0.0,0.0 z "
         id="path1385" />
    </marker>
    <marker
       style="overflow:visible"
       id="Arrow1Mend-7"
       refX="0"
       refY="0"
       orient="auto"
       inkscape:stockid="Arrow1Mend"
       inkscape:isstock="true">
      <path
         transform="matrix(-0.4,0,0,-0.4,-4,0)"
         style="fill:#000000;fill-opacity:1;fill-rule:evenodd;stroke:#000000;stroke-width:1pt;stroke-opacity:1"
         d="M 0,0 5,-5 -12.5,0 5,5 Z"
         id="path1385-5" />
    </marker>
  </defs>
  <sodipodi:namedview
     id="base"
     pagecolor="#ffffff"
     bordercolor="#666666"
     borderopacity="1.0"
     inkscape:pageopacity="0.0"
     inkscape:pageshadow="2"
     inkscape:zoom="0.86430556"
     inkscape:cx="419.6288"
     inkscape:cy="359.53892"
     inkscape:document-units="mm"
     inkscape:current-layer="layer1"
     inkscape:document-rotation="0"
     showgrid="false"
     inkscape:window-width="1280"
     inkscape:window-height="656"
     inkscape:window-x="0"
     inkscape:window-y="0"
     inkscape:window-maximized="1"
     inkscape:snap-global="false" />
  <metadata
     id="metadata5">
    <rdf:RDF>
      <cc:Work
         rdf:about="">
        <dc:format>image/svg+xml</dc:format>
        <dc:type
           rdf:resource="http://purl.org/dc/dcmitype/StillImage" />
      </cc:Work>
    </rdf:RDF>
  </metadata>
  <g
     inkscape:label="Layer 1"
     inkscape:groupmode="layer"
     id="layer1">
    <ellipse
       style="fill:#f2f2f2;stroke:#000000;stroke-width:0.3;fill-opacity:1;stroke-miterlimit:4;stroke-dasharray:none;stroke-opacity:1"
       id="path833"
       cx="133.18159"
       cy="19.822857"
       rx="42.597126"
       ry="27.827351"
       transform="rotate(32.063939)" />
    <path
       style="fill:#c83737;stroke:#960000;stroke-width:0.5;stroke-linecap:butt;stroke-linejoin:miter;stroke-opacity:1;stroke-miterlimit:4;stroke-dasharray:none"
       d="M 42.056732,88.964984 96.32658,33.316932"
       id="path835" />
    <path
       style="fill:#280b0b;stroke:#960000;stroke-width:0.5;stroke-linecap:butt;stroke-linejoin:miter;stroke-opacity:1;stroke-miterlimit:4;stroke-dasharray:none"
       d="M 54.070182,102.7499 110.95658,44.418853"
       id="path835-3" />
    <g
       transform="matrix(0.705556,0,0,0.705556,27.175757,90.812652)"
       ns5:version="1.3.0"
       ns5:texconverter="pdflatex"
       ns5:pdfconverter="inkscape"
       ns5:text="$(Z^{*})^{\\perp}$"
       ns5:preamble="/home/user/.config/inkscape/extensions/textext/+bbold.tex"
       ns5:scale="1.999999943307123"
       ns5:alignment="middle center"
       ns5:jacobian_sqrt="0.705556"
       id="g902">
      <defs
         id="id-d408f916-1880-4833-ae2b-d832759faa86">
        <g
           id="id-5088ef7b-6162-4df5-8809-3ec10819e744">
          <symbol
             overflow="visible"
             id="id-64cdcd6f-f368-401c-9047-c3529f62da3c">
            <path
               style="stroke:none;stroke-width:0"
               d=""
               id="id-fcf523b6-7292-4574-8607-5a3eda9ad6dd" />
          </symbol>
          <symbol
             overflow="visible"
             id="id-f4ef96ef-f2e0-424a-9a75-7300b47961fb">
            <path
               style="stroke:none;stroke-width:0"
               d="m 3.296875,2.390625 c 0,-0.03125 0,-0.046875 -0.171875,-0.21875 C 1.890625,0.921875 1.5625,-0.96875 1.5625,-2.5 c 0,-1.734375 0.375,-3.46875 1.609375,-4.703125 0.125,-0.125 0.125,-0.140625 0.125,-0.171875 0,-0.078125 -0.03125,-0.109375 -0.09375,-0.109375 -0.109375,0 -1,0.6875 -1.59375,1.953125 -0.5,1.09375 -0.625,2.203125 -0.625,3.03125 0,0.78125 0.109375,1.984375 0.65625,3.125 C 2.25,1.84375 3.09375,2.5 3.203125,2.5 c 0.0625,0 0.09375,-0.03125 0.09375,-0.109375 z m 0,0"
               id="id-b87be3e0-a04f-4c06-910f-b2995c2a0b67" />
          </symbol>
          <symbol
             overflow="visible"
             id="id-4d7400ea-2d3a-49c3-8063-956fe642d16b">
            <path
               style="stroke:none;stroke-width:0"
               d="m 2.875,-2.5 c 0,-0.765625 -0.109375,-1.96875 -0.65625,-3.109375 -0.59375,-1.21875 -1.453125,-1.875 -1.546875,-1.875 -0.0625,0 -0.109375,0.046875 -0.109375,0.109375 0,0.03125 0,0.046875 0.1875,0.234375 0.984375,0.984375 1.546875,2.5625 1.546875,4.640625 0,1.71875 -0.359375,3.46875 -1.59375,4.71875 C 0.5625,2.34375 0.5625,2.359375 0.5625,2.390625 0.5625,2.453125 0.609375,2.5 0.671875,2.5 0.765625,2.5 1.671875,1.8125 2.25,0.546875 2.765625,-0.546875 2.875,-1.65625 2.875,-2.5 Z m 0,0"
               id="id-ddf9d293-e92f-41a9-b9f4-1bedb3764b64" />
          </symbol>
          <symbol
             overflow="visible"
             id="id-11d3b080-310b-4a83-a130-9ed0a5cd7375">
            <path
               style="stroke:none;stroke-width:0"
               d=""
               id="id-bacd7957-eb3e-4f7e-aea1-47a28417ba51" />
          </symbol>
          <symbol
             overflow="visible"
             id="id-88a193c8-262c-4e57-befc-08cbd46ff0ef">
            <path
               style="stroke:none;stroke-width:0"
               d="m 7.171875,-6.5625 c 0.015625,-0.046875 0.03125,-0.09375 0.03125,-0.15625 0,-0.09375 -0.046875,-0.09375 -0.25,-0.09375 H 2.75 c -0.234375,0 -0.25,0.015625 -0.3125,0.203125 L 1.890625,-4.8125 c -0.015625,0.046875 -0.03125,0.125 -0.03125,0.140625 0,0 0,0.109375 0.125,0.109375 0.09375,0 0.109375,-0.078125 0.125,-0.109375 C 2.5,-5.84375 3.015625,-6.5 4.5625,-6.5 h 1.625 L 0.625,-0.265625 c 0,0 -0.046875,0.140625 -0.046875,0.171875 C 0.578125,0 0.640625,0 0.828125,0 H 5.15625 c 0.25,0 0.25,-0.015625 0.3125,-0.203125 L 6.1875,-2.40625 c 0,-0.03125 0.03125,-0.109375 0.03125,-0.140625 0,-0.0625 -0.03125,-0.109375 -0.125,-0.109375 -0.09375,0 -0.109375,0.03125 -0.171875,0.25 C 5.484375,-1.0625 5,-0.34375 3.3125,-0.34375 H 1.609375 Z m 0,0"
               id="id-2cb404fd-08cf-47ee-ad20-7b353103b4fc" />
          </symbol>
          <symbol
             overflow="visible"
             id="id-58b7c999-7091-49d1-8895-cd36cd5ffe52">
            <path
               style="stroke:none;stroke-width:0"
               d=""
               id="id-3e5f286c-9cbb-4fb9-afa7-216129e82973" />
          </symbol>
          <symbol
             overflow="visible"
             id="id-6b780ffc-a19a-43da-b2f9-485877d13461">
            <path
               style="stroke:none;stroke-width:0"
               d="m 2.25,-1.734375 c 0.578125,-0.25 0.828125,-0.34375 1,-0.4375 0.140625,-0.046875 0.203125,-0.078125 0.203125,-0.21875 0,-0.109375 -0.09375,-0.21875 -0.21875,-0.21875 -0.046875,0 -0.0625,0 -0.140625,0.0625 L 2.140625,-1.90625 2.25,-2.9375 c 0.015625,-0.125 0,-0.296875 -0.21875,-0.296875 -0.078125,0 -0.21875,0.046875 -0.21875,0.203125 0,0.0625 0.03125,0.265625 0.046875,0.34375 0.015625,0.109375 0.0625,0.625 0.078125,0.78125 L 0.984375,-2.546875 c -0.0625,-0.03125 -0.078125,-0.0625 -0.140625,-0.0625 -0.140625,0 -0.21875,0.109375 -0.21875,0.21875 0,0.140625 0.078125,0.1875 0.140625,0.203125 L 1.8125,-1.734375 c -0.5625,0.25 -0.828125,0.34375 -1,0.421875 -0.125,0.0625 -0.1875,0.09375 -0.1875,0.21875 0,0.125 0.078125,0.21875 0.21875,0.21875 0.046875,0 0.0625,0 0.140625,-0.0625 l 0.953125,-0.625 -0.125,1.109375 c 0,0.15625 0.140625,0.21875 0.21875,0.21875 0.09375,0 0.21875,-0.0625 0.21875,-0.21875 0,-0.0625 -0.03125,-0.265625 -0.03125,-0.328125 -0.015625,-0.125 -0.0625,-0.625 -0.078125,-0.78125 L 2.96875,-1.015625 C 3.15625,-0.875 3.171875,-0.875 3.234375,-0.875 c 0.125,0 0.21875,-0.09375 0.21875,-0.21875 0,-0.140625 -0.09375,-0.171875 -0.15625,-0.203125 z m 0,0"
               id="id-67d6e97c-db9a-4624-9888-19c140b6c574" />
          </symbol>
          <symbol
             overflow="visible"
             id="id-851ce95d-5649-41bd-8901-39effdbd7f4c">
            <path
               style="stroke:none;stroke-width:0"
               d="m 3.28125,-4.5625 c 0,-0.109375 0,-0.28125 -0.171875,-0.28125 -0.171875,0 -0.171875,0.171875 -0.171875,0.28125 v 4.21875 h -2.125 c -0.109375,0 -0.28125,0 -0.28125,0.171875 C 0.53125,0 0.703125,0 0.8125,0 H 5.40625 C 5.515625,0 5.6875,0 5.6875,-0.171875 5.6875,-0.34375 5.53125,-0.34375 5.40625,-0.34375 h -2.125 z m 0,0"
               id="id-64fdcc97-d0a5-4515-b4cd-b480263f572f" />
          </symbol>
        </g>
      </defs>
      <g
         id="id-b2f85c1c-7aec-4c22-bebf-f1dc30727130"
         transform="translate(-149.696,-126.305)">
        <g
           style="fill:#000000;fill-opacity:1"
           id="id-1d7fa491-b71f-4f4f-be01-2a4eaf98145c">
          <g
             transform="translate(148.712,134.765)"
             id="g882">
            <path
               style="stroke:none;stroke-width:0"
               d="m 3.296875,2.390625 c 0,-0.03125 0,-0.046875 -0.171875,-0.21875 C 1.890625,0.921875 1.5625,-0.96875 1.5625,-2.5 c 0,-1.734375 0.375,-3.46875 1.609375,-4.703125 0.125,-0.125 0.125,-0.140625 0.125,-0.171875 0,-0.078125 -0.03125,-0.109375 -0.09375,-0.109375 -0.109375,0 -1,0.6875 -1.59375,1.953125 -0.5,1.09375 -0.625,2.203125 -0.625,3.03125 0,0.78125 0.109375,1.984375 0.65625,3.125 C 2.25,1.84375 3.09375,2.5 3.203125,2.5 c 0.0625,0 0.09375,-0.03125 0.09375,-0.109375 z m 0,0"
               id="id-545c4fbe-c685-45a6-9d54-fd56da77b478" />
          </g>
        </g>
        <g
           style="fill:#000000;fill-opacity:1"
           id="id-66dca46d-abdb-4682-ab96-351ff71956b9">
          <g
             transform="translate(152.587,134.765)"
             id="g886">
            <path
               style="stroke:none;stroke-width:0"
               d="m 7.171875,-6.5625 c 0.015625,-0.046875 0.03125,-0.09375 0.03125,-0.15625 0,-0.09375 -0.046875,-0.09375 -0.25,-0.09375 H 2.75 c -0.234375,0 -0.25,0.015625 -0.3125,0.203125 L 1.890625,-4.8125 c -0.015625,0.046875 -0.03125,0.125 -0.03125,0.140625 0,0 0,0.109375 0.125,0.109375 0.09375,0 0.109375,-0.078125 0.125,-0.109375 C 2.5,-5.84375 3.015625,-6.5 4.5625,-6.5 h 1.625 L 0.625,-0.265625 c 0,0 -0.046875,0.140625 -0.046875,0.171875 C 0.578125,0 0.640625,0 0.828125,0 H 5.15625 c 0.25,0 0.25,-0.015625 0.3125,-0.203125 L 6.1875,-2.40625 c 0,-0.03125 0.03125,-0.109375 0.03125,-0.140625 0,-0.0625 -0.03125,-0.109375 -0.125,-0.109375 -0.09375,0 -0.109375,0.03125 -0.171875,0.25 C 5.484375,-1.0625 5,-0.34375 3.3125,-0.34375 H 1.609375 Z m 0,0"
               id="id-6522e5de-9f0c-4a85-a473-59ac33bc0925" />
          </g>
        </g>
        <g
           style="fill:#000000;fill-opacity:1"
           id="id-01fc3df2-d050-4a7c-a41a-309ec0b7ddd2">
          <g
             transform="translate(160.1,131.149)"
             id="g890">
            <path
               style="stroke:none;stroke-width:0"
               d="m 2.25,-1.734375 c 0.578125,-0.25 0.828125,-0.34375 1,-0.4375 0.140625,-0.046875 0.203125,-0.078125 0.203125,-0.21875 0,-0.109375 -0.09375,-0.21875 -0.21875,-0.21875 -0.046875,0 -0.0625,0 -0.140625,0.0625 L 2.140625,-1.90625 2.25,-2.9375 c 0.015625,-0.125 0,-0.296875 -0.21875,-0.296875 -0.078125,0 -0.21875,0.046875 -0.21875,0.203125 0,0.0625 0.03125,0.265625 0.046875,0.34375 0.015625,0.109375 0.0625,0.625 0.078125,0.78125 L 0.984375,-2.546875 c -0.0625,-0.03125 -0.078125,-0.0625 -0.140625,-0.0625 -0.140625,0 -0.21875,0.109375 -0.21875,0.21875 0,0.140625 0.078125,0.1875 0.140625,0.203125 L 1.8125,-1.734375 c -0.5625,0.25 -0.828125,0.34375 -1,0.421875 -0.125,0.0625 -0.1875,0.09375 -0.1875,0.21875 0,0.125 0.078125,0.21875 0.21875,0.21875 0.046875,0 0.0625,0 0.140625,-0.0625 l 0.953125,-0.625 -0.125,1.109375 c 0,0.15625 0.140625,0.21875 0.21875,0.21875 0.09375,0 0.21875,-0.0625 0.21875,-0.21875 0,-0.0625 -0.03125,-0.265625 -0.03125,-0.328125 -0.015625,-0.125 -0.0625,-0.625 -0.078125,-0.78125 L 2.96875,-1.015625 C 3.15625,-0.875 3.171875,-0.875 3.234375,-0.875 c 0.125,0 0.21875,-0.09375 0.21875,-0.21875 0,-0.140625 -0.09375,-0.171875 -0.15625,-0.203125 z m 0,0"
               id="id-a4051a53-cd99-4364-b1b9-0e1278f10de3" />
          </g>
        </g>
        <g
           style="fill:#000000;fill-opacity:1"
           id="id-e6a4805d-edbb-436c-bcf7-cf56d7ee7272">
          <g
             transform="translate(164.68,134.765)"
             id="g894">
            <path
               style="stroke:none;stroke-width:0"
               d="m 2.875,-2.5 c 0,-0.765625 -0.109375,-1.96875 -0.65625,-3.109375 -0.59375,-1.21875 -1.453125,-1.875 -1.546875,-1.875 -0.0625,0 -0.109375,0.046875 -0.109375,0.109375 0,0.03125 0,0.046875 0.1875,0.234375 0.984375,0.984375 1.546875,2.5625 1.546875,4.640625 0,1.71875 -0.359375,3.46875 -1.59375,4.71875 C 0.5625,2.34375 0.5625,2.359375 0.5625,2.390625 0.5625,2.453125 0.609375,2.5 0.671875,2.5 0.765625,2.5 1.671875,1.8125 2.25,0.546875 2.765625,-0.546875 2.875,-1.65625 2.875,-2.5 Z m 0,0"
               id="id-3981877c-0db9-4fd2-ab85-d96a3fbfef70" />
          </g>
        </g>
        <g
           style="fill:#000000;fill-opacity:1"
           id="id-52340b92-aae9-429d-95c3-07422374c021">
          <g
             transform="translate(168.555,131.149)"
             id="g898">
            <path
               style="stroke:none;stroke-width:0"
               d="m 3.28125,-4.5625 c 0,-0.109375 0,-0.28125 -0.171875,-0.28125 -0.171875,0 -0.171875,0.171875 -0.171875,0.28125 v 4.21875 h -2.125 c -0.109375,0 -0.28125,0 -0.28125,0.171875 C 0.53125,0 0.703125,0 0.8125,0 H 5.40625 C 5.515625,0 5.6875,0 5.6875,-0.171875 5.6875,-0.34375 5.53125,-0.34375 5.40625,-0.34375 h -2.125 z m 0,0"
               id="id-96718ceb-6515-425a-96e4-f728b05ee4e9" />
          </g>
        </g>
      </g>
    </g>
    <g
       transform="matrix(0.705556,0,0,0.705556,30.451701,107.17896)"
       ns5:version="1.3.0"
       ns5:texconverter="pdflatex"
       ns5:pdfconverter="inkscape"
       ns5:text="$\\langle Z^{*} ,X\\rangle = \\epsilon$"
       ns5:preamble="/home/user/.config/inkscape/extensions/textext/+bbold.tex"
       ns5:scale="1.999999943307123"
       ns5:alignment="middle center"
       ns5:jacobian_sqrt="0.705556"
       id="g1041">
      <defs
         id="id-7a262870-7384-4ec0-ac9b-13dfea3ac2a9">
        <g
           id="id-c330d3be-a500-4373-afa4-104ec06d90e8">
          <symbol
             overflow="visible"
             id="id-05378214-20c5-4291-aeb8-a1f39f83061e">
            <path
               style="stroke:none;stroke-width:0"
               d=""
               id="id-e4daacbd-7de2-4d03-9d99-f4bac1e4a05c" />
          </symbol>
          <symbol
             overflow="visible"
             id="id-0b70a55e-3546-4819-8f92-31417167706e">
            <path
               style="stroke:none;stroke-width:0"
               d="M 3.265625,-7.09375 C 3.3125,-7.203125 3.3125,-7.234375 3.3125,-7.28125 c 0,-0.109375 -0.078125,-0.203125 -0.1875,-0.203125 -0.09375,0 -0.171875,0.0625 -0.234375,0.234375 l -1.75,4.578125 C 1.125,-2.609375 1.09375,-2.546875 1.09375,-2.5 c 0,0.03125 0,0.0625 0.046875,0.171875 L 2.890625,2.25 C 2.9375,2.359375 2.984375,2.5 3.125,2.5 c 0.109375,0 0.1875,-0.09375 0.1875,-0.203125 0,-0.03125 0,-0.046875 -0.046875,-0.15625 L 1.5,-2.5 Z m 0,0"
               id="id-5608402c-bd82-4026-bf17-73e64bad7b7f" />
          </symbol>
          <symbol
             overflow="visible"
             id="id-e453b981-a6c4-41a4-b5bc-28624a1bd6c2">
            <path
               style="stroke:none;stroke-width:0"
               d="M 2.71875,-2.328125 C 2.765625,-2.4375 2.765625,-2.46875 2.765625,-2.5 c 0,-0.015625 0,-0.046875 -0.046875,-0.15625 L 0.984375,-7.25 c -0.0625,-0.171875 -0.125,-0.234375 -0.234375,-0.234375 -0.109375,0 -0.203125,0.09375 -0.203125,0.203125 0,0.03125 0,0.046875 0.046875,0.15625 L 2.359375,-2.5 0.59375,2.109375 C 0.546875,2.21875 0.546875,2.25 0.546875,2.296875 0.546875,2.40625 0.640625,2.5 0.75,2.5 0.875,2.5 0.921875,2.390625 0.953125,2.296875 Z m 0,0"
               id="id-3e077e38-719c-4560-be24-9a627067a794" />
          </symbol>
          <symbol
             overflow="visible"
             id="id-2a8ce13c-a857-4cd0-8c93-963b21bfeda6">
            <path
               style="stroke:none;stroke-width:0"
               d=""
               id="id-7155543e-7ea6-4e2d-b089-f7dfb062b865" />
          </symbol>
          <symbol
             overflow="visible"
             id="id-740c25c7-a2bc-496b-935c-a6d82e0a120a">
            <path
               style="stroke:none;stroke-width:0"
               d="m 7.171875,-6.5625 c 0.015625,-0.046875 0.03125,-0.09375 0.03125,-0.15625 0,-0.09375 -0.046875,-0.09375 -0.25,-0.09375 H 2.75 c -0.234375,0 -0.25,0.015625 -0.3125,0.203125 L 1.890625,-4.8125 c -0.015625,0.046875 -0.03125,0.125 -0.03125,0.140625 0,0 0,0.109375 0.125,0.109375 0.09375,0 0.109375,-0.078125 0.125,-0.109375 C 2.5,-5.84375 3.015625,-6.5 4.5625,-6.5 h 1.625 L 0.625,-0.265625 c 0,0 -0.046875,0.140625 -0.046875,0.171875 C 0.578125,0 0.640625,0 0.828125,0 H 5.15625 c 0.25,0 0.25,-0.015625 0.3125,-0.203125 L 6.1875,-2.40625 c 0,-0.03125 0.03125,-0.109375 0.03125,-0.140625 0,-0.0625 -0.03125,-0.109375 -0.125,-0.109375 -0.09375,0 -0.109375,0.03125 -0.171875,0.25 C 5.484375,-1.0625 5,-0.34375 3.3125,-0.34375 H 1.609375 Z m 0,0"
               id="id-f0f321e5-cf17-4777-8b3b-fd1df0130f6b" />
          </symbol>
          <symbol
             overflow="visible"
             id="id-7b5f6894-22b8-4920-a306-1796001a463e">
            <path
               style="stroke:none;stroke-width:0"
               d="m 2.03125,-0.015625 c 0,-0.65625 -0.25,-1.046875 -0.640625,-1.046875 -0.328125,0 -0.53125,0.25 -0.53125,0.53125 C 0.859375,-0.265625 1.0625,0 1.390625,0 1.5,0 1.640625,-0.046875 1.734375,-0.125 1.765625,-0.15625 1.78125,-0.15625 1.78125,-0.15625 c 0.015625,0 0.015625,0 0.015625,0.140625 0,0.75 -0.34375,1.34375 -0.671875,1.671875 -0.109375,0.109375 -0.109375,0.125 -0.109375,0.15625 0,0.078125 0.046875,0.109375 0.09375,0.109375 0.109375,0 0.921875,-0.765625 0.921875,-1.9375 z m 0,0"
               id="id-f6c97322-0508-43ef-a532-378a92891e61" />
          </symbol>
          <symbol
             overflow="visible"
             id="id-1d577c8a-890d-42e8-b829-21147fc7ffd2">
            <path
               style="stroke:none;stroke-width:0"
               d="M 4.828125,-4.09375 4,-6.078125 c -0.03125,-0.078125 -0.046875,-0.125 -0.046875,-0.125 0,-0.0625 0.15625,-0.25 0.578125,-0.296875 0.109375,-0.015625 0.203125,-0.015625 0.203125,-0.1875 0,-0.125 -0.125,-0.125 -0.15625,-0.125 -0.40625,0 -0.828125,0.03125 -1.25,0.03125 -0.25,0 -0.859375,-0.03125 -1.109375,-0.03125 -0.0625,0 -0.1875,0 -0.1875,0.203125 C 2.03125,-6.5 2.140625,-6.5 2.265625,-6.5 c 0.59375,0 0.65625,0.09375 0.75,0.3125 l 1.171875,2.78125 -2.109375,2.265625 -0.125,0.109375 C 1.46875,-0.5 1,-0.34375 0.484375,-0.3125 c -0.125,0.015625 -0.21875,0.015625 -0.21875,0.203125 0,0.015625 0,0.109375 0.140625,0.109375 0.296875,0 0.625,-0.03125 0.921875,-0.03125 C 1.703125,-0.03125 2.09375,0 2.453125,0 2.515625,0 2.625,0 2.625,-0.203125 2.625,-0.296875 2.53125,-0.3125 2.515625,-0.3125 c -0.09375,0 -0.40625,-0.03125 -0.40625,-0.3125 0,-0.15625 0.15625,-0.3125 0.265625,-0.4375 L 3.40625,-2.140625 4.296875,-3.125 l 1,2.390625 c 0.046875,0.109375 0.0625,0.109375 0.0625,0.140625 0,0.078125 -0.203125,0.25 -0.578125,0.28125 C 4.671875,-0.296875 4.578125,-0.296875 4.578125,-0.125 4.578125,0 4.6875,0 4.71875,0 5,0 5.703125,-0.03125 5.984375,-0.03125 6.234375,-0.03125 6.84375,0 7.09375,0 c 0.0625,0 0.1875,0 0.1875,-0.1875 0,-0.125 -0.109375,-0.125 -0.1875,-0.125 -0.65625,0 -0.6875,-0.03125 -0.859375,-0.4375 C 5.859375,-1.671875 5.1875,-3.234375 4.953125,-3.828125 5.625,-4.53125 6.671875,-5.71875 7,-5.984375 7.28125,-6.234375 7.671875,-6.46875 8.265625,-6.5 c 0.125,-0.015625 0.21875,-0.015625 0.21875,-0.203125 0,0 0,-0.109375 -0.125,-0.109375 -0.296875,0 -0.640625,0.03125 -0.9375,0.03125 -0.375,0 -0.75,-0.03125 -1.109375,-0.03125 -0.0625,0 -0.1875,0 -0.1875,0.203125 0,0.0625 0.046875,0.09375 0.109375,0.109375 0.09375,0.015625 0.40625,0.03125 0.40625,0.3125 0,0.140625 -0.109375,0.265625 -0.1875,0.359375 z m 0,0"
               id="id-cfc86604-8bed-4e66-9946-2b7665c42366" />
          </symbol>
          <symbol
             overflow="visible"
             id="id-815ae084-412f-41a8-bcaf-6c1fb8154293">
            <path
               style="stroke:none;stroke-width:0"
               d="m 2.96875,-2.25 c 0.15625,0 0.34375,0 0.34375,-0.171875 C 3.3125,-2.5625 3.1875,-2.5625 3.015625,-2.5625 H 1.40625 c 0.234375,-0.84375 0.796875,-1.421875 1.703125,-1.421875 h 0.3125 c 0.171875,0 0.328125,0 0.328125,-0.171875 0,-0.140625 -0.125,-0.140625 -0.296875,-0.140625 H 3.09375 c -1.296875,0 -2.625,1 -2.625,2.515625 0,1.109375 0.75,1.890625 1.796875,1.890625 0.65625,0 1.296875,-0.40625 1.296875,-0.515625 0,-0.015625 0,-0.125 -0.09375,-0.125 -0.015625,0 -0.046875,0 -0.125,0.046875 -0.3125,0.203125 -0.6875,0.375 -1.046875,0.375 -0.578125,0 -1.078125,-0.421875 -1.078125,-1.296875 0,-0.34375 0.078125,-0.734375 0.109375,-0.84375 z m 0,0"
               id="id-fb35f0e8-d952-4f97-899a-b6370286dbb3" />
          </symbol>
          <symbol
             overflow="visible"
             id="id-baa69746-44cb-414a-9681-2fef4cdacdab">
            <path
               style="stroke:none;stroke-width:0"
               d=""
               id="id-ebac55a8-2cbc-4f24-8fab-0766610cd0b2" />
          </symbol>
          <symbol
             overflow="visible"
             id="id-4de19a66-adaf-4398-a1f5-ee9d2525c0d6">
            <path
               style="stroke:none;stroke-width:0"
               d="m 2.25,-1.734375 c 0.578125,-0.25 0.828125,-0.34375 1,-0.4375 0.140625,-0.046875 0.203125,-0.078125 0.203125,-0.21875 0,-0.109375 -0.09375,-0.21875 -0.21875,-0.21875 -0.046875,0 -0.0625,0 -0.140625,0.0625 L 2.140625,-1.90625 2.25,-2.9375 c 0.015625,-0.125 0,-0.296875 -0.21875,-0.296875 -0.078125,0 -0.21875,0.046875 -0.21875,0.203125 0,0.0625 0.03125,0.265625 0.046875,0.34375 0.015625,0.109375 0.0625,0.625 0.078125,0.78125 L 0.984375,-2.546875 c -0.0625,-0.03125 -0.078125,-0.0625 -0.140625,-0.0625 -0.140625,0 -0.21875,0.109375 -0.21875,0.21875 0,0.140625 0.078125,0.1875 0.140625,0.203125 L 1.8125,-1.734375 c -0.5625,0.25 -0.828125,0.34375 -1,0.421875 -0.125,0.0625 -0.1875,0.09375 -0.1875,0.21875 0,0.125 0.078125,0.21875 0.21875,0.21875 0.046875,0 0.0625,0 0.140625,-0.0625 l 0.953125,-0.625 -0.125,1.109375 c 0,0.15625 0.140625,0.21875 0.21875,0.21875 0.09375,0 0.21875,-0.0625 0.21875,-0.21875 0,-0.0625 -0.03125,-0.265625 -0.03125,-0.328125 -0.015625,-0.125 -0.0625,-0.625 -0.078125,-0.78125 L 2.96875,-1.015625 C 3.15625,-0.875 3.171875,-0.875 3.234375,-0.875 c 0.125,0 0.21875,-0.09375 0.21875,-0.21875 0,-0.140625 -0.09375,-0.171875 -0.15625,-0.203125 z m 0,0"
               id="id-3b534959-d8c0-42e1-9348-265295e1c0ea" />
          </symbol>
          <symbol
             overflow="visible"
             id="id-5c8a122d-b5e7-4bd3-a063-3d25a8b6f129">
            <path
               style="stroke:none;stroke-width:0"
               d=""
               id="id-17fbb2fb-7e10-48d0-85f4-25636742f55f" />
          </symbol>
          <symbol
             overflow="visible"
             id="id-1dba9286-abc8-48b8-bf43-c86cf4bd7f7a">
            <path
               style="stroke:none;stroke-width:0"
               d="m 6.84375,-3.265625 c 0.15625,0 0.34375,0 0.34375,-0.1875 C 7.1875,-3.65625 7,-3.65625 6.859375,-3.65625 h -5.96875 c -0.140625,0 -0.328125,0 -0.328125,0.203125 0,0.1875 0.1875,0.1875 0.328125,0.1875 z m 0.015625,1.9375 c 0.140625,0 0.328125,0 0.328125,-0.203125 0,-0.1875 -0.1875,-0.1875 -0.34375,-0.1875 H 0.890625 c -0.140625,0 -0.328125,0 -0.328125,0.1875 0,0.203125 0.1875,0.203125 0.328125,0.203125 z m 0,0"
               id="id-7b2db584-c846-4a62-ae4f-67cecfd00727" />
          </symbol>
        </g>
      </defs>
      <g
         id="id-f74e9401-f14e-4c1d-9d08-d30489c0fc27"
         transform="translate(-149.806,-127.281)">
        <g
           style="fill:#000000;fill-opacity:1"
           id="id-a6fd3291-fb66-43f7-8e4d-ac4b65869b70">
          <g
             transform="translate(148.712,134.765)"
             id="g1009">
            <path
               style="stroke:none;stroke-width:0"
               d="M 3.265625,-7.09375 C 3.3125,-7.203125 3.3125,-7.234375 3.3125,-7.28125 c 0,-0.109375 -0.078125,-0.203125 -0.1875,-0.203125 -0.09375,0 -0.171875,0.0625 -0.234375,0.234375 l -1.75,4.578125 C 1.125,-2.609375 1.09375,-2.546875 1.09375,-2.5 c 0,0.03125 0,0.0625 0.046875,0.171875 L 2.890625,2.25 C 2.9375,2.359375 2.984375,2.5 3.125,2.5 c 0.109375,0 0.1875,-0.09375 0.1875,-0.203125 0,-0.03125 0,-0.046875 -0.046875,-0.15625 L 1.5,-2.5 Z m 0,0"
               id="id-9befb94c-dfee-4df2-976d-68567a4af38e" />
          </g>
        </g>
        <g
           style="fill:#000000;fill-opacity:1"
           id="id-eaacd855-e68a-4f2d-83ca-ea0d29ba5fbb">
          <g
             transform="translate(152.587,134.765)"
             id="g1013">
            <path
               style="stroke:none;stroke-width:0"
               d="m 7.171875,-6.5625 c 0.015625,-0.046875 0.03125,-0.09375 0.03125,-0.15625 0,-0.09375 -0.046875,-0.09375 -0.25,-0.09375 H 2.75 c -0.234375,0 -0.25,0.015625 -0.3125,0.203125 L 1.890625,-4.8125 c -0.015625,0.046875 -0.03125,0.125 -0.03125,0.140625 0,0 0,0.109375 0.125,0.109375 0.09375,0 0.109375,-0.078125 0.125,-0.109375 C 2.5,-5.84375 3.015625,-6.5 4.5625,-6.5 h 1.625 L 0.625,-0.265625 c 0,0 -0.046875,0.140625 -0.046875,0.171875 C 0.578125,0 0.640625,0 0.828125,0 H 5.15625 c 0.25,0 0.25,-0.015625 0.3125,-0.203125 L 6.1875,-2.40625 c 0,-0.03125 0.03125,-0.109375 0.03125,-0.140625 0,-0.0625 -0.03125,-0.109375 -0.125,-0.109375 -0.09375,0 -0.109375,0.03125 -0.171875,0.25 C 5.484375,-1.0625 5,-0.34375 3.3125,-0.34375 H 1.609375 Z m 0,0"
               id="id-7af6d561-8d3d-441d-a479-b1b307506dd8" />
          </g>
        </g>
        <g
           style="fill:#000000;fill-opacity:1"
           id="id-30c10098-783f-432e-866e-eb9b605295fb">
          <g
             transform="translate(160.1,131.149)"
             id="g1017">
            <path
               style="stroke:none;stroke-width:0"
               d="m 2.25,-1.734375 c 0.578125,-0.25 0.828125,-0.34375 1,-0.4375 0.140625,-0.046875 0.203125,-0.078125 0.203125,-0.21875 0,-0.109375 -0.09375,-0.21875 -0.21875,-0.21875 -0.046875,0 -0.0625,0 -0.140625,0.0625 L 2.140625,-1.90625 2.25,-2.9375 c 0.015625,-0.125 0,-0.296875 -0.21875,-0.296875 -0.078125,0 -0.21875,0.046875 -0.21875,0.203125 0,0.0625 0.03125,0.265625 0.046875,0.34375 0.015625,0.109375 0.0625,0.625 0.078125,0.78125 L 0.984375,-2.546875 c -0.0625,-0.03125 -0.078125,-0.0625 -0.140625,-0.0625 -0.140625,0 -0.21875,0.109375 -0.21875,0.21875 0,0.140625 0.078125,0.1875 0.140625,0.203125 L 1.8125,-1.734375 c -0.5625,0.25 -0.828125,0.34375 -1,0.421875 -0.125,0.0625 -0.1875,0.09375 -0.1875,0.21875 0,0.125 0.078125,0.21875 0.21875,0.21875 0.046875,0 0.0625,0 0.140625,-0.0625 l 0.953125,-0.625 -0.125,1.109375 c 0,0.15625 0.140625,0.21875 0.21875,0.21875 0.09375,0 0.21875,-0.0625 0.21875,-0.21875 0,-0.0625 -0.03125,-0.265625 -0.03125,-0.328125 -0.015625,-0.125 -0.0625,-0.625 -0.078125,-0.78125 L 2.96875,-1.015625 C 3.15625,-0.875 3.171875,-0.875 3.234375,-0.875 c 0.125,0 0.21875,-0.09375 0.21875,-0.21875 0,-0.140625 -0.09375,-0.171875 -0.15625,-0.203125 z m 0,0"
               id="id-8597cb2e-8833-4187-ba1f-54b8deaae936" />
          </g>
        </g>
        <g
           style="fill:#000000;fill-opacity:1"
           id="id-3dae4315-499a-41de-bfa7-e7a7faac030a">
          <g
             transform="translate(164.68,134.765)"
             id="g1021">
            <path
               style="stroke:none;stroke-width:0"
               d="m 2.03125,-0.015625 c 0,-0.65625 -0.25,-1.046875 -0.640625,-1.046875 -0.328125,0 -0.53125,0.25 -0.53125,0.53125 C 0.859375,-0.265625 1.0625,0 1.390625,0 1.5,0 1.640625,-0.046875 1.734375,-0.125 1.765625,-0.15625 1.78125,-0.15625 1.78125,-0.15625 c 0.015625,0 0.015625,0 0.015625,0.140625 0,0.75 -0.34375,1.34375 -0.671875,1.671875 -0.109375,0.109375 -0.109375,0.125 -0.109375,0.15625 0,0.078125 0.046875,0.109375 0.09375,0.109375 0.109375,0 0.921875,-0.765625 0.921875,-1.9375 z m 0,0"
               id="id-e78462f8-298d-41f6-86c2-bd6e98c9193a" />
          </g>
        </g>
        <g
           style="fill:#000000;fill-opacity:1"
           id="id-7b67e492-2d42-4362-833a-99bbe087aa01">
          <g
             transform="translate(169.111,134.765)"
             id="g1025">
            <path
               style="stroke:none;stroke-width:0"
               d="M 4.828125,-4.09375 4,-6.078125 c -0.03125,-0.078125 -0.046875,-0.125 -0.046875,-0.125 0,-0.0625 0.15625,-0.25 0.578125,-0.296875 0.109375,-0.015625 0.203125,-0.015625 0.203125,-0.1875 0,-0.125 -0.125,-0.125 -0.15625,-0.125 -0.40625,0 -0.828125,0.03125 -1.25,0.03125 -0.25,0 -0.859375,-0.03125 -1.109375,-0.03125 -0.0625,0 -0.1875,0 -0.1875,0.203125 C 2.03125,-6.5 2.140625,-6.5 2.265625,-6.5 c 0.59375,0 0.65625,0.09375 0.75,0.3125 l 1.171875,2.78125 -2.109375,2.265625 -0.125,0.109375 C 1.46875,-0.5 1,-0.34375 0.484375,-0.3125 c -0.125,0.015625 -0.21875,0.015625 -0.21875,0.203125 0,0.015625 0,0.109375 0.140625,0.109375 0.296875,0 0.625,-0.03125 0.921875,-0.03125 C 1.703125,-0.03125 2.09375,0 2.453125,0 2.515625,0 2.625,0 2.625,-0.203125 2.625,-0.296875 2.53125,-0.3125 2.515625,-0.3125 c -0.09375,0 -0.40625,-0.03125 -0.40625,-0.3125 0,-0.15625 0.15625,-0.3125 0.265625,-0.4375 L 3.40625,-2.140625 4.296875,-3.125 l 1,2.390625 c 0.046875,0.109375 0.0625,0.109375 0.0625,0.140625 0,0.078125 -0.203125,0.25 -0.578125,0.28125 C 4.671875,-0.296875 4.578125,-0.296875 4.578125,-0.125 4.578125,0 4.6875,0 4.71875,0 5,0 5.703125,-0.03125 5.984375,-0.03125 6.234375,-0.03125 6.84375,0 7.09375,0 c 0.0625,0 0.1875,0 0.1875,-0.1875 0,-0.125 -0.109375,-0.125 -0.1875,-0.125 -0.65625,0 -0.6875,-0.03125 -0.859375,-0.4375 C 5.859375,-1.671875 5.1875,-3.234375 4.953125,-3.828125 5.625,-4.53125 6.671875,-5.71875 7,-5.984375 7.28125,-6.234375 7.671875,-6.46875 8.265625,-6.5 c 0.125,-0.015625 0.21875,-0.015625 0.21875,-0.203125 0,0 0,-0.109375 -0.125,-0.109375 -0.296875,0 -0.640625,0.03125 -0.9375,0.03125 -0.375,0 -0.75,-0.03125 -1.109375,-0.03125 -0.0625,0 -0.1875,0 -0.1875,0.203125 0,0.0625 0.046875,0.09375 0.109375,0.109375 0.09375,0.015625 0.40625,0.03125 0.40625,0.3125 0,0.140625 -0.109375,0.265625 -0.1875,0.359375 z m 0,0"
               id="id-e4dd9e2f-e9d4-4ba1-9495-83edbf79577d" />
          </g>
        </g>
        <g
           style="fill:#000000;fill-opacity:1"
           id="id-df9ce515-ed12-42a4-8883-1088326b9f5b">
          <g
             transform="translate(178.144,134.765)"
             id="g1029">
            <path
               style="stroke:none;stroke-width:0"
               d="M 2.71875,-2.328125 C 2.765625,-2.4375 2.765625,-2.46875 2.765625,-2.5 c 0,-0.015625 0,-0.046875 -0.046875,-0.15625 L 0.984375,-7.25 c -0.0625,-0.171875 -0.125,-0.234375 -0.234375,-0.234375 -0.109375,0 -0.203125,0.09375 -0.203125,0.203125 0,0.03125 0,0.046875 0.046875,0.15625 L 2.359375,-2.5 0.59375,2.109375 C 0.546875,2.21875 0.546875,2.25 0.546875,2.296875 0.546875,2.40625 0.640625,2.5 0.75,2.5 0.875,2.5 0.921875,2.390625 0.953125,2.296875 Z m 0,0"
               id="id-431fb74c-b3ff-4959-a461-1fba9dc4b234" />
          </g>
        </g>
        <g
           style="fill:#000000;fill-opacity:1"
           id="id-a88e32fe-dd16-47f3-991a-59ac422098fb">
          <g
             transform="translate(184.785,134.765)"
             id="g1033">
            <path
               style="stroke:none;stroke-width:0"
               d="m 6.84375,-3.265625 c 0.15625,0 0.34375,0 0.34375,-0.1875 C 7.1875,-3.65625 7,-3.65625 6.859375,-3.65625 h -5.96875 c -0.140625,0 -0.328125,0 -0.328125,0.203125 0,0.1875 0.1875,0.1875 0.328125,0.1875 z m 0.015625,1.9375 c 0.140625,0 0.328125,0 0.328125,-0.203125 0,-0.1875 -0.1875,-0.1875 -0.34375,-0.1875 H 0.890625 c -0.140625,0 -0.328125,0 -0.328125,0.1875 0,0.203125 0.1875,0.203125 0.328125,0.203125 z m 0,0"
               id="id-36f36407-460f-4340-b7b8-c1724738f4c3" />
          </g>
        </g>
        <g
           style="fill:#000000;fill-opacity:1"
           id="id-f8538519-a575-4474-8d61-3a69c21435a7">
          <g
             transform="translate(195.301,134.765)"
             id="g1037">
            <path
               style="stroke:none;stroke-width:0"
               d="m 2.96875,-2.25 c 0.15625,0 0.34375,0 0.34375,-0.171875 C 3.3125,-2.5625 3.1875,-2.5625 3.015625,-2.5625 H 1.40625 c 0.234375,-0.84375 0.796875,-1.421875 1.703125,-1.421875 h 0.3125 c 0.171875,0 0.328125,0 0.328125,-0.171875 0,-0.140625 -0.125,-0.140625 -0.296875,-0.140625 H 3.09375 c -1.296875,0 -2.625,1 -2.625,2.515625 0,1.109375 0.75,1.890625 1.796875,1.890625 0.65625,0 1.296875,-0.40625 1.296875,-0.515625 0,-0.015625 0,-0.125 -0.09375,-0.125 -0.015625,0 -0.046875,0 -0.125,0.046875 -0.3125,0.203125 -0.6875,0.375 -1.046875,0.375 -0.578125,0 -1.078125,-0.421875 -1.078125,-1.296875 0,-0.34375 0.078125,-0.734375 0.109375,-0.84375 z m 0,0"
               id="id-fada51aa-13d5-4251-93b4-ea5200764897" />
          </g>
        </g>
      </g>
    </g>
    <circle
       style="fill:#c83737;fill-opacity:1;stroke:#960000;stroke-width:0.301968;stroke-miterlimit:4;stroke-dasharray:none;stroke-opacity:1"
       id="path1097-6"
       cx="71.688423"
       cy="84.780251"
       r="1.0230255" />
    <path
       style="fill:none;stroke:#000000;stroke-width:0.484327;stroke-linecap:butt;stroke-linejoin:miter;stroke-miterlimit:4;stroke-dasharray:none;stroke-opacity:1;marker-end:url(#Arrow1Mend)"
       d="m 68.514233,61.65195 2.924334,21.997242"
       id="path1374" />
    <circle
       style="fill:#c83737;fill-opacity:1;stroke:#960000;stroke-width:0.499999;stroke-miterlimit:4;stroke-dasharray:none;stroke-opacity:1"
       id="path1097"
       cx="68.660751"
       cy="61.762901"
       r="1.693925" />
    <g
       transform="matrix(0.705556,0,0,0.705556,72.976579,58.784266)"
       ns5:version="1.3.0"
       ns5:texconverter="pdflatex"
       ns5:pdfconverter="inkscape"
       ns5:text="$X^{*}$"
       ns5:preamble="/home/user/.config/inkscape/extensions/textext/+bbold.tex"
       ns5:scale="1.999999943307123"
       ns5:alignment="middle center"
       ns5:jacobian_sqrt="0.705556"
       id="g1212">
      <defs
         id="id-f5a6760a-ed8b-4da3-85a7-d6d564d93a0f">
        <g
           id="id-1f57c153-7c72-40dd-951a-4d20279196ab">
          <symbol
             overflow="visible"
             id="id-32e5eb4d-a084-4b20-a499-a2755a85a51f">
            <path
               style="stroke:none;stroke-width:0"
               d=""
               id="id-0e49da49-6300-4b38-a582-90ab9e92feb0" />
          </symbol>
          <symbol
             overflow="visible"
             id="id-6d992bad-fa6f-48c5-a61f-293d12b4c4a6">
            <path
               style="stroke:none;stroke-width:0"
               d="M 4.828125,-4.09375 4,-6.078125 c -0.03125,-0.078125 -0.046875,-0.125 -0.046875,-0.125 0,-0.0625 0.15625,-0.25 0.578125,-0.296875 0.109375,-0.015625 0.203125,-0.015625 0.203125,-0.1875 0,-0.125 -0.125,-0.125 -0.15625,-0.125 -0.40625,0 -0.828125,0.03125 -1.25,0.03125 -0.25,0 -0.859375,-0.03125 -1.109375,-0.03125 -0.0625,0 -0.1875,0 -0.1875,0.203125 C 2.03125,-6.5 2.140625,-6.5 2.265625,-6.5 c 0.59375,0 0.65625,0.09375 0.75,0.3125 l 1.171875,2.78125 -2.109375,2.265625 -0.125,0.109375 C 1.46875,-0.5 1,-0.34375 0.484375,-0.3125 c -0.125,0.015625 -0.21875,0.015625 -0.21875,0.203125 0,0.015625 0,0.109375 0.140625,0.109375 0.296875,0 0.625,-0.03125 0.921875,-0.03125 C 1.703125,-0.03125 2.09375,0 2.453125,0 2.515625,0 2.625,0 2.625,-0.203125 2.625,-0.296875 2.53125,-0.3125 2.515625,-0.3125 c -0.09375,0 -0.40625,-0.03125 -0.40625,-0.3125 0,-0.15625 0.15625,-0.3125 0.265625,-0.4375 L 3.40625,-2.140625 4.296875,-3.125 l 1,2.390625 c 0.046875,0.109375 0.0625,0.109375 0.0625,0.140625 0,0.078125 -0.203125,0.25 -0.578125,0.28125 C 4.671875,-0.296875 4.578125,-0.296875 4.578125,-0.125 4.578125,0 4.6875,0 4.71875,0 5,0 5.703125,-0.03125 5.984375,-0.03125 6.234375,-0.03125 6.84375,0 7.09375,0 c 0.0625,0 0.1875,0 0.1875,-0.1875 0,-0.125 -0.109375,-0.125 -0.1875,-0.125 -0.65625,0 -0.6875,-0.03125 -0.859375,-0.4375 C 5.859375,-1.671875 5.1875,-3.234375 4.953125,-3.828125 5.625,-4.53125 6.671875,-5.71875 7,-5.984375 7.28125,-6.234375 7.671875,-6.46875 8.265625,-6.5 c 0.125,-0.015625 0.21875,-0.015625 0.21875,-0.203125 0,0 0,-0.109375 -0.125,-0.109375 -0.296875,0 -0.640625,0.03125 -0.9375,0.03125 -0.375,0 -0.75,-0.03125 -1.109375,-0.03125 -0.0625,0 -0.1875,0 -0.1875,0.203125 0,0.0625 0.046875,0.09375 0.109375,0.109375 0.09375,0.015625 0.40625,0.03125 0.40625,0.3125 0,0.140625 -0.109375,0.265625 -0.1875,0.359375 z m 0,0"
               id="id-60df5b3b-7a31-4546-8e3c-a09b2f324533" />
          </symbol>
          <symbol
             overflow="visible"
             id="id-dfe7b565-ff92-47ec-a317-9567f750f5ba">
            <path
               style="stroke:none;stroke-width:0"
               d=""
               id="id-09413785-04b1-402f-8e4e-064c2b3f8e4e" />
          </symbol>
          <symbol
             overflow="visible"
             id="id-3c2b6cda-09f3-46d5-b302-750b70fd1749">
            <path
               style="stroke:none;stroke-width:0"
               d="m 2.25,-1.734375 c 0.578125,-0.25 0.828125,-0.34375 1,-0.4375 0.140625,-0.046875 0.203125,-0.078125 0.203125,-0.21875 0,-0.109375 -0.09375,-0.21875 -0.21875,-0.21875 -0.046875,0 -0.0625,0 -0.140625,0.0625 L 2.140625,-1.90625 2.25,-2.9375 c 0.015625,-0.125 0,-0.296875 -0.21875,-0.296875 -0.078125,0 -0.21875,0.046875 -0.21875,0.203125 0,0.0625 0.03125,0.265625 0.046875,0.34375 0.015625,0.109375 0.0625,0.625 0.078125,0.78125 L 0.984375,-2.546875 c -0.0625,-0.03125 -0.078125,-0.0625 -0.140625,-0.0625 -0.140625,0 -0.21875,0.109375 -0.21875,0.21875 0,0.140625 0.078125,0.1875 0.140625,0.203125 L 1.8125,-1.734375 c -0.5625,0.25 -0.828125,0.34375 -1,0.421875 -0.125,0.0625 -0.1875,0.09375 -0.1875,0.21875 0,0.125 0.078125,0.21875 0.21875,0.21875 0.046875,0 0.0625,0 0.140625,-0.0625 l 0.953125,-0.625 -0.125,1.109375 c 0,0.15625 0.140625,0.21875 0.21875,0.21875 0.09375,0 0.21875,-0.0625 0.21875,-0.21875 0,-0.0625 -0.03125,-0.265625 -0.03125,-0.328125 -0.015625,-0.125 -0.0625,-0.625 -0.078125,-0.78125 L 2.96875,-1.015625 C 3.15625,-0.875 3.171875,-0.875 3.234375,-0.875 c 0.125,0 0.21875,-0.09375 0.21875,-0.21875 0,-0.140625 -0.09375,-0.171875 -0.15625,-0.203125 z m 0,0"
               id="id-91f1c186-2cb1-4a24-b113-39622a34b261" />
          </symbol>
        </g>
      </defs>
      <g
         id="id-7d4c8f2e-b3af-4865-93ee-26213fbb9373"
         transform="translate(-148.978,-127.915)">
        <g
           style="fill:#000000;fill-opacity:1"
           id="id-063c507b-c062-49d5-aba4-73114dbd684b">
          <g
             transform="translate(148.712,134.765)"
             id="g1204">
            <path
               style="stroke:none;stroke-width:0"
               d="M 4.828125,-4.09375 4,-6.078125 c -0.03125,-0.078125 -0.046875,-0.125 -0.046875,-0.125 0,-0.0625 0.15625,-0.25 0.578125,-0.296875 0.109375,-0.015625 0.203125,-0.015625 0.203125,-0.1875 0,-0.125 -0.125,-0.125 -0.15625,-0.125 -0.40625,0 -0.828125,0.03125 -1.25,0.03125 -0.25,0 -0.859375,-0.03125 -1.109375,-0.03125 -0.0625,0 -0.1875,0 -0.1875,0.203125 C 2.03125,-6.5 2.140625,-6.5 2.265625,-6.5 c 0.59375,0 0.65625,0.09375 0.75,0.3125 l 1.171875,2.78125 -2.109375,2.265625 -0.125,0.109375 C 1.46875,-0.5 1,-0.34375 0.484375,-0.3125 c -0.125,0.015625 -0.21875,0.015625 -0.21875,0.203125 0,0.015625 0,0.109375 0.140625,0.109375 0.296875,0 0.625,-0.03125 0.921875,-0.03125 C 1.703125,-0.03125 2.09375,0 2.453125,0 2.515625,0 2.625,0 2.625,-0.203125 2.625,-0.296875 2.53125,-0.3125 2.515625,-0.3125 c -0.09375,0 -0.40625,-0.03125 -0.40625,-0.3125 0,-0.15625 0.15625,-0.3125 0.265625,-0.4375 L 3.40625,-2.140625 4.296875,-3.125 l 1,2.390625 c 0.046875,0.109375 0.0625,0.109375 0.0625,0.140625 0,0.078125 -0.203125,0.25 -0.578125,0.28125 C 4.671875,-0.296875 4.578125,-0.296875 4.578125,-0.125 4.578125,0 4.6875,0 4.71875,0 5,0 5.703125,-0.03125 5.984375,-0.03125 6.234375,-0.03125 6.84375,0 7.09375,0 c 0.0625,0 0.1875,0 0.1875,-0.1875 0,-0.125 -0.109375,-0.125 -0.1875,-0.125 -0.65625,0 -0.6875,-0.03125 -0.859375,-0.4375 C 5.859375,-1.671875 5.1875,-3.234375 4.953125,-3.828125 5.625,-4.53125 6.671875,-5.71875 7,-5.984375 7.28125,-6.234375 7.671875,-6.46875 8.265625,-6.5 c 0.125,-0.015625 0.21875,-0.015625 0.21875,-0.203125 0,0 0,-0.109375 -0.125,-0.109375 -0.296875,0 -0.640625,0.03125 -0.9375,0.03125 -0.375,0 -0.75,-0.03125 -1.109375,-0.03125 -0.0625,0 -0.1875,0 -0.1875,0.203125 0,0.0625 0.046875,0.09375 0.109375,0.109375 0.09375,0.015625 0.40625,0.03125 0.40625,0.3125 0,0.140625 -0.109375,0.265625 -0.1875,0.359375 z m 0,0"
               id="id-b4766776-573e-4653-bc5a-dfbd0e76f5e5" />
          </g>
        </g>
        <g
           style="fill:#000000;fill-opacity:1"
           id="id-797cc756-b4e9-43f3-aaef-5c0f3f695d24">
          <g
             transform="translate(157.748,131.149)"
             id="g1208">
            <path
               style="stroke:none;stroke-width:0"
               d="m 2.25,-1.734375 c 0.578125,-0.25 0.828125,-0.34375 1,-0.4375 0.140625,-0.046875 0.203125,-0.078125 0.203125,-0.21875 0,-0.109375 -0.09375,-0.21875 -0.21875,-0.21875 -0.046875,0 -0.0625,0 -0.140625,0.0625 L 2.140625,-1.90625 2.25,-2.9375 c 0.015625,-0.125 0,-0.296875 -0.21875,-0.296875 -0.078125,0 -0.21875,0.046875 -0.21875,0.203125 0,0.0625 0.03125,0.265625 0.046875,0.34375 0.015625,0.109375 0.0625,0.625 0.078125,0.78125 L 0.984375,-2.546875 c -0.0625,-0.03125 -0.078125,-0.0625 -0.140625,-0.0625 -0.140625,0 -0.21875,0.109375 -0.21875,0.21875 0,0.140625 0.078125,0.1875 0.140625,0.203125 L 1.8125,-1.734375 c -0.5625,0.25 -0.828125,0.34375 -1,0.421875 -0.125,0.0625 -0.1875,0.09375 -0.1875,0.21875 0,0.125 0.078125,0.21875 0.21875,0.21875 0.046875,0 0.0625,0 0.140625,-0.0625 l 0.953125,-0.625 -0.125,1.109375 c 0,0.15625 0.140625,0.21875 0.21875,0.21875 0.09375,0 0.21875,-0.0625 0.21875,-0.21875 0,-0.0625 -0.03125,-0.265625 -0.03125,-0.328125 -0.015625,-0.125 -0.0625,-0.625 -0.078125,-0.78125 L 2.96875,-1.015625 C 3.15625,-0.875 3.171875,-0.875 3.234375,-0.875 c 0.125,0 0.21875,-0.09375 0.21875,-0.21875 0,-0.140625 -0.09375,-0.171875 -0.15625,-0.203125 z m 0,0"
               id="id-5c6be43d-f7d8-4a95-be23-ecc736c9feed" />
          </g>
        </g>
      </g>
    </g>
    <g
       transform="matrix(0.705556,0,0,0.705556,74.374762,89.427816)"
       ns5:version="1.3.0"
       ns5:texconverter="pdflatex"
       ns5:pdfconverter="inkscape"
       ns5:text="$X$"
       ns5:preamble="/home/user/.config/inkscape/extensions/textext/+bbold.tex"
       ns5:scale="1.999999943307123"
       ns5:alignment="middle center"
       ns5:jacobian_sqrt="0.705556"
       id="g1357">
      <defs
         id="id-54aa0ffa-d0b6-4dad-9cfa-c0e1b272fdeb">
        <g
           id="id-88b062bf-b648-4168-a56d-0a23278eb92c">
          <symbol
             overflow="visible"
             id="id-1ababe55-6efa-4e2b-a3b9-93643b3faa28">
            <path
               style="stroke:none;stroke-width:0"
               d=""
               id="id-bf574078-af65-4a1b-b34c-b6ea65abe2e2" />
          </symbol>
          <symbol
             overflow="visible"
             id="id-c7f9580d-3c16-469f-a552-4f2dfaa19f9a">
            <path
               style="stroke:none;stroke-width:0"
               d="M 4.828125,-4.09375 4,-6.078125 c -0.03125,-0.078125 -0.046875,-0.125 -0.046875,-0.125 0,-0.0625 0.15625,-0.25 0.578125,-0.296875 0.109375,-0.015625 0.203125,-0.015625 0.203125,-0.1875 0,-0.125 -0.125,-0.125 -0.15625,-0.125 -0.40625,0 -0.828125,0.03125 -1.25,0.03125 -0.25,0 -0.859375,-0.03125 -1.109375,-0.03125 -0.0625,0 -0.1875,0 -0.1875,0.203125 C 2.03125,-6.5 2.140625,-6.5 2.265625,-6.5 c 0.59375,0 0.65625,0.09375 0.75,0.3125 l 1.171875,2.78125 -2.109375,2.265625 -0.125,0.109375 C 1.46875,-0.5 1,-0.34375 0.484375,-0.3125 c -0.125,0.015625 -0.21875,0.015625 -0.21875,0.203125 0,0.015625 0,0.109375 0.140625,0.109375 0.296875,0 0.625,-0.03125 0.921875,-0.03125 C 1.703125,-0.03125 2.09375,0 2.453125,0 2.515625,0 2.625,0 2.625,-0.203125 2.625,-0.296875 2.53125,-0.3125 2.515625,-0.3125 c -0.09375,0 -0.40625,-0.03125 -0.40625,-0.3125 0,-0.15625 0.15625,-0.3125 0.265625,-0.4375 L 3.40625,-2.140625 4.296875,-3.125 l 1,2.390625 c 0.046875,0.109375 0.0625,0.109375 0.0625,0.140625 0,0.078125 -0.203125,0.25 -0.578125,0.28125 C 4.671875,-0.296875 4.578125,-0.296875 4.578125,-0.125 4.578125,0 4.6875,0 4.71875,0 5,0 5.703125,-0.03125 5.984375,-0.03125 6.234375,-0.03125 6.84375,0 7.09375,0 c 0.0625,0 0.1875,0 0.1875,-0.1875 0,-0.125 -0.109375,-0.125 -0.1875,-0.125 -0.65625,0 -0.6875,-0.03125 -0.859375,-0.4375 C 5.859375,-1.671875 5.1875,-3.234375 4.953125,-3.828125 5.625,-4.53125 6.671875,-5.71875 7,-5.984375 7.28125,-6.234375 7.671875,-6.46875 8.265625,-6.5 c 0.125,-0.015625 0.21875,-0.015625 0.21875,-0.203125 0,0 0,-0.109375 -0.125,-0.109375 -0.296875,0 -0.640625,0.03125 -0.9375,0.03125 -0.375,0 -0.75,-0.03125 -1.109375,-0.03125 -0.0625,0 -0.1875,0 -0.1875,0.203125 0,0.0625 0.046875,0.09375 0.109375,0.109375 0.09375,0.015625 0.40625,0.03125 0.40625,0.3125 0,0.140625 -0.109375,0.265625 -0.1875,0.359375 z m 0,0"
               id="id-00ce4465-e544-45ef-b1f6-09ec93b13013" />
          </symbol>
        </g>
      </defs>
      <g
         id="id-d92a3ebb-59d1-42fd-88b0-9905ea2f6d45"
         transform="translate(-148.978,-127.953)">
        <g
           style="fill:#000000;fill-opacity:1"
           id="id-8e1cc738-8b56-4bd4-b36e-3b14ad5e24ca">
          <g
             transform="translate(148.712,134.765)"
             id="g1353">
            <path
               style="stroke:none;stroke-width:0"
               d="M 4.828125,-4.09375 4,-6.078125 c -0.03125,-0.078125 -0.046875,-0.125 -0.046875,-0.125 0,-0.0625 0.15625,-0.25 0.578125,-0.296875 0.109375,-0.015625 0.203125,-0.015625 0.203125,-0.1875 0,-0.125 -0.125,-0.125 -0.15625,-0.125 -0.40625,0 -0.828125,0.03125 -1.25,0.03125 -0.25,0 -0.859375,-0.03125 -1.109375,-0.03125 -0.0625,0 -0.1875,0 -0.1875,0.203125 C 2.03125,-6.5 2.140625,-6.5 2.265625,-6.5 c 0.59375,0 0.65625,0.09375 0.75,0.3125 l 1.171875,2.78125 -2.109375,2.265625 -0.125,0.109375 C 1.46875,-0.5 1,-0.34375 0.484375,-0.3125 c -0.125,0.015625 -0.21875,0.015625 -0.21875,0.203125 0,0.015625 0,0.109375 0.140625,0.109375 0.296875,0 0.625,-0.03125 0.921875,-0.03125 C 1.703125,-0.03125 2.09375,0 2.453125,0 2.515625,0 2.625,0 2.625,-0.203125 2.625,-0.296875 2.53125,-0.3125 2.515625,-0.3125 c -0.09375,0 -0.40625,-0.03125 -0.40625,-0.3125 0,-0.15625 0.15625,-0.3125 0.265625,-0.4375 L 3.40625,-2.140625 4.296875,-3.125 l 1,2.390625 c 0.046875,0.109375 0.0625,0.109375 0.0625,0.140625 0,0.078125 -0.203125,0.25 -0.578125,0.28125 C 4.671875,-0.296875 4.578125,-0.296875 4.578125,-0.125 4.578125,0 4.6875,0 4.71875,0 5,0 5.703125,-0.03125 5.984375,-0.03125 6.234375,-0.03125 6.84375,0 7.09375,0 c 0.0625,0 0.1875,0 0.1875,-0.1875 0,-0.125 -0.109375,-0.125 -0.1875,-0.125 -0.65625,0 -0.6875,-0.03125 -0.859375,-0.4375 C 5.859375,-1.671875 5.1875,-3.234375 4.953125,-3.828125 5.625,-4.53125 6.671875,-5.71875 7,-5.984375 7.28125,-6.234375 7.671875,-6.46875 8.265625,-6.5 c 0.125,-0.015625 0.21875,-0.015625 0.21875,-0.203125 0,0 0,-0.109375 -0.125,-0.109375 -0.296875,0 -0.640625,0.03125 -0.9375,0.03125 -0.375,0 -0.75,-0.03125 -1.109375,-0.03125 -0.0625,0 -0.1875,0 -0.1875,0.203125 0,0.0625 0.046875,0.09375 0.109375,0.109375 0.09375,0.015625 0.40625,0.03125 0.40625,0.3125 0,0.140625 -0.109375,0.265625 -0.1875,0.359375 z m 0,0"
               id="id-052c0e7c-60c6-4c2f-8076-b3baf757fc54" />
          </g>
        </g>
      </g>
    </g>
    <g
       transform="matrix(0.705556,0,0,0.705556,103.12734,104.73326)"
       ns5:version="1.3.0"
       ns5:texconverter="pdflatex"
       ns5:pdfconverter="inkscape"
       ns5:text="$\\mathcal{A}\\cap S_{+}^{n+1}$"
       ns5:preamble="/home/user/.config/inkscape/extensions/textext/+bbold.tex"
       ns5:scale="1.999999943307123"
       ns5:alignment="middle center"
       ns5:jacobian_sqrt="0.705556"
       id="g2003">
      <defs
         id="id-9c9e03ee-e07a-4e28-914a-7a70bc1eee26">
        <g
           id="id-bfc5c21e-921c-4c08-a6d3-2d64f3181ee5">
          <symbol
             overflow="visible"
             id="id-a8877399-257d-4d81-95ed-37dd0f865fbf">
            <path
               style="stroke:none;stroke-width:0"
               d=""
               id="id-19e0d233-0712-46ee-8b26-39c5fb5a2bd5" />
          </symbol>
          <symbol
             overflow="visible"
             id="id-dcc5f58b-91cf-4993-a97c-7a7267d68476">
            <path
               style="stroke:none;stroke-width:0"
               d="m 5.9375,-1.640625 c 0.046875,0.625 0.15625,1.078125 0.21875,1.265625 0.109375,0.453125 0.15625,0.671875 0.578125,0.671875 0.453125,0 1.21875,-0.453125 1.21875,-0.640625 0,-0.0625 -0.03125,-0.078125 -0.09375,-0.078125 -0.125,0 -0.328125,0.109375 -0.359375,0.125 C 7.421875,-0.25 7.40625,-0.25 7.390625,-0.25 7.109375,-0.25 7.046875,-0.515625 6.921875,-1.109375 6.859375,-1.453125 6.765625,-1.84375 6.6875,-3.203125 6.625,-4.234375 6.578125,-5.25 6.578125,-6.265625 6.578125,-6.5 6.59375,-6.765625 6.59375,-7 c 0,-0.15625 0,-0.203125 -0.109375,-0.203125 -0.140625,0 -0.546875,0.171875 -0.734375,0.4375 L 5.6875,-6.65625 c -0.796875,1.6875 -1.53125,2.890625 -2.046875,3.703125 -0.59375,0.90625 -1.625,2.53125 -2.171875,2.53125 -0.359375,0 -0.671875,-0.234375 -0.765625,-0.59375 0,-0.015625 -0.03125,-0.078125 -0.0625,-0.078125 -0.15625,0 -0.375,0.46875 -0.375,0.75 0,0.40625 0.4375,0.84375 0.90625,0.84375 C 1.859375,0.5 3,-1.296875 3.21875,-1.640625 Z M 5.734375,-5.96875 v 0.578125 c 0,0.578125 0.015625,1.15625 0.046875,1.734375 0.015625,0.203125 0.046875,0.9375 0.09375,1.46875 H 4.0625 c -0.171875,0 -0.3125,0 -0.578125,0.15625 0.703125,-1.078125 1.28125,-2.109375 1.34375,-2.21875 0.5,-0.890625 0.765625,-1.46875 0.890625,-1.71875 z m 0,0"
               id="id-4c959cc3-f1ba-40ac-9ef9-0581f472857e" />
          </symbol>
          <symbol
             overflow="visible"
             id="id-1d7482a8-4465-4d73-adbe-b1409f1e60a8">
            <path
               style="stroke:none;stroke-width:0"
               d="m 6.09375,-3.78125 c 0,-1.515625 -1.53125,-2.1875 -2.78125,-2.1875 -1.28125,0 -2.765625,0.703125 -2.765625,2.171875 v 3.65625 c 0,0.1875 0,0.359375 0.203125,0.359375 0.203125,0 0.203125,-0.171875 0.203125,-0.359375 V -3.75 c 0,-1.5 1.625,-1.8125 2.359375,-1.8125 0.453125,0 1.078125,0.09375 1.609375,0.421875 C 5.6875,-4.640625 5.6875,-4 5.6875,-3.734375 v 3.59375 c 0,0.1875 0,0.359375 0.203125,0.359375 0.203125,0 0.203125,-0.171875 0.203125,-0.359375 z m 0,0"
               id="id-b455077d-da48-43cc-b658-fc7a4b82d174" />
          </symbol>
          <symbol
             overflow="visible"
             id="id-0c3e1367-7a84-4799-b91d-3d0ec3873c29">
            <path
               style="stroke:none;stroke-width:0"
               d=""
               id="id-4a7fbd59-17b7-4932-96e9-9c9b74039c5a" />
          </symbol>
          <symbol
             overflow="visible"
             id="id-258b7822-4475-4c96-b7ee-1ba570bb4c52">
            <path
               style="stroke:none;stroke-width:0"
               d="m 6.4375,-6.921875 c 0,-0.03125 -0.03125,-0.109375 -0.125,-0.109375 -0.046875,0 -0.046875,0.015625 -0.171875,0.15625 L 5.65625,-6.3125 c -0.25,-0.46875 -0.765625,-0.71875 -1.421875,-0.71875 -1.265625,0 -2.453125,1.15625 -2.453125,2.359375 0,0.796875 0.515625,1.265625 1.03125,1.40625 l 1.0625,0.28125 c 0.375,0.09375 0.921875,0.25 0.921875,1.0625 0,0.890625 -0.8125,1.828125 -1.796875,1.828125 -0.640625,0 -1.75,-0.21875 -1.75,-1.453125 0,-0.234375 0.0625,-0.484375 0.0625,-0.53125 0.015625,-0.046875 0.015625,-0.0625 0.015625,-0.078125 0,-0.09375 -0.0625,-0.109375 -0.109375,-0.109375 -0.046875,0 -0.078125,0.015625 -0.109375,0.046875 -0.03125,0.03125 -0.59375,2.3125 -0.59375,2.34375 0,0.046875 0.046875,0.09375 0.109375,0.09375 0.046875,0 0.0625,-0.015625 0.1875,-0.15625 L 1.296875,-0.5 c 0.421875,0.578125 1.109375,0.71875 1.6875,0.71875 1.359375,0 2.53125,-1.328125 2.53125,-2.5625 0,-0.6875 -0.34375,-1.03125 -0.484375,-1.171875 C 4.796875,-3.734375 4.640625,-3.78125 3.765625,-4 3.53125,-4.0625 3.1875,-4.171875 3.09375,-4.1875 2.828125,-4.28125 2.484375,-4.5625 2.484375,-5.09375 c 0,-0.8125 0.796875,-1.65625 1.75,-1.65625 0.8125,0 1.421875,0.4375 1.421875,1.546875 0,0.3125 -0.03125,0.5 -0.03125,0.5625 0,0 0,0.09375 0.109375,0.09375 0.109375,0 0.125,-0.03125 0.15625,-0.203125 z m 0,0"
               id="id-6acac1e5-2b9a-407e-a05d-081c0eeed482" />
          </symbol>
          <symbol
             overflow="visible"
             id="id-12a3f935-81e6-455e-9b61-1bc69d65ef34">
            <path
               style="stroke:none;stroke-width:0"
               d=""
               id="id-2d2a3e82-bd36-4bab-a930-3d6a00d9d85c" />
          </symbol>
          <symbol
             overflow="visible"
             id="id-3a15e3b7-dffe-417b-a31f-da2e61871425">
            <path
               style="stroke:none;stroke-width:0"
               d="m 0.84375,-0.4375 c -0.015625,0.09375 -0.0625,0.265625 -0.0625,0.28125 0,0.15625 0.125,0.21875 0.234375,0.21875 0.125,0 0.234375,-0.078125 0.28125,-0.140625 0.03125,-0.0625 0.078125,-0.296875 0.125,-0.4375 0.03125,-0.125 0.109375,-0.453125 0.140625,-0.625 0.046875,-0.15625 0.09375,-0.3125 0.125,-0.46875 0.078125,-0.28125 0.09375,-0.34375 0.296875,-0.625 C 2.171875,-2.515625 2.5,-2.875 3.03125,-2.875 c 0.390625,0 0.40625,0.359375 0.40625,0.484375 0,0.421875 -0.296875,1.1875 -0.40625,1.484375 -0.078125,0.203125 -0.109375,0.265625 -0.109375,0.375 0,0.375 0.296875,0.59375 0.65625,0.59375 0.703125,0 1,-0.953125 1,-1.0625 0,-0.09375 -0.078125,-0.09375 -0.109375,-0.09375 -0.09375,0 -0.09375,0.046875 -0.125,0.125 C 4.1875,-0.40625 3.875,-0.125 3.609375,-0.125 c -0.15625,0 -0.1875,-0.09375 -0.1875,-0.25 0,-0.15625 0.046875,-0.25 0.171875,-0.5625 0.078125,-0.21875 0.359375,-0.953125 0.359375,-1.34375 0,-0.671875 -0.53125,-0.796875 -0.90625,-0.796875 -0.578125,0 -0.96875,0.359375 -1.171875,0.640625 -0.046875,-0.484375 -0.453125,-0.640625 -0.75,-0.640625 -0.296875,0 -0.453125,0.21875 -0.546875,0.375 -0.15625,0.265625 -0.25,0.65625 -0.25,0.703125 0,0.078125 0.09375,0.078125 0.125,0.078125 0.09375,0 0.09375,-0.015625 0.140625,-0.203125 0.109375,-0.40625 0.25,-0.75 0.515625,-0.75 0.1875,0 0.234375,0.15625 0.234375,0.34375 0,0.125 -0.0625,0.390625 -0.125,0.578125 -0.046875,0.1875 -0.109375,0.46875 -0.140625,0.625 z m 0,0"
               id="id-7e56bfc9-00a0-4e4e-8e74-399077cbce2e" />
          </symbol>
          <symbol
             overflow="visible"
             id="id-57304a7d-19d4-466d-b6b3-62911febfff1">
            <path
               style="stroke:none;stroke-width:0"
               d=""
               id="id-c1258317-efe2-4df6-9270-8d87e0a45890" />
          </symbol>
          <symbol
             overflow="visible"
             id="id-3858f2a8-c48f-4811-a4b7-af6790be3b94">
            <path
               style="stroke:none;stroke-width:0"
               d="m 3.21875,-1.578125 h 2.140625 c 0.09375,0 0.25,0 0.25,-0.15625 0,-0.1875 -0.15625,-0.1875 -0.25,-0.1875 H 3.21875 V -4.0625 c 0,-0.078125 0,-0.25 -0.15625,-0.25 -0.171875,0 -0.171875,0.15625 -0.171875,0.25 v 2.140625 H 0.75 c -0.09375,0 -0.265625,0 -0.265625,0.171875 0,0.171875 0.15625,0.171875 0.265625,0.171875 H 2.890625 V 0.5625 c 0,0.09375 0,0.265625 0.15625,0.265625 0.171875,0 0.171875,-0.171875 0.171875,-0.265625 z m 0,0"
               id="id-17905787-ff94-4bcc-b882-92fd59dc9c3f" />
          </symbol>
          <symbol
             overflow="visible"
             id="id-93ecf96e-6358-4c28-b9e6-4812b83a62cb">
            <path
               style="stroke:none;stroke-width:0"
               d="m 2.328125,-4.4375 c 0,-0.1875 0,-0.1875 -0.203125,-0.1875 -0.453125,0.4375 -1.078125,0.4375 -1.359375,0.4375 v 0.25 c 0.15625,0 0.625,0 1,-0.1875 v 3.546875 c 0,0.234375 0,0.328125 -0.6875,0.328125 H 0.8125 V 0 c 0.125,0 0.984375,-0.03125 1.234375,-0.03125 0.21875,0 1.09375,0.03125 1.25,0.03125 V -0.25 H 3.03125 c -0.703125,0 -0.703125,-0.09375 -0.703125,-0.328125 z m 0,0"
               id="id-1bd9d2d1-c431-4d18-9871-948ead37ab12" />
          </symbol>
        </g>
      </defs>
      <g
         id="id-91e8af7d-a4a5-4e03-b0da-f3fab381f998"
         transform="translate(-148.978,-125.878)">
        <g
           style="fill:#000000;fill-opacity:1"
           id="id-07e9fb3c-c0a0-4dbe-9496-7b05cd0cc27d">
          <g
             transform="translate(148.712,134.765)"
             id="g1976">
            <path
               style="stroke:none;stroke-width:0"
               d="m 5.9375,-1.640625 c 0.046875,0.625 0.15625,1.078125 0.21875,1.265625 0.109375,0.453125 0.15625,0.671875 0.578125,0.671875 0.453125,0 1.21875,-0.453125 1.21875,-0.640625 0,-0.0625 -0.03125,-0.078125 -0.09375,-0.078125 -0.125,0 -0.328125,0.109375 -0.359375,0.125 C 7.421875,-0.25 7.40625,-0.25 7.390625,-0.25 7.109375,-0.25 7.046875,-0.515625 6.921875,-1.109375 6.859375,-1.453125 6.765625,-1.84375 6.6875,-3.203125 6.625,-4.234375 6.578125,-5.25 6.578125,-6.265625 6.578125,-6.5 6.59375,-6.765625 6.59375,-7 c 0,-0.15625 0,-0.203125 -0.109375,-0.203125 -0.140625,0 -0.546875,0.171875 -0.734375,0.4375 L 5.6875,-6.65625 c -0.796875,1.6875 -1.53125,2.890625 -2.046875,3.703125 -0.59375,0.90625 -1.625,2.53125 -2.171875,2.53125 -0.359375,0 -0.671875,-0.234375 -0.765625,-0.59375 0,-0.015625 -0.03125,-0.078125 -0.0625,-0.078125 -0.15625,0 -0.375,0.46875 -0.375,0.75 0,0.40625 0.4375,0.84375 0.90625,0.84375 C 1.859375,0.5 3,-1.296875 3.21875,-1.640625 Z M 5.734375,-5.96875 v 0.578125 c 0,0.578125 0.015625,1.15625 0.046875,1.734375 0.015625,0.203125 0.046875,0.9375 0.09375,1.46875 H 4.0625 c -0.171875,0 -0.3125,0 -0.578125,0.15625 0.703125,-1.078125 1.28125,-2.109375 1.34375,-2.21875 0.5,-0.890625 0.765625,-1.46875 0.890625,-1.71875 z m 0,0"
               id="id-746bfc64-e301-4b4a-836c-473c05fc8ff2" />
          </g>
        </g>
        <g
           style="fill:#000000;fill-opacity:1"
           id="id-ad933c70-85a8-4caa-9e63-5fc885a96392">
          <g
             transform="translate(158.879,134.765)"
             id="g1980">
            <path
               style="stroke:none;stroke-width:0"
               d="m 6.09375,-3.78125 c 0,-1.515625 -1.53125,-2.1875 -2.78125,-2.1875 -1.28125,0 -2.765625,0.703125 -2.765625,2.171875 v 3.65625 c 0,0.1875 0,0.359375 0.203125,0.359375 0.203125,0 0.203125,-0.171875 0.203125,-0.359375 V -3.75 c 0,-1.5 1.625,-1.8125 2.359375,-1.8125 0.453125,0 1.078125,0.09375 1.609375,0.421875 C 5.6875,-4.640625 5.6875,-4 5.6875,-3.734375 v 3.59375 c 0,0.1875 0,0.359375 0.203125,0.359375 0.203125,0 0.203125,-0.171875 0.203125,-0.359375 z m 0,0"
               id="id-d7c90bd7-f411-4a73-8796-e29a3361ee74" />
          </g>
        </g>
        <g
           style="fill:#000000;fill-opacity:1"
           id="id-04a7319b-05ff-4b5d-aa6e-60cab78695c6">
          <g
             transform="translate(167.737,134.765)"
             id="g1984">
            <path
               style="stroke:none;stroke-width:0"
               d="m 6.4375,-6.921875 c 0,-0.03125 -0.03125,-0.109375 -0.125,-0.109375 -0.046875,0 -0.046875,0.015625 -0.171875,0.15625 L 5.65625,-6.3125 c -0.25,-0.46875 -0.765625,-0.71875 -1.421875,-0.71875 -1.265625,0 -2.453125,1.15625 -2.453125,2.359375 0,0.796875 0.515625,1.265625 1.03125,1.40625 l 1.0625,0.28125 c 0.375,0.09375 0.921875,0.25 0.921875,1.0625 0,0.890625 -0.8125,1.828125 -1.796875,1.828125 -0.640625,0 -1.75,-0.21875 -1.75,-1.453125 0,-0.234375 0.0625,-0.484375 0.0625,-0.53125 0.015625,-0.046875 0.015625,-0.0625 0.015625,-0.078125 0,-0.09375 -0.0625,-0.109375 -0.109375,-0.109375 -0.046875,0 -0.078125,0.015625 -0.109375,0.046875 -0.03125,0.03125 -0.59375,2.3125 -0.59375,2.34375 0,0.046875 0.046875,0.09375 0.109375,0.09375 0.046875,0 0.0625,-0.015625 0.1875,-0.15625 L 1.296875,-0.5 c 0.421875,0.578125 1.109375,0.71875 1.6875,0.71875 1.359375,0 2.53125,-1.328125 2.53125,-2.5625 0,-0.6875 -0.34375,-1.03125 -0.484375,-1.171875 C 4.796875,-3.734375 4.640625,-3.78125 3.765625,-4 3.53125,-4.0625 3.1875,-4.171875 3.09375,-4.1875 2.828125,-4.28125 2.484375,-4.5625 2.484375,-5.09375 c 0,-0.8125 0.796875,-1.65625 1.75,-1.65625 0.8125,0 1.421875,0.4375 1.421875,1.546875 0,0.3125 -0.03125,0.5 -0.03125,0.5625 0,0 0,0.09375 0.109375,0.09375 0.109375,0 0.125,-0.03125 0.15625,-0.203125 z m 0,0"
               id="id-762814f9-9193-4ae3-a570-03026fb3dece" />
          </g>
        </g>
        <g
           style="fill:#000000;fill-opacity:1"
           id="id-a612e0c1-0899-46f5-8fc1-9bb47a061950">
          <g
             transform="translate(174.42,130.503)"
             id="g1988">
            <path
               style="stroke:none;stroke-width:0"
               d="m 0.84375,-0.4375 c -0.015625,0.09375 -0.0625,0.265625 -0.0625,0.28125 0,0.15625 0.125,0.21875 0.234375,0.21875 0.125,0 0.234375,-0.078125 0.28125,-0.140625 0.03125,-0.0625 0.078125,-0.296875 0.125,-0.4375 0.03125,-0.125 0.109375,-0.453125 0.140625,-0.625 0.046875,-0.15625 0.09375,-0.3125 0.125,-0.46875 0.078125,-0.28125 0.09375,-0.34375 0.296875,-0.625 C 2.171875,-2.515625 2.5,-2.875 3.03125,-2.875 c 0.390625,0 0.40625,0.359375 0.40625,0.484375 0,0.421875 -0.296875,1.1875 -0.40625,1.484375 -0.078125,0.203125 -0.109375,0.265625 -0.109375,0.375 0,0.375 0.296875,0.59375 0.65625,0.59375 0.703125,0 1,-0.953125 1,-1.0625 0,-0.09375 -0.078125,-0.09375 -0.109375,-0.09375 -0.09375,0 -0.09375,0.046875 -0.125,0.125 C 4.1875,-0.40625 3.875,-0.125 3.609375,-0.125 c -0.15625,0 -0.1875,-0.09375 -0.1875,-0.25 0,-0.15625 0.046875,-0.25 0.171875,-0.5625 0.078125,-0.21875 0.359375,-0.953125 0.359375,-1.34375 0,-0.671875 -0.53125,-0.796875 -0.90625,-0.796875 -0.578125,0 -0.96875,0.359375 -1.171875,0.640625 -0.046875,-0.484375 -0.453125,-0.640625 -0.75,-0.640625 -0.296875,0 -0.453125,0.21875 -0.546875,0.375 -0.15625,0.265625 -0.25,0.65625 -0.25,0.703125 0,0.078125 0.09375,0.078125 0.125,0.078125 0.09375,0 0.09375,-0.015625 0.140625,-0.203125 0.109375,-0.40625 0.25,-0.75 0.515625,-0.75 0.1875,0 0.234375,0.15625 0.234375,0.34375 0,0.125 -0.0625,0.390625 -0.125,0.578125 -0.046875,0.1875 -0.109375,0.46875 -0.140625,0.625 z m 0,0"
               id="id-ecbac487-f63d-428e-a2d4-efafc6be311f" />
          </g>
        </g>
        <g
           style="fill:#000000;fill-opacity:1"
           id="id-90b46df3-663f-4816-8536-863e8e0849df">
          <g
             transform="translate(179.345,130.503)"
             id="g1992">
            <path
               style="stroke:none;stroke-width:0"
               d="m 3.21875,-1.578125 h 2.140625 c 0.09375,0 0.25,0 0.25,-0.15625 0,-0.1875 -0.15625,-0.1875 -0.25,-0.1875 H 3.21875 V -4.0625 c 0,-0.078125 0,-0.25 -0.15625,-0.25 -0.171875,0 -0.171875,0.15625 -0.171875,0.25 v 2.140625 H 0.75 c -0.09375,0 -0.265625,0 -0.265625,0.171875 0,0.171875 0.15625,0.171875 0.265625,0.171875 H 2.890625 V 0.5625 c 0,0.09375 0,0.265625 0.15625,0.265625 0.171875,0 0.171875,-0.171875 0.171875,-0.265625 z m 0,0"
               id="id-c69ddf19-9419-494c-a502-6b380694a465" />
          </g>
          <g
             transform="translate(185.461,130.503)"
             id="g1995">
            <path
               style="stroke:none;stroke-width:0"
               d="m 2.328125,-4.4375 c 0,-0.1875 0,-0.1875 -0.203125,-0.1875 -0.453125,0.4375 -1.078125,0.4375 -1.359375,0.4375 v 0.25 c 0.15625,0 0.625,0 1,-0.1875 v 3.546875 c 0,0.234375 0,0.328125 -0.6875,0.328125 H 0.8125 V 0 c 0.125,0 0.984375,-0.03125 1.234375,-0.03125 0.21875,0 1.09375,0.03125 1.25,0.03125 V -0.25 H 3.03125 c -0.703125,0 -0.703125,-0.09375 -0.703125,-0.328125 z m 0,0"
               id="id-6be29980-79c4-4745-8eb9-e19948522ceb" />
          </g>
        </g>
        <g
           style="fill:#000000;fill-opacity:1"
           id="id-799a57b2-d770-4712-b38a-0819651bf463">
          <g
             transform="translate(173.846,137.244)"
             id="g1999">
            <path
               style="stroke:none;stroke-width:0"
               d="m 3.21875,-1.578125 h 2.140625 c 0.09375,0 0.25,0 0.25,-0.15625 0,-0.1875 -0.15625,-0.1875 -0.25,-0.1875 H 3.21875 V -4.0625 c 0,-0.078125 0,-0.25 -0.15625,-0.25 -0.171875,0 -0.171875,0.15625 -0.171875,0.25 v 2.140625 H 0.75 c -0.09375,0 -0.265625,0 -0.265625,0.171875 0,0.171875 0.15625,0.171875 0.265625,0.171875 H 2.890625 V 0.5625 c 0,0.09375 0,0.265625 0.15625,0.265625 0.171875,0 0.171875,-0.171875 0.171875,-0.265625 z m 0,0"
               id="id-0c20a20e-6ef2-4add-bd20-745400ec5993" />
          </g>
        </g>
      </g>
    </g>
  </g>
</svg>
