<?xml version="1.0" encoding="UTF-8" standalone="no"?>
<!-- Created with Inkscape (http://www.inkscape.org/) -->

<svg
   xmlns:osb="http://www.openswatchbook.org/uri/2009/osb"
   xmlns:dc="http://purl.org/dc/elements/1.1/"
   xmlns:cc="http://creativecommons.org/ns#"
   xmlns:rdf="http://www.w3.org/1999/02/22-rdf-syntax-ns#"
   xmlns:svg="http://www.w3.org/2000/svg"
   xmlns="http://www.w3.org/2000/svg"
   xmlns:sodipodi="http://sodipodi.sourceforge.net/DTD/sodipodi-0.dtd"
   xmlns:inkscape="http://www.inkscape.org/namespaces/inkscape"
   width="210mm"
   height="297mm"
   viewBox="0 0 210 297"
   version="1.1"
   id="svg8"
   inkscape:version="0.92.5 (2060ec1f9f, 2020-04-08)"
   sodipodi:docname="self-testingcorr.svg"
   inkscape:export-filename="/home/user/Downloads/self-testingcorr.png"
   inkscape:export-xdpi="96.279999"
   inkscape:export-ydpi="96.279999">
  <defs
     id="defs2">
    <linearGradient
       id="linearGradient3908"
       osb:paint="solid">
      <stop
         style="stop-color:#ececec;stop-opacity:1;"
         offset="0"
         id="stop3906" />
    </linearGradient>
    <linearGradient
       id="linearGradient2299"
       osb:paint="solid">
      <stop
         style="stop-color:#ffd42a;stop-opacity:1;"
         offset="0"
         id="stop2297" />
    </linearGradient>
  </defs>
  <sodipodi:namedview
     id="base"
     pagecolor="#ffffff"
     bordercolor="#666666"
     borderopacity="1.0"
     inkscape:pageopacity="0.0"
     inkscape:pageshadow="2"
     inkscape:zoom="0.7"
     inkscape:cx="319.88796"
     inkscape:cy="675.64497"
     inkscape:document-units="mm"
     inkscape:current-layer="layer1"
     showgrid="false"
     inkscape:window-width="1208"
     inkscape:window-height="656"
     inkscape:window-x="72"
     inkscape:window-y="27"
     inkscape:window-maximized="1"
     inkscape:snap-global="false" />
  <metadata
     id="metadata5">
    <rdf:RDF>
      <cc:Work
         rdf:about="">
        <dc:format>image/svg+xml</dc:format>
        <dc:type
           rdf:resource="http://purl.org/dc/dcmitype/StillImage" />
        <dc:title></dc:title>
      </cc:Work>
    </rdf:RDF>
  </metadata>
  <g
     inkscape:label="Layer 1"
     inkscape:groupmode="layer"
     id="layer1">
    <rect
       style="opacity:1;fill:#666666;fill-opacity:1;stroke:#000000;stroke-width:0.8;stroke-linejoin:round;stroke-miterlimit:4;stroke-dasharray:none;stroke-dashoffset:0;stroke-opacity:0.98000002"
       id="rect827"
       width="96.042511"
       height="96.042511"
       x="-56.885078"
       y="-182.68112"
       transform="rotate(134.8781)" />
    <circle
       style="opacity:1;fill:#b3b3b3;fill-opacity:1;stroke:#000000;stroke-width:0.8;stroke-linejoin:round;stroke-miterlimit:4;stroke-dasharray:none;stroke-dashoffset:0;stroke-opacity:0.98000002"
       id="path817"
       cx="101.67559"
       cy="88.735115"
       r="48.002975" />
    <rect
       style="opacity:1;fill:#e6e6e6;fill-opacity:1;stroke:#000000;stroke-width:0.8;stroke-linejoin:round;stroke-miterlimit:4;stroke-dasharray:none;stroke-dashoffset:0;stroke-opacity:0.98000002;fill-rule:nonzero"
       id="rect819"
       width="68.814148"
       height="65.790344"
       x="67.419701"
       y="55.839943"
       rx="0"
       ry="0" />
    <g
       id="g3858"
       transform="translate(12.542275,-7.0503849)">
      <g
         word-spacing="normal"
         letter-spacing="normal"
         font-size-adjust="none"
         font-stretch="normal"
         font-weight="normal"
         font-variant="normal"
         font-style="normal"
         stroke-miterlimit="10.433"
         xml:space="preserve"
         transform="matrix(0.3,0,0,-0.3,-52.5,222.75)"
         id="content"
         style="font-style:normal;font-variant:normal;font-weight:normal;font-stretch:normal;letter-spacing:normal;word-spacing:normal;text-anchor:start;fill:none;fill-opacity:1;fill-rule:evenodd;stroke:#000000;stroke-linecap:butt;stroke-linejoin:miter;stroke-miterlimit:10.43299961;stroke-dasharray:none;stroke-dashoffset:0;stroke-opacity:1"><path
           id="path3855"
           d="m 464.49,410.84 0.24,0.39 0.24,0.38 0.23,0.38 0.21,0.37 0.21,0.37 0.2,0.36 0.18,0.35 0.18,0.35 0.18,0.35 0.16,0.34 0.15,0.33 0.15,0.33 0.14,0.33 0.14,0.32 0.24,0.62 0.23,0.61 0.2,0.6 0.19,0.57 0.16,0.56 0.16,0.54 0.14,0.53 0.13,0.52 0.13,0.5 c 1.73,6.87 3.64,12.86 6.71,16.3 0.61,0.65 1,1.09 2.6,1.09 3.44,0 3.53,-3.44 3.53,-4.12 0,-0.91 -0.25,-1.6 -0.25,-1.85 0,-0.36 0.31,-0.36 0.36,-0.36 0.8,0 2.14,0.55 3.39,1.46 0.89,0.68 1.34,1.18 1.34,3.23 0,2.69 -1.4,4.73 -4.18,4.73 -1.6,0 -5.99,-0.4 -10.86,-5.32 -3.99,-4.1 -6.33,-13.07 -7.28,-16.8 -0.9,-3.44 -1.3,-4.99 -2.79,-7.97 -0.36,-0.59 -1.65,-2.8 -2.34,-3.44 -1.34,-1.25 -1.84,-2.14 -1.84,-2.39 0,-0.09 0.09,-0.29 0.45,-0.29 0.19,0 1.23,0.2 2.53,1.04 0.84,0.5 0.95,0.6 2.09,1.8 2.5,-0.06 4.24,-0.5 7.38,-1.41 2.55,-0.68 5.08,-1.43 7.62,-1.43 4.04,0 8.13,3.03 9.72,5.23 0.99,1.34 1.3,2.58 1.3,2.73 0,0.35 -0.31,0.35 -0.36,0.35 -0.8,0 -1.98,-0.55 -2.84,-1.14 -1.35,-0.85 -1.44,-1.14 -1.74,-2 -0.25,-0.8 -0.54,-1.19 -0.75,-1.49 -0.39,-0.59 -0.45,-0.59 -1.2,-0.59 -2.39,0 -4.88,0.73 -8.16,1.64 -1.4,0.39 -4.14,1.19 -6.64,1.19 -0.64,0 -1.34,-0.05 -1.98,-0.19 z"
           inkscape:connector-curvature="0"
           style="fill:#000000;stroke-width:0" /></g>    </g>
    <g
       id="g3880"
       transform="translate(10.947775,-48.229762)">
      <g
         word-spacing="normal"
         letter-spacing="normal"
         font-size-adjust="none"
         font-stretch="normal"
         font-weight="normal"
         font-variant="normal"
         font-style="normal"
         stroke-miterlimit="10.433"
         xml:space="preserve"
         transform="matrix(0.3,0,0,-0.3,-52.5,222.75)"
         id="g3878"
         style="font-style:normal;font-variant:normal;font-weight:normal;font-stretch:normal;letter-spacing:normal;word-spacing:normal;text-anchor:start;fill:none;fill-opacity:1;fill-rule:evenodd;stroke:#000000;stroke-linecap:butt;stroke-linejoin:miter;stroke-miterlimit:10.43299961;stroke-dasharray:none;stroke-dashoffset:0;stroke-opacity:1"><path
           id="path3876"
           d="m 466.63,407.59 h -0.09 -0.09 -0.16 -0.16 l -0.16,-0.01 -0.15,-0.01 -0.15,-0.02 -0.15,-0.02 -0.08,-0.02 -0.07,-0.01 -0.08,-0.02 -0.08,-0.02 -0.08,-0.03 -0.08,-0.02 -0.08,-0.03 -0.09,-0.03 -0.08,-0.04 -0.09,-0.04 -0.09,-0.04 -0.1,-0.04 -0.09,-0.05 -0.1,-0.05 -0.11,-0.06 -0.1,-0.06 -0.11,-0.06 -0.12,-0.07 c -0.4,-0.23 -1.59,-1.05 -1.59,-1.64 0,-0.34 0.25,-0.34 0.5,-0.34 3.33,-0.16 5.38,-0.6 10.36,-2.35 3.44,-1.25 6.97,-2.48 10.91,-2.48 5.82,0 10.65,5.12 10.65,7.17 0,0.25 -0.18,0.39 -0.43,0.39 -0.5,0 -1.55,-0.39 -2.35,-0.94 -1.14,-0.75 -1.25,-1.09 -1.5,-1.75 -0.69,-1.98 -1.73,-2.14 -3.09,-2.14 -3.28,0 -5.52,0.8 -12.71,3.24 8.63,2.43 19.49,11.06 19.49,23.07 0,6.77 -3.69,12.25 -11.02,12.25 -10.15,0 -21.97,-10.4 -21.97,-20.78 0,-5.28 3.15,-9.26 8.68,-9.26 5.03,0 10.72,3.29 10.72,4.48 0,0.3 -0.36,0.3 -0.55,0.3 -0.7,0 -1.55,-0.5 -2.25,-0.85 -2.05,-1.14 -4.14,-1.18 -4.63,-1.18 -4.48,0 -7.73,3.48 -7.73,8.61 0,6.23 5.64,15.95 14.45,15.95 6.28,0 10.06,-4.98 10.06,-11.61 0,-4.94 -2.04,-10.56 -6.78,-14.75 -3.23,-2.94 -6.87,-4.64 -15.03,-4.64 z"
           inkscape:connector-curvature="0"
           style="fill:#000000;stroke-width:0" /></g>    </g>
    <g
       id="g3939"
       transform="translate(9.6967746,-65.163096)">
      <g
         word-spacing="normal"
         letter-spacing="normal"
         font-size-adjust="none"
         font-stretch="normal"
         font-weight="normal"
         font-variant="normal"
         font-style="normal"
         stroke-miterlimit="10.433"
         xml:space="preserve"
         transform="matrix(0.3,0,0,-0.3,-52.5,222.75)"
         id="g3937"
         style="font-style:normal;font-variant:normal;font-weight:normal;font-stretch:normal;letter-spacing:normal;word-spacing:normal;text-anchor:start;fill:none;fill-opacity:1;fill-rule:evenodd;stroke:#000000;stroke-linecap:butt;stroke-linejoin:miter;stroke-miterlimit:10.43299961;stroke-dasharray:none;stroke-dashoffset:0;stroke-opacity:1"><path
           id="path3933"
           d="m 466.83,423.61 -0.01,0.01 -0.02,0.01 -0.01,0.02 -0.01,0.01 -0.02,0.01 -0.01,0.01 -0.01,0.01 -0.01,0.01 h -0.02 l -0.01,0.01 -0.01,0.01 h -0.01 l -0.01,0.01 h -0.01 l -0.02,0.01 h -0.01 l -0.01,0.01 h -0.01 -0.01 -0.01 l -0.01,0.01 h -0.01 -0.02 -0.03 -0.02 -0.02 -0.02 c -0.41,0 -0.92,-0.25 -1.33,-0.53 -0.52,-0.42 -0.55,-0.64 -0.56,-1.16 -0.49,-6.43 -2.8,-12.21 -3.3,-13.23 -0.3,-0.67 -0.72,-1.38 -1.48,-1.38 -0.04,0 -1.5,0.04 -2.5,0.86 -0.38,-0.07 -0.52,-0.07 -0.88,-0.73 -0.19,-0.38 -0.37,-0.97 -0.37,-1.34 0,-0.33 0,-0.68 1.12,-1.1 0.84,-0.34 1.59,-0.37 1.75,-0.37 1.81,0 3.02,2.56 3.69,4.23 1,2.5 2.28,6.45 3.01,11.06 0.63,-1.34 4.08,-8.62 6.47,-11.87 0.71,-0.95 1.42,-1.88 2.27,-2.7 0.12,-0.1 0.25,-0.1 0.37,-0.1 0.55,0 1.5,0.46 1.85,1.21 l 0.03,0.01 0.01,0.03 c 1.96,8.61 3.64,14.22 4.22,15.47 1.05,0.92 2.56,1.09 3.99,1.09 0.57,0 0.67,0 1.01,0.52 0.24,0.36 0.5,1.05 0.5,1.58 0,0.59 -0.17,0.59 -0.75,0.59 -4.53,0 -5.34,-2.19 -6.03,-3.94 -0.67,-1.81 -1.95,-6.32 -3.12,-11.12 l -0.75,-3.05 c -1.83,2.02 -3.27,4.61 -5.02,7.85 -0.77,1.45 -2.19,4.26 -3.37,6.98 z"
           inkscape:connector-curvature="0"
           style="fill:#000000;stroke-width:0" /><path
           id="path3935"
           d="m 506.72,412.03 -0.01,0.24 -0.03,0.24 -0.04,0.23 -0.06,0.22 -0.07,0.21 -0.09,0.2 -0.11,0.19 -0.11,0.19 -0.13,0.17 -0.14,0.17 -0.16,0.17 -0.16,0.15 -0.18,0.15 -0.18,0.14 -0.2,0.14 -0.2,0.13 -0.21,0.12 -0.22,0.12 -0.23,0.11 -0.23,0.11 -0.24,0.1 -0.24,0.09 -0.24,0.09 -0.25,0.09 -0.51,0.16 -0.51,0.14 -0.52,0.13 -0.51,0.11 c -1.27,0.27 -4.19,0.89 -4.19,3.09 0,0.35 0.05,1.64 1.37,2.14 1.27,0.47 2.82,0.47 2.97,0.47 0.43,0 1.61,-0.03 2.96,-0.42 0.78,-0.22 1.59,-0.47 1.59,-1.72 0,-0.29 -0.06,-0.58 -0.06,-0.65 0,-0.25 0.22,-0.3 0.39,-0.3 0.55,0 1.22,0.42 1.47,0.62 0.45,0.33 0.72,0.63 0.72,1.5 0,1.57 -1.1,1.94 -1.82,2.16 -1.54,0.53 -2.93,0.53 -3.43,0.53 -4.96,0 -8.68,-2.69 -8.68,-5.48 0,-2.66 3.39,-3.39 4.79,-3.66 2.51,-0.55 5.18,-1.47 5.18,-3.76 0,-0.43 -0.04,-2.07 -1.93,-2.82 -1.6,-0.62 -3.77,-0.67 -4.22,-0.67 -2.99,0 -5.97,1.52 -5.97,3.28 0,0.71 0.22,0.8 0.47,0.96 0.62,0.29 1.14,0.79 1.14,1.12 0,0.25 -0.22,0.3 -0.46,0.3 -1.31,0 -3.67,-1.52 -3.67,-3.55 0,-1.11 0.67,-1.97 2.36,-2.86 1.85,-0.97 3.6,-0.97 4.31,-0.97 6.46,0 10.49,3.19 10.49,6.38 z"
           inkscape:connector-curvature="0"
           style="fill:#000000;stroke-width:0" /></g>    </g>
    <path
       style="fill:#ff0000;stroke:#f80000;stroke-width:1;stroke-linecap:butt;stroke-linejoin:miter;stroke-miterlimit:4;stroke-dasharray:none;stroke-opacity:1"
       d="m 136.36972,41.360988 -0.17274,95.585172"
       id="path2462"
       inkscape:connector-curvature="0" />
    <path
       style="fill:#ff0000;stroke:#f80000;stroke-width:1;stroke-linecap:butt;stroke-linejoin:miter;stroke-miterlimit:4;stroke-dasharray:2.00000006, 1.00000003;stroke-dashoffset:0;stroke-opacity:1"
       d="m 149.75731,41.361441 -0.17274,95.585169"
       id="path2462-6"
       inkscape:connector-curvature="0" />
    <circle
       style="opacity:1;fill:#ff0000;fill-opacity:1;fill-rule:nonzero;stroke:#000000;stroke-width:0.5;stroke-linecap:square;stroke-linejoin:bevel;stroke-miterlimit:4;stroke-dasharray:none;stroke-dashoffset:0;stroke-opacity:1;paint-order:normal"
       id="path2789"
       cx="149.66048"
       cy="88.735115"
       r="2.0045216" />
    <g
       id="g4510"
       transform="translate(74.536905,-25.626787)">
      <g
         word-spacing="normal"
         letter-spacing="normal"
         font-size-adjust="none"
         font-stretch="normal"
         font-weight="normal"
         font-variant="normal"
         font-style="normal"
         stroke-miterlimit="10.433"
         xml:space="preserve"
         transform="matrix(0.3,0,0,-0.3,-52.5,222.75)"
         id="g4508"
         style="font-style:normal;font-variant:normal;font-weight:normal;font-stretch:normal;letter-spacing:normal;word-spacing:normal;text-anchor:start;fill:none;fill-opacity:1;fill-rule:evenodd;stroke:#000000;stroke-linecap:butt;stroke-linejoin:miter;stroke-miterlimit:10.43299961;stroke-dasharray:none;stroke-dashoffset:0;stroke-opacity:1"><path
           id="path4494"
           d="m 471.39,420.82 -0.01,-0.01 -0.02,-0.02 -0.03,-0.02 -0.03,-0.03 -0.03,-0.02 -0.03,-0.03 -0.04,-0.03 -0.03,-0.03 -0.04,-0.04 -0.04,-0.03 -0.04,-0.04 -0.05,-0.04 -0.04,-0.04 -0.04,-0.04 -0.09,-0.09 -0.04,-0.05 -0.04,-0.04 -0.04,-0.05 -0.04,-0.05 -0.04,-0.04 -0.04,-0.05 -0.03,-0.05 -0.03,-0.05 -0.03,-0.05 -0.03,-0.04 -0.02,-0.05 -0.02,-0.05 -0.01,-0.05 -0.02,-0.04 v -0.05 -0.02 l -0.01,-0.02 c 0,-0.38 0.33,-0.7 0.71,-0.7 0.22,0 0.39,0.09 0.56,0.26 0.33,0.38 1,1.11 2.45,1.7 0.19,0.08 0.6,0.22 0.6,0.69 0,0.44 -0.33,0.61 -0.53,0.69 -0.97,0.51 -1.22,1.01 -1.44,1.51 -0.08,0.15 -0.25,0.47 -0.66,0.47 -0.47,0 -0.69,-0.42 -0.69,-0.7 0,-0.3 0.35,-0.92 0.6,-1.27 h -10.02 c -0.39,0 -1.06,0 -1.06,-0.7 0,-0.69 0.67,-0.69 1.06,-0.69 z"
           inkscape:connector-curvature="0"
           style="fill:#000000;stroke-width:0" /><path
           id="path4496"
           d="m 471.49,415.09 v 0.08 0.07 l -0.01,0.07 v 0.07 l -0.01,0.07 -0.01,0.07 v 0.07 l -0.01,0.06 -0.02,0.13 -0.03,0.12 -0.03,0.11 -0.03,0.11 -0.04,0.1 -0.04,0.09 -0.05,0.09 -0.04,0.09 -0.05,0.08 -0.05,0.07 -0.05,0.07 -0.06,0.07 -0.06,0.05 -0.05,0.06 -0.06,0.05 -0.06,0.05 -0.06,0.04 -0.06,0.03 -0.06,0.04 -0.06,0.03 -0.06,0.02 -0.06,0.02 -0.06,0.02 -0.06,0.02 -0.06,0.01 h -0.05 l -0.05,0.01 h -0.05 c -0.69,0 -1.44,-0.77 -1.44,-1.44 0,-0.47 0.33,-0.72 0.47,-0.84 0.28,-0.2 0.97,-0.75 0.97,-1.91 0,-1.34 -1.9,-6.26 -4.85,-6.26 -1.3,0 -2.42,0.5 -2.42,2.28 0,1.25 0.67,2.89 1.42,4.73 0.14,0.41 0.33,0.8 0.33,1.22 0,1.22 -1.17,2.2 -2.72,2.2 -2.64,0 -4.01,-3.21 -4.01,-3.85 0,-0.36 0.4,-0.36 0.53,-0.36 0.42,0 0.43,0.12 0.56,0.5 0.5,1.67 1.67,2.86 2.81,2.86 0.49,0 0.75,-0.27 0.75,-0.94 0,-0.5 -0.09,-0.78 -0.42,-1.5 -0.97,-2.41 -1.34,-3.61 -1.34,-4.56 0,-2.41 1.96,-3.44 4.39,-3.44 2.01,0 3.45,1.48 4.36,2.83 1.78,2.65 2.06,5.89 2.06,6.34 z"
           inkscape:connector-curvature="0"
           style="fill:#000000;stroke-width:0" /><path
           id="path4498"
           d="m 486.94,403.33 -0.01,-0.05 -0.01,-0.05 -0.02,-0.06 -0.01,-0.05 -0.01,-0.06 -0.02,-0.06 -0.03,-0.11 -0.02,-0.12 -0.03,-0.13 -0.03,-0.11 -0.03,-0.12 -0.01,-0.06 -0.01,-0.05 -0.01,-0.06 -0.02,-0.05 -0.01,-0.05 -0.01,-0.05 -0.01,-0.05 -0.01,-0.04 v -0.04 l -0.01,-0.04 -0.01,-0.04 v -0.03 l -0.01,-0.03 v -0.03 -0.02 -0.02 c 0,-0.54 0.45,-0.87 0.92,-0.87 0.37,0 0.92,0.2 1.2,0.83 0.02,0.12 0.32,1.29 0.47,1.93 0.85,3.38 0.85,3.43 0.89,3.52 0.33,0.67 2.13,4.16 5.16,4.16 1.22,0 1.75,-0.68 1.75,-1.78 0,-1.43 -1.05,-3.99 -1.63,-5.41 -0.12,-0.3 -0.25,-0.63 -0.25,-1.05 0,-1.29 1.25,-2.2 2.72,-2.2 2.67,0 4.03,3.25 4.03,3.87 0,0.35 -0.42,0.35 -0.51,0.35 -0.42,0 -0.46,-0.1 -0.6,-0.58 -0.48,-1.48 -1.62,-2.78 -2.82,-2.78 -0.57,0 -0.74,0.39 -0.74,0.94 0,0.53 0.1,0.78 0.31,1.32 0.43,1 1.58,3.83 1.58,5.21 0,1.84 -1.33,2.97 -3.69,2.97 -2.31,0 -3.93,-1.43 -4.93,-2.75 -0.22,2.54 -2.69,2.75 -3.71,2.75 -2.45,0 -3.84,-1.54 -4.73,-2.47 -0.11,2.18 -2.39,2.47 -3.02,2.47 -2.5,0 -3.21,-3.82 -3.21,-3.86 0,-0.36 0.4,-0.36 0.53,-0.36 0.42,0 0.47,0.15 0.56,0.48 0.37,1.44 0.95,2.88 2,2.88 0.84,0 1.01,-0.8 1.01,-1.32 0,-0.34 -0.25,-1.29 -0.39,-1.93 -0.18,-0.68 -0.42,-1.71 -0.54,-2.25 l -0.58,-2.22 c -0.16,-0.63 -0.42,-1.72 -0.42,-1.85 0,-0.54 0.43,-0.87 0.92,-0.87 0.37,0 0.92,0.2 1.19,0.83 0.03,0.12 0.32,1.29 0.48,1.93 0.09,0.41 0.38,1.47 0.44,1.72 0.12,0.57 0.28,1.11 0.4,1.68 0.05,0.1 0.94,1.92 2.16,3 0.41,0.34 1.45,1.28 3.08,1.28 1.26,0 1.73,-0.72 1.73,-1.78 0,-0.55 -0.25,-1.55 -0.45,-2.33 z"
           inkscape:connector-curvature="0"
           style="fill:#000000;stroke-width:0" /><path
           id="path4500"
           d="m 518.51,409.24 0.01,0.05 0.01,0.05 0.02,0.05 0.01,0.06 0.01,0.06 0.02,0.05 0.03,0.12 0.03,0.12 0.03,0.13 0.03,0.12 0.03,0.12 0.02,0.05 0.01,0.06 0.01,0.05 0.02,0.06 0.01,0.05 0.01,0.05 0.01,0.04 0.01,0.05 0.01,0.04 0.01,0.03 0.01,0.04 v 0.03 l 0.01,0.03 v 0.02 0.02 0 0.01 c 0,0.42 -0.31,0.88 -0.92,0.88 -0.44,0 -1.05,-0.3 -1.23,-1 -0.49,0.64 -1.43,1.5 -3,1.5 v -0.86 c 1.12,0 2.2,-0.68 2.59,-2.16 l -1.14,-4.69 c -0.11,-0.37 -0.11,-0.42 -0.55,-0.92 -0.92,-1.05 -2.22,-1.81 -3.47,-1.81 -0.87,0 -2.18,0.47 -2.18,2.53 0,1.16 0.59,3.77 1.47,5.06 0.96,1.38 2.23,1.99 3.28,1.99 v 0.86 c -3.5,0 -7,-3.43 -7,-6.96 0,-2.54 1.87,-4.34 4.36,-4.34 2.04,0 3.64,1.45 3.93,1.75 0.46,-1.22 1.83,-1.75 2.94,-1.75 1,0 1.67,0.58 2.2,1.41 0.64,0.96 0.99,2.28 0.99,2.46 0,0.35 -0.42,0.35 -0.52,0.35 -0.45,0 -0.47,-0.16 -0.59,-0.55 -0.45,-1.84 -1.09,-2.81 -1.97,-2.81 -0.7,0 -1,0.55 -1,1.31 0,0.38 0.25,1.33 0.41,2 z"
           inkscape:connector-curvature="0"
           style="fill:#000000;stroke-width:0" /><path
           id="path4502"
           d="m 538.9,410.93 -0.05,-0.02 -0.05,-0.02 -0.05,-0.02 -0.05,-0.02 -0.04,-0.02 -0.05,-0.02 -0.04,-0.02 -0.04,-0.03 -0.04,-0.02 -0.04,-0.02 -0.04,-0.03 -0.04,-0.03 -0.03,-0.02 -0.03,-0.03 -0.04,-0.03 -0.03,-0.03 -0.05,-0.05 -0.06,-0.06 -0.05,-0.06 -0.04,-0.07 -0.04,-0.06 -0.04,-0.06 -0.03,-0.06 -0.03,-0.06 -0.02,-0.06 -0.02,-0.06 -0.02,-0.06 -0.02,-0.05 -0.01,-0.05 -0.01,-0.05 -0.01,-0.05 -0.01,-0.05 -0.01,-0.04 v -0.03 -0.03 l -0.01,-0.03 v -0.02 -0.01 -0.01 0 -0.01 0 0 c 0,-0.42 0.3,-1.02 1.11,-1.02 0.7,0 1.55,0.6 1.55,1.69 0,1.47 -1.64,2.05 -2.95,2.05 -1.63,0 -2.68,-1.05 -3.18,-1.71 -0.82,1.42 -2.42,1.71 -3.31,1.71 -3.11,0 -4.88,-2.94 -4.88,-3.86 0,-0.36 0.4,-0.36 0.52,-0.36 0.22,0 0.42,0.03 0.53,0.29 0.74,2.46 2.78,3.07 3.74,3.07 0.81,0 1.76,-0.35 1.76,-1.66 0,-0.62 -0.45,-2.34 -1.3,-5.66 -0.37,-1.42 -1.51,-2.26 -2.59,-2.26 -0.17,0 -0.89,0 -1.48,0.39 1.11,0.41 1.11,1.34 1.11,1.45 0,0.72 -0.55,1.05 -1.1,1.05 -0.62,0 -1.54,-0.5 -1.54,-1.7 0,-1.52 1.7,-2.05 2.97,-2.05 1.37,0 2.48,0.8 3.09,1.7 0.98,-1.5 2.58,-1.7 3.36,-1.7 3.14,0 4.9,2.97 4.9,3.87 0,0.35 -0.42,0.35 -0.51,0.35 -0.44,0 -0.49,-0.16 -0.56,-0.38 -0.72,-2.25 -2.65,-2.98 -3.74,-2.98 -0.75,0 -1.76,0.26 -1.76,1.65 0,0.32 0,0.49 0.2,1.33 0.42,1.75 1.09,4.52 1.3,4.96 0.31,0.65 1.14,1.64 2.4,1.64 0.08,0 0.92,0 1.5,-0.39 z"
           inkscape:connector-curvature="0"
           style="fill:#000000;stroke-width:0" /><path
           id="path4504"
           d="m 574.29,411.73 h 0.04 0.04 0.04 0.05 0.04 0.04 l 0.05,0.01 h 0.04 l 0.05,0.01 h 0.04 l 0.05,0.01 0.04,0.01 0.05,0.01 0.04,0.01 0.04,0.01 0.04,0.02 0.04,0.02 0.04,0.02 0.04,0.02 0.04,0.02 0.03,0.03 0.03,0.03 0.03,0.03 0.02,0.02 0.01,0.02 0.01,0.02 0.01,0.02 0.02,0.02 0.01,0.02 0.01,0.02 0.01,0.02 v 0.03 l 0.01,0.02 0.01,0.03 v 0.02 l 0.01,0.03 v 0.03 l 0.01,0.03 v 0.03 0.03 0.03 c 0,0.69 -0.67,0.69 -1.08,0.69 h -13.01 c 0.29,3.56 3.62,6.66 8.11,6.66 h 4.9 c 0.41,0 1.08,0 1.08,0.7 0,0.69 -0.67,0.69 -1.08,0.69 h -5 c -5.01,0 -9.47,-3.71 -9.47,-8.74 0,-5.03 4.46,-8.75 9.47,-8.75 h 5 c 0.41,0 1.08,0 1.08,0.71 0,0.68 -0.67,0.68 -1.08,0.68 h -4.9 c -4.49,0 -7.82,3.1 -8.11,6.66 z"
           inkscape:connector-curvature="0"
           style="fill:#000000;stroke-width:0" /><path
           id="path4506"
           d="m 603.31,406.15 0.55,0.16 0.55,0.18 0.54,0.19 0.53,0.2 0.53,0.22 0.52,0.23 0.51,0.25 0.5,0.26 0.49,0.27 0.47,0.28 0.47,0.29 0.45,0.31 0.44,0.32 0.42,0.33 0.41,0.34 0.39,0.35 0.37,0.36 0.36,0.37 0.33,0.38 0.32,0.39 0.3,0.4 0.27,0.41 0.25,0.42 0.23,0.42 0.21,0.44 0.18,0.44 0.15,0.45 0.13,0.45 0.1,0.46 0.08,0.47 0.04,0.48 0.02,0.48 c 0,3.75 -2.91,6.61 -7.45,6.61 -6.43,0 -12.97,-5.06 -12.97,-10.06 0,-2.84 2.39,-4.95 5.9,-4.95 2.82,0 6.38,1.21 6.38,2.26 0,0.3 -0.28,0.3 -0.43,0.3 -0.28,0 -0.5,-0.11 -0.75,-0.2 -1.46,-0.55 -2.75,-0.65 -3.38,-0.65 -3.15,0 -5.21,1.91 -5.21,4.38 0,3.47 3.52,7.2 8.67,7.2 4.04,0 6.72,-2.61 6.72,-6.03 0,-2.97 -1.8,-5.4 -4.36,-6.89 -2.98,-1.75 -6.34,-2.03 -9.98,-2.05 -1.34,0 -2.33,-1.04 -2.33,-1.42 0,-0.28 0.25,-0.29 0.37,-0.29 2.35,-0.05 4.05,-0.47 6.87,-1.25 2.18,-0.6 4.37,-1.18 6.7,-1.18 3.98,0 6.34,2.82 6.34,3.85 0,0.18 -0.22,0.29 -0.37,0.29 -0.44,0 -1.79,-0.45 -2.16,-1.45 -0.19,-0.47 -0.36,-0.97 -2.03,-0.97 -2.28,0 -5.1,0.78 -7.64,1.5 z"
           inkscape:connector-curvature="0"
           style="fill:#000000;stroke-width:0" /></g>    </g>
    <g
       id="g5151"
       transform="translate(-39.108407,81.567254)">
      <g
         word-spacing="normal"
         letter-spacing="normal"
         font-size-adjust="none"
         font-stretch="normal"
         font-weight="normal"
         font-variant="normal"
         font-style="normal"
         stroke-miterlimit="10.433"
         xml:space="preserve"
         transform="matrix(0.3,0,0,-0.3,-52.5,222.75)"
         id="g5149"
         style="font-style:normal;font-variant:normal;font-weight:normal;font-stretch:normal;letter-spacing:normal;word-spacing:normal;text-anchor:start;fill:none;fill-opacity:1;fill-rule:evenodd;stroke:#000000;stroke-linecap:butt;stroke-linejoin:miter;stroke-miterlimit:10.43299961;stroke-dasharray:none;stroke-dashoffset:0;stroke-opacity:1"><path
           id="path5105"
           d="m 487.92,414.7 h 0.04 0.03 0.04 0.03 0.04 0.04 l 0.04,0.01 h 0.04 0.04 l 0.04,0.01 0.04,0.01 0.04,0.01 0.04,0.01 0.04,0.01 0.04,0.01 0.04,0.02 0.03,0.01 0.04,0.02 0.03,0.02 0.04,0.03 0.03,0.02 0.03,0.03 0.01,0.02 0.01,0.01 0.02,0.02 0.01,0.02 0.01,0.02 0.01,0.02 0.01,0.02 0.01,0.02 0.01,0.02 0.01,0.02 0.01,0.03 v 0.02 l 0.01,0.03 0.01,0.02 v 0.03 0.03 l 0.01,0.02 v 0.03 0.04 0.03 c 0,0.7 -0.73,0.7 -1.09,0.7 h -18.57 c -0.37,0 -1.09,0 -1.09,-0.7 0,-0.69 0.64,-0.69 0.97,-0.69 z"
           inkscape:connector-curvature="0"
           style="fill:#000000;stroke-width:0" /><path
           id="path5107"
           d="m 487.8,408.76 h 0.03 0.04 0.04 0.04 0.04 l 0.04,0.01 h 0.04 0.05 l 0.04,0.01 h 0.05 l 0.05,0.01 0.04,0.01 0.05,0.01 0.04,0.01 0.05,0.01 0.04,0.02 0.04,0.02 0.04,0.02 0.04,0.02 0.04,0.02 0.04,0.03 0.03,0.03 0.03,0.03 0.02,0.02 0.01,0.02 0.01,0.02 0.02,0.02 0.01,0.02 0.01,0.02 0.01,0.02 0.01,0.02 0.01,0.03 0.01,0.02 0.01,0.03 v 0.03 l 0.01,0.02 v 0.03 l 0.01,0.03 v 0.03 0.03 0.03 c 0,0.69 -0.62,0.69 -0.97,0.69 h -18.81 c -0.34,0 -0.97,0 -0.97,-0.69 0,-0.7 0.72,-0.7 1.09,-0.7 z"
           inkscape:connector-curvature="0"
           style="fill:#000000;stroke-width:0" /><path
           id="path5109"
           d="m 508.5,414.7 0.24,-0.18 0.23,-0.18 0.24,-0.17 0.25,-0.17 0.25,-0.16 0.25,-0.16 0.25,-0.15 0.26,-0.15 0.25,-0.14 0.26,-0.14 0.25,-0.12 0.26,-0.13 0.25,-0.11 0.25,-0.11 0.25,-0.1 0.25,-0.1 c -1.25,-0.48 -2.64,-1.17 -3.99,-2.28 h -19.2 c -0.37,0 -1.03,0 -1.03,-0.69 0,-0.7 0.75,-0.7 1.16,-0.7 h 17.5 c -1.39,-1.44 -2.46,-3.19 -2.46,-3.44 0,-0.42 0.47,-0.42 0.69,-0.42 0.33,0 0.5,0 0.67,0.3 0.49,0.78 1.3,2.14 2.88,3.51 2.81,2.49 5.42,3.02 6.92,3.35 0.2,0.01 0.33,0.22 0.33,0.37 0,0.32 -0.28,0.39 -0.38,0.43 -3.79,0.71 -7.19,2.51 -9.75,6.84 -0.17,0.25 -0.37,0.25 -0.67,0.25 -0.22,0 -0.69,0 -0.69,-0.42 0,-0.17 0.72,-1.55 2.46,-3.44 h -17.5 c -0.41,0 -1.16,0 -1.16,-0.7 0,-0.69 0.66,-0.69 1.03,-0.69 z"
           inkscape:connector-curvature="0"
           style="fill:#000000;stroke-width:0" /><path
           id="path5111"
           d="m 545.92,423.81 v 0.04 0.04 0.04 0.04 0.05 0.04 l -0.01,0.04 v 0.05 0.04 l -0.01,0.05 -0.01,0.04 -0.01,0.05 -0.01,0.04 -0.01,0.05 -0.01,0.04 -0.02,0.04 -0.01,0.04 -0.02,0.04 -0.03,0.04 -0.02,0.03 -0.03,0.04 -0.03,0.03 -0.03,0.03 -0.02,0.01 -0.01,0.02 -0.02,0.01 -0.02,0.01 -0.02,0.01 -0.03,0.01 -0.02,0.01 -0.02,0.01 -0.02,0.01 -0.03,0.01 h -0.02 l -0.03,0.01 -0.03,0.01 h -0.03 -0.03 l -0.03,0.01 h -0.03 -0.03 c -0.7,0 -0.7,-0.68 -0.7,-1.08 v -22.77 c 0,-0.4 0,-1.08 0.7,-1.08 0.7,0 0.7,0.68 0.7,1.08 z"
           inkscape:connector-curvature="0"
           style="fill:#000000;stroke-width:0" /><path
           id="path5113"
           d="m 564.84,421.07 v 0.07 0.07 0.07 0.06 l 0.01,0.06 v 0.06 l 0.01,0.05 0.01,0.05 0.02,0.05 0.02,0.05 0.02,0.04 0.03,0.04 0.04,0.04 0.04,0.04 0.04,0.03 0.05,0.03 0.06,0.03 0.04,0.02 0.03,0.01 0.04,0.02 0.04,0.01 0.04,0.01 0.04,0.01 0.04,0.01 0.05,0.01 0.05,0.01 0.05,0.01 0.06,0.01 0.05,0.01 0.06,0.01 0.06,0.01 h 0.07 l 0.07,0.01 h 0.07 l 0.07,0.01 0.07,0.01 h 0.08 0.08 l 0.09,0.01 h 0.09 0.09 l 0.09,0.01 h 0.1 0.1 0.1 0.11 0.11 1.07 v 1.09 c -1.51,-0.09 -3.17,-0.09 -4.68,-0.09 -1.52,0 -3.16,0 -4.69,0.09 v -1.09 h 1.08 c 2.39,0 2.39,-0.25 2.39,-1.05 v -10.31 c -2.86,0.42 -4.33,2.49 -4.39,5.3 -0.02,2.01 -0.74,3.73 -2.83,3.73 h -1.08 c -0.39,0 -0.76,0 -0.76,-0.42 0,-0.22 0.17,-0.37 0.34,-0.39 1.84,-0.2 1.87,-2 1.89,-2.94 0.05,-1.47 0.83,-5.7 6.83,-6.15 v -1.55 c 0,-0.77 0,-1.05 -2.39,-1.05 h -1.08 v -1.09 c 1.53,0.09 3.17,0.09 4.69,0.09 1.51,0 3.17,0 4.68,-0.09 v 1.09 h -1.07 c -2.39,0 -2.39,0.25 -2.39,1.05 v 1.55 c 2.2,0.15 3.68,0.75 4.98,1.79 1.39,1.14 2,3.14 2.02,4.41 0,0.55 0.04,2.69 1.71,2.89 0.21,0.02 0.54,0.05 0.54,0.39 0,0.42 -0.36,0.42 -0.75,0.42 h -1.1 c -2.25,0 -2.81,-1.95 -2.84,-3.75 -0.03,-0.92 -0.3,-4.72 -4.56,-5.28 z"
           inkscape:connector-curvature="0"
           style="fill:#000000;stroke-width:0" /><path
           id="path5115"
           d="m 586.33,411.87 0.02,0.03 0.01,0.04 0.02,0.03 0.01,0.03 0.01,0.02 0.01,0.03 0.01,0.03 0.01,0.02 0.01,0.03 0.01,0.02 0.01,0.02 v 0.02 l 0.01,0.02 v 0.02 l 0.01,0.02 v 0.01 l 0.01,0.02 v 0.01 0.02 0.01 l 0.01,0.02 v 0.01 0.01 0.01 0.01 0.01 0.01 0.01 0 0.01 0.01 0 c 0,0.18 -0.06,0.3 -0.14,0.47 l -5.33,11.31 c -0.17,0.4 -0.32,0.68 -0.75,0.68 -0.37,0 -0.7,-0.33 -0.7,-0.71 0,-0.17 0.08,-0.29 0.16,-0.47 l 5.29,-11.28 -5.28,-11.22 c -0.17,-0.34 -0.17,-0.5 -0.17,-0.54 0,-0.38 0.33,-0.71 0.7,-0.71 0.4,0 0.6,0.32 0.75,0.63 z"
           inkscape:connector-curvature="0"
           style="fill:#000000;stroke-width:0" /><path
           id="path5117"
           d="m 604.19,406.54 v -0.22 l -0.01,-0.21 -0.02,-0.21 -0.03,-0.21 -0.03,-0.19 -0.03,-0.19 -0.04,-0.19 -0.05,-0.18 -0.05,-0.17 -0.06,-0.17 -0.06,-0.17 -0.06,-0.15 -0.07,-0.15 -0.07,-0.15 -0.07,-0.14 -0.07,-0.14 -0.08,-0.13 -0.08,-0.12 -0.08,-0.12 -0.08,-0.11 -0.08,-0.11 -0.08,-0.11 -0.08,-0.09 -0.08,-0.1 -0.08,-0.09 -0.08,-0.08 -0.08,-0.08 -0.08,-0.07 -0.07,-0.07 -0.07,-0.06 -0.07,-0.06 -0.06,-0.05 c -0.25,-0.21 -0.31,-0.25 -0.31,-0.44 0,-0.14 0.23,-0.44 0.45,-0.44 0.33,0 2.67,1.94 2.67,5.05 0,1.7 -0.75,2.83 -1.87,2.83 -0.94,0 -1.52,-0.75 -1.52,-1.54 0,-0.79 0.58,-1.51 1.52,-1.51 0.37,0 0.75,0.09 1.01,0.34 z"
           inkscape:connector-curvature="0"
           style="fill:#000000;stroke-width:0" /><path
           id="path5119"
           d="m 625.22,421.64 v 0.07 l 0.01,0.07 0.01,0.08 0.01,0.08 0.02,0.09 0.02,0.09 0.03,0.09 0.04,0.09 0.04,0.09 0.05,0.1 0.06,0.09 0.07,0.1 0.07,0.1 0.09,0.09 0.09,0.09 0.11,0.1 0.11,0.09 0.13,0.09 0.14,0.08 0.15,0.09 0.17,0.08 0.18,0.07 0.09,0.04 0.1,0.04 0.1,0.03 0.1,0.03 0.11,0.04 0.11,0.03 0.12,0.03 0.12,0.03 0.13,0.02 0.12,0.03 0.14,0.02 0.13,0.02 0.14,0.03 0.15,0.02 0.15,0.01 0.15,0.02 0.16,0.01 0.16,0.01 0.17,0.01 0.17,0.01 c 0.09,0 0.31,0.1 0.31,0.42 0,0.43 -0.25,0.43 -0.73,0.43 -1.92,0 -5.49,-0.36 -5.91,-2.94 -0.03,-0.16 -0.03,-0.2 -0.03,-0.99 v -4.48 c 0,-1.44 0,-1.98 -0.81,-2.66 -1,-0.78 -2.37,-0.95 -3.08,-0.96 -0.42,-0.04 -0.64,-0.04 -0.64,-0.43 0,-0.07 0,-0.4 0.38,-0.43 3.53,-0.13 4.14,-1.79 4.15,-2.54 v -5.26 c 0,-1.61 0,-2.64 1.97,-3.56 0.78,-0.35 2.35,-0.68 3.97,-0.68 0.48,0 0.73,0 0.73,0.44 0,0.06 0,0.39 -0.37,0.42 -2.52,0.1 -3.78,0.86 -4.11,1.99 -0.05,0.23 -0.05,0.5 -0.05,0.83 v 5.4 c 0,0.85 0,2.57 -2.95,3.39 1.98,0.55 2.95,1.61 2.95,3.13 z"
           inkscape:connector-curvature="0"
           style="fill:#000000;stroke-width:0" /><path
           id="path5121"
           d="m 651.46,423.36 -0.01,0.04 -0.01,0.05 -0.01,0.04 -0.01,0.05 -0.01,0.04 -0.01,0.04 -0.01,0.03 -0.01,0.04 -0.02,0.03 -0.01,0.03 -0.01,0.03 -0.02,0.03 -0.01,0.02 -0.02,0.03 -0.02,0.02 -0.02,0.02 -0.02,0.02 -0.02,0.01 -0.02,0.02 -0.03,0.02 -0.03,0.01 -0.03,0.01 -0.03,0.01 -0.03,0.01 -0.03,0.01 -0.04,0.01 h -0.04 l -0.04,0.01 h -0.04 -0.05 -0.04 -0.05 c -0.6,0 -0.75,-0.2 -1,-0.58 l -9.77,-14.15 c -1.03,-1.52 -1.91,-1.91 -3.53,-1.99 -0.47,-0.03 -0.47,-0.67 -0.47,-0.7 0,-0.34 0.3,-0.42 0.39,-0.42 0.36,0 0.78,0.08 1.13,0.08 0.42,0 0.84,0.01 1.26,0.01 0.49,0 0.93,-0.01 1.38,-0.01 0.45,0 0.97,-0.08 1.42,-0.08 0.17,0 0.59,0 0.59,0.7 0,0.39 -0.37,0.42 -0.46,0.42 -0.21,0 -1.18,0.05 -1.18,0.64 0,0.3 0.3,0.72 0.47,0.97 l 1.83,2.68 c 0.13,0.15 0.14,0.17 0.61,0.17 h 7.56 l -0.2,1.12 h -7.08 l 5.56,8.06 1.52,-8.06 0.2,-1.12 c 0.05,-0.3 0.06,-0.42 0.14,-0.72 0.08,-0.45 0.58,-2.94 0.58,-3.19 0,-0.55 -1.58,-0.55 -1.7,-0.55 -0.38,0 -0.77,0 -0.77,-0.7 0,-0.25 0.17,-0.42 0.46,-0.42 0.51,0 1.1,0.08 1.65,0.08 0.61,0 1.17,0.01 1.78,0.01 0.52,0 1.07,-0.01 1.6,-0.01 0.5,0 1.06,-0.08 1.56,-0.08 0.42,0 0.59,0.3 0.59,0.7 0,0.42 -0.39,0.42 -0.73,0.42 -1.66,0 -1.67,0.18 -1.78,0.72 z"
           inkscape:connector-curvature="0"
           style="fill:#000000;stroke-width:0" /><path
           id="path5123"
           d="m 669.02,413.71 v 0.05 l -0.01,0.06 v 0.05 l -0.01,0.05 -0.01,0.05 -0.01,0.06 -0.02,0.05 -0.02,0.04 -0.02,0.05 -0.02,0.05 -0.03,0.04 -0.02,0.04 -0.03,0.05 -0.03,0.04 -0.04,0.03 -0.03,0.04 -0.04,0.04 -0.04,0.03 -0.04,0.03 -0.04,0.03 -0.04,0.03 -0.05,0.02 -0.05,0.03 -0.05,0.02 -0.05,0.02 -0.05,0.01 -0.05,0.02 -0.06,0.01 -0.06,0.01 h -0.05 l -0.06,0.01 h -0.06 c -0.69,0 -1.52,-0.67 -1.52,-1.48 0,-0.71 0.55,-1.08 1.06,-1.08 0.83,0 1.55,0.75 1.55,1.5 z"
           inkscape:connector-curvature="0"
           style="fill:#000000;stroke-width:0" /><path
           id="path5125"
           d="m 670.19,401.75 v 0.02 0.02 0.01 0.01 l -0.01,0.02 v 0.01 0.01 l -0.01,0.02 v 0.01 l -0.01,0.01 v 0.01 l -0.01,0.01 v 0.01 l -0.01,0.01 -0.01,0.01 -0.01,0.01 v 0.01 l -0.01,0.01 -0.01,0.01 -0.01,0.01 -0.02,0.01 -0.02,0.01 -0.02,0.02 -0.02,0.01 -0.02,0.01 h -0.02 l -0.02,0.01 -0.03,0.01 h -0.02 l -0.02,0.01 h -0.02 l -0.02,0.01 h -0.02 -0.02 -0.02 l -0.02,0.01 h -0.02 -0.01 -0.02 -0.01 -0.01 -0.01 v 0 c -0.43,0 -0.46,-0.1 -0.6,-0.58 -0.43,-1.36 -1.55,-2.78 -2.8,-2.78 -0.57,0 -0.75,0.39 -0.75,0.94 0,0.53 0.13,0.79 0.33,1.28 0.21,0.48 0.39,0.98 0.52,1.34 0.11,0.22 1.08,2.53 1.42,3.44 0.2,0.5 0.36,0.81 0.36,1.23 0,1.21 -1.16,2.21 -2.72,2.21 -2.62,0 -4.01,-3.19 -4.01,-3.86 0,-0.36 0.4,-0.36 0.53,-0.36 0.42,0 0.44,0.12 0.56,0.5 0.55,1.76 1.75,2.86 2.81,2.86 0.49,0 0.75,-0.27 0.75,-0.94 0,-0.09 0,-0.42 -0.14,-0.91 -0.19,-0.43 -1.29,-3.11 -1.66,-3.95 -0.17,-0.42 -0.17,-0.47 -0.54,-1.31 -0.13,-0.36 -0.27,-0.71 -0.27,-1.13 0,-1.29 1.22,-2.2 2.72,-2.2 2.61,0 4,3.25 4,3.87 z"
           inkscape:connector-curvature="0"
           style="fill:#000000;stroke-width:0" /><path
           id="path5127"
           d="m 683.09,403.21 v -0.07 -0.07 l -0.01,-0.08 -0.01,-0.08 -0.02,-0.09 -0.03,-0.09 -0.03,-0.09 -0.03,-0.09 -0.04,-0.09 -0.05,-0.1 -0.06,-0.09 -0.07,-0.1 -0.07,-0.09 -0.09,-0.1 -0.09,-0.09 -0.11,-0.09 -0.11,-0.09 -0.13,-0.09 -0.14,-0.09 -0.15,-0.08 -0.17,-0.08 -0.17,-0.08 -0.1,-0.03 -0.09,-0.04 -0.11,-0.03 -0.1,-0.04 -0.11,-0.03 -0.11,-0.03 -0.12,-0.03 -0.12,-0.03 -0.12,-0.02 -0.13,-0.03 -0.13,-0.02 -0.14,-0.02 -0.14,-0.02 -0.14,-0.02 -0.15,-0.02 -0.15,-0.01 -0.16,-0.02 -0.16,-0.01 -0.17,-0.01 -0.17,-0.01 c -0.2,-0.03 -0.33,-0.2 -0.33,-0.42 0,-0.44 0.25,-0.44 0.77,-0.44 1.84,0 5.47,0.33 5.89,2.96 0.01,0.14 0.01,0.19 0.01,0.97 v 4.48 c 0,1.44 0,1.99 0.83,2.66 1,0.78 2.36,0.95 3.06,0.97 0.43,0.03 0.65,0.03 0.65,0.43 0,0.07 0,0.39 -0.38,0.43 -3.53,0.12 -4.12,1.78 -4.16,2.53 v 5.26 c 0,1.61 0,2.64 -1.96,3.56 -0.82,0.38 -2.41,0.68 -3.94,0.68 -0.52,0 -0.77,0 -0.77,-0.43 0,-0.07 0,-0.4 0.38,-0.42 2.51,-0.11 3.78,-0.87 4.11,-2 0.04,-0.22 0.04,-0.5 0.04,-0.83 v -5.4 c 0,-0.85 0,-2.56 2.97,-3.38 -2,-0.56 -2.97,-1.62 -2.97,-3.14 z"
           inkscape:connector-curvature="0"
           style="fill:#000000;stroke-width:0" /><path
           id="path5129"
           d="m 703.22,413.71 v 0.05 l -0.01,0.06 v 0.05 l -0.01,0.05 -0.01,0.05 -0.02,0.06 -0.01,0.05 -0.02,0.04 -0.02,0.05 -0.02,0.05 -0.03,0.04 -0.02,0.04 -0.03,0.05 -0.03,0.04 -0.04,0.03 -0.03,0.04 -0.04,0.04 -0.04,0.03 -0.04,0.03 -0.04,0.03 -0.04,0.03 -0.05,0.02 -0.05,0.03 -0.05,0.02 -0.05,0.02 -0.05,0.01 -0.05,0.02 -0.06,0.01 -0.06,0.01 h -0.05 l -0.06,0.01 h -0.07 c -0.68,0 -1.51,-0.67 -1.51,-1.48 0,-0.71 0.55,-1.08 1.06,-1.08 0.83,0 1.55,0.75 1.55,1.5 z"
           inkscape:connector-curvature="0"
           style="fill:#000000;stroke-width:0" /><path
           id="path5131"
           d="m 704.39,401.75 v 0.02 0.02 0.01 0.01 l -0.01,0.02 v 0.01 0.01 l -0.01,0.02 v 0.01 l -0.01,0.01 v 0.01 l -0.01,0.01 v 0.01 l -0.01,0.01 -0.01,0.01 -0.01,0.01 v 0.01 l -0.01,0.01 -0.01,0.01 -0.01,0.01 -0.02,0.01 -0.02,0.01 -0.02,0.02 -0.02,0.01 -0.02,0.01 h -0.02 l -0.02,0.01 -0.03,0.01 h -0.02 l -0.02,0.01 h -0.02 l -0.02,0.01 h -0.02 -0.02 -0.02 l -0.02,0.01 h -0.02 -0.02 -0.01 -0.01 -0.02 v 0 0 c -0.43,0 -0.46,-0.1 -0.6,-0.58 -0.44,-1.36 -1.55,-2.78 -2.8,-2.78 -0.57,0 -0.75,0.39 -0.75,0.94 0,0.53 0.13,0.79 0.33,1.28 0.21,0.48 0.39,0.98 0.52,1.34 0.11,0.22 1.08,2.53 1.42,3.44 0.2,0.5 0.36,0.81 0.36,1.23 0,1.21 -1.16,2.21 -2.72,2.21 -2.62,0 -4.02,-3.19 -4.02,-3.86 0,-0.36 0.41,-0.36 0.54,-0.36 0.42,0 0.43,0.12 0.56,0.5 0.55,1.76 1.75,2.86 2.81,2.86 0.49,0 0.75,-0.27 0.75,-0.94 0,-0.09 0,-0.42 -0.14,-0.91 -0.19,-0.43 -1.3,-3.11 -1.66,-3.95 -0.17,-0.42 -0.17,-0.47 -0.54,-1.31 -0.13,-0.36 -0.27,-0.71 -0.27,-1.13 0,-1.29 1.22,-2.2 2.72,-2.2 2.61,0 4,3.25 4,3.87 z"
           inkscape:connector-curvature="0"
           style="fill:#000000;stroke-width:0" /><path
           id="path5133"
           d="m 715.8,406.54 -0.01,-0.22 -0.01,-0.21 -0.02,-0.21 -0.02,-0.21 -0.03,-0.19 -0.04,-0.19 -0.04,-0.19 -0.04,-0.18 -0.05,-0.17 -0.06,-0.17 -0.06,-0.17 -0.06,-0.15 -0.07,-0.15 -0.07,-0.15 -0.07,-0.14 -0.08,-0.14 -0.07,-0.13 -0.08,-0.12 -0.08,-0.12 -0.08,-0.11 -0.08,-0.11 -0.09,-0.11 -0.08,-0.09 -0.08,-0.1 -0.08,-0.09 -0.08,-0.08 -0.07,-0.08 -0.08,-0.07 -0.07,-0.07 -0.07,-0.06 -0.07,-0.06 -0.07,-0.05 c -0.25,-0.21 -0.31,-0.25 -0.31,-0.44 0,-0.14 0.24,-0.44 0.45,-0.44 0.33,0 2.68,1.94 2.68,5.05 0,1.7 -0.75,2.83 -1.88,2.83 -0.94,0 -1.51,-0.75 -1.51,-1.54 0,-0.79 0.57,-1.51 1.51,-1.51 0.38,0 0.75,0.09 1.02,0.34 z"
           inkscape:connector-curvature="0"
           style="fill:#000000;stroke-width:0" /><path
           id="path5135"
           d="m 736.83,421.64 v 0.07 l 0.01,0.07 0.01,0.08 0.01,0.08 0.02,0.09 0.02,0.09 0.03,0.09 0.04,0.09 0.04,0.09 0.05,0.1 0.06,0.09 0.07,0.1 0.07,0.1 0.09,0.09 0.09,0.09 0.11,0.1 0.11,0.09 0.13,0.09 0.14,0.08 0.15,0.09 0.17,0.08 0.17,0.07 0.1,0.04 0.1,0.04 0.1,0.03 0.1,0.03 0.11,0.04 0.11,0.03 0.12,0.03 0.12,0.03 0.12,0.02 0.13,0.03 0.14,0.02 0.13,0.02 0.14,0.03 0.15,0.02 0.15,0.01 0.15,0.02 0.16,0.01 0.16,0.01 0.17,0.01 0.17,0.01 c 0.1,0 0.31,0.1 0.31,0.42 0,0.43 -0.25,0.43 -0.73,0.43 -1.92,0 -5.48,-0.36 -5.91,-2.94 -0.03,-0.16 -0.03,-0.2 -0.03,-0.99 v -4.48 c 0,-1.44 0,-1.98 -0.81,-2.66 -1,-0.78 -2.38,-0.95 -3.08,-0.96 -0.42,-0.04 -0.64,-0.04 -0.64,-0.43 0,-0.07 0,-0.4 0.37,-0.43 3.54,-0.13 4.15,-1.79 4.16,-2.54 v -5.26 c 0,-1.61 0,-2.64 1.97,-3.56 0.78,-0.35 2.34,-0.68 3.97,-0.68 0.48,0 0.73,0 0.73,0.44 0,0.06 0,0.39 -0.37,0.42 -2.52,0.1 -3.78,0.86 -4.11,1.99 -0.05,0.23 -0.05,0.5 -0.05,0.83 v 5.4 c 0,0.85 0,2.57 -2.95,3.39 1.98,0.55 2.95,1.61 2.95,3.13 z"
           inkscape:connector-curvature="0"
           style="fill:#000000;stroke-width:0" /><path
           id="path5137"
           d="m 751.13,408.26 -0.02,-0.07 -0.01,-0.06 -0.02,-0.06 -0.02,-0.06 -0.02,-0.06 -0.01,-0.05 -0.02,-0.05 -0.02,-0.05 -0.03,-0.05 -0.02,-0.04 -0.03,-0.04 -0.03,-0.03 -0.04,-0.04 -0.04,-0.03 -0.04,-0.03 -0.05,-0.03 -0.05,-0.02 -0.06,-0.03 -0.06,-0.02 -0.07,-0.02 -0.04,-0.01 h -0.04 l -0.04,-0.01 -0.04,-0.01 -0.05,-0.01 h -0.04 l -0.05,-0.01 h -0.05 l -0.05,-0.01 -0.06,-0.01 h -0.05 -0.06 l -0.06,-0.01 h -0.06 -0.07 l -0.06,-0.01 h -0.07 -0.08 -0.07 -0.08 -0.08 l -0.08,-0.01 h -0.08 -0.09 c -0.66,0 -1.05,0 -1.05,-0.7 0,-0.42 0.39,-0.42 0.83,-0.42 h 10.83 c 4.48,0 8.12,2.8 8.12,5.28 0,1.55 -1.45,3.22 -4.84,3.64 2.47,0.31 5.99,1.97 5.99,4.45 0,2.1 -2.47,3.64 -5.87,3.64 l -0.43,-1.12 c 2.47,0 3.64,-1.27 3.64,-2.59 0,-2.02 -2.71,-4.04 -6.19,-4.04 h -4.7 l -0.24,-0.84 h 6.08 c 2.55,0 3.81,-1.47 3.81,-3.05 0,-2.4 -2.95,-4.25 -6.04,-4.25 h -4.81 c -0.19,0 -0.55,0 -0.8,0.05 0.03,0.2 0.03,0.25 0.08,0.45 l 1.68,6.8 0.24,0.84 1.43,5.82 c 0.21,0.76 0.21,0.81 1.25,0.81 h 4.57 l 0.43,1.12 h -10.2 c -0.47,0 -0.87,0 -0.87,-0.7 0,-0.42 0.32,-0.42 0.92,-0.42 0.25,0 1.08,0 1.59,-0.14 0,-0.31 0,-0.36 -0.07,-0.63 z"
           inkscape:connector-curvature="0"
           style="fill:#000000;stroke-width:0" /><path
           id="path5139"
           d="m 783.47,413.71 -0.01,0.05 v 0.05 l -0.01,0.06 v 0.05 l -0.02,0.05 -0.01,0.05 -0.01,0.05 -0.02,0.05 -0.02,0.04 -0.02,0.05 -0.03,0.04 -0.02,0.05 -0.03,0.04 -0.03,0.04 -0.04,0.04 -0.03,0.04 -0.04,0.03 -0.03,0.03 -0.05,0.04 -0.04,0.03 -0.04,0.02 -0.05,0.03 -0.05,0.02 -0.04,0.03 -0.06,0.01 -0.05,0.02 -0.05,0.02 -0.06,0.01 -0.06,0.01 h -0.06 l -0.06,0.01 h -0.06 c -0.77,0 -1.55,-0.73 -1.55,-1.48 0,-0.61 0.47,-1.08 1.1,-1.08 0.84,0 1.55,0.79 1.55,1.5 z"
           inkscape:connector-curvature="0"
           style="fill:#000000;stroke-width:0" /><path
           id="path5141"
           d="m 778.04,397.04 -0.05,-0.18 -0.05,-0.17 -0.06,-0.17 -0.07,-0.16 -0.07,-0.16 -0.08,-0.16 -0.08,-0.15 -0.08,-0.14 -0.1,-0.14 -0.09,-0.14 -0.1,-0.13 -0.11,-0.13 -0.11,-0.12 -0.11,-0.12 -0.11,-0.11 -0.12,-0.1 -0.12,-0.1 -0.13,-0.1 -0.12,-0.09 -0.13,-0.08 -0.14,-0.08 -0.13,-0.07 -0.13,-0.06 -0.14,-0.06 -0.14,-0.05 -0.14,-0.05 -0.14,-0.04 -0.14,-0.03 -0.14,-0.02 -0.15,-0.02 -0.14,-0.01 -0.14,-0.01 c -0.44,0 -0.7,0.08 -0.91,0.13 0.6,0.36 0.78,1 0.78,1.33 0,0.42 -0.31,1.01 -1.12,1.01 -0.84,0 -1.55,-0.76 -1.55,-1.59 0,-1.06 1.13,-1.72 2.82,-1.72 1.7,0 4.93,0.88 5.7,3.97 l 2.25,8.91 c 0.05,0.25 0.12,0.48 0.12,0.82 0,1.43 -1.32,2.43 -3.06,2.43 -3.01,0 -4.86,-3.38 -4.86,-3.86 0,-0.36 0.39,-0.36 0.52,-0.36 0.37,0 0.42,0.11 0.55,0.36 1.15,2.43 2.84,3 3.68,3 1,0 1.05,-0.89 1.05,-1.32 0,-0.34 -0.02,-0.45 -0.08,-0.64 z"
           inkscape:connector-curvature="0"
           style="fill:#000000;stroke-width:0" /><path
           id="path5143"
           d="m 797.45,403.21 v -0.07 -0.07 l -0.01,-0.08 -0.02,-0.08 -0.01,-0.09 -0.03,-0.09 -0.03,-0.09 -0.03,-0.09 -0.05,-0.09 -0.05,-0.1 -0.05,-0.09 -0.07,-0.1 -0.08,-0.09 -0.08,-0.1 -0.09,-0.09 -0.11,-0.09 -0.12,-0.09 -0.12,-0.09 -0.14,-0.09 -0.15,-0.08 -0.17,-0.08 -0.17,-0.08 -0.1,-0.03 -0.1,-0.04 -0.1,-0.03 -0.1,-0.04 -0.11,-0.03 -0.11,-0.03 -0.12,-0.03 -0.12,-0.03 -0.12,-0.02 -0.13,-0.03 -0.13,-0.02 -0.14,-0.02 -0.14,-0.02 -0.14,-0.02 -0.15,-0.02 -0.15,-0.01 -0.16,-0.02 -0.16,-0.01 -0.17,-0.01 -0.17,-0.01 c -0.2,-0.03 -0.33,-0.2 -0.33,-0.42 0,-0.44 0.25,-0.44 0.77,-0.44 1.84,0 5.47,0.33 5.89,2.96 0.01,0.14 0.01,0.19 0.01,0.97 v 4.48 c 0,1.44 0,1.99 0.83,2.66 1,0.78 2.36,0.95 3.06,0.97 0.43,0.03 0.64,0.03 0.64,0.43 0,0.07 0,0.39 -0.37,0.43 -3.53,0.12 -4.13,1.78 -4.16,2.53 v 5.26 c 0,1.61 0,2.64 -1.97,3.56 -0.81,0.38 -2.4,0.68 -3.93,0.68 -0.52,0 -0.77,0 -0.77,-0.43 0,-0.07 0,-0.4 0.38,-0.42 2.51,-0.11 3.78,-0.87 4.11,-2 0.04,-0.22 0.04,-0.5 0.04,-0.83 v -5.4 c 0,-0.85 0,-2.56 2.97,-3.38 -2,-0.56 -2.97,-1.62 -2.97,-3.14 z"
           inkscape:connector-curvature="0"
           style="fill:#000000;stroke-width:0" /><path
           id="path5145"
           d="m 820.42,413.71 v 0.05 0.05 l -0.01,0.06 -0.01,0.05 -0.01,0.05 -0.01,0.05 -0.02,0.05 -0.01,0.05 -0.02,0.04 -0.03,0.05 -0.02,0.04 -0.03,0.05 -0.03,0.04 -0.03,0.04 -0.03,0.04 -0.03,0.04 -0.04,0.03 -0.04,0.03 -0.04,0.04 -0.04,0.03 -0.04,0.02 -0.05,0.03 -0.05,0.02 -0.05,0.03 -0.05,0.01 -0.05,0.02 -0.06,0.02 -0.05,0.01 -0.06,0.01 h -0.06 l -0.06,0.01 h -0.06 c -0.77,0 -1.55,-0.73 -1.55,-1.48 0,-0.61 0.47,-1.08 1.1,-1.08 0.84,0 1.54,0.79 1.54,1.5 z"
           inkscape:connector-curvature="0"
           style="fill:#000000;stroke-width:0" /><path
           id="path5147"
           d="m 815,397.04 -0.05,-0.18 -0.05,-0.17 -0.06,-0.17 -0.07,-0.16 -0.07,-0.16 -0.08,-0.16 -0.08,-0.15 -0.09,-0.14 -0.09,-0.14 -0.1,-0.14 -0.1,-0.13 -0.1,-0.13 -0.11,-0.12 -0.11,-0.12 -0.12,-0.11 -0.11,-0.1 -0.13,-0.1 -0.12,-0.1 -0.13,-0.09 -0.13,-0.08 -0.13,-0.08 -0.13,-0.07 -0.14,-0.06 -0.13,-0.06 -0.14,-0.05 -0.14,-0.05 -0.14,-0.04 -0.14,-0.03 -0.15,-0.02 -0.14,-0.02 -0.14,-0.01 -0.14,-0.01 c -0.44,0 -0.71,0.08 -0.91,0.13 0.59,0.36 0.78,1 0.78,1.33 0,0.42 -0.31,1.01 -1.12,1.01 -0.85,0 -1.55,-0.76 -1.55,-1.59 0,-1.06 1.13,-1.72 2.81,-1.72 1.71,0 4.94,0.88 5.71,3.97 l 2.25,8.91 c 0.04,0.25 0.12,0.48 0.12,0.82 0,1.43 -1.33,2.43 -3.06,2.43 -3.02,0 -4.86,-3.38 -4.86,-3.86 0,-0.36 0.39,-0.36 0.51,-0.36 0.38,0 0.43,0.11 0.55,0.36 1.16,2.43 2.85,3 3.69,3 1,0 1.05,-0.89 1.05,-1.32 0,-0.34 -0.02,-0.45 -0.08,-0.64 z"
           inkscape:connector-curvature="0"
           style="fill:#000000;stroke-width:0" /></g>    </g>
    <g
       id="g5498"
       transform="translate(-48.924407,69.472025)">
      <g
         word-spacing="normal"
         letter-spacing="normal"
         font-size-adjust="none"
         font-stretch="normal"
         font-weight="normal"
         font-variant="normal"
         font-style="normal"
         stroke-miterlimit="10.433"
         xml:space="preserve"
         transform="matrix(0.3,0,0,-0.3,-52.5,222.75)"
         id="g5496"
         style="font-style:normal;font-variant:normal;font-weight:normal;font-stretch:normal;letter-spacing:normal;word-spacing:normal;text-anchor:start;fill:none;fill-opacity:1;fill-rule:evenodd;stroke:#000000;stroke-linecap:butt;stroke-linejoin:miter;stroke-miterlimit:10.43299961;stroke-dasharray:none;stroke-dashoffset:0;stroke-opacity:1"><path
           id="path5444"
           d="m 479.13,413.71 v 0.15 l -0.01,0.14 -0.01,0.13 -0.01,0.13 -0.01,0.13 -0.02,0.12 -0.02,0.12 -0.02,0.12 -0.03,0.11 -0.03,0.11 -0.03,0.11 -0.04,0.1 -0.04,0.1 -0.04,0.1 -0.08,0.18 -0.1,0.17 -0.11,0.16 -0.11,0.15 -0.13,0.14 -0.13,0.12 -0.13,0.12 -0.15,0.1 -0.15,0.1 -0.16,0.09 -0.16,0.08 -0.16,0.07 -0.17,0.06 -0.17,0.05 -0.18,0.05 -0.18,0.05 -0.18,0.03 -0.18,0.03 -0.18,0.03 -0.18,0.02 -0.19,0.01 -0.18,0.01 -0.18,0.01 h -0.35 c -2.44,0 -3.86,-1.21 -4.57,-2.32 -0.62,2.29 -3.15,2.32 -4.07,2.32 -2.57,0 -4.02,-1.37 -4.65,-2.45 v 2.45 l -4.07,-0.28 v -1.09 c 1.84,0 2.06,-0.17 2.06,-1.39 v -6.16 c 0,-0.78 0,-1 -1.63,-1 h -0.43 v -1.09 c 1.06,0.08 2.11,0.09 3.18,0.09 1.05,0 2.11,-0.01 3.16,-0.09 v 1.09 h -0.44 c -1.62,0 -1.62,0.22 -1.62,1 v 4.33 c 0,2.77 2.54,3.77 4.15,3.77 1.83,0 2.27,-1.02 2.27,-2.64 v -5.46 c 0,-0.78 0,-1 -1.61,-1 h -0.45 v -1.09 c 1.08,0.08 2.11,0.09 3.18,0.09 1.05,0 2.13,-0.01 3.16,-0.09 v 1.09 h -0.44 c -1.62,0 -1.62,0.22 -1.62,1 v 4.33 c 0,2.77 2.55,3.77 4.15,3.77 1.83,0 2.27,-1.02 2.27,-2.64 v -5.46 c 0,-0.78 0,-1 -1.61,-1 h -0.45 v -1.09 c 1.08,0.08 2.12,0.09 3.19,0.09 1.04,0 2.12,-0.01 3.17,-0.09 v 1.09 h -0.46 c -1.62,0 -1.62,0.22 -1.62,1 z"
           inkscape:connector-curvature="0"
           style="fill:#000000;stroke-width:0" /><path
           id="path5446"
           d="m 495.91,413.61 -0.01,0.22 -0.02,0.21 -0.03,0.21 -0.05,0.2 -0.07,0.2 -0.07,0.19 -0.09,0.18 -0.1,0.18 -0.11,0.17 -0.13,0.16 -0.13,0.16 -0.15,0.15 -0.16,0.15 -0.16,0.13 -0.18,0.13 -0.18,0.13 -0.2,0.11 -0.2,0.11 -0.21,0.1 -0.22,0.1 -0.23,0.09 -0.24,0.08 -0.24,0.07 -0.25,0.07 -0.25,0.05 -0.26,0.05 -0.27,0.05 -0.27,0.03 -0.28,0.03 -0.28,0.02 -0.28,0.01 -0.29,0.01 c -1.51,0 -4.41,-0.08 -4.41,-2.19 0,-0.92 0.71,-1.35 1.32,-1.35 0.67,0 1.33,0.47 1.33,1.32 0,0.61 -0.35,0.98 -0.58,1.12 0.83,0.28 2.01,0.28 2.29,0.28 2.11,0 3.44,-1.17 3.44,-2.97 v -0.65 -0.74 -2.45 c 0,-2.73 -2.98,-2.98 -3.61,-2.98 -1.47,0 -2.87,0.76 -2.87,2.06 0,0.83 0.53,3.12 6.48,3.37 v 0.74 c -2.42,-0.13 -3.76,-0.19 -5.69,-0.86 -1.64,-0.58 -3.07,-1.63 -3.07,-3.25 0,-2.33 2.89,-2.89 4.87,-2.89 1.92,0 3.42,0.78 4.19,2.04 0.09,-0.87 0.67,-1.92 1.94,-1.92 0.18,0 3.01,0 3.01,2.39 v 1.38 h -1.05 v -1.31 c 0,-0.25 0,-1.35 -0.98,-1.35 -1,0 -1,1.1 -1,1.35 z"
           inkscape:connector-curvature="0"
           style="fill:#000000;stroke-width:0" /><path
           id="path5448"
           d="m 515.77,416.93 -0.27,-0.01 -0.27,-0.02 -0.14,-0.01 -0.14,-0.01 h -0.14 l -0.15,-0.01 -0.14,-0.01 h -0.15 l -0.16,-0.01 h -0.15 l -0.17,-0.01 h -0.16 -0.18 -0.17 c -0.88,0 -1.9,0.02 -2.77,0.09 v -1.09 c 0.45,-0.05 0.47,-0.42 0.47,-0.47 0,-0.45 -0.25,-0.7 -0.94,-1.41 l -1.25,-1.18 c -1.14,1.09 -2.44,2.36 -2.44,2.61 0,0.42 0.55,0.45 0.64,0.45 v 1.09 c -1.01,-0.07 -2.97,-0.09 -3.09,-0.09 -0.98,0 -1.72,0 -2.77,0.09 v -1.09 h 0.49 c 1.56,0 1.59,-0.05 2.94,-1.39 l 2.93,-2.97 c -0.17,-0.16 -2.34,-2.34 -2.71,-2.67 -0.69,-0.64 -1.61,-1.49 -3.79,-1.52 v -1.09 c 0.72,0.05 1.43,0.09 2.39,0.09 0.88,0 1.9,-0.01 2.77,-0.09 v 1.09 c -0.37,0.05 -0.45,0.33 -0.45,0.47 0,0.44 0.36,0.8 0.45,0.91 0.25,0.26 1.92,1.89 2.06,2.04 0.88,-0.85 1.96,-1.9 2.57,-2.59 0.2,-0.25 0.23,-0.25 0.23,-0.37 0,-0.43 -0.55,-0.46 -0.66,-0.46 v -1.09 c 1.03,0.08 2.97,0.09 3.1,0.09 1,0 1.72,0 2.76,-0.09 v 1.09 h -0.47 c -1.37,0 -1.65,0.21 -1.95,0.41 -0.25,0.17 -3.14,3.16 -4.25,4.3 3.06,3.17 3.7,3.81 6.13,3.84 z"
           inkscape:connector-curvature="0"
           style="fill:#000000;stroke-width:0" /><path
           id="path5450"
           d="m 523.85,421.54 v 0.08 l -0.01,0.08 -0.01,0.07 -0.01,0.08 -0.02,0.07 -0.02,0.07 -0.02,0.07 -0.03,0.07 -0.03,0.07 -0.03,0.06 -0.04,0.06 -0.04,0.07 -0.04,0.06 -0.04,0.05 -0.05,0.06 -0.05,0.05 -0.05,0.05 -0.06,0.05 -0.05,0.05 -0.06,0.04 -0.06,0.04 -0.07,0.03 -0.06,0.04 -0.07,0.03 -0.07,0.03 -0.07,0.02 -0.07,0.02 -0.08,0.02 -0.07,0.01 -0.08,0.01 -0.08,0.01 h -0.07 c -0.77,0 -1.52,-0.6 -1.52,-1.52 0,-0.89 0.75,-1.51 1.52,-1.51 0.84,0 1.51,0.68 1.51,1.51 z"
           inkscape:connector-curvature="0"
           style="fill:#000000;stroke-width:0" /><path
           id="path5452"
           d="m 519.73,416.93 v -1.09 c 1.76,0 1.97,-0.17 1.97,-1.39 v -6.16 c 0,-0.78 0,-1 -1.63,-1 h -0.45 v -1.09 c 1.03,0.08 2.08,0.09 3.09,0.09 0.95,0 2.05,-0.01 2.97,-0.09 v 1.09 c -1.67,0 -1.88,0 -1.88,1 v 8.92 z"
           inkscape:connector-curvature="0"
           style="fill:#000000;stroke-width:0" /><path
           id="path5454"
           d="m 551.24,413.71 v 0.15 0.14 l -0.01,0.13 -0.01,0.13 -0.02,0.13 -0.02,0.12 -0.02,0.12 -0.02,0.12 -0.03,0.11 -0.03,0.11 -0.03,0.11 -0.04,0.1 -0.03,0.1 -0.04,0.1 -0.09,0.18 -0.1,0.17 -0.11,0.16 -0.11,0.15 -0.12,0.14 -0.13,0.12 -0.14,0.12 -0.15,0.1 -0.15,0.1 -0.15,0.09 -0.16,0.08 -0.17,0.07 -0.17,0.06 -0.17,0.05 -0.18,0.05 -0.17,0.05 -0.18,0.03 -0.18,0.03 -0.19,0.03 -0.18,0.02 -0.18,0.01 -0.18,0.01 -0.18,0.01 h -0.36 c -2.44,0 -3.86,-1.21 -4.56,-2.32 -0.63,2.29 -3.16,2.32 -4.08,2.32 -2.56,0 -4.02,-1.37 -4.64,-2.45 v 2.45 l -4.08,-0.28 v -1.09 c 1.84,0 2.06,-0.17 2.06,-1.39 v -6.16 c 0,-0.78 0,-1 -1.62,-1 h -0.44 v -1.09 c 1.06,0.08 2.11,0.09 3.19,0.09 1.04,0 2.11,-0.01 3.15,-0.09 v 1.09 h -0.43 c -1.63,0 -1.63,0.22 -1.63,1 v 4.33 c 0,2.77 2.55,3.77 4.16,3.77 1.83,0 2.26,-1.02 2.26,-2.64 v -5.46 c 0,-0.78 0,-1 -1.61,-1 h -0.45 v -1.09 c 1.08,0.08 2.11,0.09 3.19,0.09 1.04,0 2.12,-0.01 3.15,-0.09 v 1.09 h -0.43 c -1.63,0 -1.63,0.22 -1.63,1 v 4.33 c 0,2.77 2.55,3.77 4.16,3.77 1.83,0 2.26,-1.02 2.26,-2.64 v -5.46 c 0,-0.78 0,-1 -1.61,-1 h -0.45 v -1.09 c 1.08,0.08 2.13,0.09 3.19,0.09 1.05,0 2.12,-0.01 3.17,-0.09 v 1.09 h -0.45 c -1.63,0 -1.63,0.22 -1.63,1 z"
           inkscape:connector-curvature="0"
           style="fill:#000000;stroke-width:0" /><path
           id="path5456"
           d="m 568.02,413.61 v 0.22 l -0.03,0.21 -0.03,0.21 -0.05,0.2 -0.06,0.2 -0.08,0.19 -0.09,0.18 -0.1,0.18 -0.11,0.17 -0.12,0.16 -0.14,0.16 -0.15,0.15 -0.15,0.15 -0.17,0.13 -0.18,0.13 -0.18,0.13 -0.2,0.11 -0.2,0.11 -0.21,0.1 -0.22,0.1 -0.23,0.09 -0.23,0.08 -0.25,0.07 -0.24,0.07 -0.26,0.05 -0.26,0.05 -0.27,0.05 -0.27,0.03 -0.27,0.03 -0.28,0.02 -0.29,0.01 -0.29,0.01 c -1.51,0 -4.4,-0.08 -4.4,-2.19 0,-0.92 0.7,-1.35 1.31,-1.35 0.67,0 1.33,0.47 1.33,1.32 0,0.61 -0.35,0.98 -0.58,1.12 0.83,0.28 2.02,0.28 2.3,0.28 2.11,0 3.43,-1.17 3.43,-2.97 v -0.65 -0.74 -2.45 c 0,-2.73 -2.98,-2.98 -3.6,-2.98 -1.47,0 -2.88,0.76 -2.88,2.06 0,0.83 0.53,3.12 6.48,3.37 v 0.74 c -2.42,-0.13 -3.76,-0.19 -5.68,-0.86 -1.64,-0.58 -3.08,-1.63 -3.08,-3.25 0,-2.33 2.89,-2.89 4.87,-2.89 1.93,0 3.43,0.78 4.19,2.04 0.1,-0.87 0.67,-1.92 1.94,-1.92 0.19,0 3.01,0 3.01,2.39 v 1.38 h -1.04 v -1.31 c 0,-0.25 0,-1.35 -0.99,-1.35 -1,0 -1,1.1 -1,1.35 z"
           inkscape:connector-curvature="0"
           style="fill:#000000;stroke-width:0" /><path
           id="path5458"
           d="m 578.16,423.48 -4.19,-0.27 v -1.09 c 1.85,0 2.08,-0.17 2.08,-1.41 v -12.42 c 0,-0.78 0,-1 -1.62,-1 h -0.46 v -1.09 c 1.05,0.08 2.08,0.09 3.13,0.09 1.05,0 2.09,-0.01 3.12,-0.09 v 1.09 h -0.44 c -1.62,0 -1.62,0.22 -1.62,1 z"
           inkscape:connector-curvature="0"
           style="fill:#000000;stroke-width:0" /><path
           id="path5460"
           d="m 607.53,414.34 0.08,0.15 0.05,0.08 0.04,0.07 0.05,0.07 0.05,0.07 0.05,0.07 0.05,0.07 0.05,0.06 0.06,0.07 0.06,0.06 0.06,0.06 0.07,0.06 0.07,0.05 0.07,0.06 0.07,0.05 0.08,0.05 0.08,0.04 0.09,0.05 0.09,0.04 0.09,0.04 0.1,0.04 0.1,0.03 0.1,0.03 0.11,0.03 0.11,0.02 0.12,0.02 0.12,0.02 0.13,0.02 0.13,0.01 0.14,0.01 h 0.14 v 1.09 c -0.64,-0.04 -1.3,-0.09 -2.17,-0.09 -0.02,0 -1.64,0.02 -2.53,0.09 v -1.09 c 0.67,-0.03 1.09,-0.33 1.09,-0.89 0,-0.25 -0.11,-0.49 -0.12,-0.5 l -3.18,-6.19 -3.4,6.66 c -0.05,0.09 -0.13,0.25 -0.13,0.4 0,0.52 0.85,0.52 1.35,0.52 v 1.09 c -1.14,-0.07 -2.94,-0.09 -3.11,-0.09 -1,0 -1.75,0 -2.8,0.09 v -1.09 c 1.5,0 1.84,0 2.22,-0.75 l 4.41,-8.59 c 0.18,-0.35 0.29,-0.58 0.87,-0.58 0.58,0 0.7,0.25 0.88,0.58 z"
           inkscape:connector-curvature="0"
           style="fill:#000000;stroke-width:0" /><path
           id="path5462"
           d="m 617.8,421.54 v 0.08 0.08 l -0.01,0.07 -0.02,0.08 -0.01,0.07 -0.02,0.07 -0.03,0.07 -0.02,0.07 -0.03,0.07 -0.04,0.06 -0.03,0.06 -0.04,0.07 -0.04,0.06 -0.05,0.05 -0.05,0.06 -0.05,0.05 -0.05,0.05 -0.05,0.05 -0.06,0.05 -0.06,0.04 -0.06,0.04 -0.07,0.03 -0.06,0.04 -0.07,0.03 -0.07,0.03 -0.07,0.02 -0.07,0.02 -0.07,0.02 -0.08,0.01 -0.07,0.01 -0.08,0.01 h -0.08 c -0.77,0 -1.52,-0.6 -1.52,-1.52 0,-0.89 0.75,-1.51 1.52,-1.51 0.84,0 1.51,0.68 1.51,1.51 z"
           inkscape:connector-curvature="0"
           style="fill:#000000;stroke-width:0" /><path
           id="path5464"
           d="m 613.68,416.93 v -1.09 c 1.77,0 1.97,-0.17 1.97,-1.39 v -6.16 c 0,-0.78 0,-1 -1.63,-1 h -0.45 v -1.09 c 1.03,0.08 2.08,0.09 3.09,0.09 0.96,0 2.05,-0.01 2.97,-0.09 v 1.09 c -1.67,0 -1.87,0 -1.87,1 v 8.92 z"
           inkscape:connector-curvature="0"
           style="fill:#000000;stroke-width:0" /><path
           id="path5466"
           d="m 636.9,411.51 -0.01,0.29 -0.03,0.29 -0.04,0.28 -0.06,0.29 -0.07,0.27 -0.09,0.28 -0.1,0.26 -0.12,0.27 -0.14,0.25 -0.14,0.25 -0.16,0.25 -0.18,0.24 -0.18,0.23 -0.2,0.22 -0.22,0.21 -0.22,0.21 -0.23,0.2 -0.25,0.18 -0.26,0.18 -0.26,0.17 -0.28,0.15 -0.29,0.15 -0.29,0.13 -0.31,0.12 -0.31,0.11 -0.32,0.09 -0.33,0.08 -0.34,0.07 -0.34,0.05 -0.35,0.04 -0.36,0.03 -0.37,0.01 v -0.82 c 4.36,0 4.36,-3.67 4.36,-4.78 0,-1.23 0,-4.94 -4.36,-4.94 v 0 c -4.35,0 -4.35,3.71 -4.35,4.94 0,1.11 0,4.78 4.35,4.78 v 0.82 c -3.9,0 -6.84,-2.74 -6.84,-5.85 0,-3 2.95,-5.59 6.84,-5.59 3.91,0 6.85,2.59 6.85,5.59 z"
           inkscape:connector-curvature="0"
           style="fill:#000000;stroke-width:0" /><path
           id="path5468"
           d="m 644.75,423.48 -4.18,-0.27 v -1.09 c 1.84,0 2.08,-0.17 2.08,-1.41 v -12.42 c 0,-0.78 0,-1 -1.63,-1 h -0.45 v -1.09 c 1.04,0.08 2.08,0.09 3.12,0.09 1.05,0 2.09,-0.01 3.13,-0.09 v 1.09 h -0.44 c -1.63,0 -1.63,0.22 -1.63,1 z"
           inkscape:connector-curvature="0"
           style="fill:#000000;stroke-width:0" /><path
           id="path5470"
           d="m 661.61,413.61 v 0.22 l -0.03,0.21 -0.03,0.21 -0.05,0.2 -0.06,0.2 -0.08,0.19 -0.09,0.18 -0.1,0.18 -0.11,0.17 -0.12,0.16 -0.14,0.16 -0.15,0.15 -0.15,0.15 -0.17,0.13 -0.18,0.13 -0.18,0.13 -0.2,0.11 -0.2,0.11 -0.21,0.1 -0.22,0.1 -0.23,0.09 -0.23,0.08 -0.25,0.07 -0.24,0.07 -0.26,0.05 -0.26,0.05 -0.27,0.05 -0.27,0.03 -0.27,0.03 -0.28,0.02 -0.29,0.01 -0.29,0.01 c -1.51,0 -4.4,-0.08 -4.4,-2.19 0,-0.92 0.7,-1.35 1.31,-1.35 0.67,0 1.33,0.47 1.33,1.32 0,0.61 -0.34,0.98 -0.58,1.12 0.83,0.28 2.02,0.28 2.3,0.28 2.11,0 3.44,-1.17 3.44,-2.97 v -0.65 -0.74 -2.45 c 0,-2.73 -2.99,-2.98 -3.62,-2.98 -1.46,0 -2.87,0.76 -2.87,2.06 0,0.83 0.53,3.12 6.49,3.37 v 0.74 c -2.43,-0.13 -3.77,-0.19 -5.69,-0.86 -1.64,-0.58 -3.08,-1.63 -3.08,-3.25 0,-2.33 2.89,-2.89 4.87,-2.89 1.93,0 3.43,0.78 4.19,2.04 0.09,-0.87 0.67,-1.92 1.94,-1.92 0.19,0 3.02,0 3.02,2.39 v 1.38 h -1.05 v -1.31 c 0,-0.25 0,-1.35 -0.99,-1.35 -1,0 -1,1.1 -1,1.35 z"
           inkscape:connector-curvature="0"
           style="fill:#000000;stroke-width:0" /><path
           id="path5472"
           d="m 671.62,415.84 h 4.41 v 1.09 h -4.41 v 4.58 h -1.04 c -0.02,-2.33 -1.27,-4.78 -3.81,-4.84 v -0.83 h 2.64 v -6.5 c 0,-2.84 2.34,-3.42 3.89,-3.42 1.87,0 3.26,1.37 3.26,3.42 v 1.37 h -1.04 v -1.29 c 0,-1.88 -1.1,-2.6 -1.97,-2.6 -1.93,0 -1.93,1.99 -1.93,2.52 z"
           inkscape:connector-curvature="0"
           style="fill:#000000;stroke-width:0" /><path
           id="path5474"
           d="m 685.23,421.54 v 0.08 0.08 l -0.01,0.07 -0.02,0.08 -0.01,0.07 -0.02,0.07 -0.03,0.07 -0.02,0.07 -0.03,0.07 -0.04,0.06 -0.03,0.06 -0.04,0.07 -0.04,0.06 -0.05,0.05 -0.05,0.06 -0.05,0.05 -0.05,0.05 -0.05,0.05 -0.06,0.05 -0.06,0.04 -0.06,0.04 -0.07,0.03 -0.06,0.04 -0.07,0.03 -0.07,0.03 -0.07,0.02 -0.07,0.02 -0.07,0.02 -0.08,0.01 -0.07,0.01 -0.08,0.01 h -0.08 c -0.77,0 -1.52,-0.6 -1.52,-1.52 0,-0.89 0.75,-1.51 1.52,-1.51 0.84,0 1.51,0.68 1.51,1.51 z"
           inkscape:connector-curvature="0"
           style="fill:#000000;stroke-width:0" /><path
           id="path5476"
           d="m 681.11,416.93 v -1.09 c 1.77,0 1.97,-0.17 1.97,-1.39 v -6.16 c 0,-0.78 0,-1 -1.63,-1 H 681 v -1.09 c 1.03,0.08 2.08,0.09 3.09,0.09 0.96,0 2.05,-0.01 2.97,-0.09 v 1.09 c -1.67,0 -1.87,0 -1.87,1 v 8.92 z"
           inkscape:connector-curvature="0"
           style="fill:#000000;stroke-width:0" /><path
           id="path5478"
           d="m 704.33,411.51 -0.01,0.29 -0.03,0.29 -0.04,0.28 -0.06,0.29 -0.07,0.27 -0.09,0.28 -0.1,0.26 -0.12,0.27 -0.14,0.25 -0.14,0.25 -0.16,0.25 -0.18,0.24 -0.18,0.23 -0.2,0.22 -0.22,0.21 -0.22,0.21 -0.23,0.2 -0.25,0.18 -0.26,0.18 -0.26,0.17 -0.28,0.15 -0.29,0.15 -0.29,0.13 -0.31,0.12 -0.31,0.11 -0.32,0.09 -0.33,0.08 -0.34,0.07 -0.34,0.05 -0.36,0.04 -0.35,0.03 -0.37,0.01 v -0.82 c 4.36,0 4.36,-3.67 4.36,-4.78 0,-1.23 0,-4.94 -4.36,-4.94 v 0 c -4.36,0 -4.36,3.71 -4.36,4.94 0,1.11 0,4.78 4.36,4.78 v 0.82 c -3.9,0 -6.84,-2.74 -6.84,-5.85 0,-3 2.95,-5.59 6.84,-5.59 3.91,0 6.85,2.59 6.85,5.59 z"
           inkscape:connector-curvature="0"
           style="fill:#000000;stroke-width:0" /><path
           id="path5480"
           d="m 720.89,413.71 -0.01,0.26 -0.01,0.24 -0.03,0.23 -0.04,0.21 -0.04,0.21 -0.06,0.2 -0.07,0.19 -0.07,0.17 -0.09,0.17 -0.09,0.16 -0.1,0.14 -0.11,0.14 -0.11,0.13 -0.13,0.12 -0.13,0.11 -0.14,0.11 -0.15,0.09 -0.15,0.09 -0.16,0.08 -0.16,0.07 -0.17,0.07 -0.17,0.06 -0.19,0.05 -0.18,0.04 -0.19,0.04 -0.2,0.04 -0.19,0.03 -0.21,0.02 -0.2,0.01 -0.21,0.02 h -0.22 -0.21 c -2.67,0 -4.06,-1.46 -4.64,-2.45 v 2.45 l -4.08,-0.28 v -1.09 c 1.84,0 2.06,-0.17 2.06,-1.39 v -6.16 c 0,-0.78 0,-1 -1.62,-1 h -0.44 v -1.09 c 1.06,0.08 2.11,0.09 3.19,0.09 1.05,0 2.11,-0.01 3.15,-0.09 v 1.09 h -0.43 c -1.63,0 -1.63,0.22 -1.63,1 v 4.33 c 0,2.81 2.59,3.77 4.14,3.77 1.85,0 2.27,-1.05 2.27,-2.64 v -5.46 c 0,-0.78 0,-1 -1.63,-1 h -0.45 v -1.09 c 1.08,0.08 2.13,0.09 3.19,0.09 1.04,0 2.12,-0.01 3.17,-0.09 v 1.09 h -0.45 c -1.61,0 -1.61,0.22 -1.61,1 z"
           inkscape:connector-curvature="0"
           style="fill:#000000;stroke-width:0" /><path
           id="path5482"
           d="m 752.28,420.82 -0.01,-0.01 -0.02,-0.02 -0.03,-0.02 -0.03,-0.03 -0.03,-0.02 -0.03,-0.03 -0.04,-0.03 -0.03,-0.03 -0.04,-0.04 -0.04,-0.03 -0.04,-0.04 -0.05,-0.04 -0.04,-0.04 -0.04,-0.04 -0.09,-0.09 -0.04,-0.05 -0.04,-0.04 -0.04,-0.05 -0.04,-0.05 -0.04,-0.04 -0.04,-0.05 -0.03,-0.05 -0.03,-0.05 -0.03,-0.05 -0.03,-0.04 -0.02,-0.05 -0.02,-0.05 -0.01,-0.05 -0.02,-0.04 v -0.05 -0.02 l -0.01,-0.02 c 0,-0.38 0.33,-0.7 0.71,-0.7 0.22,0 0.39,0.09 0.56,0.26 0.33,0.38 1,1.11 2.45,1.7 0.19,0.08 0.6,0.22 0.6,0.69 0,0.44 -0.33,0.61 -0.53,0.69 -0.97,0.51 -1.22,1.01 -1.44,1.51 -0.08,0.15 -0.25,0.47 -0.66,0.47 -0.47,0 -0.69,-0.42 -0.69,-0.7 0,-0.3 0.35,-0.92 0.6,-1.27 h -10.02 c -0.39,0 -1.06,0 -1.06,-0.7 0,-0.69 0.67,-0.69 1.06,-0.69 z"
           inkscape:connector-curvature="0"
           style="fill:#000000;stroke-width:0" /><path
           id="path5484"
           d="m 752.38,415.09 v 0.08 0.07 l -0.01,0.07 v 0.07 l -0.01,0.07 v 0.07 l -0.01,0.07 -0.01,0.06 -0.02,0.13 -0.03,0.12 -0.03,0.11 -0.03,0.11 -0.04,0.1 -0.04,0.09 -0.04,0.09 -0.05,0.09 -0.05,0.08 -0.05,0.07 -0.05,0.07 -0.06,0.07 -0.05,0.05 -0.06,0.06 -0.06,0.05 -0.06,0.05 -0.06,0.04 -0.06,0.03 -0.06,0.04 -0.06,0.03 -0.06,0.02 -0.06,0.02 -0.06,0.02 -0.06,0.02 -0.06,0.01 h -0.05 l -0.05,0.01 h -0.05 c -0.69,0 -1.44,-0.77 -1.44,-1.44 0,-0.47 0.33,-0.72 0.47,-0.84 0.28,-0.2 0.97,-0.75 0.97,-1.91 0,-1.34 -1.9,-6.26 -4.85,-6.26 -1.3,0 -2.42,0.5 -2.42,2.28 0,1.25 0.67,2.89 1.42,4.73 0.14,0.41 0.33,0.8 0.33,1.22 0,1.22 -1.17,2.2 -2.72,2.2 -2.64,0 -4.01,-3.21 -4.01,-3.85 0,-0.36 0.4,-0.36 0.53,-0.36 0.42,0 0.44,0.12 0.56,0.5 0.5,1.67 1.67,2.86 2.81,2.86 0.49,0 0.75,-0.27 0.75,-0.94 0,-0.5 -0.09,-0.78 -0.42,-1.5 -0.97,-2.41 -1.34,-3.61 -1.34,-4.56 0,-2.41 1.96,-3.44 4.39,-3.44 2.01,0 3.45,1.48 4.36,2.83 1.78,2.65 2.06,5.89 2.06,6.34 z"
           inkscape:connector-curvature="0"
           style="fill:#000000;stroke-width:0" /><path
           id="path5486"
           d="m 767.86,403.33 -0.01,-0.05 -0.01,-0.05 -0.01,-0.06 -0.02,-0.05 -0.01,-0.06 -0.02,-0.06 -0.02,-0.11 -0.03,-0.12 -0.03,-0.13 -0.03,-0.11 -0.03,-0.12 -0.01,-0.06 -0.01,-0.05 -0.01,-0.06 -0.01,-0.05 -0.02,-0.05 -0.01,-0.05 -0.01,-0.05 V 402 l -0.01,-0.04 -0.01,-0.04 -0.01,-0.04 v -0.03 -0.03 l -0.01,-0.03 v -0.02 -0.02 c 0,-0.54 0.45,-0.87 0.92,-0.87 0.38,0 0.92,0.2 1.21,0.83 0.01,0.12 0.31,1.29 0.46,1.93 0.85,3.38 0.85,3.43 0.89,3.52 0.33,0.67 2.13,4.16 5.16,4.16 1.22,0 1.75,-0.68 1.75,-1.78 0,-1.43 -1.05,-3.99 -1.63,-5.41 -0.12,-0.3 -0.25,-0.63 -0.25,-1.05 0,-1.29 1.25,-2.2 2.72,-2.2 2.68,0 4.03,3.25 4.03,3.87 0,0.35 -0.42,0.35 -0.51,0.35 -0.42,0 -0.45,-0.1 -0.59,-0.58 -0.49,-1.48 -1.63,-2.78 -2.83,-2.78 -0.57,0 -0.74,0.39 -0.74,0.94 0,0.53 0.1,0.78 0.32,1.32 0.42,1 1.57,3.83 1.57,5.21 0,1.84 -1.32,2.97 -3.68,2.97 -2.32,0 -3.94,-1.43 -4.94,-2.75 -0.22,2.54 -2.69,2.75 -3.7,2.75 -2.46,0 -3.85,-1.54 -4.74,-2.47 -0.11,2.18 -2.39,2.47 -3.01,2.47 -2.5,0 -3.22,-3.82 -3.22,-3.86 0,-0.36 0.4,-0.36 0.53,-0.36 0.42,0 0.47,0.15 0.56,0.48 0.38,1.44 0.95,2.88 2,2.88 0.85,0 1.02,-0.8 1.02,-1.32 0,-0.34 -0.25,-1.29 -0.39,-1.93 -0.19,-0.68 -0.43,-1.71 -0.55,-2.25 l -0.58,-2.22 c -0.15,-0.63 -0.42,-1.72 -0.42,-1.85 0,-0.54 0.44,-0.87 0.92,-0.87 0.38,0 0.92,0.2 1.19,0.83 0.03,0.12 0.33,1.29 0.48,1.93 0.1,0.41 0.38,1.47 0.44,1.72 0.12,0.57 0.28,1.11 0.41,1.68 0.04,0.1 0.93,1.92 2.15,3 0.41,0.34 1.46,1.28 3.08,1.28 1.27,0 1.73,-0.72 1.73,-1.78 0,-0.55 -0.25,-1.55 -0.45,-2.33 z"
           inkscape:connector-curvature="0"
           style="fill:#000000;stroke-width:0" /><path
           id="path5488"
           d="m 799.43,409.24 0.01,0.05 0.01,0.05 0.02,0.05 0.01,0.06 0.02,0.06 0.01,0.05 0.03,0.12 0.03,0.12 0.03,0.13 0.03,0.12 0.03,0.12 0.02,0.05 0.01,0.06 0.02,0.05 0.01,0.06 0.01,0.05 0.01,0.05 0.01,0.04 0.01,0.05 0.01,0.04 0.01,0.03 0.01,0.04 v 0.03 l 0.01,0.03 v 0.02 0.02 0 0.01 c 0,0.42 -0.31,0.88 -0.92,0.88 -0.43,0 -1.04,-0.3 -1.23,-1 -0.49,0.64 -1.42,1.5 -3,1.5 v -0.86 c 1.12,0 2.2,-0.68 2.59,-2.16 l -1.14,-4.69 c -0.11,-0.37 -0.11,-0.42 -0.55,-0.92 -0.92,-1.05 -2.21,-1.81 -3.46,-1.81 -0.88,0 -2.19,0.47 -2.19,2.53 0,1.16 0.59,3.77 1.47,5.06 0.97,1.38 2.23,1.99 3.28,1.99 v 0.86 c -3.5,0 -7,-3.43 -7,-6.96 0,-2.54 1.87,-4.34 4.36,-4.34 2.04,0 3.64,1.45 3.94,1.75 0.45,-1.22 1.82,-1.75 2.93,-1.75 1,0 1.67,0.58 2.21,1.41 0.64,0.96 0.98,2.28 0.98,2.46 0,0.35 -0.42,0.35 -0.52,0.35 -0.45,0 -0.46,-0.16 -0.59,-0.55 -0.45,-1.84 -1.09,-2.81 -1.97,-2.81 -0.7,0 -1,0.55 -1,1.31 0,0.38 0.25,1.33 0.41,2 z"
           inkscape:connector-curvature="0"
           style="fill:#000000;stroke-width:0" /><path
           id="path5490"
           d="m 819.82,410.93 -0.05,-0.02 -0.05,-0.02 -0.05,-0.02 -0.05,-0.02 -0.04,-0.02 -0.05,-0.02 -0.04,-0.02 -0.04,-0.03 -0.04,-0.02 -0.04,-0.02 -0.04,-0.03 -0.03,-0.03 -0.04,-0.02 -0.03,-0.03 -0.03,-0.03 -0.04,-0.03 -0.05,-0.05 -0.06,-0.06 -0.04,-0.06 -0.05,-0.07 -0.04,-0.06 -0.03,-0.06 -0.04,-0.06 -0.02,-0.06 -0.03,-0.06 -0.02,-0.06 -0.02,-0.06 -0.02,-0.05 -0.01,-0.05 -0.01,-0.05 -0.01,-0.05 -0.01,-0.05 v -0.04 l -0.01,-0.03 v -0.03 -0.03 l -0.01,-0.02 v -0.01 -0.01 0 -0.01 0 0 c 0,-0.42 0.3,-1.02 1.11,-1.02 0.71,0 1.55,0.6 1.55,1.69 0,1.47 -1.64,2.05 -2.95,2.05 -1.63,0 -2.67,-1.05 -3.17,-1.71 -0.83,1.42 -2.43,1.71 -3.32,1.71 -3.11,0 -4.87,-2.94 -4.87,-3.86 0,-0.36 0.39,-0.36 0.51,-0.36 0.22,0 0.43,0.03 0.53,0.29 0.74,2.46 2.78,3.07 3.74,3.07 0.81,0 1.76,-0.35 1.76,-1.66 0,-0.62 -0.45,-2.34 -1.29,-5.66 -0.38,-1.42 -1.52,-2.26 -2.6,-2.26 -0.17,0 -0.89,0 -1.48,0.39 1.11,0.41 1.11,1.34 1.11,1.45 0,0.72 -0.55,1.05 -1.09,1.05 -0.63,0 -1.55,-0.5 -1.55,-1.7 0,-1.52 1.7,-2.05 2.97,-2.05 1.37,0 2.48,0.8 3.09,1.7 0.99,-1.5 2.58,-1.7 3.36,-1.7 3.14,0 4.91,2.97 4.91,3.87 0,0.35 -0.43,0.35 -0.52,0.35 -0.44,0 -0.48,-0.16 -0.56,-0.38 -0.72,-2.25 -2.64,-2.98 -3.74,-2.98 -0.75,0 -1.76,0.26 -1.76,1.65 0,0.32 0,0.49 0.2,1.33 0.42,1.75 1.1,4.52 1.3,4.96 0.31,0.65 1.14,1.64 2.4,1.64 0.08,0 0.93,0 1.5,-0.39 z"
           inkscape:connector-curvature="0"
           style="fill:#000000;stroke-width:0" /><path
           id="path5492"
           d="m 855.22,411.73 h 0.03 0.04 0.05 0.04 0.04 0.05 l 0.04,0.01 h 0.04 l 0.05,0.01 h 0.04 l 0.05,0.01 0.04,0.01 0.05,0.01 0.04,0.01 0.04,0.01 0.05,0.02 0.04,0.02 0.04,0.02 0.03,0.02 0.04,0.02 0.03,0.03 0.03,0.03 0.03,0.03 0.02,0.02 0.01,0.02 0.01,0.02 0.02,0.02 0.01,0.02 0.01,0.02 0.01,0.02 0.01,0.02 0.01,0.03 v 0.02 l 0.01,0.03 0.01,0.02 v 0.03 l 0.01,0.03 v 0.03 0.03 0.03 0.03 c 0,0.69 -0.67,0.69 -1.07,0.69 H 842.2 c 0.3,3.56 3.62,6.66 8.11,6.66 h 4.91 c 0.4,0 1.07,0 1.07,0.7 0,0.69 -0.67,0.69 -1.07,0.69 h -5 c -5.02,0 -9.47,-3.71 -9.47,-8.74 0,-5.03 4.45,-8.75 9.47,-8.75 h 5 c 0.4,0 1.07,0 1.07,0.71 0,0.68 -0.67,0.68 -1.07,0.68 h -4.91 c -4.49,0 -7.81,3.1 -8.11,6.66 z"
           inkscape:connector-curvature="0"
           style="fill:#000000;stroke-width:0" /><path
           id="path5494"
           d="m 884.23,406.15 0.55,0.16 0.55,0.18 0.54,0.19 0.53,0.2 0.53,0.22 0.52,0.23 0.51,0.25 0.5,0.26 0.49,0.27 0.47,0.28 0.47,0.29 0.45,0.31 0.44,0.32 0.42,0.33 0.41,0.34 0.39,0.35 0.37,0.36 0.36,0.37 0.34,0.38 0.31,0.39 0.3,0.4 0.27,0.41 0.26,0.42 0.22,0.42 0.21,0.44 0.18,0.44 0.16,0.45 0.12,0.45 0.11,0.46 0.07,0.47 0.04,0.48 0.02,0.48 c 0,3.75 -2.91,6.61 -7.45,6.61 -6.42,0 -12.97,-5.06 -12.97,-10.06 0,-2.84 2.39,-4.95 5.9,-4.95 2.82,0 6.38,1.21 6.38,2.26 0,0.3 -0.28,0.3 -0.42,0.3 -0.28,0 -0.5,-0.11 -0.75,-0.2 -1.47,-0.55 -2.75,-0.65 -3.39,-0.65 -3.14,0 -5.21,1.91 -5.21,4.38 0,3.47 3.52,7.2 8.67,7.2 4.04,0 6.72,-2.61 6.72,-6.03 0,-2.97 -1.79,-5.4 -4.35,-6.89 -2.99,-1.75 -6.35,-2.03 -9.99,-2.05 -1.34,0 -2.33,-1.04 -2.33,-1.42 0,-0.28 0.25,-0.29 0.38,-0.29 2.34,-0.05 4.04,-0.47 6.86,-1.25 2.18,-0.6 4.37,-1.18 6.7,-1.18 3.98,0 6.34,2.82 6.34,3.85 0,0.18 -0.21,0.29 -0.37,0.29 -0.44,0 -1.78,-0.45 -2.16,-1.45 -0.18,-0.47 -0.36,-0.97 -2.03,-0.97 -2.28,0 -5.09,0.78 -7.64,1.5 z"
           inkscape:connector-curvature="0"
           style="fill:#000000;stroke-width:0" /></g>    </g>
  </g>
</svg>
