<?xml version="1.0" encoding="UTF-8" standalone="no"?>
<svg
   xmlns:osb="http://www.openswatchbook.org/uri/2009/osb"
   xmlns:dc="http://purl.org/dc/elements/1.1/"
   xmlns:cc="http://creativecommons.org/ns#"
   xmlns:rdf="http://www.w3.org/1999/02/22-rdf-syntax-ns#"
   xmlns:svg="http://www.w3.org/2000/svg"
   xmlns="http://www.w3.org/2000/svg"
   xmlns:sodipodi="http://sodipodi.sourceforge.net/DTD/sodipodi-0.dtd"
   xmlns:inkscape="http://www.inkscape.org/namespaces/inkscape"
   width="210mm"
   height="297mm"
   viewBox="0 0 210 297"
   version="1.1"
   id="svg1019"
   inkscape:version="1.0.1 (3bc2e813f5, 2020-09-07)"
   sodipodi:docname="trianglegraph.svg"
   inkscape:export-filename="/home/user/Downloads/master_thesis/svg/trianglegraph.png"
   inkscape:export-xdpi="200"
   inkscape:export-ydpi="200">
  <defs
     id="defs1013">
    <linearGradient
       id="linearGradient3561"
       osb:paint="solid">
      <stop
         style="stop-color:#c7c7c7;stop-opacity:1;"
         offset="0"
         id="stop3559" />
    </linearGradient>
    <filter
       inkscape:collect="always"
       style="color-interpolation-filters:sRGB"
       id="filter6705"
       x="-0.32337535"
       width="1.6467507"
       y="-0.27977624"
       height="1.5595525">
      <feGaussianBlur
         inkscape:collect="always"
         stdDeviation="13.855257"
         id="feGaussianBlur6707" />
    </filter>
    <filter
       inkscape:collect="always"
       style="color-interpolation-filters:sRGB"
       id="filter7221"
       x="-0.52670128"
       width="2.0534026"
       y="-0.6969982"
       height="2.3939964">
      <feGaussianBlur
         inkscape:collect="always"
         stdDeviation="41.16222"
         id="feGaussianBlur7223" />
    </filter>
    <filter
       inkscape:collect="always"
       style="color-interpolation-filters:sRGB"
       id="filter6705-6"
       x="-0.32337534"
       width="1.6467507"
       y="-0.27977625"
       height="1.5595526">
      <feGaussianBlur
         inkscape:collect="always"
         stdDeviation="13.855257"
         id="feGaussianBlur6707-7" />
    </filter>
  </defs>
  <sodipodi:namedview
     id="base"
     pagecolor="#ffffff"
     bordercolor="#666666"
     borderopacity="1.0"
     inkscape:pageopacity="0.0"
     inkscape:pageshadow="2"
     inkscape:zoom="0.7"
     inkscape:cx="618.25133"
     inkscape:cy="372.04438"
     inkscape:document-units="mm"
     inkscape:current-layer="layer1"
     showgrid="false"
     inkscape:window-width="1280"
     inkscape:window-height="656"
     inkscape:window-x="0"
     inkscape:window-y="0"
     inkscape:window-maximized="1"
     showguides="false"
     inkscape:document-rotation="0" />
  <metadata
     id="metadata1016">
    <rdf:RDF>
      <cc:Work
         rdf:about="">
        <dc:format>image/svg+xml</dc:format>
        <dc:type
           rdf:resource="http://purl.org/dc/dcmitype/StillImage" />
        <dc:title />
      </cc:Work>
    </rdf:RDF>
  </metadata>
  <g
     inkscape:label="Layer 1"
     inkscape:groupmode="layer"
     id="layer1">
    <path
       style="opacity:0.28500001;fill:#0066ff;fill-opacity:1;stroke:#000000;stroke-width:0.26100001;stroke-linecap:butt;stroke-linejoin:miter;stroke-miterlimit:4;stroke-dasharray:2.08800002, 1.04400000999999998;stroke-dashoffset:0;stroke-opacity:1;filter:url(#filter6705-6)"
       d="m 173.25667,124.99498 c -12.73417,-20.61621 -30.69439,-44.776225 -44.7004,-62.249231 -4.4125,-5.845638 -9.6673,-13.259219 -19.37424,-15.625529 -4.09063,-0.601382 -7.91255,-0.811596 -11.561192,-0.4483 -2.333608,0.232358 -6.340526,1.921233 -6.340526,1.921233 -4.899569,3.599954 -12.854962,12.651099 -12.854962,12.651099 -4.095585,5.683121 0.8268,14.247417 3.50234,20.721454 11.88801,28.765604 34.61604,57.683424 53.97716,76.194034 4.01905,3.75851 8.70159,6.30533 13.81535,6.92193 7.22173,0.87078 15.13874,-0.31064 21.2746,-4.85752 5.23464,-3.87904 8.16372,-10.36273 8.63388,-16.57442 0.49593,-6.55226 -2.16386,-10.84082 -6.37201,-18.65475 z"
       id="path1967-3-5"
       inkscape:connector-curvature="0"
       sodipodi:nodetypes="cccsssacasac"
       transform="matrix(-0.55392042,0,0,0.52957923,147.48422,53.727889)"
       inkscape:export-filename="/home/user/Downloads/figures/trianglegraph.png"
       inkscape:export-xdpi="96.279999"
       inkscape:export-ydpi="96.279999" />
    <path
       style="opacity:0.285;fill:#ff0066;fill-opacity:1;stroke:#000000;stroke-width:0.26100001;stroke-linecap:butt;stroke-linejoin:miter;stroke-miterlimit:4;stroke-dasharray:2.08800002, 1.04400000999999998;stroke-dashoffset:0;stroke-opacity:1;filter:url(#filter6705)"
       d="m 173.25667,124.99498 c -12.73417,-20.61621 -30.69439,-44.776225 -44.7004,-62.249231 -4.4125,-5.845638 -9.6673,-13.259219 -19.37424,-15.625529 -4.09063,-0.601382 -7.91255,-0.811596 -11.561192,-0.4483 -2.333608,0.232358 -6.340526,1.921233 -6.340526,1.921233 -4.899569,3.599954 -12.854962,12.651099 -12.854962,12.651099 -4.095585,5.683121 0.8268,14.247417 3.50234,20.721454 11.88801,28.765604 34.61604,57.683424 53.97716,76.194034 4.01905,3.75851 8.70159,6.30533 13.81535,6.92193 7.22173,0.87078 15.13874,-0.31064 21.2746,-4.85752 5.23464,-3.87904 8.16372,-10.36273 8.63388,-16.57442 0.49593,-6.55226 -2.16386,-10.84082 -6.37201,-18.65475 z"
       id="path1967-3"
       inkscape:connector-curvature="0"
       sodipodi:nodetypes="cccsssacasac"
       transform="matrix(0.55392041,0,0,0.52957922,60.60142,53.72789)"
       inkscape:export-filename="/home/user/Downloads/figures/trianglegraph.png"
       inkscape:export-xdpi="96.279999"
       inkscape:export-ydpi="96.279999" />
    <rect
       style="opacity:0.98000004;fill:#c7c7c7;fill-opacity:0.03298035;stroke:#9c9c9c;stroke-width:0.49355033;stroke-linejoin:round;stroke-miterlimit:4;stroke-dasharray:none;stroke-opacity:1;filter:url(#filter7221)"
       id="rect6327"
       width="187.56235"
       height="141.73541"
       x="28.883064"
       y="38.444233"
       ry="9.8532991"
       rx="9.7557583" />
    <ellipse
       style="opacity:0.98000004;fill:#ffffff;fill-opacity:1;stroke:#000000;stroke-width:0.75;stroke-linejoin:round;stroke-miterlimit:4;stroke-dasharray:none;stroke-opacity:1"
       id="path2566-5-3"
       cx="102.63158"
       cy="70.225136"
       rx="20.978001"
       ry="20.977678"
       inkscape:export-filename="/home/user/Downloads/figures/trianglegraph.png"
       inkscape:export-xdpi="96.279999"
       inkscape:export-ydpi="96.279999" />
    <circle
       style="opacity:0.98000004;fill:#ffffff;fill-opacity:1;stroke:#000000;stroke-width:0.75;stroke-linejoin:round;stroke-miterlimit:4;stroke-dasharray:none;stroke-opacity:1"
       id="path2566"
       cx="50.144512"
       cy="142.90036"
       r="20.977678"
       inkscape:export-filename="/home/user/Downloads/figures/trianglegraph.png"
       inkscape:export-xdpi="96.279999"
       inkscape:export-ydpi="96.279999" />
    <path
       style="display:inline;fill:none;stroke:#000000;stroke-width:1.0500288;stroke-linecap:butt;stroke-linejoin:miter;stroke-miterlimit:4;stroke-dasharray:none;stroke-dashoffset:0;stroke-opacity:1"
       d="M 143.21588,126.72134 C 115.98728,86.228019 115.98728,86.228019 115.98728,86.228019"
       id="path6505-8"
       inkscape:connector-curvature="0"
       inkscape:transform-center-x="-1.8066727"
       inkscape:transform-center-y="-1.1315982"
       inkscape:export-filename="/home/user/Downloads/figures/trianglegraph.png"
       inkscape:export-xdpi="96.279999"
       inkscape:export-ydpi="96.279999" />
    <circle
       style="display:inline;opacity:0.98000004;fill:#ffffff;fill-opacity:1;stroke:#000000;stroke-width:0.75;stroke-linejoin:round;stroke-miterlimit:4;stroke-dasharray:none;stroke-opacity:1"
       id="path2566-10"
       cx="-154.84814"
       cy="142.64621"
       r="20.977678"
       transform="scale(-1,1)"
       inkscape:export-filename="/home/user/Downloads/figures/trianglegraph.png"
       inkscape:export-xdpi="96.279999"
       inkscape:export-ydpi="96.279999" />
    <path
       style="display:inline;fill:none;stroke:#000000;stroke-width:1.0500288;stroke-linecap:butt;stroke-linejoin:miter;stroke-miterlimit:4;stroke-dasharray:none;stroke-dashoffset:0;stroke-opacity:1"
       d="M 61.671377,126.10119 C 88.899976,85.607868 88.899976,85.607868 88.899976,85.607868"
       id="path6505-8-4"
       inkscape:connector-curvature="0"
       inkscape:transform-center-x="1.8066727"
       inkscape:transform-center-y="-1.1315982"
       inkscape:export-filename="/home/user/Downloads/figures/trianglegraph.png"
       inkscape:export-xdpi="96.279999"
       inkscape:export-ydpi="96.279999" />
    <g
       id="g1909"
       transform="translate(12.825077,-25.314364)"
       inkscape:export-filename="/home/user/Downloads/figures/trianglegraph.png"
       inkscape:export-xdpi="96.279999"
       inkscape:export-ydpi="96.279999">
      <g
         word-spacing="normal"
         letter-spacing="normal"
         font-size-adjust="none"
         font-stretch="normal"
         font-weight="normal"
         font-variant="normal"
         font-style="normal"
         stroke-miterlimit="10.433"
         xml:space="preserve"
         transform="matrix(0.3,0,0,-0.3,-52.5,222.75)"
         id="content"
         style="font-style:normal;font-variant:normal;font-weight:normal;font-stretch:normal;letter-spacing:normal;word-spacing:normal;text-anchor:start;fill:none;fill-opacity:1;fill-rule:evenodd;stroke:#000000;stroke-linecap:butt;stroke-linejoin:miter;stroke-miterlimit:10.43299961;stroke-dasharray:none;stroke-dashoffset:0;stroke-opacity:1"><path
           id="path1906"
           d="m 464.44,411.93 -0.19,-0.3 -0.18,-0.29 -0.19,-0.28 -0.19,-0.26 -0.18,-0.25 -0.19,-0.23 -0.19,-0.22 -0.18,-0.21 -0.19,-0.2 -0.19,-0.18 -0.18,-0.17 -0.19,-0.16 -0.19,-0.15 -0.18,-0.14 -0.19,-0.13 -0.19,-0.12 -0.19,-0.11 -0.19,-0.1 -0.19,-0.09 -0.19,-0.09 -0.19,-0.07 -0.2,-0.07 -0.19,-0.07 -0.2,-0.05 -0.19,-0.05 -0.2,-0.04 -0.2,-0.04 -0.19,-0.03 -0.41,-0.05 -0.4,-0.03 c -0.61,-0.05 -1.05,-0.05 -1.05,-1 0,-0.3 0.25,-0.55 0.64,-0.55 1.34,0 2.89,0.16 4.28,0.16 1.64,0 3.39,-0.16 4.99,-0.16 0.29,0 0.95,0 0.95,0.95 0,0.55 -0.45,0.6 -0.8,0.6 -1.15,0.09 -2.34,0.5 -2.34,1.73 0,0.61 0.3,1.16 0.69,1.84 l 3.79,6.39 h 12.5 l -0.14,1.54 h -11.42 l 9.83,16.45 1.59,-16.45 0.14,-1.54 c 0.11,-1.04 0.8,-7.82 0.8,-8.32 0,-1.5 -2.59,-1.64 -3.58,-1.64 -0.7,0 -1.2,0 -1.2,-1 0,-0.55 0.59,-0.55 0.7,-0.55 2.03,0 4.19,0.16 6.22,0.16 1.25,0 4.39,-0.16 5.64,-0.16 0.3,0 0.89,0 0.89,1 0,0.55 -0.5,0.55 -1.14,0.55 -3.09,0 -3.09,0.34 -3.25,1.79 l -3.03,31.13 c -0.11,1 -0.11,1.2 -0.95,1.2 -0.8,0 -0.99,-0.34 -1.3,-0.84 z"
           inkscape:connector-curvature="0"
           style="fill:#000000;stroke-width:0" /></g>
    </g>
    <g
       id="g1932"
       transform="translate(-39.975488,47.11486)"
       inkscape:export-filename="/home/user/Downloads/figures/trianglegraph.png"
       inkscape:export-xdpi="96.279999"
       inkscape:export-ydpi="96.279999">
      <g
         word-spacing="normal"
         letter-spacing="normal"
         font-size-adjust="none"
         font-stretch="normal"
         font-weight="normal"
         font-variant="normal"
         font-style="normal"
         stroke-miterlimit="10.433"
         xml:space="preserve"
         transform="matrix(0.3,0,0,-0.3,-52.5,222.75)"
         id="g1930"
         style="font-style:normal;font-variant:normal;font-weight:normal;font-stretch:normal;letter-spacing:normal;word-spacing:normal;text-anchor:start;fill:none;fill-opacity:1;fill-rule:evenodd;stroke:#000000;stroke-linecap:butt;stroke-linejoin:miter;stroke-miterlimit:10.43299961;stroke-dasharray:none;stroke-dashoffset:0;stroke-opacity:1"><path
           id="path1928"
           d="m 463.49,410.09 -0.05,-0.18 -0.04,-0.17 -0.05,-0.16 -0.04,-0.15 -0.04,-0.15 -0.05,-0.13 -0.05,-0.13 -0.05,-0.12 -0.05,-0.11 -0.06,-0.11 -0.07,-0.1 -0.07,-0.09 -0.07,-0.09 -0.09,-0.07 -0.09,-0.08 -0.11,-0.06 -0.11,-0.07 -0.13,-0.05 -0.13,-0.05 -0.15,-0.05 -0.16,-0.04 -0.09,-0.02 -0.09,-0.01 -0.09,-0.02 -0.1,-0.02 -0.1,-0.01 -0.1,-0.01 -0.11,-0.01 -0.12,-0.02 -0.11,-0.01 -0.13,-0.01 h -0.12 l -0.13,-0.01 -0.14,-0.01 h -0.14 l -0.14,-0.01 h -0.15 l -0.16,-0.01 h -0.16 -0.16 -0.17 -0.18 -0.18 c -0.85,0 -1.35,0 -1.35,-1 0,-0.55 0.46,-0.55 1.35,-0.55 h 17.78 c 7.87,0 13.75,5.87 13.75,10.76 0,3.58 -2.89,6.47 -7.72,7.02 5.19,0.95 10.42,4.64 10.42,9.38 0,3.68 -3.3,6.87 -9.28,6.87 l -0.69,-1.55 c 4.38,0 5.42,-2.93 5.42,-5.12 0,-4.39 -4.28,-9.13 -10.35,-9.13 h -7.27 l -0.3,-1.09 h 9.41 c 4.78,0 5.73,-3.69 5.73,-5.83 0,-4.94 -4.43,-9.76 -10.31,-9.76 h -6.78 c -0.69,0 -0.8,0 -1.09,0.04 -0.5,0.05 -0.64,0.1 -0.64,0.5 0,0.14 0,0.25 0.25,1.14 l 3.43,13.91 0.3,1.09 3.08,12.36 c 0.45,1.74 0.54,1.89 2.7,1.89 h 6.42 l 0.69,1.55 h -16.73 c -0.94,0 -1.44,0 -1.44,-1 0,-0.55 0.44,-0.55 1.39,-0.55 0.09,0 1.05,0 1.89,-0.09 0.89,-0.11 1.34,-0.16 1.34,-0.8 0,-0.2 -0.04,-0.36 -0.2,-0.95 z"
           inkscape:connector-curvature="0"
           style="fill:#000000;stroke-width:0" /></g>
    </g>
    <g
       id="g1958"
       transform="translate(64.30125,45.370969)"
       inkscape:export-filename="/home/user/Downloads/figures/trianglegraph.png"
       inkscape:export-xdpi="96.279999"
       inkscape:export-ydpi="96.279999">
      <g
         word-spacing="normal"
         letter-spacing="normal"
         font-size-adjust="none"
         font-stretch="normal"
         font-weight="normal"
         font-variant="normal"
         font-style="normal"
         stroke-miterlimit="10.433"
         xml:space="preserve"
         transform="matrix(0.3,0,0,-0.3,-52.122024,223.12798)"
         id="g1956"
         style="font-style:normal;font-variant:normal;font-weight:normal;font-stretch:normal;letter-spacing:normal;word-spacing:normal;text-anchor:start;fill:none;fill-opacity:1;fill-rule:evenodd;stroke:#000000;stroke-linecap:butt;stroke-linejoin:miter;stroke-miterlimit:10.43299961;stroke-dasharray:none;stroke-dashoffset:0;stroke-opacity:1"><path
           id="path1954"
           d="m 493.25306,437.11413 v 0.02 0.02 0.01 l -0.01,0.02 v 0.02 0.02 l -0.01,0.02 v 0.02 l -0.01,0.02 -0.01,0.02 -0.01,0.02 v 0.02 l -0.02,0.02 -0.01,0.02 -0.01,0.02 -0.01,0.02 -0.02,0.02 -0.02,0.02 -0.02,0.02 -0.02,0.02 -0.02,0.01 -0.02,0.02 -0.03,0.01 -0.02,0.02 -0.03,0.01 -0.01,0.01 h -0.02 l -0.01,0.01 h -0.02 l -0.02,0.01 h -0.01 -0.02 l -0.02,0.01 h -0.02 -0.02 -0.02 -0.02 -0.02 -0.02 c -0.14,0 -0.2,-0.04 -0.75,-0.59 l -3.48,-3.84 c -0.44,0.7 -2.74,4.43 -8.27,4.43 -11.11,0 -22.33,-11.01 -22.33,-22.56 0,-8.23 5.89,-13.65 13.52,-13.65 4.33,0 8.11,1.98 10.75,4.28 4.64,4.09 5.48,8.62 5.48,8.76 0,0.5 -0.5,0.5 -0.59,0.5 -0.3,0 -0.55,-0.09 -0.66,-0.5 -0.43,-1.44 -1.59,-4.98 -5.03,-7.87 -3.43,-2.78 -6.58,-3.63 -9.15,-3.63 -4.49,0 -9.77,2.6 -9.77,10.36 0,2.85 1.05,10.91 6.02,16.74 3.04,3.54 7.73,6.03 12.15,6.03 5.1,0 8.03,-3.83 8.03,-9.61 0,-2 -0.15,-2.05 -0.15,-2.55 0,-0.5 0.54,-0.5 0.75,-0.5 0.64,0 0.64,0.11 0.89,1 z"
           inkscape:connector-curvature="0"
           style="fill:#000000;stroke-width:0" /></g>
    </g>
    <g
       id="g7689"
       transform="translate(-21.168191,75.217265)"
       inkscape:export-filename="/home/user/Downloads/figures/trianglegraph.png"
       inkscape:export-xdpi="96.279999"
       inkscape:export-ydpi="96.279999">
      <g
         word-spacing="normal"
         letter-spacing="normal"
         font-size-adjust="none"
         font-stretch="normal"
         font-weight="normal"
         font-variant="normal"
         font-style="normal"
         stroke-miterlimit="10.433"
         xml:space="preserve"
         transform="matrix(0.3,0,0,-0.3,-52.5,222.75)"
         id="g7687"
         style="font-style:normal;font-variant:normal;font-weight:normal;font-stretch:normal;letter-spacing:normal;word-spacing:normal;text-anchor:start;fill:none;fill-opacity:1;fill-rule:evenodd;stroke:#000000;stroke-linecap:butt;stroke-linejoin:miter;stroke-miterlimit:10.43299961;stroke-dasharray:none;stroke-dashoffset:0;stroke-opacity:1"><path
           id="path7661"
           d="m 474.04,422.25 v 0 0 0 0 0.01 0 0 0.01 h 0.01 v 0.02 l 0.01,0.01 v 0.01 l 0.01,0.01 v 0.02 l 0.01,0.02 0.01,0.01 0.01,0.02 v 0.02 l 0.01,0.02 0.01,0.02 0.01,0.02 0.01,0.02 0.01,0.04 0.02,0.05 v 0.02 l 0.01,0.02 0.01,0.03 v 0.02 l 0.01,0.02 v 0.02 0.02 l 0.01,0.02 v 0.02 0.02 c 0,0.38 -0.33,0.69 -0.71,0.69 -0.39,0 -0.59,-0.3 -0.75,-0.61 l -2.51,-5.23 -0.67,-1.41 -4.02,-8.27 -4,8.27 h 8.02 l 0.67,1.41 h -9.36 l -2.55,5.28 c -0.14,0.29 -0.33,0.56 -0.72,0.56 -0.37,0 -0.7,-0.31 -0.7,-0.69 0,-0.17 0.08,-0.33 0.16,-0.47 l 7.76,-16.09 c 0.16,-0.31 0.33,-0.58 0.72,-0.58 0.41,0 0.58,0.27 0.74,0.58 z"
           inkscape:connector-curvature="0"
           style="fill:#000000;stroke-width:0" /><path
           id="path7663"
           d="m 487.64,413.28 0.11,-0.22 0.12,-0.22 0.12,-0.24 0.13,-0.24 0.13,-0.25 0.13,-0.25 0.27,-0.53 0.27,-0.53 0.27,-0.53 0.26,-0.53 0.13,-0.26 0.13,-0.25 0.13,-0.25 0.12,-0.24 0.12,-0.24 0.11,-0.22 0.11,-0.22 0.1,-0.2 0.1,-0.2 0.09,-0.18 0.09,-0.16 0.08,-0.16 0.07,-0.13 0.06,-0.12 0.06,-0.1 0.05,-0.08 0.01,-0.04 0.02,-0.03 0.02,-0.02 0.01,-0.02 c 0.22,-0.3 0.55,-0.45 0.56,-0.47 0.42,-0.23 0.5,-0.23 1,-0.23 h 0.63 c 0.45,0 0.75,0 0.75,0.36 0,0.14 -0.08,0.25 -0.18,0.33 -0.31,0.23 -0.5,0.64 -0.73,1.06 L 485.82,422 c -0.46,0.92 -1.25,1.48 -3.64,1.48 -0.51,0 -0.92,0 -0.92,-0.44 0,-0.36 0.3,-0.37 0.63,-0.4 1.04,-0.13 1.54,-1.07 1.92,-1.77 l 1.22,-2.42 c 0.47,-0.92 1.67,-3.2 2.11,-4.16 l -7.97,-6.47 c -0.17,-0.15 -0.56,-0.54 -0.56,-1 0,-0.53 0.42,-0.95 0.93,-0.95 0.46,0 0.71,0.28 0.92,0.49 z"
           inkscape:connector-curvature="0"
           style="fill:#000000;stroke-width:0" /><path
           id="path7665"
           d="m 525.21,411.73 h 0.04 0.04 0.04 0.04 0.05 0.04 l 0.05,0.01 h 0.04 l 0.05,0.01 h 0.04 l 0.05,0.01 0.04,0.01 0.04,0.01 0.05,0.01 0.04,0.01 0.04,0.02 0.04,0.02 0.04,0.02 0.04,0.02 0.03,0.02 0.04,0.03 0.03,0.03 0.03,0.03 0.01,0.02 0.02,0.02 0.01,0.02 0.01,0.02 0.01,0.02 0.01,0.02 0.01,0.02 0.01,0.02 0.01,0.03 0.01,0.02 0.01,0.03 v 0.02 l 0.01,0.03 v 0.03 0.03 l 0.01,0.03 v 0.03 0.03 c 0,0.69 -0.67,0.69 -1.08,0.69 H 512.2 c 0.29,3.56 3.62,6.66 8.1,6.66 h 4.91 c 0.41,0 1.08,0 1.08,0.7 0,0.69 -0.67,0.69 -1.08,0.69 h -5 c -5.01,0 -9.47,-3.71 -9.47,-8.74 0,-5.03 4.46,-8.75 9.47,-8.75 h 5 c 0.41,0 1.08,0 1.08,0.71 0,0.68 -0.67,0.68 -1.08,0.68 h -4.91 c -4.48,0 -7.81,3.1 -8.1,6.66 z"
           inkscape:connector-curvature="0"
           style="fill:#000000;stroke-width:0" /><path
           id="path7667"
           d="m 552.66,423.39 -0.01,0.04 -0.02,0.03 -0.02,0.04 -0.01,0.04 -0.02,0.03 -0.02,0.03 -0.01,0.04 -0.02,0.03 -0.01,0.03 -0.02,0.03 -0.02,0.02 -0.02,0.03 -0.02,0.03 -0.02,0.02 -0.02,0.02 -0.02,0.02 -0.02,0.02 -0.03,0.02 -0.02,0.02 -0.03,0.02 -0.03,0.01 -0.03,0.02 -0.03,0.01 -0.03,0.01 -0.04,0.01 -0.04,0.01 -0.04,0.01 H 552 l -0.04,0.01 h -0.05 -0.05 -0.06 c -0.56,0 -0.67,-0.23 -0.84,-0.65 l -5.92,-14.63 c -0.61,-1.44 -2.22,-1.47 -2.8,-1.47 v -1.09 c 1.03,0.08 2.25,0.09 2.63,0.09 0.79,0 2.36,-0.04 3.18,-0.09 v 1.09 c -1.09,0 -1.92,0.42 -1.92,1.13 0,0.04 0,0.22 0.13,0.51 l 4.73,11.6 4.99,-12.28 c 0.01,-0.08 0.09,-0.29 0.09,-0.36 0,-0.6 -1.5,-0.6 -2.17,-0.6 v -1.09 c 0.92,0.03 2.84,0.09 4.01,0.09 0.33,0 2.18,-0.01 3.47,-0.09 v 1.09 h -0.5 c -1.33,0 -1.75,0.13 -2.01,0.8 z"
           inkscape:connector-curvature="0"
           style="fill:#000000;stroke-width:0" /><path
           id="path7669"
           d="m 587.79,422.25 v 0 0 0 0 l 0.01,0.01 v 0 0 0.01 0 l 0.01,0.02 v 0.01 l 0.01,0.01 0.01,0.01 v 0.02 l 0.01,0.02 0.01,0.01 0.01,0.02 v 0.02 l 0.01,0.02 0.01,0.02 0.01,0.02 0.01,0.02 0.01,0.04 0.02,0.05 v 0.02 l 0.01,0.02 v 0.03 l 0.01,0.02 v 0.02 l 0.01,0.02 v 0.02 0.02 0.02 l 0.01,0.02 c 0,0.38 -0.33,0.69 -0.71,0.69 -0.39,0 -0.59,-0.3 -0.75,-0.61 l -2.51,-5.23 -0.68,-1.41 -4.01,-8.27 -4,8.27 h 8.01 l 0.68,1.41 h -9.36 l -2.55,5.28 c -0.14,0.29 -0.33,0.56 -0.72,0.56 -0.37,0 -0.7,-0.31 -0.7,-0.69 0,-0.17 0.08,-0.33 0.15,-0.47 l 7.77,-16.09 c 0.16,-0.31 0.33,-0.58 0.72,-0.58 0.41,0 0.58,0.27 0.73,0.58 z"
           inkscape:connector-curvature="0"
           style="fill:#000000;stroke-width:0" /><path
           id="path7671"
           d="m 603.71,414.28 0.01,0.05 0.01,0.05 0.02,0.05 0.01,0.06 0.01,0.05 0.02,0.06 0.03,0.12 0.03,0.12 0.03,0.13 0.03,0.12 0.03,0.12 0.02,0.05 0.01,0.06 0.01,0.05 0.02,0.06 0.01,0.05 0.01,0.05 0.01,0.04 0.01,0.05 0.01,0.04 0.01,0.03 0.01,0.04 v 0.03 l 0.01,0.02 v 0.03 0.02 0 0.01 c 0,0.42 -0.31,0.87 -0.92,0.87 -0.44,0 -1.05,-0.29 -1.23,-1 -0.49,0.65 -1.43,1.5 -3,1.5 v -0.85 c 1.12,0 2.2,-0.68 2.59,-2.16 l -1.14,-4.69 c -0.11,-0.37 -0.11,-0.42 -0.55,-0.92 -0.92,-1.05 -2.22,-1.81 -3.47,-1.81 -0.87,0 -2.18,0.47 -2.18,2.53 0,1.15 0.59,3.76 1.47,5.06 0.96,1.38 2.23,1.99 3.28,1.99 v 0.85 c -3.5,0 -7,-3.42 -7,-6.95 0,-2.55 1.87,-4.34 4.35,-4.34 2.05,0 3.65,1.45 3.94,1.75 0.46,-1.22 1.83,-1.75 2.94,-1.75 1,0 1.67,0.58 2.2,1.4 0.64,0.97 0.99,2.29 0.99,2.47 0,0.35 -0.42,0.35 -0.52,0.35 -0.45,0 -0.47,-0.16 -0.59,-0.55 -0.46,-1.84 -1.09,-2.81 -1.97,-2.81 -0.7,0 -1,0.54 -1,1.31 0,0.37 0.25,1.33 0.41,2 z"
           inkscape:connector-curvature="0"
           style="fill:#000000;stroke-width:0" /><path
           id="path7673"
           d="m 637.28,411.73 h 0.04 0.04 0.05 0.04 0.04 0.05 l 0.04,0.01 h 0.04 l 0.05,0.01 h 0.04 l 0.05,0.01 0.04,0.01 0.05,0.01 0.04,0.01 0.04,0.01 0.05,0.02 0.04,0.02 0.04,0.02 0.03,0.02 0.04,0.02 0.03,0.03 0.03,0.03 0.03,0.03 0.02,0.02 0.01,0.02 0.01,0.02 0.02,0.02 0.01,0.02 0.01,0.02 0.01,0.02 0.01,0.02 0.01,0.03 v 0.02 l 0.01,0.03 0.01,0.02 v 0.03 l 0.01,0.03 v 0.03 0.03 0.03 0.03 c 0,0.69 -0.67,0.69 -1.08,0.69 h -13.01 c 0.3,3.56 3.63,6.66 8.11,6.66 h 4.9 c 0.41,0 1.08,0 1.08,0.7 0,0.69 -0.67,0.69 -1.08,0.69 h -5 c -5.01,0 -9.46,-3.71 -9.46,-8.74 0,-5.03 4.45,-8.75 9.46,-8.75 h 5 c 0.41,0 1.08,0 1.08,0.71 0,0.68 -0.67,0.68 -1.08,0.68 h -4.9 c -4.48,0 -7.81,3.1 -8.11,6.66 z"
           inkscape:connector-curvature="0"
           style="fill:#000000;stroke-width:0" /><path
           id="path7675"
           d="m 669.59,415.04 h 0.04 0.04 0.04 0.04 0.04 0.04 l 0.03,0.01 h 0.04 0.03 0.03 l 0.07,0.01 h 0.06 l 0.06,0.01 0.03,0.01 0.03,0.01 0.03,0.01 h 0.03 l 0.03,0.01 0.03,0.01 0.03,0.02 0.03,0.01 0.03,0.01 0.03,0.02 0.03,0.01 0.03,0.02 0.03,0.02 0.03,0.02 0.04,0.02 0.03,0.02 c 0.15,0.13 0.4,0.47 0.4,0.85 0,0.79 -0.75,0.79 -1.14,0.79 h -7.31 c -4.25,0 -7.56,-3.76 -7.56,-6.78 0,-2.58 2.17,-4.23 4.9,-4.23 l 0.05,0.86 c -1.13,0 -2.91,0.47 -2.91,2.76 0,0.77 0.32,5.5 5.13,5.5 1.87,0 3.02,-0.7 3.02,-2.42 0,-2.53 -1.9,-5.84 -5.24,-5.84 v 0 l -0.05,-0.86 c 3.57,0 7.38,2.79 7.38,6.51 0,0.99 -0.28,1.86 -0.8,2.61 z"
           inkscape:connector-curvature="0"
           style="fill:#000000;stroke-width:0" /><path
           id="path7677"
           d="m 684.53,424.28 h 0.01 v 0 0.01 0 0.01 0 0.01 h 0.01 v 0.01 0 l 0.01,0.01 v 0.01 0 l 0.01,0.01 v 0.01 0.01 l 0.01,0.01 v 0 0.01 l 0.01,0.01 v 0.01 0.01 l 0.01,0.01 v 0.01 0.01 l 0.01,0.01 v 0.01 0.01 0.01 0.01 0.02 0.01 c 0,0.11 -0.04,0.36 -0.42,0.36 -0.5,0 -6.91,-3.99 -6.91,-12.46 0,-8.45 6.41,-12.47 6.91,-12.47 0.38,0 0.42,0.25 0.42,0.36 0,0.18 -0.11,0.25 -0.2,0.32 -4.41,3.51 -5.2,8.57 -5.2,11.79 0,6.1 2.81,10.11 5.32,11.85 z"
           inkscape:connector-curvature="0"
           style="fill:#000000;stroke-width:0" /><path
           id="path7679"
           d="m 705.1,423.36 -0.01,0.04 -0.01,0.05 -0.01,0.04 -0.01,0.05 -0.01,0.04 -0.01,0.04 -0.01,0.03 -0.01,0.04 -0.01,0.03 -0.02,0.03 -0.01,0.03 -0.02,0.03 -0.01,0.02 -0.02,0.03 -0.02,0.02 -0.02,0.02 -0.02,0.02 -0.02,0.01 -0.02,0.02 -0.03,0.02 -0.03,0.01 -0.02,0.01 -0.03,0.01 -0.04,0.01 -0.03,0.01 -0.04,0.01 h -0.04 l -0.04,0.01 h -0.04 -0.04 -0.05 -0.05 c -0.6,0 -0.75,-0.2 -1,-0.58 l -9.77,-14.15 c -1.03,-1.52 -1.9,-1.91 -3.53,-1.99 -0.47,-0.03 -0.47,-0.67 -0.47,-0.7 0,-0.34 0.3,-0.42 0.39,-0.42 0.36,0 0.78,0.08 1.13,0.08 0.42,0 0.84,0.01 1.26,0.01 0.49,0 0.92,-0.01 1.38,-0.01 0.45,0 0.97,-0.08 1.42,-0.08 0.17,0 0.59,0 0.59,0.7 0,0.39 -0.37,0.42 -0.47,0.42 -0.2,0 -1.17,0.05 -1.17,0.64 0,0.3 0.3,0.72 0.47,0.97 l 1.83,2.68 c 0.12,0.15 0.14,0.17 0.61,0.17 h 7.56 l -0.2,1.12 h -7.08 l 5.56,8.06 1.52,-8.06 0.2,-1.12 c 0.05,-0.3 0.07,-0.42 0.14,-0.72 0.08,-0.45 0.58,-2.94 0.58,-3.19 0,-0.55 -1.58,-0.55 -1.7,-0.55 -0.38,0 -0.77,0 -0.77,-0.7 0,-0.25 0.17,-0.42 0.45,-0.42 0.52,0 1.12,0.08 1.66,0.08 0.61,0 1.17,0.01 1.78,0.01 0.52,0 1.06,-0.01 1.6,-0.01 0.5,0 1.06,-0.08 1.56,-0.08 0.42,0 0.59,0.3 0.59,0.7 0,0.42 -0.39,0.42 -0.73,0.42 -1.66,0 -1.67,0.18 -1.78,0.72 z"
           inkscape:connector-curvature="0"
           style="fill:#000000;stroke-width:0" /><path
           id="path7681"
           d="m 722.52,412.43 v 0.4 l -0.02,0.38 -0.02,0.38 -0.03,0.37 -0.09,0.73 -0.12,0.7 -0.14,0.68 -0.17,0.65 -0.2,0.62 -0.22,0.6 -0.23,0.57 -0.26,0.55 -0.27,0.52 -0.28,0.5 -0.29,0.47 -0.3,0.45 -0.31,0.43 -0.31,0.39 -0.31,0.38 -0.31,0.35 -0.31,0.32 -0.3,0.3 -0.3,0.28 -0.28,0.25 -0.27,0.22 -0.26,0.21 -0.25,0.18 -0.22,0.15 -0.2,0.13 -0.18,0.11 -0.16,0.08 -0.12,0.06 -0.1,0.04 -0.06,0.01 c -0.41,0 -0.41,-0.3 -0.41,-0.36 0,-0.02 0,-0.17 0.16,-0.32 3.73,-2.96 5.23,-7.29 5.23,-11.78 0,-2.25 -0.42,-4.59 -1.28,-6.64 -1.18,-2.83 -2.76,-4.2 -3.98,-5.2 -0.08,-0.05 -0.13,-0.17 -0.13,-0.27 0,-0.04 0,-0.36 0.41,-0.36 0.5,0 6.89,4 6.89,12.47 z"
           inkscape:connector-curvature="0"
           style="fill:#000000;stroke-width:0" /><path
           id="path7683"
           d="m 743.19,415.42 v 0.08 l -0.01,0.07 -0.01,0.08 -0.01,0.08 -0.02,0.07 -0.02,0.07 -0.02,0.07 -0.03,0.07 -0.03,0.07 -0.03,0.06 -0.04,0.07 -0.04,0.06 -0.04,0.06 -0.04,0.06 -0.05,0.05 -0.05,0.05 -0.05,0.05 -0.06,0.05 -0.06,0.04 -0.06,0.05 -0.06,0.04 -0.06,0.03 -0.07,0.04 -0.07,0.03 -0.07,0.02 -0.07,0.03 -0.07,0.02 -0.08,0.01 -0.07,0.02 -0.08,0.01 h -0.08 -0.08 c -0.81,0 -1.51,-0.67 -1.51,-1.51 0,-0.85 0.67,-1.52 1.51,-1.52 0.83,0 1.53,0.67 1.53,1.52 z"
           inkscape:connector-curvature="0"
           style="fill:#000000;stroke-width:0" /><path
           id="path7685"
           d="m 743.19,407.71 v 0.08 l -0.01,0.08 -0.01,0.08 -0.01,0.07 -0.02,0.08 -0.02,0.07 -0.02,0.07 -0.03,0.07 -0.03,0.07 -0.03,0.06 -0.04,0.07 -0.04,0.06 -0.04,0.06 -0.04,0.06 -0.05,0.05 -0.05,0.06 -0.05,0.05 -0.06,0.05 -0.06,0.04 -0.06,0.04 -0.06,0.04 -0.06,0.04 -0.07,0.03 -0.07,0.04 -0.07,0.02 -0.07,0.03 -0.07,0.02 -0.08,0.01 -0.07,0.02 -0.08,0.01 h -0.08 l -0.08,0.01 c -0.81,0 -1.51,-0.69 -1.51,-1.54 0,-0.84 0.67,-1.51 1.51,-1.51 0.83,0 1.53,0.67 1.53,1.51 z"
           inkscape:connector-curvature="0"
           style="fill:#000000;stroke-width:0" /></g>
    </g>
    <g
       id="g7805"
       transform="translate(-47.572691,89.112741)"
       inkscape:export-filename="/home/user/Downloads/figures/trianglegraph.png"
       inkscape:export-xdpi="96.279999"
       inkscape:export-ydpi="96.279999">
      <g
         word-spacing="normal"
         letter-spacing="normal"
         font-size-adjust="none"
         font-stretch="normal"
         font-weight="normal"
         font-variant="normal"
         font-style="normal"
         stroke-miterlimit="10.433"
         xml:space="preserve"
         transform="matrix(0.3,0,0,-0.3,-52.5,222.75)"
         id="g7803"
         style="font-style:normal;font-variant:normal;font-weight:normal;font-stretch:normal;letter-spacing:normal;word-spacing:normal;text-anchor:start;fill:none;fill-opacity:1;fill-rule:evenodd;stroke:#000000;stroke-linecap:butt;stroke-linejoin:miter;stroke-miterlimit:10.43299961;stroke-dasharray:none;stroke-dashoffset:0;stroke-opacity:1"><path
           id="path7751"
           d="m 462.44,413.32 0.23,-0.06 0.22,-0.06 0.22,-0.05 0.22,-0.04 0.22,-0.04 0.21,-0.03 0.2,-0.02 0.2,-0.02 0.2,-0.02 0.09,-0.01 h 0.09 l 0.09,-0.01 h 0.09 0.08 l 0.08,-0.01 h 0.08 0.08 0.08 0.07 0.06 0.07 0.06 0.06 c 1.02,0 2.94,0 2.94,1.01 0,0.88 -1.59,0.88 -2.63,0.88 L 465.71,414 c 0.75,0 1,-0.04 1.29,-0.08 v -0.02 c -0.37,-0.06 -0.57,-0.11 -1.46,-0.11 -0.55,0 -0.79,0 -1.22,0.11 0.59,0.1 0.87,0.1 1.39,0.1 l 0.04,0.84 c -0.54,0 -1.51,0 -2.81,-0.38 -0.75,0.61 -0.97,1.33 -0.97,1.96 0,1.04 0.75,2.94 3.22,3.86 0.64,-0.67 1.41,-0.67 2.03,-0.67 0.91,0 2.8,0 2.8,1.01 0,0.83 -1.34,0.88 -2.64,0.88 l 0.01,-0.85 c 0.44,0 0.75,0 1.29,-0.08 v -0.03 c -0.25,-0.04 -0.54,-0.09 -1.43,-0.09 -0.62,0 -0.67,0 -0.95,0.12 0.41,0.08 0.53,0.08 1.09,0.08 l -0.01,0.85 c -0.63,0 -0.97,0 -1.75,-0.1 -0.09,0.3 -0.09,0.31 -0.09,0.77 0,0.51 0.12,0.83 0.12,1 0,0.34 -0.28,0.5 -0.5,0.5 -0.67,0 -0.67,-1.24 -0.67,-1.46 0,-0.51 0.05,-0.62 0.15,-1 -3.54,-0.76 -5.06,-2.89 -5.06,-4.75 0,-1.76 1.38,-2.5 1.74,-2.68 -2.39,-1.22 -3.68,-3.52 -3.68,-5.02 0,-1.14 0.61,-1.73 0.99,-2.14 0.8,-0.76 1.92,-1.12 3.84,-1.69 l 3.52,-1.07 c 0.72,-0.22 1.06,-0.33 1.06,-0.85 0,-0.22 -0.12,-1.08 -1.06,-1.08 -0.44,0 -1.55,0.11 -2.58,0.58 -0.42,0.2 -0.47,0.2 -0.55,0.2 -0.25,0 -0.42,-0.23 -0.42,-0.42 0,-0.37 0.72,-0.62 1.38,-0.83 0.89,-0.29 1.73,-0.37 2.18,-0.37 1.77,0 2.82,1.58 2.82,2.81 0,1.42 -1.11,1.78 -1.64,1.96 -0.38,0.12 -1.6,0.46 -2.14,0.64 -0.13,0.03 -1.13,0.32 -2.15,0.65 -2.12,0.64 -3.59,1.1 -3.59,2.39 0,0.77 0.75,2.69 3.14,3.78 z"
           inkscape:connector-curvature="0"
           style="fill:#000000;stroke-width:0" /><path
           id="path7753"
           d="m 490.19,414.84 -0.01,0.04 -0.01,0.05 -0.01,0.05 -0.01,0.04 -0.01,0.04 -0.01,0.04 -0.01,0.03 -0.01,0.04 -0.01,0.03 -0.02,0.03 -0.01,0.03 -0.02,0.03 -0.01,0.02 -0.02,0.03 -0.02,0.02 -0.02,0.02 -0.02,0.02 -0.02,0.02 -0.02,0.01 -0.03,0.02 -0.03,0.01 -0.03,0.01 -0.03,0.01 -0.03,0.01 -0.03,0.01 -0.04,0.01 h -0.04 l -0.04,0.01 h -0.04 -0.04 -0.05 -0.05 c -0.6,0 -0.75,-0.2 -1,-0.57 l -9.77,-14.16 c -1.03,-1.52 -1.9,-1.91 -3.53,-1.99 -0.47,-0.03 -0.47,-0.67 -0.47,-0.7 0,-0.34 0.3,-0.42 0.39,-0.42 0.36,0 0.78,0.08 1.13,0.08 0.42,0 0.84,0.01 1.26,0.01 0.49,0 0.93,-0.01 1.38,-0.01 0.45,0 0.97,-0.08 1.42,-0.08 0.17,0 0.59,0 0.59,0.7 0,0.39 -0.37,0.42 -0.46,0.42 -0.21,0 -1.18,0.05 -1.18,0.65 0,0.29 0.3,0.71 0.47,0.96 l 1.83,2.68 c 0.12,0.15 0.14,0.17 0.61,0.17 h 7.56 l -0.2,1.12 h -7.08 l 5.56,8.07 1.52,-8.07 0.2,-1.12 c 0.05,-0.3 0.06,-0.42 0.14,-0.72 0.08,-0.45 0.58,-2.94 0.58,-3.19 0,-0.55 -1.58,-0.55 -1.7,-0.55 -0.38,0 -0.77,0 -0.77,-0.7 0,-0.25 0.17,-0.42 0.46,-0.42 0.51,0 1.1,0.08 1.65,0.08 0.61,0 1.17,0.01 1.78,0.01 0.52,0 1.07,-0.01 1.6,-0.01 0.5,0 1.06,-0.08 1.56,-0.08 0.42,0 0.59,0.3 0.59,0.7 0,0.42 -0.39,0.42 -0.73,0.42 -1.66,0 -1.67,0.18 -1.78,0.72 z"
           inkscape:connector-curvature="0"
           style="fill:#000000;stroke-width:0" /><path
           id="path7755"
           d="m 504.59,398.02 v -0.22 l -0.01,-0.21 -0.02,-0.21 -0.02,-0.21 -0.03,-0.19 -0.04,-0.19 -0.04,-0.19 -0.05,-0.18 -0.05,-0.17 -0.05,-0.17 -0.06,-0.17 -0.07,-0.15 -0.06,-0.15 -0.07,-0.15 -0.08,-0.14 -0.07,-0.14 -0.08,-0.13 -0.08,-0.12 -0.08,-0.12 -0.08,-0.11 -0.08,-0.11 -0.08,-0.11 -0.08,-0.09 -0.08,-0.1 -0.08,-0.09 -0.08,-0.08 -0.08,-0.08 -0.07,-0.07 -0.08,-0.07 -0.07,-0.06 -0.06,-0.06 -0.07,-0.05 c -0.25,-0.21 -0.31,-0.25 -0.31,-0.44 0,-0.14 0.23,-0.44 0.45,-0.44 0.33,0 2.67,1.94 2.67,5.05 0,1.7 -0.75,2.83 -1.87,2.83 -0.94,0 -1.52,-0.75 -1.52,-1.53 0,-0.8 0.58,-1.52 1.52,-1.52 0.37,0 0.75,0.09 1.01,0.34 z"
           inkscape:connector-curvature="0"
           style="fill:#000000;stroke-width:0" /><path
           id="path7757"
           d="m 523.66,405.76 0.02,0.05 0.01,0.05 0.01,0.05 0.02,0.06 0.01,0.05 0.02,0.06 0.03,0.12 0.03,0.12 0.03,0.13 0.03,0.12 0.03,0.12 0.01,0.05 0.02,0.06 0.01,0.05 0.01,0.06 0.02,0.05 0.01,0.05 0.01,0.04 0.01,0.05 0.01,0.04 0.01,0.03 v 0.04 l 0.01,0.03 v 0.02 l 0.01,0.03 v 0.02 0 0.01 c 0,0.42 -0.31,0.88 -0.92,0.88 -0.44,0 -1.05,-0.3 -1.24,-1 -0.48,0.64 -1.42,1.5 -3,1.5 v -0.86 c 1.13,0 2.21,-0.68 2.6,-2.16 l -1.14,-4.69 c -0.11,-0.37 -0.11,-0.42 -0.55,-0.92 -0.92,-1.05 -2.22,-1.81 -3.47,-1.81 -0.87,0 -2.19,0.47 -2.19,2.53 0,1.16 0.6,3.76 1.47,5.06 0.97,1.38 2.24,1.99 3.28,1.99 v 0.86 c -3.5,0 -7,-3.43 -7,-6.96 0,-2.54 1.88,-4.34 4.36,-4.34 2.05,0 3.64,1.45 3.94,1.75 0.45,-1.22 1.83,-1.75 2.94,-1.75 1,0 1.67,0.58 2.2,1.4 0.64,0.97 0.98,2.29 0.98,2.47 0,0.35 -0.42,0.35 -0.51,0.35 -0.45,0 -0.47,-0.16 -0.59,-0.55 -0.46,-1.84 -1.1,-2.81 -1.97,-2.81 -0.71,0 -1,0.54 -1,1.31 0,0.38 0.25,1.33 0.4,2 z"
           inkscape:connector-curvature="0"
           style="fill:#000000;stroke-width:0" /><path
           id="path7759"
           d="m 542.1,424.28 h 0.01 v 0 0.01 0 0.01 0 0.01 h 0.01 v 0.01 0 l 0.01,0.01 v 0.01 0 l 0.01,0.01 v 0.01 0.01 l 0.01,0.01 v 0 l 0.01,0.01 v 0.01 0.01 l 0.01,0.01 v 0.01 0.01 0.01 l 0.01,0.01 v 0.01 0.01 0.01 0.01 0.02 0.01 c 0,0.11 -0.04,0.36 -0.42,0.36 -0.5,0 -6.91,-3.99 -6.91,-12.46 0,-8.45 6.41,-12.47 6.91,-12.47 0.38,0 0.42,0.25 0.42,0.36 0,0.18 -0.11,0.25 -0.2,0.32 -4.41,3.51 -5.2,8.57 -5.2,11.79 0,6.1 2.81,10.11 5.32,11.85 z"
           inkscape:connector-curvature="0"
           style="fill:#000000;stroke-width:0" /><path
           id="path7761"
           d="m 556.64,413.28 0.11,-0.22 0.12,-0.22 0.12,-0.24 0.13,-0.24 0.13,-0.25 0.13,-0.25 0.27,-0.53 0.27,-0.53 0.27,-0.53 0.26,-0.53 0.13,-0.26 0.13,-0.25 0.13,-0.25 0.12,-0.24 0.12,-0.24 0.11,-0.22 0.11,-0.22 0.1,-0.2 0.1,-0.2 0.09,-0.18 0.09,-0.16 0.08,-0.16 0.07,-0.13 0.06,-0.12 0.06,-0.1 0.05,-0.08 0.01,-0.04 0.02,-0.03 0.02,-0.02 0.01,-0.02 c 0.22,-0.3 0.54,-0.45 0.56,-0.47 0.42,-0.23 0.5,-0.23 1,-0.23 h 0.63 c 0.45,0 0.75,0 0.75,0.36 0,0.14 -0.08,0.25 -0.18,0.33 -0.31,0.23 -0.5,0.64 -0.73,1.06 L 554.82,422 c -0.47,0.92 -1.25,1.48 -3.64,1.48 -0.51,0 -0.92,0 -0.92,-0.44 0,-0.36 0.3,-0.37 0.63,-0.4 1.04,-0.13 1.54,-1.07 1.92,-1.77 l 1.22,-2.42 c 0.47,-0.92 1.67,-3.2 2.11,-4.16 l -7.97,-6.47 c -0.17,-0.15 -0.57,-0.54 -0.57,-1 0,-0.53 0.43,-0.95 0.94,-0.95 0.46,0 0.71,0.28 0.93,0.49 z"
           inkscape:connector-curvature="0"
           style="fill:#000000;stroke-width:0" /><path
           id="path7763"
           d="m 575.17,412.43 v 0.4 l -0.02,0.38 -0.02,0.38 -0.03,0.37 -0.09,0.73 -0.11,0.7 -0.15,0.68 -0.17,0.65 -0.2,0.62 -0.21,0.6 -0.24,0.57 -0.26,0.55 -0.26,0.52 -0.29,0.5 -0.29,0.47 -0.3,0.45 -0.31,0.43 -0.31,0.39 -0.31,0.38 -0.31,0.35 -0.31,0.32 -0.3,0.3 -0.29,0.28 -0.29,0.25 -0.27,0.22 -0.26,0.21 -0.24,0.18 -0.23,0.15 -0.2,0.13 -0.18,0.11 -0.15,0.08 -0.13,0.06 -0.1,0.04 -0.06,0.01 c -0.4,0 -0.4,-0.3 -0.4,-0.36 0,-0.02 0,-0.17 0.15,-0.32 3.74,-2.96 5.24,-7.29 5.24,-11.78 0,-2.25 -0.43,-4.59 -1.29,-6.64 -1.18,-2.83 -2.76,-4.2 -3.98,-5.2 -0.08,-0.05 -0.12,-0.17 -0.12,-0.27 0,-0.04 0,-0.36 0.4,-0.36 0.5,0 6.89,4 6.89,12.47 z"
           inkscape:connector-curvature="0"
           style="fill:#000000;stroke-width:0" /><path
           id="path7765"
           d="m 611.52,414.7 h 0.03 0.03 0.04 0.04 0.03 0.04 l 0.04,0.01 h 0.04 0.04 l 0.04,0.01 0.04,0.01 0.04,0.01 0.04,0.01 0.04,0.01 0.04,0.01 0.04,0.02 0.04,0.01 0.03,0.02 0.04,0.02 0.03,0.03 0.03,0.02 0.03,0.03 0.01,0.02 0.02,0.01 0.01,0.02 0.01,0.02 0.01,0.02 0.01,0.02 0.01,0.02 0.01,0.02 0.01,0.02 0.01,0.02 0.01,0.03 0.01,0.02 v 0.03 l 0.01,0.02 v 0.03 l 0.01,0.03 v 0.02 0.03 0.04 0.03 c 0,0.7 -0.73,0.7 -1.09,0.7 h -18.56 c -0.38,0 -1.1,0 -1.1,-0.7 0,-0.69 0.65,-0.69 0.97,-0.69 z"
           inkscape:connector-curvature="0"
           style="fill:#000000;stroke-width:0" /><path
           id="path7767"
           d="m 611.39,408.76 h 0.04 0.03 0.04 0.04 0.04 l 0.05,0.01 h 0.04 0.04 l 0.05,0.01 h 0.04 l 0.05,0.01 0.04,0.01 0.05,0.01 0.04,0.01 0.05,0.01 0.04,0.02 0.04,0.02 0.05,0.02 0.03,0.02 0.04,0.02 0.04,0.03 0.03,0.03 0.03,0.03 0.02,0.02 0.01,0.02 0.02,0.02 0.01,0.02 0.01,0.02 0.01,0.02 0.01,0.02 0.01,0.02 0.01,0.03 0.01,0.02 0.01,0.03 0.01,0.03 v 0.02 l 0.01,0.03 v 0.03 0.03 0.03 0.03 c 0,0.69 -0.62,0.69 -0.96,0.69 H 592.7 c -0.34,0 -0.97,0 -0.97,-0.69 0,-0.7 0.72,-0.7 1.1,-0.7 z"
           inkscape:connector-curvature="0"
           style="fill:#000000;stroke-width:0" /><path
           id="path7769"
           d="m 638.88,411.89 0.01,0.02 0.01,0.01 0.01,0.02 0.02,0.01 0.01,0.01 0.01,0.01 0.01,0.01 0.01,0.01 0.01,0.02 0.01,0.01 0.01,0.01 0.01,0.01 0.01,0.01 0.01,0.01 0.01,0.01 0.01,0.01 v 0 l 0.01,0.01 0.02,0.02 0.01,0.01 0.01,0.02 0.01,0.01 0.01,0.02 0.01,0.01 v 0.01 l 0.01,0.01 0.01,0.01 v 0.01 l 0.01,0.01 v 0.01 0.01 l 0.01,0.01 v 0.01 0.01 0.01 0.02 0.02 0.02 c 0,0.08 0,0.12 -0.22,0.37 l -8.84,10.86 h 10.81 c 3.66,0 5.58,-0.53 6.03,-0.62 2.19,-0.6 4.38,-2.05 5.24,-4.21 h 0.84 l -2.37,6.05 h -22.89 c -0.55,0 -0.57,-0.03 -0.69,-0.16 C 627,424.58 627,424.52 627,423.83 l 9.98,-12.26 -9.68,-10.88 c -0.3,-0.3 -0.3,-0.36 -0.3,-0.45 0,-0.35 0.31,-0.35 0.77,-0.35 h 22.89 l 2.37,6.4 h -0.84 c -0.86,-2.27 -3.05,-3.58 -4.81,-4.11 -0.5,-0.14 -2.4,-0.72 -6.26,-0.72 h -11.53 z"
           inkscape:connector-curvature="0"
           style="fill:#000000;stroke-width:0" /><path
           id="path7771"
           d="m 662.8,413.79 0.01,0.01 v 0.02 l 0.01,0.01 v 0.02 l 0.01,0.01 v 0.01 l 0.01,0.02 v 0.01 l 0.01,0.03 0.01,0.02 v 0.02 l 0.01,0.02 v 0.02 l 0.01,0.02 v 0.02 l 0.01,0.02 v 0.01 0.02 l 0.01,0.01 v 0.02 0.01 0.01 l 0.01,0.01 v 0.01 0.01 0.02 0.02 0.02 0.02 0.02 0.01 0.01 c 0,0.42 -0.37,0.42 -0.78,0.41 l -3.06,-0.24 c -0.42,-0.01 -0.47,-0.04 -0.59,-0.14 -0.11,-0.12 -0.18,-0.42 -0.18,-0.58 0,-0.42 0.4,-0.42 0.74,-0.42 0.03,0 0.48,0 0.86,-0.04 0.47,-0.05 0.5,-0.13 0.5,-0.33 0,-0.14 -0.25,-1.13 -0.41,-1.67 l -2.06,-8.35 c -0.13,-0.51 -0.2,-0.92 -0.2,-1.47 0,-2.59 1.84,-4.31 4.23,-4.31 l 0.05,0.86 c -1.06,0 -2.28,0.64 -2.28,2.66 0,0.79 0.18,1.59 0.39,2.43 0.08,0.32 0.5,1.93 0.51,2.08 0.08,0.25 1.83,2.41 3.92,2.41 1.07,0 2.19,-0.64 2.19,-2.53 0,-0.93 -0.47,-3.27 -1.26,-4.71 -0.85,-1.48 -2.25,-2.34 -3.47,-2.34 v 0 l -0.05,-0.86 c 3.61,0 7.03,3.5 7.03,6.95 0,2.47 -1.79,4.35 -4.36,4.35 -1.04,0 -2.26,-0.41 -3.5,-1.35 z"
           inkscape:connector-curvature="0"
           style="fill:#000000;stroke-width:0" /><path
           id="path7773"
           d="m 686.24,413.32 0.23,-0.06 0.22,-0.06 0.22,-0.05 0.22,-0.04 0.22,-0.04 0.21,-0.03 0.21,-0.02 0.19,-0.02 0.2,-0.02 0.09,-0.01 h 0.09 l 0.09,-0.01 h 0.09 0.08 l 0.09,-0.01 h 0.08 0.07 0.08 0.07 0.07 0.06 0.06 0.06 c 1.02,0 2.94,0 2.94,1.01 0,0.88 -1.59,0.88 -2.63,0.88 L 689.51,414 c 0.75,0 1,-0.04 1.29,-0.08 v -0.02 c -0.37,-0.06 -0.57,-0.11 -1.46,-0.11 -0.55,0 -0.79,0 -1.22,0.11 0.59,0.1 0.87,0.1 1.39,0.1 l 0.04,0.84 c -0.54,0 -1.51,0 -2.81,-0.38 -0.75,0.61 -0.97,1.33 -0.97,1.96 0,1.04 0.75,2.94 3.22,3.86 0.64,-0.67 1.41,-0.67 2.03,-0.67 0.91,0 2.8,0 2.8,1.01 0,0.83 -1.34,0.88 -2.64,0.88 l 0.02,-0.85 c 0.43,0 0.75,0 1.28,-0.08 v -0.03 c -0.25,-0.04 -0.53,-0.09 -1.43,-0.09 -0.62,0 -0.67,0 -0.95,0.12 0.41,0.08 0.53,0.08 1.1,0.08 l -0.02,0.85 c -0.63,0 -0.97,0 -1.75,-0.1 -0.09,0.3 -0.09,0.31 -0.09,0.77 0,0.51 0.12,0.83 0.12,1 0,0.34 -0.28,0.5 -0.5,0.5 -0.67,0 -0.67,-1.24 -0.67,-1.46 0,-0.51 0.05,-0.62 0.16,-1 -3.55,-0.76 -5.07,-2.89 -5.07,-4.75 0,-1.76 1.38,-2.5 1.74,-2.68 -2.39,-1.22 -3.67,-3.52 -3.67,-5.02 0,-1.14 0.6,-1.73 0.98,-2.14 0.8,-0.76 1.92,-1.12 3.84,-1.69 l 3.52,-1.07 c 0.72,-0.22 1.06,-0.33 1.06,-0.85 0,-0.22 -0.12,-1.08 -1.06,-1.08 -0.44,0 -1.55,0.11 -2.58,0.58 -0.42,0.2 -0.47,0.2 -0.55,0.2 -0.25,0 -0.42,-0.23 -0.42,-0.42 0,-0.37 0.72,-0.62 1.38,-0.83 0.89,-0.29 1.73,-0.37 2.18,-0.37 1.77,0 2.82,1.58 2.82,2.81 0,1.42 -1.11,1.78 -1.64,1.96 -0.38,0.12 -1.6,0.46 -2.14,0.64 -0.13,0.03 -1.13,0.32 -2.14,0.65 -2.13,0.64 -3.6,1.1 -3.6,2.39 0,0.77 0.75,2.69 3.14,3.78 z"
           inkscape:connector-curvature="0"
           style="fill:#000000;stroke-width:0" /><path
           id="path7775"
           d="m 706.86,414.2 v 0 0.01 0 h 0.01 v 0.01 0 0.01 h 0.01 v 0.01 0.01 0 l 0.01,0.01 v 0.01 0 l 0.01,0.01 v 0.01 l 0.01,0.01 v 0.01 0 l 0.01,0.01 v 0.01 0.01 l 0.01,0.01 v 0.01 0.01 0.01 l 0.01,0.01 v 0.01 0.01 0.02 0.01 0.01 c 0,0.11 -0.04,0.36 -0.42,0.36 -0.5,0 -6.91,-3.99 -6.91,-12.45 0,-8.46 6.41,-12.47 6.91,-12.47 0.38,0 0.42,0.25 0.42,0.36 0,0.17 -0.11,0.25 -0.2,0.31 -4.41,3.51 -5.21,8.58 -5.21,11.8 0,6.09 2.82,10.1 5.33,11.84 z"
           inkscape:connector-curvature="0"
           style="fill:#000000;stroke-width:0" /><path
           id="path7777"
           d="m 727.43,413.28 -0.01,0.05 -0.01,0.04 -0.01,0.05 -0.01,0.04 -0.01,0.04 -0.01,0.04 -0.01,0.03 -0.01,0.04 -0.02,0.03 -0.01,0.03 -0.01,0.03 -0.02,0.03 -0.01,0.02 -0.02,0.03 -0.02,0.02 -0.02,0.02 -0.02,0.02 -0.02,0.02 -0.03,0.01 -0.02,0.02 -0.03,0.01 -0.03,0.01 -0.03,0.01 -0.03,0.01 -0.03,0.01 -0.04,0.01 h -0.04 l -0.04,0.01 h -0.04 -0.05 -0.04 -0.05 c -0.6,0 -0.75,-0.2 -1,-0.57 l -9.77,-14.16 c -1.03,-1.52 -1.91,-1.91 -3.53,-1.98 -0.47,-0.04 -0.47,-0.68 -0.47,-0.71 0,-0.34 0.3,-0.42 0.39,-0.42 0.36,0 0.78,0.08 1.13,0.08 0.42,0 0.84,0.01 1.26,0.01 0.49,0 0.92,-0.01 1.38,-0.01 0.45,0 0.96,-0.08 1.42,-0.08 0.17,0 0.59,0 0.59,0.7 0,0.39 -0.37,0.43 -0.47,0.43 -0.2,0 -1.17,0.04 -1.17,0.64 0,0.29 0.3,0.72 0.47,0.97 l 1.83,2.67 c 0.12,0.15 0.14,0.17 0.61,0.17 h 7.56 l -0.2,1.12 h -7.08 l 5.56,8.07 1.52,-8.07 0.2,-1.12 c 0.05,-0.3 0.06,-0.42 0.14,-0.72 0.08,-0.45 0.58,-2.94 0.58,-3.19 0,-0.54 -1.58,-0.54 -1.7,-0.54 -0.38,0 -0.77,0 -0.77,-0.71 0,-0.25 0.17,-0.42 0.45,-0.42 0.52,0 1.11,0.08 1.66,0.08 0.61,0 1.17,0.01 1.78,0.01 0.52,0 1.06,-0.01 1.6,-0.01 0.5,0 1.06,-0.08 1.56,-0.08 0.42,0 0.59,0.3 0.59,0.7 0,0.43 -0.39,0.43 -0.73,0.43 -1.66,0 -1.67,0.17 -1.79,0.71 z"
           inkscape:connector-curvature="0"
           style="fill:#000000;stroke-width:0" /><path
           id="path7779"
           d="m 741.83,396.46 v -0.22 l -0.01,-0.21 -0.02,-0.21 -0.02,-0.2 -0.03,-0.2 -0.04,-0.19 -0.04,-0.19 -0.05,-0.18 -0.05,-0.17 -0.06,-0.17 -0.06,-0.16 -0.06,-0.16 -0.07,-0.15 -0.07,-0.15 -0.07,-0.14 -0.07,-0.14 -0.08,-0.12 -0.08,-0.13 -0.08,-0.12 -0.08,-0.11 -0.08,-0.11 -0.08,-0.1 -0.08,-0.1 -0.08,-0.1 -0.08,-0.08 -0.08,-0.09 -0.08,-0.08 -0.07,-0.07 -0.08,-0.07 -0.07,-0.06 -0.07,-0.06 -0.06,-0.05 c -0.25,-0.21 -0.31,-0.25 -0.31,-0.44 0,-0.14 0.23,-0.44 0.45,-0.44 0.33,0 2.67,1.94 2.67,5.05 0,1.7 -0.75,2.83 -1.87,2.83 -0.94,0 -1.52,-0.75 -1.52,-1.53 0,-0.8 0.58,-1.52 1.52,-1.52 0.37,0 0.75,0.09 1.01,0.34 z"
           inkscape:connector-curvature="0"
           style="fill:#000000;stroke-width:0" /><path
           id="path7781"
           d="m 752.68,398.18 -0.01,-0.06 -0.02,-0.07 -0.02,-0.06 -0.01,-0.06 -0.02,-0.06 -0.02,-0.05 -0.02,-0.05 -0.02,-0.05 -0.02,-0.04 -0.03,-0.05 -0.03,-0.04 -0.03,-0.03 -0.03,-0.04 -0.04,-0.03 -0.04,-0.03 -0.05,-0.03 -0.06,-0.02 -0.05,-0.02 -0.07,-0.03 -0.07,-0.01 -0.03,-0.01 -0.04,-0.01 -0.04,-0.01 -0.05,-0.01 h -0.04 l -0.05,-0.01 -0.05,-0.01 h -0.04 l -0.06,-0.01 h -0.05 l -0.06,-0.01 h -0.06 l -0.06,-0.01 h -0.06 -0.06 -0.07 l -0.07,-0.01 h -0.07 -0.08 -0.07 -0.08 -0.08 -0.09 -0.09 c -0.65,0 -1.04,0 -1.04,-0.71 0,-0.42 0.39,-0.42 0.82,-0.42 h 10.83 c 4.49,0 8.13,2.8 8.13,5.28 0,1.55 -1.46,3.22 -4.84,3.64 2.46,0.32 5.98,1.97 5.98,4.46 0,2.09 -2.47,3.64 -5.86,3.64 l -0.44,-1.13 c 2.47,0 3.64,-1.26 3.64,-2.59 0,-2.02 -2.7,-4.03 -6.19,-4.03 h -4.7 l -0.23,-0.85 h 6.08 c 2.54,0 3.81,-1.47 3.81,-3.04 0,-2.41 -2.96,-4.25 -6.05,-4.25 h -4.81 c -0.19,0 -0.55,0 -0.8,0.04 0.03,0.21 0.03,0.25 0.08,0.46 l 1.69,6.79 0.23,0.85 1.44,5.81 c 0.2,0.76 0.2,0.81 1.25,0.81 h 4.56 l 0.44,1.13 h -10.2 c -0.47,0 -0.88,0 -0.88,-0.71 0,-0.42 0.33,-0.42 0.92,-0.42 0.25,0 1.08,0 1.6,-0.14 0,-0.31 0,-0.36 -0.08,-0.62 z"
           inkscape:connector-curvature="0"
           style="fill:#000000;stroke-width:0" /><path
           id="path7783"
           d="m 783.24,402.36 v 0.39 l -0.02,0.38 -0.02,0.38 -0.03,0.38 -0.09,0.72 -0.11,0.7 -0.15,0.68 -0.17,0.65 -0.2,0.62 -0.21,0.6 -0.24,0.57 -0.26,0.55 -0.26,0.53 -0.29,0.49 -0.29,0.48 -0.3,0.44 -0.31,0.43 -0.31,0.4 -0.31,0.37 -0.31,0.35 -0.31,0.32 -0.3,0.3 -0.29,0.28 -0.29,0.25 -0.27,0.23 -0.26,0.2 -0.24,0.18 -0.23,0.15 -0.2,0.13 -0.18,0.11 -0.15,0.08 -0.13,0.06 -0.09,0.04 -0.07,0.01 c -0.4,0 -0.4,-0.3 -0.4,-0.36 0,-0.02 0,-0.17 0.15,-0.31 3.74,-2.97 5.24,-7.3 5.24,-11.78 0,-2.25 -0.43,-4.6 -1.29,-6.65 -1.18,-2.82 -2.76,-4.2 -3.98,-5.2 -0.08,-0.05 -0.12,-0.17 -0.12,-0.26 0,-0.05 0,-0.36 0.4,-0.36 0.5,0 6.89,4 6.89,12.47 z"
           inkscape:connector-curvature="0"
           style="fill:#000000;stroke-width:0" /><path
           id="path7785"
           d="m 793.66,396.46 v -0.22 l -0.01,-0.21 -0.02,-0.21 -0.02,-0.2 -0.03,-0.2 -0.04,-0.19 -0.04,-0.19 -0.05,-0.18 -0.05,-0.17 -0.05,-0.17 -0.06,-0.16 -0.07,-0.16 -0.06,-0.15 -0.07,-0.15 -0.08,-0.14 -0.07,-0.14 -0.08,-0.12 -0.08,-0.13 -0.08,-0.12 -0.08,-0.11 -0.08,-0.11 -0.08,-0.1 -0.08,-0.1 -0.08,-0.1 -0.08,-0.08 -0.08,-0.09 -0.08,-0.08 -0.07,-0.07 -0.08,-0.07 -0.07,-0.06 -0.06,-0.06 -0.07,-0.05 c -0.25,-0.21 -0.31,-0.25 -0.31,-0.44 0,-0.14 0.23,-0.44 0.45,-0.44 0.33,0 2.67,1.94 2.67,5.05 0,1.7 -0.75,2.83 -1.87,2.83 -0.94,0 -1.52,-0.75 -1.52,-1.53 0,-0.8 0.58,-1.52 1.52,-1.52 0.37,0 0.75,0.09 1.01,0.34 z"
           inkscape:connector-curvature="0"
           style="fill:#000000;stroke-width:0" /><path
           id="path7787"
           d="m 809.33,414.2 v 0 0.01 0 0 0.01 h 0.01 v 0.01 0 0.01 l 0.01,0.01 v 0 0.01 l 0.01,0.01 v 0 0.01 l 0.01,0.01 v 0.01 0.01 h 0.01 v 0.01 0.01 l 0.01,0.01 v 0.01 0.01 l 0.01,0.01 v 0.01 0.01 0.01 0.01 l 0.01,0.02 v 0.01 0.01 c 0,0.11 -0.05,0.36 -0.43,0.36 -0.5,0 -6.9,-3.99 -6.9,-12.45 0,-8.46 6.4,-12.47 6.9,-12.47 0.38,0 0.43,0.25 0.43,0.36 0,0.17 -0.11,0.25 -0.21,0.31 -4.4,3.51 -5.2,8.58 -5.2,11.8 0,6.09 2.81,10.1 5.33,11.84 z"
           inkscape:connector-curvature="0"
           style="fill:#000000;stroke-width:0" /><path
           id="path7789"
           d="m 826.17,404.2 0.01,0.05 0.02,0.05 0.01,0.05 0.01,0.06 0.02,0.06 0.01,0.05 0.03,0.12 0.03,0.12 0.04,0.13 0.03,0.12 0.03,0.12 0.01,0.05 0.01,0.06 0.02,0.06 0.01,0.05 0.01,0.05 0.02,0.05 0.01,0.04 0.01,0.05 0.01,0.04 v 0.04 l 0.01,0.03 0.01,0.03 v 0.03 0.02 l 0.01,0.02 v 0.01 0 c 0,0.42 -0.32,0.88 -0.93,0.88 -0.43,0 -1.04,-0.3 -1.23,-1 -0.48,0.64 -1.42,1.5 -3,1.5 v -0.86 c 1.13,0 2.2,-0.67 2.59,-2.16 l -1.14,-4.69 c -0.11,-0.37 -0.11,-0.42 -0.54,-0.92 -0.92,-1.05 -2.22,-1.81 -3.47,-1.81 -0.88,0 -2.19,0.47 -2.19,2.53 0,1.16 0.59,3.77 1.47,5.06 0.97,1.38 2.23,1.99 3.28,1.99 v 0.86 c -3.5,0 -7,-3.43 -7,-6.96 0,-2.54 1.88,-4.34 4.36,-4.34 2.05,0 3.64,1.45 3.94,1.75 0.45,-1.22 1.83,-1.75 2.93,-1.75 1,0 1.68,0.58 2.21,1.41 0.64,0.96 0.98,2.28 0.98,2.46 0,0.35 -0.42,0.35 -0.51,0.35 -0.46,0 -0.47,-0.16 -0.6,-0.55 -0.45,-1.84 -1.09,-2.81 -1.97,-2.81 -0.7,0 -1,0.55 -1,1.31 0,0.38 0.25,1.33 0.41,2 z"
           inkscape:connector-curvature="0"
           style="fill:#000000;stroke-width:0" /><path
           id="path7791"
           d="m 837.82,396.46 -0.01,-0.22 -0.01,-0.21 -0.02,-0.21 -0.02,-0.2 -0.03,-0.2 -0.04,-0.19 -0.04,-0.19 -0.04,-0.18 -0.06,-0.17 -0.05,-0.17 -0.06,-0.16 -0.06,-0.16 -0.07,-0.15 -0.07,-0.15 -0.07,-0.14 -0.08,-0.14 -0.08,-0.12 -0.07,-0.13 -0.08,-0.12 -0.08,-0.11 -0.08,-0.11 -0.09,-0.1 -0.08,-0.1 -0.08,-0.1 -0.08,-0.08 -0.08,-0.09 -0.07,-0.08 -0.08,-0.07 -0.07,-0.07 -0.07,-0.06 -0.07,-0.06 -0.07,-0.05 c -0.25,-0.21 -0.31,-0.25 -0.31,-0.44 0,-0.14 0.23,-0.44 0.45,-0.44 0.33,0 2.68,1.94 2.68,5.05 0,1.7 -0.75,2.83 -1.88,2.83 -0.94,0 -1.52,-0.75 -1.52,-1.53 0,-0.8 0.58,-1.52 1.52,-1.52 0.38,0 0.75,0.09 1.02,0.34 z"
           inkscape:connector-curvature="0"
           style="fill:#000000;stroke-width:0" /><path
           id="path7793"
           d="m 850.34,412.46 0.01,0.02 v 0.02 0.01 l 0.01,0.02 v 0.01 l 0.01,0.01 v 0.02 l 0.01,0.01 v 0.03 l 0.01,0.02 0.01,0.02 v 0.02 l 0.01,0.02 v 0.02 l 0.01,0.02 v 0.02 l 0.01,0.01 v 0.02 0.01 l 0.01,0.01 v 0.02 0.01 0.01 0.01 0.01 l 0.01,0.01 v 0.03 0.02 0.02 0.02 0.01 0.01 c 0,0.42 -0.38,0.42 -0.78,0.41 l -3.07,-0.24 c -0.42,-0.01 -0.46,-0.04 -0.59,-0.14 -0.11,-0.12 -0.17,-0.42 -0.17,-0.58 0,-0.42 0.39,-0.42 0.73,-0.42 0.03,0 0.49,0 0.86,-0.05 0.47,-0.04 0.5,-0.12 0.5,-0.32 0,-0.14 -0.25,-1.13 -0.4,-1.68 l -2.06,-8.34 c -0.13,-0.51 -0.21,-0.92 -0.21,-1.47 0,-2.59 1.84,-4.31 4.24,-4.31 l 0.04,0.86 c -1.06,0 -2.28,0.64 -2.28,2.66 0,0.79 0.19,1.59 0.39,2.43 0.08,0.32 0.5,1.92 0.52,2.08 0.08,0.25 1.83,2.41 3.92,2.41 1.06,0 2.19,-0.64 2.19,-2.53 0,-0.93 -0.47,-3.27 -1.27,-4.71 -0.84,-1.48 -2.25,-2.34 -3.47,-2.34 v 0 l -0.04,-0.86 c 3.6,0 7.03,3.5 7.03,6.95 0,2.47 -1.8,4.35 -4.36,4.35 -1.05,0 -2.27,-0.41 -3.5,-1.35 z"
           inkscape:connector-curvature="0"
           style="fill:#000000;stroke-width:0" /><path
           id="path7795"
           d="m 867.95,402.36 -0.01,0.39 -0.01,0.38 -0.02,0.38 -0.03,0.38 -0.09,0.72 -0.12,0.7 -0.14,0.68 -0.17,0.65 -0.2,0.62 -0.22,0.6 -0.23,0.57 -0.26,0.55 -0.27,0.53 -0.28,0.49 -0.29,0.48 -0.3,0.44 -0.31,0.43 -0.31,0.4 -0.31,0.37 -0.31,0.35 -0.31,0.32 -0.3,0.3 -0.3,0.28 -0.28,0.25 -0.27,0.23 -0.26,0.2 -0.25,0.18 -0.22,0.15 -0.2,0.13 -0.18,0.11 -0.16,0.08 -0.12,0.06 -0.1,0.04 -0.06,0.01 c -0.41,0 -0.41,-0.3 -0.41,-0.36 0,-0.02 0,-0.17 0.16,-0.31 3.73,-2.97 5.23,-7.3 5.23,-11.78 0,-2.25 -0.42,-4.6 -1.28,-6.65 -1.19,-2.82 -2.76,-4.2 -3.98,-5.2 -0.08,-0.05 -0.13,-0.17 -0.13,-0.26 0,-0.05 0,-0.36 0.41,-0.36 0.5,0 6.89,4 6.89,12.47 z"
           inkscape:connector-curvature="0"
           style="fill:#000000;stroke-width:0" /><path
           id="path7797"
           d="m 885.43,424.28 v 0 0 0.01 0 0.01 0 l 0.01,0.01 v 0 0.01 0 l 0.01,0.01 v 0.01 0 l 0.01,0.01 v 0.01 l 0.01,0.01 v 0.01 0 l 0.01,0.01 v 0.01 0.01 l 0.01,0.01 v 0.01 0.01 0.01 l 0.01,0.01 v 0.01 0.01 0.01 0.01 0.02 0.01 c 0,0.11 -0.04,0.36 -0.42,0.36 -0.5,0 -6.9,-3.99 -6.9,-12.46 0,-8.45 6.4,-12.47 6.9,-12.47 0.38,0 0.42,0.25 0.42,0.36 0,0.18 -0.1,0.25 -0.2,0.32 -4.4,3.51 -5.2,8.57 -5.2,11.79 0,6.1 2.81,10.11 5.33,11.85 z"
           inkscape:connector-curvature="0"
           style="fill:#000000;stroke-width:0" /><path
           id="path7799"
           d="m 899.96,413.28 0.11,-0.22 0.12,-0.22 0.12,-0.24 0.13,-0.24 0.13,-0.25 0.13,-0.25 0.27,-0.53 0.27,-0.53 0.27,-0.53 0.26,-0.53 0.13,-0.26 0.13,-0.25 0.13,-0.25 0.12,-0.24 0.12,-0.24 0.11,-0.22 0.11,-0.22 0.1,-0.2 0.1,-0.2 0.09,-0.18 0.09,-0.16 0.08,-0.16 0.07,-0.13 0.06,-0.12 0.06,-0.1 0.05,-0.08 0.01,-0.04 0.02,-0.03 0.02,-0.02 0.01,-0.02 c 0.22,-0.3 0.55,-0.45 0.56,-0.47 0.42,-0.23 0.5,-0.23 1,-0.23 h 0.63 c 0.45,0 0.75,0 0.75,0.36 0,0.14 -0.08,0.25 -0.17,0.33 -0.32,0.23 -0.5,0.64 -0.74,1.06 L 898.15,422 c -0.47,0.92 -1.25,1.48 -3.65,1.48 -0.51,0 -0.92,0 -0.92,-0.44 0,-0.36 0.3,-0.37 0.63,-0.4 1.04,-0.13 1.54,-1.07 1.92,-1.77 l 1.22,-2.42 c 0.47,-0.92 1.67,-3.2 2.11,-4.16 l -7.97,-6.47 c -0.17,-0.15 -0.56,-0.54 -0.56,-1 0,-0.53 0.42,-0.95 0.93,-0.95 0.46,0 0.71,0.28 0.92,0.49 z"
           inkscape:connector-curvature="0"
           style="fill:#000000;stroke-width:0" /><path
           id="path7801"
           d="m 918.49,412.43 v 0.4 l -0.02,0.38 -0.02,0.38 -0.03,0.37 -0.09,0.73 -0.11,0.7 -0.15,0.68 -0.17,0.65 -0.2,0.62 -0.21,0.6 -0.24,0.57 -0.26,0.55 -0.26,0.52 -0.29,0.5 -0.29,0.47 -0.3,0.45 -0.31,0.43 -0.31,0.39 -0.31,0.38 -0.31,0.35 -0.31,0.32 -0.3,0.3 -0.29,0.28 -0.29,0.25 -0.27,0.22 -0.26,0.21 -0.24,0.18 -0.23,0.15 -0.2,0.13 -0.18,0.11 -0.15,0.08 -0.13,0.06 -0.09,0.04 -0.07,0.01 c -0.4,0 -0.4,-0.3 -0.4,-0.36 0,-0.02 0,-0.17 0.15,-0.32 3.74,-2.96 5.24,-7.29 5.24,-11.78 0,-2.25 -0.43,-4.59 -1.29,-6.64 -1.18,-2.83 -2.76,-4.2 -3.98,-5.2 -0.08,-0.05 -0.12,-0.17 -0.12,-0.27 0,-0.04 0,-0.36 0.4,-0.36 0.5,0 6.89,4 6.89,12.47 z"
           inkscape:connector-curvature="0"
           style="fill:#000000;stroke-width:0" /></g>
    </g>
  </g>
</svg>
